G04 #@! TF.GenerationSoftware,KiCad,Pcbnew,7.0.10*
G04 #@! TF.CreationDate,2024-02-05T15:41:23+01:00*
G04 #@! TF.ProjectId,KNX_EnvironmentSensor,4b4e585f-456e-4766-9972-6f6e6d656e74,rev?*
G04 #@! TF.SameCoordinates,Original*
G04 #@! TF.FileFunction,Copper,L2,Bot*
G04 #@! TF.FilePolarity,Positive*
%FSLAX46Y46*%
G04 Gerber Fmt 4.6, Leading zero omitted, Abs format (unit mm)*
G04 Created by KiCad (PCBNEW 7.0.10) date 2024-02-05 15:41:23*
%MOMM*%
%LPD*%
G01*
G04 APERTURE LIST*
G04 Aperture macros list*
%AMRoundRect*
0 Rectangle with rounded corners*
0 $1 Rounding radius*
0 $2 $3 $4 $5 $6 $7 $8 $9 X,Y pos of 4 corners*
0 Add a 4 corners polygon primitive as box body*
4,1,4,$2,$3,$4,$5,$6,$7,$8,$9,$2,$3,0*
0 Add four circle primitives for the rounded corners*
1,1,$1+$1,$2,$3*
1,1,$1+$1,$4,$5*
1,1,$1+$1,$6,$7*
1,1,$1+$1,$8,$9*
0 Add four rect primitives between the rounded corners*
20,1,$1+$1,$2,$3,$4,$5,0*
20,1,$1+$1,$4,$5,$6,$7,0*
20,1,$1+$1,$6,$7,$8,$9,0*
20,1,$1+$1,$8,$9,$2,$3,0*%
G04 Aperture macros list end*
G04 #@! TA.AperFunction,ComponentPad*
%ADD10RoundRect,0.250000X1.550000X-0.750000X1.550000X0.750000X-1.550000X0.750000X-1.550000X-0.750000X0*%
G04 #@! TD*
G04 #@! TA.AperFunction,ComponentPad*
%ADD11O,3.600000X2.000000*%
G04 #@! TD*
G04 #@! TA.AperFunction,SMDPad,CuDef*
%ADD12RoundRect,0.250000X-0.400000X-0.625000X0.400000X-0.625000X0.400000X0.625000X-0.400000X0.625000X0*%
G04 #@! TD*
G04 #@! TA.AperFunction,ComponentPad*
%ADD13R,1.800000X1.800000*%
G04 #@! TD*
G04 #@! TA.AperFunction,ComponentPad*
%ADD14C,1.800000*%
G04 #@! TD*
G04 #@! TA.AperFunction,ComponentPad*
%ADD15R,1.700000X1.700000*%
G04 #@! TD*
G04 #@! TA.AperFunction,ComponentPad*
%ADD16C,1.700000*%
G04 #@! TD*
G04 #@! TA.AperFunction,ComponentPad*
%ADD17C,2.500000*%
G04 #@! TD*
G04 #@! TA.AperFunction,ComponentPad*
%ADD18O,1.700000X1.700000*%
G04 #@! TD*
G04 #@! TA.AperFunction,SMDPad,CuDef*
%ADD19RoundRect,0.250000X-0.650000X0.412500X-0.650000X-0.412500X0.650000X-0.412500X0.650000X0.412500X0*%
G04 #@! TD*
G04 #@! TA.AperFunction,ViaPad*
%ADD20C,0.800000*%
G04 #@! TD*
G04 #@! TA.AperFunction,Conductor*
%ADD21C,0.250000*%
G04 #@! TD*
G04 APERTURE END LIST*
D10*
X130733800Y-125620800D03*
D11*
X130733800Y-120620800D03*
X130733800Y-115620800D03*
X130733800Y-110620800D03*
X130733800Y-105620800D03*
X130733800Y-100620800D03*
D12*
X123291600Y-125632200D03*
X120191600Y-125632200D03*
X123216000Y-115599200D03*
X120116000Y-115599200D03*
X123291600Y-105617000D03*
X120191600Y-105617000D03*
D13*
X132384800Y-87553800D03*
D14*
X132384800Y-85013800D03*
D15*
X72585723Y-86832275D03*
D16*
X72585723Y-84292275D03*
X72585723Y-81752275D03*
X72585723Y-79212275D03*
X72585723Y-76672275D03*
X72585723Y-74132275D03*
X72585723Y-71592275D03*
D17*
X74568000Y-95494000D03*
X74568000Y-101244000D03*
D15*
X79298800Y-130987800D03*
D18*
X79298800Y-128447800D03*
X79298800Y-125907800D03*
X79298800Y-123367800D03*
D17*
X74568000Y-111725000D03*
X74568000Y-117475000D03*
D19*
X75463400Y-123367000D03*
X75463400Y-126492000D03*
D20*
X110388400Y-71196200D03*
X123215400Y-103051600D03*
X123393200Y-122914400D03*
X123291600Y-112729000D03*
X103214403Y-82651600D03*
X113272803Y-82702400D03*
D21*
X120191600Y-125632200D02*
X81563200Y-125632200D01*
X81563200Y-125632200D02*
X79298800Y-123367800D01*
X120191600Y-125632200D02*
X120191600Y-105617000D01*
X123291600Y-125632200D02*
X123291600Y-123016000D01*
X123291600Y-123016000D02*
X123393200Y-122914400D01*
X123291600Y-105617000D02*
X123291600Y-103127800D01*
X123291600Y-103127800D02*
X123215400Y-103051600D01*
X123216000Y-115599200D02*
X123216000Y-112804600D01*
X123216000Y-112804600D02*
X123291600Y-112729000D01*
X123291600Y-105617000D02*
X130730000Y-105617000D01*
X130730000Y-105617000D02*
X130733800Y-105620800D01*
X123216000Y-115599200D02*
X130712200Y-115599200D01*
X130712200Y-115599200D02*
X130733800Y-115620800D01*
X123291600Y-125632200D02*
X130722400Y-125632200D01*
X130722400Y-125632200D02*
X130733800Y-125620800D01*
X99775078Y-79212275D02*
X103214403Y-82651600D01*
X72585723Y-79212275D02*
X99775078Y-79212275D01*
X72585723Y-76672275D02*
X107242678Y-76672275D01*
X107242678Y-76672275D02*
X113272803Y-82702400D01*
X68453000Y-121259600D02*
X68453000Y-78264998D01*
X75463400Y-123367000D02*
X79298000Y-123367000D01*
X79298000Y-123367000D02*
X79298800Y-123367800D01*
X70561200Y-123367800D02*
X70562000Y-123367000D01*
X70561200Y-123367800D02*
X68453000Y-121259600D01*
X70562000Y-123367000D02*
X75463400Y-123367000D01*
X68453000Y-78264998D02*
X72585723Y-74132275D01*
X132680200Y-81330800D02*
X132969000Y-81042000D01*
G04 #@! TA.AperFunction,Conductor*
G36*
X135150677Y-68548729D02*
G01*
X135196736Y-68601267D01*
X135208242Y-68653431D01*
X135208242Y-133149625D01*
X135188557Y-133216664D01*
X135135753Y-133262419D01*
X135084556Y-133273625D01*
X65126956Y-133450797D01*
X65059867Y-133431282D01*
X65013978Y-133378594D01*
X65002642Y-133326797D01*
X65002642Y-126742000D01*
X74063401Y-126742000D01*
X74063401Y-126954486D01*
X74073894Y-127057197D01*
X74129041Y-127223619D01*
X74129043Y-127223624D01*
X74221084Y-127372845D01*
X74345054Y-127496815D01*
X74494275Y-127588856D01*
X74494280Y-127588858D01*
X74660702Y-127644005D01*
X74660709Y-127644006D01*
X74763419Y-127654499D01*
X75213399Y-127654499D01*
X75213400Y-127654498D01*
X75213400Y-126742000D01*
X75713400Y-126742000D01*
X75713400Y-127654499D01*
X76163372Y-127654499D01*
X76163386Y-127654498D01*
X76266097Y-127644005D01*
X76432519Y-127588858D01*
X76432524Y-127588856D01*
X76581745Y-127496815D01*
X76705715Y-127372845D01*
X76797756Y-127223624D01*
X76797758Y-127223619D01*
X76852905Y-127057197D01*
X76852906Y-127057190D01*
X76863399Y-126954486D01*
X76863400Y-126954473D01*
X76863400Y-126742000D01*
X75713400Y-126742000D01*
X75213400Y-126742000D01*
X74063401Y-126742000D01*
X65002642Y-126742000D01*
X65002642Y-126242000D01*
X74063400Y-126242000D01*
X75213400Y-126242000D01*
X75213400Y-125329500D01*
X75713400Y-125329500D01*
X75713400Y-126242000D01*
X76863399Y-126242000D01*
X76863399Y-126029528D01*
X76863398Y-126029513D01*
X76852905Y-125926802D01*
X76797758Y-125760380D01*
X76797756Y-125760375D01*
X76705715Y-125611154D01*
X76581745Y-125487184D01*
X76432524Y-125395143D01*
X76432519Y-125395141D01*
X76266097Y-125339994D01*
X76266090Y-125339993D01*
X76163386Y-125329500D01*
X75713400Y-125329500D01*
X75213400Y-125329500D01*
X74763428Y-125329500D01*
X74763412Y-125329501D01*
X74660702Y-125339994D01*
X74494280Y-125395141D01*
X74494275Y-125395143D01*
X74345054Y-125487184D01*
X74221084Y-125611154D01*
X74129043Y-125760375D01*
X74129041Y-125760380D01*
X74073894Y-125926802D01*
X74073893Y-125926809D01*
X74063400Y-126029513D01*
X74063400Y-126242000D01*
X65002642Y-126242000D01*
X65002642Y-78245193D01*
X67822840Y-78245193D01*
X67826950Y-78288672D01*
X67827500Y-78300341D01*
X67827500Y-121176855D01*
X67825775Y-121192472D01*
X67826061Y-121192499D01*
X67825326Y-121200265D01*
X67827439Y-121267472D01*
X67827500Y-121271367D01*
X67827500Y-121298957D01*
X67828003Y-121302935D01*
X67828918Y-121314567D01*
X67830290Y-121358224D01*
X67830291Y-121358227D01*
X67835880Y-121377467D01*
X67839824Y-121396511D01*
X67842336Y-121416392D01*
X67858414Y-121457003D01*
X67862197Y-121468052D01*
X67874381Y-121509988D01*
X67884580Y-121527234D01*
X67893138Y-121544703D01*
X67900514Y-121563332D01*
X67926181Y-121598660D01*
X67932593Y-121608421D01*
X67954828Y-121646017D01*
X67954833Y-121646024D01*
X67968990Y-121660180D01*
X67981628Y-121674976D01*
X67993405Y-121691186D01*
X67993406Y-121691187D01*
X68027057Y-121719025D01*
X68035698Y-121726888D01*
X70065026Y-123756217D01*
X70072890Y-123764859D01*
X70079675Y-123773061D01*
X70086686Y-123782399D01*
X70088273Y-123784734D01*
X70088278Y-123784740D01*
X70129877Y-123821414D01*
X70135556Y-123826747D01*
X70146729Y-123837920D01*
X70159221Y-123847610D01*
X70165163Y-123852523D01*
X70165665Y-123852965D01*
X70168595Y-123855629D01*
X70191418Y-123877062D01*
X70191425Y-123877065D01*
X70195673Y-123880153D01*
X70204783Y-123887452D01*
X70206822Y-123889250D01*
X70214098Y-123892957D01*
X70233808Y-123905465D01*
X70240265Y-123910474D01*
X70264963Y-123921161D01*
X70290949Y-123932406D01*
X70301426Y-123937539D01*
X70329908Y-123953197D01*
X70329913Y-123953198D01*
X70335297Y-123955330D01*
X70345951Y-123960140D01*
X70347635Y-123960998D01*
X70347636Y-123960998D01*
X70347638Y-123960999D01*
X70355605Y-123962780D01*
X70377802Y-123969991D01*
X70385304Y-123973238D01*
X70438664Y-123981688D01*
X70450087Y-123984053D01*
X70482981Y-123992500D01*
X70482994Y-123992500D01*
X70490026Y-123993389D01*
X70501530Y-123995397D01*
X70501867Y-123995473D01*
X70510034Y-123995216D01*
X70533325Y-123996681D01*
X70541396Y-123997960D01*
X70593338Y-123993050D01*
X70605007Y-123992500D01*
X74003809Y-123992500D01*
X74070848Y-124012185D01*
X74116603Y-124064989D01*
X74121514Y-124077494D01*
X74128584Y-124098831D01*
X74128586Y-124098834D01*
X74220688Y-124248156D01*
X74344744Y-124372212D01*
X74494066Y-124464314D01*
X74660603Y-124519499D01*
X74763391Y-124530000D01*
X76163408Y-124529999D01*
X76266197Y-124519499D01*
X76432734Y-124464314D01*
X76582056Y-124372212D01*
X76706112Y-124248156D01*
X76798214Y-124098834D01*
X76798215Y-124098831D01*
X76805286Y-124077494D01*
X76845059Y-124020050D01*
X76909575Y-123993228D01*
X76922991Y-123992500D01*
X78023013Y-123992500D01*
X78090052Y-124012185D01*
X78124588Y-124045377D01*
X78243474Y-124215165D01*
X78260305Y-124239201D01*
X78427399Y-124406295D01*
X78604066Y-124529999D01*
X78613394Y-124536530D01*
X78657019Y-124591107D01*
X78664213Y-124660605D01*
X78632690Y-124722960D01*
X78613395Y-124739680D01*
X78427722Y-124869690D01*
X78427720Y-124869691D01*
X78260691Y-125036720D01*
X78260686Y-125036726D01*
X78125200Y-125230220D01*
X78125199Y-125230222D01*
X78025370Y-125444307D01*
X78025367Y-125444313D01*
X77968164Y-125657799D01*
X77968164Y-125657800D01*
X78865114Y-125657800D01*
X78839307Y-125697956D01*
X78798800Y-125835911D01*
X78798800Y-125979689D01*
X78839307Y-126117644D01*
X78865114Y-126157800D01*
X77968164Y-126157800D01*
X78025367Y-126371286D01*
X78025370Y-126371292D01*
X78125199Y-126585378D01*
X78260694Y-126778882D01*
X78427717Y-126945905D01*
X78613395Y-127075919D01*
X78657019Y-127130496D01*
X78664212Y-127199995D01*
X78632690Y-127262349D01*
X78613395Y-127279069D01*
X78427394Y-127409308D01*
X78260305Y-127576397D01*
X78124765Y-127769969D01*
X78124764Y-127769971D01*
X78024898Y-127984135D01*
X78024894Y-127984144D01*
X77963738Y-128212386D01*
X77963736Y-128212396D01*
X77943141Y-128447799D01*
X77943141Y-128447800D01*
X77963736Y-128683203D01*
X77963738Y-128683213D01*
X78024894Y-128911455D01*
X78024896Y-128911459D01*
X78024897Y-128911463D01*
X78124765Y-129125630D01*
X78124767Y-129125634D01*
X78233081Y-129280321D01*
X78260301Y-129319196D01*
X78260306Y-129319202D01*
X78382230Y-129441126D01*
X78415715Y-129502449D01*
X78410731Y-129572141D01*
X78368859Y-129628074D01*
X78337883Y-129644989D01*
X78206469Y-129694003D01*
X78206464Y-129694006D01*
X78091255Y-129780252D01*
X78091252Y-129780255D01*
X78005006Y-129895464D01*
X78005002Y-129895471D01*
X77954708Y-130030317D01*
X77948301Y-130089916D01*
X77948301Y-130089923D01*
X77948300Y-130089935D01*
X77948300Y-131885670D01*
X77948301Y-131885676D01*
X77954708Y-131945283D01*
X78005002Y-132080128D01*
X78005006Y-132080135D01*
X78091252Y-132195344D01*
X78091255Y-132195347D01*
X78206464Y-132281593D01*
X78206471Y-132281597D01*
X78341317Y-132331891D01*
X78341316Y-132331891D01*
X78348244Y-132332635D01*
X78400927Y-132338300D01*
X80196672Y-132338299D01*
X80256283Y-132331891D01*
X80391131Y-132281596D01*
X80506346Y-132195346D01*
X80592596Y-132080131D01*
X80642891Y-131945283D01*
X80649300Y-131885673D01*
X80649299Y-130089928D01*
X80642891Y-130030317D01*
X80592596Y-129895469D01*
X80592595Y-129895468D01*
X80592593Y-129895464D01*
X80506347Y-129780255D01*
X80506344Y-129780252D01*
X80391135Y-129694006D01*
X80391128Y-129694002D01*
X80259717Y-129644989D01*
X80203783Y-129603118D01*
X80179366Y-129537653D01*
X80194218Y-129469380D01*
X80215363Y-129441132D01*
X80337295Y-129319201D01*
X80472835Y-129125630D01*
X80572703Y-128911463D01*
X80633863Y-128683208D01*
X80654459Y-128447800D01*
X80633863Y-128212392D01*
X80572703Y-127984137D01*
X80472835Y-127769971D01*
X80391981Y-127654498D01*
X80337294Y-127576397D01*
X80170202Y-127409306D01*
X80170201Y-127409305D01*
X79984205Y-127279069D01*
X79940581Y-127224492D01*
X79933388Y-127154993D01*
X79964910Y-127092639D01*
X79984205Y-127075919D01*
X80169882Y-126945905D01*
X80336905Y-126778882D01*
X80472400Y-126585378D01*
X80572229Y-126371292D01*
X80572232Y-126371286D01*
X80629436Y-126157800D01*
X79732486Y-126157800D01*
X79758293Y-126117644D01*
X79798800Y-125979689D01*
X79798800Y-125835911D01*
X79758293Y-125697956D01*
X79732486Y-125657800D01*
X80652847Y-125657800D01*
X80719886Y-125677485D01*
X80740528Y-125694119D01*
X81062397Y-126015988D01*
X81072222Y-126028251D01*
X81072443Y-126028069D01*
X81077411Y-126034074D01*
X81126422Y-126080099D01*
X81129221Y-126082812D01*
X81148722Y-126102314D01*
X81148726Y-126102317D01*
X81148729Y-126102320D01*
X81151902Y-126104781D01*
X81160774Y-126112359D01*
X81192618Y-126142262D01*
X81210176Y-126151914D01*
X81226435Y-126162595D01*
X81242264Y-126174873D01*
X81282355Y-126192221D01*
X81292826Y-126197351D01*
X81315380Y-126209750D01*
X81331102Y-126218394D01*
X81331104Y-126218395D01*
X81331108Y-126218397D01*
X81350516Y-126223380D01*
X81368919Y-126229681D01*
X81387301Y-126237636D01*
X81387302Y-126237636D01*
X81387304Y-126237637D01*
X81430450Y-126244470D01*
X81441872Y-126246836D01*
X81484181Y-126257700D01*
X81504216Y-126257700D01*
X81523614Y-126259226D01*
X81543394Y-126262359D01*
X81543395Y-126262360D01*
X81543395Y-126262359D01*
X81543396Y-126262360D01*
X81586875Y-126258250D01*
X81598544Y-126257700D01*
X118924065Y-126257700D01*
X118991104Y-126277385D01*
X119036859Y-126330189D01*
X119047423Y-126369098D01*
X119051601Y-126409997D01*
X119051601Y-126409999D01*
X119089244Y-126523595D01*
X119106786Y-126576534D01*
X119198888Y-126725856D01*
X119322944Y-126849912D01*
X119472266Y-126942014D01*
X119638803Y-126997199D01*
X119741591Y-127007700D01*
X120641608Y-127007699D01*
X120641616Y-127007698D01*
X120641619Y-127007698D01*
X120697902Y-127001948D01*
X120744397Y-126997199D01*
X120910934Y-126942014D01*
X121060256Y-126849912D01*
X121184312Y-126725856D01*
X121276414Y-126576534D01*
X121331599Y-126409997D01*
X121342100Y-126307209D01*
X121342100Y-126307201D01*
X122141100Y-126307201D01*
X122141101Y-126307218D01*
X122151600Y-126409996D01*
X122151601Y-126409999D01*
X122189244Y-126523595D01*
X122206786Y-126576534D01*
X122298888Y-126725856D01*
X122422944Y-126849912D01*
X122572266Y-126942014D01*
X122738803Y-126997199D01*
X122841591Y-127007700D01*
X123741608Y-127007699D01*
X123741616Y-127007698D01*
X123741619Y-127007698D01*
X123797902Y-127001948D01*
X123844397Y-126997199D01*
X124010934Y-126942014D01*
X124160256Y-126849912D01*
X124284312Y-126725856D01*
X124376414Y-126576534D01*
X124431599Y-126409997D01*
X124435777Y-126369096D01*
X124462173Y-126304407D01*
X124519353Y-126264255D01*
X124559135Y-126257700D01*
X128309301Y-126257700D01*
X128376340Y-126277385D01*
X128422095Y-126330189D01*
X128433301Y-126381700D01*
X128433301Y-126420818D01*
X128443800Y-126523596D01*
X128443801Y-126523599D01*
X128461343Y-126576536D01*
X128498986Y-126690134D01*
X128591088Y-126839456D01*
X128715144Y-126963512D01*
X128864466Y-127055614D01*
X129031003Y-127110799D01*
X129133791Y-127121300D01*
X132333808Y-127121299D01*
X132436597Y-127110799D01*
X132603134Y-127055614D01*
X132752456Y-126963512D01*
X132876512Y-126839456D01*
X132968614Y-126690134D01*
X133023799Y-126523597D01*
X133034300Y-126420809D01*
X133034299Y-124820792D01*
X133023799Y-124718003D01*
X132968614Y-124551466D01*
X132876512Y-124402144D01*
X132752456Y-124278088D01*
X132603134Y-124185986D01*
X132436597Y-124130801D01*
X132436595Y-124130800D01*
X132333810Y-124120300D01*
X129133798Y-124120300D01*
X129133781Y-124120301D01*
X129031003Y-124130800D01*
X129031000Y-124130801D01*
X128864468Y-124185985D01*
X128864463Y-124185987D01*
X128715142Y-124278089D01*
X128591089Y-124402142D01*
X128498987Y-124551463D01*
X128498986Y-124551466D01*
X128443801Y-124718003D01*
X128443801Y-124718004D01*
X128443800Y-124718004D01*
X128433300Y-124820783D01*
X128433300Y-124882700D01*
X128413615Y-124949739D01*
X128360811Y-124995494D01*
X128309300Y-125006700D01*
X124559135Y-125006700D01*
X124492096Y-124987015D01*
X124446341Y-124934211D01*
X124435777Y-124895302D01*
X124435263Y-124890271D01*
X124431599Y-124854403D01*
X124376414Y-124687866D01*
X124284312Y-124538544D01*
X124160256Y-124414488D01*
X124010934Y-124322386D01*
X124010933Y-124322385D01*
X124010932Y-124322385D01*
X124002093Y-124319456D01*
X123944649Y-124279682D01*
X123917828Y-124215165D01*
X123917100Y-124201751D01*
X123917100Y-123710024D01*
X123936785Y-123642985D01*
X123968215Y-123609705D01*
X123999071Y-123587288D01*
X124125733Y-123446616D01*
X124220379Y-123282684D01*
X124278874Y-123102656D01*
X124298660Y-122914400D01*
X124278874Y-122726144D01*
X124220379Y-122546116D01*
X124125733Y-122382184D01*
X123999071Y-122241512D01*
X123999070Y-122241511D01*
X123845934Y-122130251D01*
X123845929Y-122130248D01*
X123673007Y-122053257D01*
X123673002Y-122053255D01*
X123527201Y-122022265D01*
X123487846Y-122013900D01*
X123298554Y-122013900D01*
X123266097Y-122020798D01*
X123113397Y-122053255D01*
X123113392Y-122053257D01*
X122940470Y-122130248D01*
X122940465Y-122130251D01*
X122787329Y-122241511D01*
X122660666Y-122382185D01*
X122566021Y-122546115D01*
X122566018Y-122546122D01*
X122507527Y-122726140D01*
X122507526Y-122726144D01*
X122487740Y-122914400D01*
X122507526Y-123102656D01*
X122507527Y-123102659D01*
X122566018Y-123282677D01*
X122566021Y-123282684D01*
X122649487Y-123427252D01*
X122666100Y-123489252D01*
X122666100Y-124201751D01*
X122646415Y-124268790D01*
X122593611Y-124314545D01*
X122581107Y-124319456D01*
X122572267Y-124322385D01*
X122422942Y-124414489D01*
X122298889Y-124538542D01*
X122206787Y-124687863D01*
X122206785Y-124687868D01*
X122178949Y-124771870D01*
X122151601Y-124854403D01*
X122151601Y-124854404D01*
X122151600Y-124854404D01*
X122141100Y-124957183D01*
X122141100Y-126307201D01*
X121342100Y-126307201D01*
X121342099Y-124957192D01*
X121339751Y-124934211D01*
X121331599Y-124854403D01*
X121331598Y-124854400D01*
X121288208Y-124723459D01*
X121276414Y-124687866D01*
X121184312Y-124538544D01*
X121060256Y-124414488D01*
X120910934Y-124322386D01*
X120910933Y-124322385D01*
X120910932Y-124322385D01*
X120902093Y-124319456D01*
X120844649Y-124279682D01*
X120817828Y-124215165D01*
X120817100Y-124201751D01*
X120817100Y-120370799D01*
X128454776Y-120370799D01*
X128454778Y-120370800D01*
X130074471Y-120370800D01*
X130033800Y-120535805D01*
X130033800Y-120705795D01*
X130074471Y-120870800D01*
X128454777Y-120870800D01*
X128474716Y-120990292D01*
X128555430Y-121225403D01*
X128555435Y-121225414D01*
X128673742Y-121444028D01*
X128673748Y-121444037D01*
X128826426Y-121640197D01*
X128826435Y-121640207D01*
X129009322Y-121808567D01*
X129009321Y-121808567D01*
X129217432Y-121944532D01*
X129445082Y-122044387D01*
X129686061Y-122105412D01*
X129686069Y-122105414D01*
X129871745Y-122120799D01*
X129871761Y-122120800D01*
X130483800Y-122120800D01*
X130483800Y-121274637D01*
X130565049Y-121305451D01*
X130691460Y-121320800D01*
X130776140Y-121320800D01*
X130902551Y-121305451D01*
X130983800Y-121274637D01*
X130983800Y-122120800D01*
X131595839Y-122120800D01*
X131595854Y-122120799D01*
X131781530Y-122105414D01*
X131781538Y-122105412D01*
X132022517Y-122044387D01*
X132250167Y-121944532D01*
X132458278Y-121808567D01*
X132641164Y-121640207D01*
X132641173Y-121640197D01*
X132793851Y-121444037D01*
X132793857Y-121444028D01*
X132912164Y-121225414D01*
X132912169Y-121225403D01*
X132992883Y-120990292D01*
X133012823Y-120870800D01*
X131393129Y-120870800D01*
X131433800Y-120705795D01*
X131433800Y-120535805D01*
X131393129Y-120370800D01*
X133012822Y-120370800D01*
X133012823Y-120370799D01*
X132992883Y-120251307D01*
X132912169Y-120016196D01*
X132912164Y-120016185D01*
X132793857Y-119797571D01*
X132793851Y-119797562D01*
X132641173Y-119601402D01*
X132641164Y-119601392D01*
X132458277Y-119433032D01*
X132458278Y-119433032D01*
X132250167Y-119297067D01*
X132022517Y-119197212D01*
X131781538Y-119136187D01*
X131781530Y-119136185D01*
X131595854Y-119120800D01*
X130983800Y-119120800D01*
X130983800Y-119966962D01*
X130902551Y-119936149D01*
X130776140Y-119920800D01*
X130691460Y-119920800D01*
X130565049Y-119936149D01*
X130483800Y-119966962D01*
X130483800Y-119120800D01*
X129871745Y-119120800D01*
X129686069Y-119136185D01*
X129686061Y-119136187D01*
X129445082Y-119197212D01*
X129217432Y-119297067D01*
X129009321Y-119433032D01*
X128826435Y-119601392D01*
X128826426Y-119601402D01*
X128673748Y-119797562D01*
X128673742Y-119797571D01*
X128555435Y-120016185D01*
X128555430Y-120016196D01*
X128474716Y-120251307D01*
X128454776Y-120370799D01*
X120817100Y-120370799D01*
X120817100Y-116989467D01*
X120836785Y-116922428D01*
X120876002Y-116883929D01*
X120984656Y-116816912D01*
X121108712Y-116692856D01*
X121200814Y-116543534D01*
X121255999Y-116376997D01*
X121266500Y-116274209D01*
X121266500Y-116274201D01*
X122065500Y-116274201D01*
X122065501Y-116274218D01*
X122076000Y-116376996D01*
X122076001Y-116376999D01*
X122098305Y-116444306D01*
X122131186Y-116543534D01*
X122223288Y-116692856D01*
X122347344Y-116816912D01*
X122496666Y-116909014D01*
X122663203Y-116964199D01*
X122765991Y-116974700D01*
X123666008Y-116974699D01*
X123666016Y-116974698D01*
X123666019Y-116974698D01*
X123753212Y-116965791D01*
X123768797Y-116964199D01*
X123935334Y-116909014D01*
X124084656Y-116816912D01*
X124208712Y-116692856D01*
X124300814Y-116543534D01*
X124355999Y-116376997D01*
X124360177Y-116336096D01*
X124386573Y-116271407D01*
X124443753Y-116231255D01*
X124483535Y-116224700D01*
X128480591Y-116224700D01*
X128547630Y-116244385D01*
X128589646Y-116289682D01*
X128663648Y-116426427D01*
X128673326Y-116444309D01*
X128826062Y-116640544D01*
X128905393Y-116713573D01*
X129009017Y-116808966D01*
X129217193Y-116944973D01*
X129444918Y-117044863D01*
X129647114Y-117096066D01*
X129685979Y-117105908D01*
X129685981Y-117105908D01*
X129685986Y-117105909D01*
X129839389Y-117118619D01*
X129871733Y-117121300D01*
X129871737Y-117121300D01*
X131595863Y-117121300D01*
X131595867Y-117121300D01*
X131658477Y-117116111D01*
X131781613Y-117105909D01*
X131781616Y-117105908D01*
X131781621Y-117105908D01*
X132022681Y-117044863D01*
X132250407Y-116944973D01*
X132458585Y-116808964D01*
X132641538Y-116640544D01*
X132794274Y-116444309D01*
X132912628Y-116225610D01*
X132993371Y-115990414D01*
X133034300Y-115745135D01*
X133034300Y-115496465D01*
X132993371Y-115251186D01*
X132912628Y-115015990D01*
X132794274Y-114797291D01*
X132641538Y-114601056D01*
X132458585Y-114432636D01*
X132458582Y-114432633D01*
X132250406Y-114296626D01*
X132022681Y-114196736D01*
X131781624Y-114135692D01*
X131781613Y-114135690D01*
X131595877Y-114120300D01*
X131595867Y-114120300D01*
X129871733Y-114120300D01*
X129871722Y-114120300D01*
X129685986Y-114135690D01*
X129685975Y-114135692D01*
X129444918Y-114196736D01*
X129217193Y-114296626D01*
X129009017Y-114432633D01*
X128826061Y-114601057D01*
X128673324Y-114797293D01*
X128638144Y-114862302D01*
X128617088Y-114901211D01*
X128613025Y-114908718D01*
X128563805Y-114958308D01*
X128503970Y-114973700D01*
X124483535Y-114973700D01*
X124416496Y-114954015D01*
X124370741Y-114901211D01*
X124360177Y-114862302D01*
X124359663Y-114857271D01*
X124355999Y-114821403D01*
X124300814Y-114654866D01*
X124208712Y-114505544D01*
X124084656Y-114381488D01*
X123935334Y-114289386D01*
X123935333Y-114289385D01*
X123935332Y-114289385D01*
X123926493Y-114286456D01*
X123869049Y-114246682D01*
X123842228Y-114182165D01*
X123841500Y-114168751D01*
X123841500Y-113505735D01*
X123861185Y-113438696D01*
X123892616Y-113405416D01*
X123895097Y-113403612D01*
X123897471Y-113401888D01*
X124024133Y-113261216D01*
X124118779Y-113097284D01*
X124177274Y-112917256D01*
X124197060Y-112729000D01*
X124177274Y-112540744D01*
X124118779Y-112360716D01*
X124024133Y-112196784D01*
X123897471Y-112056112D01*
X123881333Y-112044387D01*
X123744334Y-111944851D01*
X123744329Y-111944848D01*
X123571407Y-111867857D01*
X123571402Y-111867855D01*
X123425601Y-111836865D01*
X123386246Y-111828500D01*
X123196954Y-111828500D01*
X123164497Y-111835398D01*
X123011797Y-111867855D01*
X123011792Y-111867857D01*
X122838870Y-111944848D01*
X122838865Y-111944851D01*
X122685729Y-112056111D01*
X122559066Y-112196785D01*
X122464421Y-112360715D01*
X122464418Y-112360722D01*
X122405927Y-112540740D01*
X122405926Y-112540744D01*
X122386140Y-112729000D01*
X122405926Y-112917256D01*
X122406488Y-112918985D01*
X122464418Y-113097277D01*
X122464421Y-113097284D01*
X122559066Y-113261215D01*
X122562889Y-113266477D01*
X122561780Y-113267282D01*
X122588878Y-113323733D01*
X122590500Y-113343725D01*
X122590500Y-114168751D01*
X122570815Y-114235790D01*
X122518011Y-114281545D01*
X122505507Y-114286456D01*
X122496667Y-114289385D01*
X122347342Y-114381489D01*
X122223289Y-114505542D01*
X122131187Y-114654863D01*
X122131186Y-114654866D01*
X122076001Y-114821403D01*
X122076001Y-114821404D01*
X122076000Y-114821404D01*
X122065500Y-114924183D01*
X122065500Y-116274201D01*
X121266500Y-116274201D01*
X121266499Y-114924192D01*
X121264151Y-114901211D01*
X121255999Y-114821403D01*
X121255998Y-114821400D01*
X121248009Y-114797291D01*
X121200814Y-114654866D01*
X121108712Y-114505544D01*
X120984656Y-114381488D01*
X120876002Y-114314470D01*
X120829279Y-114262523D01*
X120817100Y-114208932D01*
X120817100Y-110370799D01*
X128454776Y-110370799D01*
X128454778Y-110370800D01*
X130074471Y-110370800D01*
X130033800Y-110535805D01*
X130033800Y-110705795D01*
X130074471Y-110870800D01*
X128454777Y-110870800D01*
X128474716Y-110990292D01*
X128555430Y-111225403D01*
X128555435Y-111225414D01*
X128673742Y-111444028D01*
X128673748Y-111444037D01*
X128826426Y-111640197D01*
X128826435Y-111640207D01*
X129009322Y-111808567D01*
X129009321Y-111808567D01*
X129217432Y-111944532D01*
X129445082Y-112044387D01*
X129686061Y-112105412D01*
X129686069Y-112105414D01*
X129871745Y-112120799D01*
X129871761Y-112120800D01*
X130483800Y-112120800D01*
X130483800Y-111274637D01*
X130565049Y-111305451D01*
X130691460Y-111320800D01*
X130776140Y-111320800D01*
X130902551Y-111305451D01*
X130983800Y-111274637D01*
X130983800Y-112120800D01*
X131595839Y-112120800D01*
X131595854Y-112120799D01*
X131781530Y-112105414D01*
X131781538Y-112105412D01*
X132022517Y-112044387D01*
X132250167Y-111944532D01*
X132458278Y-111808567D01*
X132641164Y-111640207D01*
X132641173Y-111640197D01*
X132793851Y-111444037D01*
X132793857Y-111444028D01*
X132912164Y-111225414D01*
X132912169Y-111225403D01*
X132992883Y-110990292D01*
X133012823Y-110870800D01*
X131393129Y-110870800D01*
X131433800Y-110705795D01*
X131433800Y-110535805D01*
X131393129Y-110370800D01*
X133012822Y-110370800D01*
X133012823Y-110370799D01*
X132992883Y-110251307D01*
X132912169Y-110016196D01*
X132912164Y-110016185D01*
X132793857Y-109797571D01*
X132793851Y-109797562D01*
X132641173Y-109601402D01*
X132641164Y-109601392D01*
X132458277Y-109433032D01*
X132458278Y-109433032D01*
X132250167Y-109297067D01*
X132022517Y-109197212D01*
X131781538Y-109136187D01*
X131781530Y-109136185D01*
X131595854Y-109120800D01*
X130983800Y-109120800D01*
X130983800Y-109966962D01*
X130902551Y-109936149D01*
X130776140Y-109920800D01*
X130691460Y-109920800D01*
X130565049Y-109936149D01*
X130483800Y-109966962D01*
X130483800Y-109120800D01*
X129871745Y-109120800D01*
X129686069Y-109136185D01*
X129686061Y-109136187D01*
X129445082Y-109197212D01*
X129217432Y-109297067D01*
X129009321Y-109433032D01*
X128826435Y-109601392D01*
X128826426Y-109601402D01*
X128673748Y-109797562D01*
X128673742Y-109797571D01*
X128555435Y-110016185D01*
X128555430Y-110016196D01*
X128474716Y-110251307D01*
X128454776Y-110370799D01*
X120817100Y-110370799D01*
X120817100Y-107047448D01*
X120836785Y-106980409D01*
X120889589Y-106934654D01*
X120902088Y-106929744D01*
X120910934Y-106926814D01*
X121060256Y-106834712D01*
X121184312Y-106710656D01*
X121276414Y-106561334D01*
X121331599Y-106394797D01*
X121342100Y-106292009D01*
X121342100Y-106292001D01*
X122141100Y-106292001D01*
X122141101Y-106292018D01*
X122151600Y-106394796D01*
X122151601Y-106394799D01*
X122206785Y-106561331D01*
X122206787Y-106561336D01*
X122241669Y-106617888D01*
X122298888Y-106710656D01*
X122422944Y-106834712D01*
X122572266Y-106926814D01*
X122738803Y-106981999D01*
X122841591Y-106992500D01*
X123741608Y-106992499D01*
X123741616Y-106992498D01*
X123741619Y-106992498D01*
X123797902Y-106986748D01*
X123844397Y-106981999D01*
X124010934Y-106926814D01*
X124160256Y-106834712D01*
X124284312Y-106710656D01*
X124376414Y-106561334D01*
X124431599Y-106394797D01*
X124435777Y-106353896D01*
X124462173Y-106289207D01*
X124519353Y-106249055D01*
X124559135Y-106242500D01*
X128490224Y-106242500D01*
X128557263Y-106262185D01*
X128599278Y-106307481D01*
X128673326Y-106444309D01*
X128826062Y-106640544D01*
X128985544Y-106787357D01*
X129009017Y-106808966D01*
X129217193Y-106944973D01*
X129444918Y-107044863D01*
X129685975Y-107105907D01*
X129685979Y-107105908D01*
X129685981Y-107105908D01*
X129685986Y-107105909D01*
X129839389Y-107118619D01*
X129871733Y-107121300D01*
X129871737Y-107121300D01*
X131595863Y-107121300D01*
X131595867Y-107121300D01*
X131658477Y-107116111D01*
X131781613Y-107105909D01*
X131781616Y-107105908D01*
X131781621Y-107105908D01*
X132022681Y-107044863D01*
X132250407Y-106944973D01*
X132458585Y-106808964D01*
X132641538Y-106640544D01*
X132794274Y-106444309D01*
X132912628Y-106225610D01*
X132993371Y-105990414D01*
X133034300Y-105745135D01*
X133034300Y-105496465D01*
X132993371Y-105251186D01*
X132912628Y-105015990D01*
X132794274Y-104797291D01*
X132641538Y-104601056D01*
X132458585Y-104432636D01*
X132458582Y-104432633D01*
X132250406Y-104296626D01*
X132022681Y-104196736D01*
X131781624Y-104135692D01*
X131781613Y-104135690D01*
X131595877Y-104120300D01*
X131595867Y-104120300D01*
X129871733Y-104120300D01*
X129871722Y-104120300D01*
X129685986Y-104135690D01*
X129685975Y-104135692D01*
X129444918Y-104196736D01*
X129217193Y-104296626D01*
X129009017Y-104432633D01*
X128826061Y-104601057D01*
X128673324Y-104797293D01*
X128628511Y-104880102D01*
X128607455Y-104919011D01*
X128603392Y-104926518D01*
X128554172Y-104976108D01*
X128494337Y-104991500D01*
X124559135Y-104991500D01*
X124492096Y-104971815D01*
X124446341Y-104919011D01*
X124435777Y-104880102D01*
X124433064Y-104853547D01*
X124431599Y-104839203D01*
X124376414Y-104672666D01*
X124284312Y-104523344D01*
X124160256Y-104399288D01*
X124010934Y-104307186D01*
X124010933Y-104307185D01*
X124010932Y-104307185D01*
X124002093Y-104304256D01*
X123944649Y-104264482D01*
X123917828Y-104199965D01*
X123917100Y-104186551D01*
X123917100Y-103665658D01*
X123936785Y-103598619D01*
X123944896Y-103587995D01*
X123947929Y-103583820D01*
X123947933Y-103583816D01*
X124042579Y-103419884D01*
X124101074Y-103239856D01*
X124120860Y-103051600D01*
X124101074Y-102863344D01*
X124042579Y-102683316D01*
X123947933Y-102519384D01*
X123821271Y-102378712D01*
X123821270Y-102378711D01*
X123668134Y-102267451D01*
X123668129Y-102267448D01*
X123495207Y-102190457D01*
X123495202Y-102190455D01*
X123349401Y-102159465D01*
X123310046Y-102151100D01*
X123120754Y-102151100D01*
X123088297Y-102157998D01*
X122935597Y-102190455D01*
X122935592Y-102190457D01*
X122762670Y-102267448D01*
X122762665Y-102267451D01*
X122609529Y-102378711D01*
X122482866Y-102519385D01*
X122388221Y-102683315D01*
X122388218Y-102683322D01*
X122329727Y-102863340D01*
X122329726Y-102863344D01*
X122309940Y-103051600D01*
X122329726Y-103239856D01*
X122329727Y-103239859D01*
X122388218Y-103419877D01*
X122388221Y-103419884D01*
X122482867Y-103583816D01*
X122496196Y-103598619D01*
X122609529Y-103724488D01*
X122609532Y-103724491D01*
X122614978Y-103728447D01*
X122657648Y-103783774D01*
X122666100Y-103828770D01*
X122666100Y-104186551D01*
X122646415Y-104253590D01*
X122593611Y-104299345D01*
X122581107Y-104304256D01*
X122572267Y-104307185D01*
X122422942Y-104399289D01*
X122298889Y-104523342D01*
X122206787Y-104672663D01*
X122206786Y-104672666D01*
X122151601Y-104839203D01*
X122151601Y-104839204D01*
X122151600Y-104839204D01*
X122141100Y-104941983D01*
X122141100Y-106292001D01*
X121342100Y-106292001D01*
X121342099Y-104941992D01*
X121339751Y-104919011D01*
X121331599Y-104839203D01*
X121331598Y-104839200D01*
X121317711Y-104797291D01*
X121276414Y-104672666D01*
X121184312Y-104523344D01*
X121060256Y-104399288D01*
X120910934Y-104307186D01*
X120744397Y-104252001D01*
X120744395Y-104252000D01*
X120641610Y-104241500D01*
X119741598Y-104241500D01*
X119741580Y-104241501D01*
X119638803Y-104252000D01*
X119638800Y-104252001D01*
X119472268Y-104307185D01*
X119472263Y-104307187D01*
X119322942Y-104399289D01*
X119198889Y-104523342D01*
X119106787Y-104672663D01*
X119106786Y-104672666D01*
X119051601Y-104839203D01*
X119051601Y-104839204D01*
X119051600Y-104839204D01*
X119041100Y-104941983D01*
X119041100Y-106292001D01*
X119041101Y-106292018D01*
X119051600Y-106394796D01*
X119051601Y-106394799D01*
X119106785Y-106561331D01*
X119106787Y-106561336D01*
X119141669Y-106617888D01*
X119198888Y-106710656D01*
X119322944Y-106834712D01*
X119472266Y-106926814D01*
X119481098Y-106929740D01*
X119538544Y-106969508D01*
X119565371Y-107034022D01*
X119566100Y-107047448D01*
X119566100Y-114143700D01*
X119546415Y-114210739D01*
X119493611Y-114256494D01*
X119481104Y-114261406D01*
X119396668Y-114289385D01*
X119396663Y-114289387D01*
X119247342Y-114381489D01*
X119123289Y-114505542D01*
X119031187Y-114654863D01*
X119031186Y-114654866D01*
X118976001Y-114821403D01*
X118976001Y-114821404D01*
X118976000Y-114821404D01*
X118965500Y-114924183D01*
X118965500Y-116274201D01*
X118965501Y-116274218D01*
X118976000Y-116376996D01*
X118976001Y-116376999D01*
X118998305Y-116444306D01*
X119031186Y-116543534D01*
X119123288Y-116692856D01*
X119247344Y-116816912D01*
X119396666Y-116909014D01*
X119481104Y-116936994D01*
X119538548Y-116976765D01*
X119565372Y-117041281D01*
X119566100Y-117054699D01*
X119566100Y-124201751D01*
X119546415Y-124268790D01*
X119493611Y-124314545D01*
X119481107Y-124319456D01*
X119472267Y-124322385D01*
X119322942Y-124414489D01*
X119198889Y-124538542D01*
X119106787Y-124687863D01*
X119106785Y-124687868D01*
X119078949Y-124771870D01*
X119051602Y-124854402D01*
X119051601Y-124854404D01*
X119051600Y-124854405D01*
X119047423Y-124895302D01*
X119021027Y-124959993D01*
X118963847Y-125000145D01*
X118924065Y-125006700D01*
X81873653Y-125006700D01*
X81806614Y-124987015D01*
X81785972Y-124970381D01*
X80639037Y-123823446D01*
X80605552Y-123762123D01*
X80606942Y-123703676D01*
X80633863Y-123603208D01*
X80654459Y-123367800D01*
X80633863Y-123132392D01*
X80572703Y-122904137D01*
X80472835Y-122689971D01*
X80471892Y-122688623D01*
X80337294Y-122496397D01*
X80170202Y-122329306D01*
X80170195Y-122329301D01*
X79976634Y-122193767D01*
X79976630Y-122193765D01*
X79976628Y-122193764D01*
X79762463Y-122093897D01*
X79762459Y-122093896D01*
X79762455Y-122093894D01*
X79534213Y-122032738D01*
X79534203Y-122032736D01*
X79298801Y-122012141D01*
X79298799Y-122012141D01*
X79063396Y-122032736D01*
X79063386Y-122032738D01*
X78835144Y-122093894D01*
X78835135Y-122093898D01*
X78620971Y-122193764D01*
X78620969Y-122193765D01*
X78427397Y-122329305D01*
X78260306Y-122496396D01*
X78125709Y-122688623D01*
X78071132Y-122732248D01*
X78024134Y-122741500D01*
X76922991Y-122741500D01*
X76855952Y-122721815D01*
X76810197Y-122669011D01*
X76805286Y-122656506D01*
X76798215Y-122635168D01*
X76798214Y-122635166D01*
X76706112Y-122485844D01*
X76582056Y-122361788D01*
X76432734Y-122269686D01*
X76266197Y-122214501D01*
X76266195Y-122214500D01*
X76163410Y-122204000D01*
X74763398Y-122204000D01*
X74763381Y-122204001D01*
X74660603Y-122214500D01*
X74660600Y-122214501D01*
X74494068Y-122269685D01*
X74494063Y-122269687D01*
X74344742Y-122361789D01*
X74220689Y-122485842D01*
X74128584Y-122635168D01*
X74121514Y-122656506D01*
X74081741Y-122713950D01*
X74017225Y-122740772D01*
X74003809Y-122741500D01*
X70870852Y-122741500D01*
X70803813Y-122721815D01*
X70783171Y-122705181D01*
X69114819Y-121036828D01*
X69081334Y-120975505D01*
X69078500Y-120949147D01*
X69078500Y-117475004D01*
X72813093Y-117475004D01*
X72832692Y-117736545D01*
X72832693Y-117736550D01*
X72891058Y-117992270D01*
X72986883Y-118236426D01*
X72986882Y-118236426D01*
X73118027Y-118463573D01*
X73165874Y-118523571D01*
X74042070Y-117647376D01*
X74044884Y-117660915D01*
X74114442Y-117795156D01*
X74217638Y-117905652D01*
X74346819Y-117984209D01*
X74398002Y-117998549D01*
X73518830Y-118877720D01*
X73690546Y-118994793D01*
X73690550Y-118994795D01*
X73926854Y-119108594D01*
X73926858Y-119108595D01*
X74177494Y-119185907D01*
X74177500Y-119185909D01*
X74436848Y-119224999D01*
X74436857Y-119225000D01*
X74699143Y-119225000D01*
X74699151Y-119224999D01*
X74958499Y-119185909D01*
X74958505Y-119185907D01*
X75209143Y-119108595D01*
X75445445Y-118994798D01*
X75445447Y-118994797D01*
X75617168Y-118877720D01*
X74739568Y-118000121D01*
X74856458Y-117949349D01*
X74973739Y-117853934D01*
X75060928Y-117730415D01*
X75091354Y-117644801D01*
X75970125Y-118523572D01*
X76017971Y-118463573D01*
X76149116Y-118236426D01*
X76244941Y-117992270D01*
X76303306Y-117736550D01*
X76303307Y-117736545D01*
X76322907Y-117475004D01*
X76322907Y-117474995D01*
X76303307Y-117213454D01*
X76303306Y-117213449D01*
X76244941Y-116957729D01*
X76149116Y-116713573D01*
X76149117Y-116713573D01*
X76017972Y-116486426D01*
X75970124Y-116426427D01*
X75093929Y-117302622D01*
X75091116Y-117289085D01*
X75021558Y-117154844D01*
X74918362Y-117044348D01*
X74789181Y-116965791D01*
X74737997Y-116951450D01*
X75617168Y-116072278D01*
X75445454Y-115955206D01*
X75445445Y-115955201D01*
X75209142Y-115841404D01*
X75209144Y-115841404D01*
X74958505Y-115764092D01*
X74958499Y-115764090D01*
X74699151Y-115725000D01*
X74436848Y-115725000D01*
X74177500Y-115764090D01*
X74177494Y-115764092D01*
X73926858Y-115841404D01*
X73926854Y-115841405D01*
X73690547Y-115955205D01*
X73690539Y-115955210D01*
X73518830Y-116072277D01*
X74396431Y-116949878D01*
X74279542Y-117000651D01*
X74162261Y-117096066D01*
X74075072Y-117219585D01*
X74044645Y-117305197D01*
X73165875Y-116426427D01*
X73165874Y-116426427D01*
X73118028Y-116486425D01*
X72986883Y-116713573D01*
X72891058Y-116957729D01*
X72832693Y-117213449D01*
X72832692Y-117213454D01*
X72813093Y-117474995D01*
X72813093Y-117475004D01*
X69078500Y-117475004D01*
X69078500Y-111725004D01*
X72812592Y-111725004D01*
X72832196Y-111986620D01*
X72832197Y-111986625D01*
X72890576Y-112242402D01*
X72890578Y-112242411D01*
X72890580Y-112242416D01*
X72986432Y-112486643D01*
X73117614Y-112713857D01*
X73249736Y-112879533D01*
X73281198Y-112918985D01*
X73462753Y-113087441D01*
X73473521Y-113097433D01*
X73690296Y-113245228D01*
X73690301Y-113245230D01*
X73690302Y-113245231D01*
X73690303Y-113245232D01*
X73795985Y-113296125D01*
X73926673Y-113359061D01*
X73926674Y-113359061D01*
X73926677Y-113359063D01*
X74177385Y-113436396D01*
X74436818Y-113475500D01*
X74699182Y-113475500D01*
X74958615Y-113436396D01*
X75209323Y-113359063D01*
X75445704Y-113245228D01*
X75662479Y-113097433D01*
X75854805Y-112918981D01*
X76018386Y-112713857D01*
X76149568Y-112486643D01*
X76245420Y-112242416D01*
X76303802Y-111986630D01*
X76323408Y-111725000D01*
X76306954Y-111505437D01*
X76303803Y-111463379D01*
X76303802Y-111463374D01*
X76303802Y-111463370D01*
X76245420Y-111207584D01*
X76149568Y-110963357D01*
X76018386Y-110736143D01*
X75854805Y-110531019D01*
X75854804Y-110531018D01*
X75854801Y-110531014D01*
X75662479Y-110352567D01*
X75538194Y-110267831D01*
X75445704Y-110204772D01*
X75445700Y-110204770D01*
X75445697Y-110204768D01*
X75445696Y-110204767D01*
X75209325Y-110090938D01*
X75209327Y-110090938D01*
X74958623Y-110013606D01*
X74958619Y-110013605D01*
X74958615Y-110013604D01*
X74833823Y-109994794D01*
X74699187Y-109974500D01*
X74699182Y-109974500D01*
X74436818Y-109974500D01*
X74436812Y-109974500D01*
X74291331Y-109996429D01*
X74177385Y-110013604D01*
X74177382Y-110013605D01*
X74177376Y-110013606D01*
X73926673Y-110090938D01*
X73690303Y-110204767D01*
X73690302Y-110204768D01*
X73473520Y-110352567D01*
X73281198Y-110531014D01*
X73117614Y-110736143D01*
X72986432Y-110963356D01*
X72890582Y-111207578D01*
X72890576Y-111207597D01*
X72832197Y-111463374D01*
X72832196Y-111463379D01*
X72812592Y-111724995D01*
X72812592Y-111725004D01*
X69078500Y-111725004D01*
X69078500Y-101244004D01*
X72813093Y-101244004D01*
X72832692Y-101505545D01*
X72832693Y-101505550D01*
X72891058Y-101761270D01*
X72986883Y-102005426D01*
X72986882Y-102005426D01*
X73118027Y-102232573D01*
X73165874Y-102292571D01*
X74042070Y-101416376D01*
X74044884Y-101429915D01*
X74114442Y-101564156D01*
X74217638Y-101674652D01*
X74346819Y-101753209D01*
X74398002Y-101767549D01*
X73518830Y-102646720D01*
X73690546Y-102763793D01*
X73690550Y-102763795D01*
X73926854Y-102877594D01*
X73926858Y-102877595D01*
X74177494Y-102954907D01*
X74177500Y-102954909D01*
X74436848Y-102993999D01*
X74436857Y-102994000D01*
X74699143Y-102994000D01*
X74699151Y-102993999D01*
X74958499Y-102954909D01*
X74958505Y-102954907D01*
X75209143Y-102877595D01*
X75445445Y-102763798D01*
X75445447Y-102763797D01*
X75617168Y-102646720D01*
X74739568Y-101769121D01*
X74856458Y-101718349D01*
X74973739Y-101622934D01*
X75060928Y-101499415D01*
X75091354Y-101413801D01*
X75970125Y-102292572D01*
X76017971Y-102232573D01*
X76149116Y-102005426D01*
X76244941Y-101761270D01*
X76303306Y-101505550D01*
X76303307Y-101505545D01*
X76303723Y-101500000D01*
X90494563Y-101500000D01*
X90514305Y-102128233D01*
X90514305Y-102128242D01*
X90527465Y-102267451D01*
X90573459Y-102754014D01*
X90573460Y-102754023D01*
X90573461Y-102754029D01*
X90671784Y-103374818D01*
X90671785Y-103374825D01*
X90808903Y-103988258D01*
X90984261Y-104591842D01*
X90987578Y-104601056D01*
X91197180Y-105183247D01*
X91197188Y-105183265D01*
X91440330Y-105745135D01*
X91446810Y-105760108D01*
X91732169Y-106320156D01*
X91732175Y-106320166D01*
X91732176Y-106320168D01*
X91732178Y-106320172D01*
X92052132Y-106861185D01*
X92405429Y-107381045D01*
X92405438Y-107381058D01*
X92790668Y-107877694D01*
X92790678Y-107877706D01*
X93206357Y-108349201D01*
X93650798Y-108793642D01*
X93650806Y-108793649D01*
X93650807Y-108793650D01*
X94039336Y-109136185D01*
X94122293Y-109209321D01*
X94122305Y-109209331D01*
X94618941Y-109594561D01*
X94618947Y-109594565D01*
X94618952Y-109594569D01*
X94865565Y-109762167D01*
X95138814Y-109947867D01*
X95138818Y-109947869D01*
X95138819Y-109947870D01*
X95254352Y-110016196D01*
X95573208Y-110204767D01*
X95679844Y-110267831D01*
X96239892Y-110553190D01*
X96239899Y-110553193D01*
X96239903Y-110553195D01*
X96342789Y-110597718D01*
X96344699Y-110598566D01*
X96344791Y-110598604D01*
X96344804Y-110598611D01*
X96345702Y-110598987D01*
X96346935Y-110599512D01*
X96816753Y-110802820D01*
X96924666Y-110841671D01*
X96929037Y-110843372D01*
X96930230Y-110843827D01*
X96930239Y-110843831D01*
X96940708Y-110847454D01*
X96941803Y-110847840D01*
X97408150Y-111015736D01*
X97522096Y-111048840D01*
X97528030Y-111050729D01*
X97530034Y-111051423D01*
X97530046Y-111051426D01*
X97530048Y-111051427D01*
X97548991Y-111056664D01*
X97550480Y-111057087D01*
X98011741Y-111191096D01*
X98011745Y-111191097D01*
X98011749Y-111191098D01*
X98131451Y-111217854D01*
X98137378Y-111219335D01*
X98141817Y-111220563D01*
X98141824Y-111220564D01*
X98141826Y-111220565D01*
X98168387Y-111226123D01*
X98169995Y-111226470D01*
X98625168Y-111328213D01*
X98750280Y-111348028D01*
X98756137Y-111349105D01*
X98763081Y-111350558D01*
X98796784Y-111355403D01*
X98798119Y-111355605D01*
X99245986Y-111426541D01*
X99376037Y-111438834D01*
X99382004Y-111439546D01*
X99391322Y-111440886D01*
X99391330Y-111440886D01*
X99391339Y-111440888D01*
X99430928Y-111444035D01*
X99432436Y-111444165D01*
X99871753Y-111485694D01*
X100006382Y-111489924D01*
X100012281Y-111490252D01*
X100019970Y-111490863D01*
X100024047Y-111491188D01*
X100024051Y-111491188D01*
X100024061Y-111491189D01*
X100068705Y-111491897D01*
X100070435Y-111491937D01*
X100500000Y-111505437D01*
X100638723Y-111501077D01*
X100644484Y-111501033D01*
X100658053Y-111501248D01*
X100658696Y-111501259D01*
X100658696Y-111501258D01*
X100658700Y-111501259D01*
X100707789Y-111498920D01*
X100709395Y-111498856D01*
X101128247Y-111485694D01*
X101270468Y-111472249D01*
X101276159Y-111471845D01*
X101292699Y-111471058D01*
X101345298Y-111465191D01*
X101347108Y-111465005D01*
X101754014Y-111426541D01*
X101899134Y-111403556D01*
X101904750Y-111402798D01*
X101923507Y-111400707D01*
X101978897Y-111390940D01*
X101980890Y-111390607D01*
X102374832Y-111328213D01*
X102374836Y-111328211D01*
X102374848Y-111328210D01*
X102426172Y-111316737D01*
X102522269Y-111295256D01*
X102527664Y-111294178D01*
X102548582Y-111290490D01*
X102605982Y-111276564D01*
X102608033Y-111276086D01*
X102988251Y-111191098D01*
X103137365Y-111147776D01*
X103142592Y-111146384D01*
X103165409Y-111140849D01*
X103224186Y-111122572D01*
X103226241Y-111121955D01*
X103591850Y-111015736D01*
X103741854Y-110961730D01*
X103746942Y-110960024D01*
X103771503Y-110952388D01*
X103830943Y-110929679D01*
X103832992Y-110928919D01*
X104183247Y-110802820D01*
X104333455Y-110737819D01*
X104338323Y-110735837D01*
X104364424Y-110725866D01*
X104364423Y-110725866D01*
X104364427Y-110725865D01*
X104382531Y-110717596D01*
X104423847Y-110698728D01*
X104425929Y-110697802D01*
X104760108Y-110553190D01*
X104909687Y-110476975D01*
X104914382Y-110474708D01*
X104941785Y-110462194D01*
X105000631Y-110430664D01*
X105002698Y-110429583D01*
X105320156Y-110267831D01*
X105468357Y-110180185D01*
X105472800Y-110177682D01*
X105501259Y-110162435D01*
X105559023Y-110126594D01*
X105561056Y-110125363D01*
X105861181Y-109947870D01*
X106007125Y-109848686D01*
X106011377Y-109845924D01*
X106040596Y-109827795D01*
X106040609Y-109827786D01*
X106040612Y-109827784D01*
X106066960Y-109809021D01*
X106096598Y-109787915D01*
X106098754Y-109786415D01*
X106381048Y-109594569D01*
X106523910Y-109483753D01*
X106527892Y-109480792D01*
X106557622Y-109459623D01*
X106611598Y-109415772D01*
X106613545Y-109414225D01*
X106877706Y-109209322D01*
X107016646Y-109086829D01*
X107020328Y-109083713D01*
X107050257Y-109059399D01*
X107101622Y-109011955D01*
X107103637Y-109010136D01*
X107349193Y-108793650D01*
X107483259Y-108659583D01*
X107486703Y-108656273D01*
X107516516Y-108628737D01*
X107565006Y-108577881D01*
X107566859Y-108575983D01*
X107793650Y-108349193D01*
X107921997Y-108203611D01*
X107925160Y-108200161D01*
X107954521Y-108169369D01*
X107999678Y-108115552D01*
X108001564Y-108113360D01*
X108209322Y-107877706D01*
X108331026Y-107720804D01*
X108333905Y-107717238D01*
X108362511Y-107683147D01*
X108404139Y-107626608D01*
X108405905Y-107624272D01*
X108594569Y-107381048D01*
X108708711Y-107213093D01*
X108711342Y-107209373D01*
X108738840Y-107172027D01*
X108776672Y-107113158D01*
X108778291Y-107110708D01*
X108947870Y-106861181D01*
X109053552Y-106682481D01*
X109055939Y-106678610D01*
X109081995Y-106638068D01*
X109115820Y-106577272D01*
X109117355Y-106574596D01*
X109267831Y-106320156D01*
X109269289Y-106317296D01*
X109304059Y-106249055D01*
X109364205Y-106131010D01*
X109366264Y-106127145D01*
X109390593Y-106083419D01*
X109420283Y-106021043D01*
X109421651Y-106018266D01*
X109553190Y-105760108D01*
X109639366Y-105560965D01*
X109641137Y-105557067D01*
X109663392Y-105510315D01*
X109688835Y-105446759D01*
X109690076Y-105443781D01*
X109802820Y-105183247D01*
X109877938Y-104974596D01*
X109879395Y-104970764D01*
X109899293Y-104921063D01*
X109920418Y-104856740D01*
X109921489Y-104853630D01*
X110015736Y-104591850D01*
X110078937Y-104374308D01*
X110080139Y-104370423D01*
X110097346Y-104318035D01*
X110097345Y-104318035D01*
X110097349Y-104318026D01*
X110111241Y-104264482D01*
X110114112Y-104253414D01*
X110115019Y-104250113D01*
X110191098Y-103988251D01*
X110241567Y-103762461D01*
X110242511Y-103758550D01*
X110256754Y-103703660D01*
X110269215Y-103639005D01*
X110269905Y-103635686D01*
X110328213Y-103374832D01*
X110365156Y-103141578D01*
X110365859Y-103137569D01*
X110376876Y-103080412D01*
X110385081Y-103016114D01*
X110385579Y-103012636D01*
X110426541Y-102754014D01*
X110449242Y-102513858D01*
X110449675Y-102509966D01*
X110457226Y-102450800D01*
X110461260Y-102387319D01*
X110461546Y-102383697D01*
X110485694Y-102128247D01*
X110493430Y-101882077D01*
X110493608Y-101878324D01*
X110497483Y-101817359D01*
X110498153Y-101732799D01*
X110498207Y-101730058D01*
X110505437Y-101500000D01*
X110498207Y-101269944D01*
X110498153Y-101267196D01*
X110497483Y-101182641D01*
X110493608Y-101121681D01*
X110493429Y-101117917D01*
X110485694Y-100871753D01*
X110461546Y-100616303D01*
X110461260Y-100612680D01*
X110457226Y-100549200D01*
X110449672Y-100490013D01*
X110449243Y-100486155D01*
X110438339Y-100370799D01*
X128454776Y-100370799D01*
X128454778Y-100370800D01*
X130074471Y-100370800D01*
X130033800Y-100535805D01*
X130033800Y-100705795D01*
X130074471Y-100870800D01*
X128454777Y-100870800D01*
X128474716Y-100990292D01*
X128555430Y-101225403D01*
X128555435Y-101225414D01*
X128673742Y-101444028D01*
X128673748Y-101444037D01*
X128826426Y-101640197D01*
X128826435Y-101640207D01*
X129009322Y-101808567D01*
X129009321Y-101808567D01*
X129217432Y-101944532D01*
X129445082Y-102044387D01*
X129686061Y-102105412D01*
X129686069Y-102105414D01*
X129871745Y-102120799D01*
X129871761Y-102120800D01*
X130483800Y-102120800D01*
X130483800Y-101274637D01*
X130565049Y-101305451D01*
X130691460Y-101320800D01*
X130776140Y-101320800D01*
X130902551Y-101305451D01*
X130983800Y-101274637D01*
X130983800Y-102120800D01*
X131595839Y-102120800D01*
X131595854Y-102120799D01*
X131781530Y-102105414D01*
X131781538Y-102105412D01*
X132022517Y-102044387D01*
X132250167Y-101944532D01*
X132458278Y-101808567D01*
X132641164Y-101640207D01*
X132641173Y-101640197D01*
X132793851Y-101444037D01*
X132793857Y-101444028D01*
X132912164Y-101225414D01*
X132912169Y-101225403D01*
X132992883Y-100990292D01*
X133012823Y-100870800D01*
X131393129Y-100870800D01*
X131433800Y-100705795D01*
X131433800Y-100535805D01*
X131393129Y-100370800D01*
X133012822Y-100370800D01*
X133012823Y-100370799D01*
X132992883Y-100251307D01*
X132912169Y-100016196D01*
X132912164Y-100016185D01*
X132793857Y-99797571D01*
X132793851Y-99797562D01*
X132641173Y-99601402D01*
X132641164Y-99601392D01*
X132458277Y-99433032D01*
X132458278Y-99433032D01*
X132250167Y-99297067D01*
X132022517Y-99197212D01*
X131781538Y-99136187D01*
X131781530Y-99136185D01*
X131595854Y-99120800D01*
X130983800Y-99120800D01*
X130983800Y-99966962D01*
X130902551Y-99936149D01*
X130776140Y-99920800D01*
X130691460Y-99920800D01*
X130565049Y-99936149D01*
X130483800Y-99966962D01*
X130483800Y-99120800D01*
X129871745Y-99120800D01*
X129686069Y-99136185D01*
X129686061Y-99136187D01*
X129445082Y-99197212D01*
X129217432Y-99297067D01*
X129009321Y-99433032D01*
X128826435Y-99601392D01*
X128826426Y-99601402D01*
X128673748Y-99797562D01*
X128673742Y-99797571D01*
X128555435Y-100016185D01*
X128555430Y-100016196D01*
X128474716Y-100251307D01*
X128454776Y-100370799D01*
X110438339Y-100370799D01*
X110426541Y-100245986D01*
X110426538Y-100245970D01*
X110402309Y-100092994D01*
X110385583Y-99987391D01*
X110385079Y-99983867D01*
X110376876Y-99919588D01*
X110365866Y-99862467D01*
X110365154Y-99858404D01*
X110328215Y-99625181D01*
X110328214Y-99625174D01*
X110324913Y-99610405D01*
X110269913Y-99364352D01*
X110269212Y-99360980D01*
X110256754Y-99296340D01*
X110242535Y-99241538D01*
X110241554Y-99237480D01*
X110191098Y-99011749D01*
X110115040Y-98749956D01*
X110114112Y-98746584D01*
X110097346Y-98681965D01*
X110080156Y-98629626D01*
X110078920Y-98625633D01*
X110015736Y-98408150D01*
X109921518Y-98146450D01*
X109920382Y-98143148D01*
X109899296Y-98078947D01*
X109899293Y-98078937D01*
X109879410Y-98029272D01*
X109877903Y-98025305D01*
X109802820Y-97816753D01*
X109690082Y-97556231D01*
X109688803Y-97553160D01*
X109663392Y-97489685D01*
X109641155Y-97442970D01*
X109639348Y-97438991D01*
X109553190Y-97239892D01*
X109421682Y-96981794D01*
X109420255Y-96978896D01*
X109390593Y-96916581D01*
X109366276Y-96872876D01*
X109364177Y-96868934D01*
X109267834Y-96679849D01*
X109267832Y-96679845D01*
X109117413Y-96425500D01*
X109115788Y-96422667D01*
X109082002Y-96361943D01*
X109082001Y-96361941D01*
X109055950Y-96321406D01*
X109053533Y-96317486D01*
X108947867Y-96138814D01*
X108778373Y-95889411D01*
X108776615Y-95886752D01*
X108738843Y-95827978D01*
X108738840Y-95827973D01*
X108711376Y-95790672D01*
X108708679Y-95786860D01*
X108594570Y-95618954D01*
X108594561Y-95618941D01*
X108405965Y-95375805D01*
X108404090Y-95373325D01*
X108362513Y-95316856D01*
X108362511Y-95316853D01*
X108333956Y-95282823D01*
X108330973Y-95279125D01*
X108212258Y-95126079D01*
X108209322Y-95122294D01*
X108001572Y-94886648D01*
X107999608Y-94884364D01*
X107954532Y-94830644D01*
X107954525Y-94830636D01*
X107954521Y-94830631D01*
X107925221Y-94799902D01*
X107921953Y-94796337D01*
X107793650Y-94650807D01*
X107793635Y-94650791D01*
X107566985Y-94424142D01*
X107564923Y-94422031D01*
X107516511Y-94371258D01*
X107516508Y-94371255D01*
X107486757Y-94343776D01*
X107483234Y-94340391D01*
X107349193Y-94206350D01*
X107253026Y-94121567D01*
X107103676Y-93989897D01*
X107101570Y-93987996D01*
X107050257Y-93940601D01*
X107050247Y-93940593D01*
X107050244Y-93940590D01*
X107042299Y-93934136D01*
X107020369Y-93916319D01*
X107016587Y-93913118D01*
X106877724Y-93790693D01*
X106877694Y-93790668D01*
X106613676Y-93585875D01*
X106611487Y-93584138D01*
X106557631Y-93540383D01*
X106527942Y-93519242D01*
X106523870Y-93516215D01*
X106381048Y-93405431D01*
X106220429Y-93296274D01*
X106098787Y-93213606D01*
X106096560Y-93212056D01*
X106040598Y-93172206D01*
X106011413Y-93154098D01*
X106007091Y-93151290D01*
X105861185Y-93052132D01*
X105561155Y-92874695D01*
X105558901Y-92873329D01*
X105501264Y-92837567D01*
X105501257Y-92837563D01*
X105472840Y-92822338D01*
X105468282Y-92819770D01*
X105320172Y-92732178D01*
X105320168Y-92732176D01*
X105320166Y-92732175D01*
X105320156Y-92732169D01*
X105088734Y-92614253D01*
X105002795Y-92570465D01*
X105000529Y-92569280D01*
X104941789Y-92537808D01*
X104914426Y-92525311D01*
X104909647Y-92523003D01*
X104760103Y-92446807D01*
X104426046Y-92302247D01*
X104423783Y-92301241D01*
X104364435Y-92274138D01*
X104364409Y-92274127D01*
X104338376Y-92264182D01*
X104333384Y-92262150D01*
X104320333Y-92256502D01*
X104183247Y-92197180D01*
X104183242Y-92197178D01*
X103833061Y-92071105D01*
X103830811Y-92070270D01*
X103771503Y-92047611D01*
X103771495Y-92047609D01*
X103746974Y-92039983D01*
X103741795Y-92038247D01*
X103664108Y-92010278D01*
X103591850Y-91984264D01*
X103591843Y-91984261D01*
X103591832Y-91984258D01*
X103226299Y-91878061D01*
X103224077Y-91877393D01*
X103165413Y-91859152D01*
X103142635Y-91853625D01*
X103137282Y-91852199D01*
X103008046Y-91814653D01*
X102988251Y-91808902D01*
X102988247Y-91808901D01*
X102608090Y-91723925D01*
X102605907Y-91723416D01*
X102548578Y-91709509D01*
X102527744Y-91705835D01*
X102522229Y-91704733D01*
X102374832Y-91671786D01*
X102374818Y-91671784D01*
X101980925Y-91609397D01*
X101978792Y-91609040D01*
X101923513Y-91599293D01*
X101904745Y-91597200D01*
X101899094Y-91596437D01*
X101754029Y-91573461D01*
X101754023Y-91573460D01*
X101754014Y-91573459D01*
X101610229Y-91559867D01*
X101347218Y-91535004D01*
X101345147Y-91534790D01*
X101292695Y-91528941D01*
X101276184Y-91528154D01*
X101270421Y-91527745D01*
X101149533Y-91516318D01*
X101128247Y-91514306D01*
X101128245Y-91514305D01*
X101128232Y-91514305D01*
X100709638Y-91501150D01*
X100707637Y-91501071D01*
X100658682Y-91498740D01*
X100644530Y-91498965D01*
X100638669Y-91498920D01*
X100500000Y-91494563D01*
X100070533Y-91508058D01*
X100068609Y-91508103D01*
X100024084Y-91508810D01*
X100024063Y-91508810D01*
X100024061Y-91508811D01*
X100024058Y-91508811D01*
X100024041Y-91508812D01*
X100012269Y-91509747D01*
X100006353Y-91510075D01*
X99871766Y-91514305D01*
X99871753Y-91514306D01*
X99432629Y-91555815D01*
X99430790Y-91555975D01*
X99391334Y-91559112D01*
X99391322Y-91559114D01*
X99381995Y-91560454D01*
X99376035Y-91561163D01*
X99246004Y-91573456D01*
X99245966Y-91573461D01*
X98798345Y-91644357D01*
X98796599Y-91644621D01*
X98763099Y-91649438D01*
X98763072Y-91649443D01*
X98756187Y-91650884D01*
X98750195Y-91651984D01*
X98625181Y-91671784D01*
X98625167Y-91671786D01*
X98170026Y-91773521D01*
X98168382Y-91773877D01*
X98141803Y-91779440D01*
X98137401Y-91780657D01*
X98131423Y-91782150D01*
X98011753Y-91808900D01*
X97550504Y-91942905D01*
X97548959Y-91943343D01*
X97530065Y-91948567D01*
X97530049Y-91948572D01*
X97528013Y-91949277D01*
X97522084Y-91951162D01*
X97408147Y-91984264D01*
X96942047Y-92152070D01*
X96940621Y-92152574D01*
X96930238Y-92156169D01*
X96928917Y-92156673D01*
X96924676Y-92158323D01*
X96816765Y-92197175D01*
X96816755Y-92197179D01*
X96346982Y-92400466D01*
X96345731Y-92400999D01*
X96344749Y-92401411D01*
X96342798Y-92402277D01*
X96239912Y-92446800D01*
X96239894Y-92446809D01*
X96239892Y-92446810D01*
X95679844Y-92732169D01*
X95679839Y-92732171D01*
X95679831Y-92732176D01*
X95679827Y-92732178D01*
X95138814Y-93052132D01*
X94618954Y-93405429D01*
X94618941Y-93405438D01*
X94122305Y-93790668D01*
X94122293Y-93790678D01*
X93650798Y-94206357D01*
X93206357Y-94650798D01*
X92790678Y-95122293D01*
X92790668Y-95122305D01*
X92405438Y-95618941D01*
X92405429Y-95618954D01*
X92052132Y-96138814D01*
X91732178Y-96679827D01*
X91732176Y-96679831D01*
X91732171Y-96679839D01*
X91732169Y-96679844D01*
X91730712Y-96682704D01*
X91446808Y-97239895D01*
X91197181Y-97816751D01*
X90984261Y-98408157D01*
X90808903Y-99011741D01*
X90671785Y-99625174D01*
X90671784Y-99625181D01*
X90573461Y-100245970D01*
X90573461Y-100245972D01*
X90573459Y-100245986D01*
X90551095Y-100482573D01*
X90514305Y-100871757D01*
X90514305Y-100871766D01*
X90494563Y-101500000D01*
X76303723Y-101500000D01*
X76322907Y-101244004D01*
X76322907Y-101243995D01*
X76303307Y-100982454D01*
X76303306Y-100982449D01*
X76244941Y-100726729D01*
X76149116Y-100482573D01*
X76149117Y-100482573D01*
X76017972Y-100255426D01*
X75970124Y-100195427D01*
X75093929Y-101071622D01*
X75091116Y-101058085D01*
X75021558Y-100923844D01*
X74918362Y-100813348D01*
X74789181Y-100734791D01*
X74737997Y-100720450D01*
X75617168Y-99841278D01*
X75445454Y-99724206D01*
X75445445Y-99724201D01*
X75209142Y-99610404D01*
X75209144Y-99610404D01*
X74958505Y-99533092D01*
X74958499Y-99533090D01*
X74699151Y-99494000D01*
X74436848Y-99494000D01*
X74177500Y-99533090D01*
X74177494Y-99533092D01*
X73926858Y-99610404D01*
X73926854Y-99610405D01*
X73690547Y-99724205D01*
X73690539Y-99724210D01*
X73518830Y-99841277D01*
X74396431Y-100718878D01*
X74279542Y-100769651D01*
X74162261Y-100865066D01*
X74075072Y-100988585D01*
X74044645Y-101074197D01*
X73165875Y-100195427D01*
X73165874Y-100195427D01*
X73118028Y-100255425D01*
X72986883Y-100482573D01*
X72891058Y-100726729D01*
X72832693Y-100982449D01*
X72832692Y-100982454D01*
X72813093Y-101243995D01*
X72813093Y-101244004D01*
X69078500Y-101244004D01*
X69078500Y-95494004D01*
X72812592Y-95494004D01*
X72832196Y-95755620D01*
X72832197Y-95755625D01*
X72890576Y-96011402D01*
X72890578Y-96011411D01*
X72890580Y-96011416D01*
X72986432Y-96255643D01*
X73117614Y-96482857D01*
X73249736Y-96648533D01*
X73281198Y-96687985D01*
X73462753Y-96856441D01*
X73473521Y-96866433D01*
X73690296Y-97014228D01*
X73690301Y-97014230D01*
X73690302Y-97014231D01*
X73690303Y-97014232D01*
X73815843Y-97074688D01*
X73926673Y-97128061D01*
X73926674Y-97128061D01*
X73926677Y-97128063D01*
X74177385Y-97205396D01*
X74436818Y-97244500D01*
X74699182Y-97244500D01*
X74958615Y-97205396D01*
X75209323Y-97128063D01*
X75445704Y-97014228D01*
X75662479Y-96866433D01*
X75854805Y-96687981D01*
X76018386Y-96482857D01*
X76149568Y-96255643D01*
X76245420Y-96011416D01*
X76303802Y-95755630D01*
X76314044Y-95618954D01*
X76323408Y-95494004D01*
X76323408Y-95493995D01*
X76303803Y-95232379D01*
X76303802Y-95232374D01*
X76303802Y-95232370D01*
X76245420Y-94976584D01*
X76149568Y-94732357D01*
X76018386Y-94505143D01*
X75854805Y-94300019D01*
X75854804Y-94300018D01*
X75854801Y-94300014D01*
X75662479Y-94121567D01*
X75445704Y-93973772D01*
X75445700Y-93973770D01*
X75445697Y-93973768D01*
X75445696Y-93973767D01*
X75209325Y-93859938D01*
X75209327Y-93859938D01*
X74958623Y-93782606D01*
X74958619Y-93782605D01*
X74958615Y-93782604D01*
X74833823Y-93763794D01*
X74699187Y-93743500D01*
X74699182Y-93743500D01*
X74436818Y-93743500D01*
X74436812Y-93743500D01*
X74275247Y-93767853D01*
X74177385Y-93782604D01*
X74177382Y-93782605D01*
X74177376Y-93782606D01*
X73926673Y-93859938D01*
X73690303Y-93973767D01*
X73690302Y-93973768D01*
X73473520Y-94121567D01*
X73281198Y-94300014D01*
X73117614Y-94505143D01*
X72986432Y-94732356D01*
X72890582Y-94976578D01*
X72890576Y-94976597D01*
X72832197Y-95232374D01*
X72832196Y-95232379D01*
X72812592Y-95493995D01*
X72812592Y-95494004D01*
X69078500Y-95494004D01*
X69078500Y-78575450D01*
X69098185Y-78508411D01*
X69114819Y-78487769D01*
X71018383Y-76584205D01*
X71079706Y-76550720D01*
X71149398Y-76555704D01*
X71205331Y-76597576D01*
X71229748Y-76663040D01*
X71230064Y-76671886D01*
X71230064Y-76672275D01*
X71250659Y-76907678D01*
X71250661Y-76907688D01*
X71311817Y-77135930D01*
X71311819Y-77135934D01*
X71311820Y-77135938D01*
X71387286Y-77297775D01*
X71411688Y-77350105D01*
X71411690Y-77350109D01*
X71520004Y-77504796D01*
X71547224Y-77543671D01*
X71547229Y-77543677D01*
X71714320Y-77710768D01*
X71714326Y-77710773D01*
X71899881Y-77840700D01*
X71943506Y-77895277D01*
X71950700Y-77964775D01*
X71919177Y-78027130D01*
X71899881Y-78043850D01*
X71714320Y-78173780D01*
X71547228Y-78340872D01*
X71411688Y-78534444D01*
X71411687Y-78534446D01*
X71311821Y-78748610D01*
X71311817Y-78748619D01*
X71250661Y-78976861D01*
X71250659Y-78976871D01*
X71230064Y-79212274D01*
X71230064Y-79212275D01*
X71250659Y-79447678D01*
X71250661Y-79447688D01*
X71311817Y-79675930D01*
X71311819Y-79675934D01*
X71311820Y-79675938D01*
X71387286Y-79837775D01*
X71411688Y-79890105D01*
X71411690Y-79890109D01*
X71520004Y-80044796D01*
X71547224Y-80083671D01*
X71547229Y-80083677D01*
X71714320Y-80250768D01*
X71714326Y-80250773D01*
X71899881Y-80380700D01*
X71943506Y-80435277D01*
X71950700Y-80504775D01*
X71919177Y-80567130D01*
X71899881Y-80583850D01*
X71714320Y-80713780D01*
X71547228Y-80880872D01*
X71411688Y-81074444D01*
X71411687Y-81074446D01*
X71311821Y-81288610D01*
X71311817Y-81288619D01*
X71250661Y-81516861D01*
X71250659Y-81516871D01*
X71230064Y-81752274D01*
X71230064Y-81752275D01*
X71250659Y-81987678D01*
X71250661Y-81987688D01*
X71311817Y-82215930D01*
X71311819Y-82215934D01*
X71311820Y-82215938D01*
X71411688Y-82430105D01*
X71411690Y-82430109D01*
X71520004Y-82584796D01*
X71547228Y-82623676D01*
X71714322Y-82790770D01*
X71900317Y-82921005D01*
X71943941Y-82975582D01*
X71951134Y-83045081D01*
X71919612Y-83107435D01*
X71900316Y-83124155D01*
X71824349Y-83177347D01*
X71824348Y-83177347D01*
X72453189Y-83806188D01*
X72443408Y-83807595D01*
X72312623Y-83867323D01*
X72203962Y-83961477D01*
X72126230Y-84082431D01*
X72102646Y-84162751D01*
X71470795Y-83530900D01*
X71412124Y-83614694D01*
X71312293Y-83828782D01*
X71312289Y-83828791D01*
X71251155Y-84056948D01*
X71251153Y-84056959D01*
X71230566Y-84292273D01*
X71230566Y-84292276D01*
X71251153Y-84527590D01*
X71251155Y-84527601D01*
X71312289Y-84755758D01*
X71312293Y-84755767D01*
X71412123Y-84969854D01*
X71412125Y-84969858D01*
X71470795Y-85053648D01*
X71470796Y-85053648D01*
X72102646Y-84421798D01*
X72126230Y-84502119D01*
X72203962Y-84623073D01*
X72312623Y-84717227D01*
X72443408Y-84776955D01*
X72453189Y-84778361D01*
X71786092Y-85445456D01*
X71724769Y-85478941D01*
X71698420Y-85481775D01*
X71687857Y-85481775D01*
X71687846Y-85481776D01*
X71628239Y-85488183D01*
X71493394Y-85538477D01*
X71493387Y-85538481D01*
X71378178Y-85624727D01*
X71378175Y-85624730D01*
X71291929Y-85739939D01*
X71291925Y-85739946D01*
X71241631Y-85874792D01*
X71235224Y-85934391D01*
X71235224Y-85934398D01*
X71235223Y-85934410D01*
X71235223Y-87730145D01*
X71235224Y-87730151D01*
X71241631Y-87789758D01*
X71291925Y-87924603D01*
X71291929Y-87924610D01*
X71378175Y-88039819D01*
X71378178Y-88039822D01*
X71493387Y-88126068D01*
X71493394Y-88126072D01*
X71628240Y-88176366D01*
X71628239Y-88176366D01*
X71635167Y-88177110D01*
X71687850Y-88182775D01*
X73483595Y-88182774D01*
X73543206Y-88176366D01*
X73678054Y-88126071D01*
X73793269Y-88039821D01*
X73879519Y-87924606D01*
X73929814Y-87789758D01*
X73936223Y-87730148D01*
X73936222Y-85934403D01*
X73929814Y-85874792D01*
X73879519Y-85739944D01*
X73879518Y-85739943D01*
X73879516Y-85739939D01*
X73793270Y-85624730D01*
X73793267Y-85624727D01*
X73678058Y-85538481D01*
X73678051Y-85538477D01*
X73543205Y-85488183D01*
X73543206Y-85488183D01*
X73483606Y-85481776D01*
X73483604Y-85481775D01*
X73483596Y-85481775D01*
X73483588Y-85481775D01*
X73473033Y-85481775D01*
X73405994Y-85462090D01*
X73385352Y-85445456D01*
X72718256Y-84778361D01*
X72728038Y-84776955D01*
X72858823Y-84717227D01*
X72967484Y-84623073D01*
X73045216Y-84502119D01*
X73068799Y-84421799D01*
X73700648Y-85053648D01*
X73700649Y-85053648D01*
X73728547Y-85013806D01*
X130979500Y-85013806D01*
X130998664Y-85245097D01*
X130998666Y-85245108D01*
X131055642Y-85470100D01*
X131148875Y-85682648D01*
X131275818Y-85876950D01*
X131370967Y-85980310D01*
X131401889Y-86042964D01*
X131394028Y-86112390D01*
X131349881Y-86166546D01*
X131323071Y-86180474D01*
X131242711Y-86210446D01*
X131242706Y-86210449D01*
X131127612Y-86296609D01*
X131127609Y-86296612D01*
X131041449Y-86411706D01*
X131041445Y-86411713D01*
X130991203Y-86546420D01*
X130991201Y-86546427D01*
X130984800Y-86605955D01*
X130984800Y-87303800D01*
X132009522Y-87303800D01*
X131961175Y-87387540D01*
X131930990Y-87519792D01*
X131941127Y-87655065D01*
X131990687Y-87781341D01*
X132008597Y-87803800D01*
X130984800Y-87803800D01*
X130984800Y-88501644D01*
X130991201Y-88561172D01*
X130991203Y-88561179D01*
X131041445Y-88695886D01*
X131041449Y-88695893D01*
X131127609Y-88810987D01*
X131127612Y-88810990D01*
X131242706Y-88897150D01*
X131242713Y-88897154D01*
X131377420Y-88947396D01*
X131377427Y-88947398D01*
X131436955Y-88953799D01*
X131436972Y-88953800D01*
X132134800Y-88953800D01*
X132134800Y-87927989D01*
X132187347Y-87963816D01*
X132316973Y-88003800D01*
X132418524Y-88003800D01*
X132518938Y-87988665D01*
X132634800Y-87932868D01*
X132634800Y-88953800D01*
X133332628Y-88953800D01*
X133332644Y-88953799D01*
X133392172Y-88947398D01*
X133392179Y-88947396D01*
X133526886Y-88897154D01*
X133526893Y-88897150D01*
X133641987Y-88810990D01*
X133641990Y-88810987D01*
X133728150Y-88695893D01*
X133728154Y-88695886D01*
X133778396Y-88561179D01*
X133778398Y-88561172D01*
X133784799Y-88501644D01*
X133784800Y-88501627D01*
X133784800Y-87803800D01*
X132760078Y-87803800D01*
X132808425Y-87720060D01*
X132838610Y-87587808D01*
X132828473Y-87452535D01*
X132778913Y-87326259D01*
X132761003Y-87303800D01*
X133784800Y-87303800D01*
X133784800Y-86605972D01*
X133784799Y-86605955D01*
X133778398Y-86546427D01*
X133778396Y-86546420D01*
X133728154Y-86411713D01*
X133728150Y-86411706D01*
X133641990Y-86296612D01*
X133641987Y-86296609D01*
X133526893Y-86210449D01*
X133526886Y-86210445D01*
X133446529Y-86180474D01*
X133390595Y-86138603D01*
X133366178Y-86073138D01*
X133381030Y-86004865D01*
X133398626Y-85980316D01*
X133493779Y-85876953D01*
X133620724Y-85682649D01*
X133713957Y-85470100D01*
X133770934Y-85245105D01*
X133770935Y-85245097D01*
X133790100Y-85013806D01*
X133790100Y-85013793D01*
X133770935Y-84782502D01*
X133770933Y-84782491D01*
X133713957Y-84557499D01*
X133620724Y-84344951D01*
X133493783Y-84150652D01*
X133493780Y-84150649D01*
X133493779Y-84150647D01*
X133336584Y-83979887D01*
X133336579Y-83979883D01*
X133336577Y-83979881D01*
X133153434Y-83837335D01*
X133153428Y-83837331D01*
X132949304Y-83726864D01*
X132949295Y-83726861D01*
X132729784Y-83651502D01*
X132558082Y-83622850D01*
X132500849Y-83613300D01*
X132268751Y-83613300D01*
X132222964Y-83620940D01*
X132039815Y-83651502D01*
X131820304Y-83726861D01*
X131820295Y-83726864D01*
X131616171Y-83837331D01*
X131616165Y-83837335D01*
X131433022Y-83979881D01*
X131433019Y-83979884D01*
X131275816Y-84150652D01*
X131148875Y-84344951D01*
X131055642Y-84557499D01*
X130998666Y-84782491D01*
X130998664Y-84782502D01*
X130979500Y-85013793D01*
X130979500Y-85013806D01*
X73728547Y-85013806D01*
X73759321Y-84969857D01*
X73759323Y-84969853D01*
X73859152Y-84755767D01*
X73859156Y-84755758D01*
X73920290Y-84527601D01*
X73920292Y-84527590D01*
X73940880Y-84292276D01*
X73940880Y-84292273D01*
X73920292Y-84056959D01*
X73920290Y-84056948D01*
X73859156Y-83828791D01*
X73859152Y-83828782D01*
X73759323Y-83614698D01*
X73759322Y-83614696D01*
X73700648Y-83530901D01*
X73700648Y-83530900D01*
X73068799Y-84162750D01*
X73045216Y-84082431D01*
X72967484Y-83961477D01*
X72858823Y-83867323D01*
X72728038Y-83807595D01*
X72718256Y-83806188D01*
X73347096Y-83177348D01*
X73347096Y-83177347D01*
X73271128Y-83124155D01*
X73227503Y-83069579D01*
X73220309Y-83000080D01*
X73251831Y-82937726D01*
X73271122Y-82921009D01*
X73457124Y-82790770D01*
X73624218Y-82623676D01*
X73759758Y-82430105D01*
X73859626Y-82215938D01*
X73920786Y-81987683D01*
X73941382Y-81752275D01*
X73920786Y-81516867D01*
X73859626Y-81288612D01*
X73759758Y-81074446D01*
X73624218Y-80880874D01*
X73624217Y-80880872D01*
X73457125Y-80713781D01*
X73457119Y-80713776D01*
X73271565Y-80583850D01*
X73227940Y-80529273D01*
X73220746Y-80459775D01*
X73252269Y-80397420D01*
X73271565Y-80380700D01*
X73293749Y-80365166D01*
X73457124Y-80250770D01*
X73624218Y-80083676D01*
X73759375Y-79890652D01*
X73813952Y-79847027D01*
X73860950Y-79837775D01*
X99464626Y-79837775D01*
X99531665Y-79857460D01*
X99552307Y-79874094D01*
X102275441Y-82597229D01*
X102308926Y-82658552D01*
X102311081Y-82671948D01*
X102319371Y-82750827D01*
X102328729Y-82839856D01*
X102328730Y-82839859D01*
X102387221Y-83019877D01*
X102387224Y-83019884D01*
X102481870Y-83183816D01*
X102527609Y-83234614D01*
X102608532Y-83324488D01*
X102761668Y-83435748D01*
X102761673Y-83435751D01*
X102934595Y-83512742D01*
X102934600Y-83512744D01*
X103119757Y-83552100D01*
X103119758Y-83552100D01*
X103309047Y-83552100D01*
X103309049Y-83552100D01*
X103494206Y-83512744D01*
X103667133Y-83435751D01*
X103820274Y-83324488D01*
X103946936Y-83183816D01*
X104041582Y-83019884D01*
X104100077Y-82839856D01*
X104119863Y-82651600D01*
X104100077Y-82463344D01*
X104041582Y-82283316D01*
X103946936Y-82119384D01*
X103820274Y-81978712D01*
X103820273Y-81978711D01*
X103667137Y-81867451D01*
X103667132Y-81867448D01*
X103494210Y-81790457D01*
X103494205Y-81790455D01*
X103348404Y-81759465D01*
X103309049Y-81751100D01*
X103309048Y-81751100D01*
X103249855Y-81751100D01*
X103182816Y-81731415D01*
X103162174Y-81714781D01*
X100275881Y-78828487D01*
X100266058Y-78816225D01*
X100265837Y-78816409D01*
X100260864Y-78810397D01*
X100211854Y-78764374D01*
X100209055Y-78761661D01*
X100189555Y-78742160D01*
X100189549Y-78742155D01*
X100186364Y-78739684D01*
X100177512Y-78732123D01*
X100145660Y-78702213D01*
X100145658Y-78702211D01*
X100145655Y-78702210D01*
X100128107Y-78692563D01*
X100111841Y-78681879D01*
X100096010Y-78669599D01*
X100055927Y-78652253D01*
X100045441Y-78647116D01*
X100007172Y-78626078D01*
X100007170Y-78626077D01*
X99987771Y-78621097D01*
X99969359Y-78614793D01*
X99950976Y-78606837D01*
X99950970Y-78606835D01*
X99907838Y-78600004D01*
X99896400Y-78597636D01*
X99854098Y-78586775D01*
X99854097Y-78586775D01*
X99834062Y-78586775D01*
X99814664Y-78585248D01*
X99807240Y-78584072D01*
X99794883Y-78582115D01*
X99794882Y-78582115D01*
X99751403Y-78586225D01*
X99739734Y-78586775D01*
X73860950Y-78586775D01*
X73793911Y-78567090D01*
X73759375Y-78533898D01*
X73624217Y-78340872D01*
X73457125Y-78173781D01*
X73457119Y-78173776D01*
X73271565Y-78043850D01*
X73227940Y-77989273D01*
X73220746Y-77919775D01*
X73252269Y-77857420D01*
X73271565Y-77840700D01*
X73293749Y-77825166D01*
X73457124Y-77710770D01*
X73624218Y-77543676D01*
X73759375Y-77350652D01*
X73813952Y-77307027D01*
X73860950Y-77297775D01*
X106932226Y-77297775D01*
X106999265Y-77317460D01*
X107019907Y-77334094D01*
X112333841Y-82648028D01*
X112367326Y-82709351D01*
X112369481Y-82722747D01*
X112376631Y-82790768D01*
X112387129Y-82890656D01*
X112387130Y-82890659D01*
X112445621Y-83070677D01*
X112445624Y-83070684D01*
X112540270Y-83234616D01*
X112666932Y-83375288D01*
X112820068Y-83486548D01*
X112820073Y-83486551D01*
X112992995Y-83563542D01*
X112993000Y-83563544D01*
X113178157Y-83602900D01*
X113178158Y-83602900D01*
X113367447Y-83602900D01*
X113367449Y-83602900D01*
X113552606Y-83563544D01*
X113725533Y-83486551D01*
X113878674Y-83375288D01*
X114005336Y-83234616D01*
X114099982Y-83070684D01*
X114158477Y-82890656D01*
X114178263Y-82702400D01*
X114158477Y-82514144D01*
X114099982Y-82334116D01*
X114005336Y-82170184D01*
X113878674Y-82029512D01*
X113878673Y-82029511D01*
X113725537Y-81918251D01*
X113725532Y-81918248D01*
X113552610Y-81841257D01*
X113552605Y-81841255D01*
X113406804Y-81810265D01*
X113367449Y-81801900D01*
X113367448Y-81801900D01*
X113308255Y-81801900D01*
X113241216Y-81782215D01*
X113220574Y-81765581D01*
X107743481Y-76288487D01*
X107733658Y-76276225D01*
X107733437Y-76276409D01*
X107728464Y-76270397D01*
X107679454Y-76224374D01*
X107676655Y-76221661D01*
X107657155Y-76202160D01*
X107657149Y-76202155D01*
X107653964Y-76199684D01*
X107645112Y-76192123D01*
X107613260Y-76162213D01*
X107613258Y-76162211D01*
X107613255Y-76162210D01*
X107595707Y-76152563D01*
X107579441Y-76141879D01*
X107563610Y-76129599D01*
X107523527Y-76112253D01*
X107513041Y-76107116D01*
X107474772Y-76086078D01*
X107474770Y-76086077D01*
X107455371Y-76081097D01*
X107436959Y-76074793D01*
X107418576Y-76066837D01*
X107418570Y-76066835D01*
X107375438Y-76060004D01*
X107364000Y-76057636D01*
X107321698Y-76046775D01*
X107321697Y-76046775D01*
X107301662Y-76046775D01*
X107282264Y-76045248D01*
X107274840Y-76044072D01*
X107262483Y-76042115D01*
X107262482Y-76042115D01*
X107219003Y-76046225D01*
X107207334Y-76046775D01*
X73860950Y-76046775D01*
X73793911Y-76027090D01*
X73759375Y-75993898D01*
X73624217Y-75800872D01*
X73457125Y-75633781D01*
X73457119Y-75633776D01*
X73271565Y-75503850D01*
X73227940Y-75449273D01*
X73220746Y-75379775D01*
X73252269Y-75317420D01*
X73271565Y-75300700D01*
X73293749Y-75285166D01*
X73457124Y-75170770D01*
X73624218Y-75003676D01*
X73759758Y-74810105D01*
X73859626Y-74595938D01*
X73920786Y-74367683D01*
X73941382Y-74132275D01*
X73920786Y-73896867D01*
X73859626Y-73668612D01*
X73759758Y-73454446D01*
X73624218Y-73260874D01*
X73624217Y-73260872D01*
X73457125Y-73093781D01*
X73457119Y-73093776D01*
X73271565Y-72963850D01*
X73227940Y-72909273D01*
X73220746Y-72839775D01*
X73252269Y-72777420D01*
X73271565Y-72760700D01*
X73293749Y-72745166D01*
X73457124Y-72630770D01*
X73624218Y-72463676D01*
X73759758Y-72270105D01*
X73859626Y-72055938D01*
X73920786Y-71827683D01*
X73941382Y-71592275D01*
X73920786Y-71356867D01*
X73859626Y-71128612D01*
X73759758Y-70914446D01*
X73624218Y-70720874D01*
X73624217Y-70720872D01*
X73457125Y-70553781D01*
X73457118Y-70553776D01*
X73263557Y-70418242D01*
X73263553Y-70418240D01*
X73263551Y-70418239D01*
X73049386Y-70318372D01*
X73049382Y-70318371D01*
X73049378Y-70318369D01*
X72821136Y-70257213D01*
X72821126Y-70257211D01*
X72585724Y-70236616D01*
X72585722Y-70236616D01*
X72350319Y-70257211D01*
X72350309Y-70257213D01*
X72122067Y-70318369D01*
X72122058Y-70318373D01*
X71907894Y-70418239D01*
X71907892Y-70418240D01*
X71714320Y-70553780D01*
X71547228Y-70720872D01*
X71411688Y-70914444D01*
X71411687Y-70914446D01*
X71311821Y-71128610D01*
X71311817Y-71128619D01*
X71250661Y-71356861D01*
X71250659Y-71356871D01*
X71230064Y-71592274D01*
X71230064Y-71592275D01*
X71250659Y-71827678D01*
X71250661Y-71827688D01*
X71311817Y-72055930D01*
X71311819Y-72055934D01*
X71311820Y-72055938D01*
X71411688Y-72270105D01*
X71411690Y-72270109D01*
X71547224Y-72463670D01*
X71547229Y-72463677D01*
X71714320Y-72630768D01*
X71714326Y-72630773D01*
X71899881Y-72760700D01*
X71943506Y-72815277D01*
X71950700Y-72884775D01*
X71919177Y-72947130D01*
X71899881Y-72963850D01*
X71714320Y-73093780D01*
X71547228Y-73260872D01*
X71411688Y-73454444D01*
X71411687Y-73454446D01*
X71311821Y-73668610D01*
X71311817Y-73668619D01*
X71250661Y-73896861D01*
X71250659Y-73896871D01*
X71230064Y-74132274D01*
X71230064Y-74132275D01*
X71250659Y-74367678D01*
X71250661Y-74367688D01*
X71277579Y-74468147D01*
X71275916Y-74537997D01*
X71245485Y-74587921D01*
X68069208Y-77764197D01*
X68056951Y-77774018D01*
X68057134Y-77774239D01*
X68051122Y-77779212D01*
X68005098Y-77828221D01*
X68002391Y-77831014D01*
X67982889Y-77850515D01*
X67982875Y-77850532D01*
X67980407Y-77853713D01*
X67972843Y-77862568D01*
X67942937Y-77894416D01*
X67942936Y-77894418D01*
X67933284Y-77911974D01*
X67922610Y-77928224D01*
X67910329Y-77944059D01*
X67910324Y-77944066D01*
X67892975Y-77984156D01*
X67887838Y-77994642D01*
X67866803Y-78032904D01*
X67861822Y-78052305D01*
X67855521Y-78070708D01*
X67847562Y-78089100D01*
X67847561Y-78089103D01*
X67840728Y-78132241D01*
X67838360Y-78143672D01*
X67827501Y-78185969D01*
X67827500Y-78185980D01*
X67827500Y-78206014D01*
X67825973Y-78225413D01*
X67822840Y-78245192D01*
X67822840Y-78245193D01*
X65002642Y-78245193D01*
X65002642Y-69058396D01*
X65022327Y-68991357D01*
X65075131Y-68945602D01*
X65125922Y-68934398D01*
X122272999Y-68603589D01*
X122327516Y-68615866D01*
X122382159Y-68642181D01*
X122473926Y-68670487D01*
X122478162Y-68671794D01*
X122486912Y-68674856D01*
X122505256Y-68682055D01*
X122506937Y-68682715D01*
X122506943Y-68682716D01*
X122506952Y-68682719D01*
X122518942Y-68685455D01*
X122527909Y-68687501D01*
X122536837Y-68689892D01*
X122632867Y-68719514D01*
X122632872Y-68719514D01*
X122632873Y-68719515D01*
X122646621Y-68721587D01*
X122732230Y-68734490D01*
X122741310Y-68736209D01*
X122762292Y-68740998D01*
X122783763Y-68742607D01*
X122792929Y-68743640D01*
X122892300Y-68758618D01*
X122892306Y-68758618D01*
X122992771Y-68758618D01*
X123002039Y-68758965D01*
X123023480Y-68760572D01*
X123023482Y-68760572D01*
X123023484Y-68760572D01*
X123044925Y-68758965D01*
X123054193Y-68758618D01*
X123154658Y-68758618D01*
X123154664Y-68758618D01*
X123254037Y-68743639D01*
X123263197Y-68742607D01*
X123284672Y-68740998D01*
X123305672Y-68736204D01*
X123314717Y-68734493D01*
X123414097Y-68719514D01*
X123510126Y-68689892D01*
X123519054Y-68687501D01*
X123528870Y-68685261D01*
X123540016Y-68682718D01*
X123540020Y-68682716D01*
X123540027Y-68682715D01*
X123560073Y-68674847D01*
X123568774Y-68671802D01*
X123664805Y-68642181D01*
X123737690Y-68607081D01*
X123790768Y-68594803D01*
X135083527Y-68529433D01*
X135150677Y-68548729D01*
G37*
G04 #@! TD.AperFunction*
M02*
