M48
; DRILL file {KiCad 7.0.10} date 
; FORMAT={-:-/ absolute / metric / decimal}
; #@! TF.CreationDate,2024-02-05T15:41:36+01:00
; #@! TF.GenerationSoftware,Kicad,Pcbnew,7.0.10
; #@! TF.FileFunction,Plated,1,2,PTH
FMAT,2
METRIC
; #@! TA.AperFunction,Plated,PTH,ViaDrill
T1C0.400
; #@! TA.AperFunction,Plated,PTH,ComponentDrill
T2C0.900
; #@! TA.AperFunction,Plated,PTH,ComponentDrill
T3C1.000
; #@! TA.AperFunction,Plated,PTH,ComponentDrill
T4C1.100
; #@! TA.AperFunction,Plated,PTH,ComponentDrill
T5C1.400
%
G90
G05
T1
X103.214Y-82.652
X110.388Y-71.196
X113.273Y-82.702
X123.215Y-103.052
X123.292Y-112.729
X123.393Y-122.914
T2
X132.385Y-85.014
X132.385Y-87.554
T3
X72.586Y-71.592
X72.586Y-74.132
X72.586Y-76.672
X72.586Y-79.212
X72.586Y-81.752
X72.586Y-84.292
X72.586Y-86.832
X79.299Y-123.368
X79.299Y-125.908
X79.299Y-128.448
X79.299Y-130.988
T4
X74.568Y-95.494
X74.568Y-101.244
X74.568Y-111.725
X74.568Y-117.475
T5
X130.734Y-100.621
X130.734Y-105.621
X130.734Y-110.621
X130.734Y-115.621
X130.734Y-120.621
X130.734Y-125.621
M30
