G04 #@! TF.GenerationSoftware,KiCad,Pcbnew,7.0.10*
G04 #@! TF.CreationDate,2024-02-05T15:41:23+01:00*
G04 #@! TF.ProjectId,KNX_EnvironmentSensor,4b4e585f-456e-4766-9972-6f6e6d656e74,rev?*
G04 #@! TF.SameCoordinates,Original*
G04 #@! TF.FileFunction,Copper,L1,Top*
G04 #@! TF.FilePolarity,Positive*
%FSLAX46Y46*%
G04 Gerber Fmt 4.6, Leading zero omitted, Abs format (unit mm)*
G04 Created by KiCad (PCBNEW 7.0.10) date 2024-02-05 15:41:23*
%MOMM*%
%LPD*%
G01*
G04 APERTURE LIST*
G04 Aperture macros list*
%AMRoundRect*
0 Rectangle with rounded corners*
0 $1 Rounding radius*
0 $2 $3 $4 $5 $6 $7 $8 $9 X,Y pos of 4 corners*
0 Add a 4 corners polygon primitive as box body*
4,1,4,$2,$3,$4,$5,$6,$7,$8,$9,$2,$3,0*
0 Add four circle primitives for the rounded corners*
1,1,$1+$1,$2,$3*
1,1,$1+$1,$4,$5*
1,1,$1+$1,$6,$7*
1,1,$1+$1,$8,$9*
0 Add four rect primitives between the rounded corners*
20,1,$1+$1,$2,$3,$4,$5,0*
20,1,$1+$1,$4,$5,$6,$7,0*
20,1,$1+$1,$6,$7,$8,$9,0*
20,1,$1+$1,$8,$9,$2,$3,0*%
G04 Aperture macros list end*
G04 #@! TA.AperFunction,ComponentPad*
%ADD10RoundRect,0.250000X1.550000X-0.750000X1.550000X0.750000X-1.550000X0.750000X-1.550000X-0.750000X0*%
G04 #@! TD*
G04 #@! TA.AperFunction,ComponentPad*
%ADD11O,3.600000X2.000000*%
G04 #@! TD*
G04 #@! TA.AperFunction,SMDPad,CuDef*
%ADD12O,2.748280X1.998980*%
G04 #@! TD*
G04 #@! TA.AperFunction,SMDPad,CuDef*
%ADD13O,1.016000X2.032000*%
G04 #@! TD*
G04 #@! TA.AperFunction,SMDPad,CuDef*
%ADD14C,1.143000*%
G04 #@! TD*
G04 #@! TA.AperFunction,ComponentPad*
%ADD15R,1.800000X1.800000*%
G04 #@! TD*
G04 #@! TA.AperFunction,ComponentPad*
%ADD16C,1.800000*%
G04 #@! TD*
G04 #@! TA.AperFunction,SMDPad,CuDef*
%ADD17RoundRect,0.250000X-0.625000X0.400000X-0.625000X-0.400000X0.625000X-0.400000X0.625000X0.400000X0*%
G04 #@! TD*
G04 #@! TA.AperFunction,SMDPad,CuDef*
%ADD18RoundRect,0.250000X0.400000X0.625000X-0.400000X0.625000X-0.400000X-0.625000X0.400000X-0.625000X0*%
G04 #@! TD*
G04 #@! TA.AperFunction,SMDPad,CuDef*
%ADD19RoundRect,0.250000X-0.400000X-0.625000X0.400000X-0.625000X0.400000X0.625000X-0.400000X0.625000X0*%
G04 #@! TD*
G04 #@! TA.AperFunction,ComponentPad*
%ADD20R,1.700000X1.700000*%
G04 #@! TD*
G04 #@! TA.AperFunction,ComponentPad*
%ADD21C,1.700000*%
G04 #@! TD*
G04 #@! TA.AperFunction,SMDPad,CuDef*
%ADD22R,1.550000X1.300000*%
G04 #@! TD*
G04 #@! TA.AperFunction,ComponentPad*
%ADD23C,2.500000*%
G04 #@! TD*
G04 #@! TA.AperFunction,ComponentPad*
%ADD24O,1.700000X1.700000*%
G04 #@! TD*
G04 #@! TA.AperFunction,ViaPad*
%ADD25C,0.800000*%
G04 #@! TD*
G04 #@! TA.AperFunction,Conductor*
%ADD26C,0.250000*%
G04 #@! TD*
G04 APERTURE END LIST*
D10*
X130733800Y-125620800D03*
D11*
X130733800Y-120620800D03*
X130733800Y-115620800D03*
X130733800Y-110620800D03*
X130733800Y-105620800D03*
X130733800Y-100620800D03*
D12*
X100260320Y-67375180D03*
X100260320Y-69915180D03*
X100260320Y-72455180D03*
X100260320Y-74995180D03*
X100260320Y-77535180D03*
X100260320Y-80075180D03*
X100260320Y-82615180D03*
X116424880Y-82615180D03*
X116424880Y-80075180D03*
X116424880Y-77535180D03*
X116424880Y-74995180D03*
X116424880Y-72455180D03*
X116424880Y-69915180D03*
X116424880Y-67375180D03*
D13*
X107127200Y-83693000D03*
X109677200Y-83693000D03*
D14*
X107126003Y-66688813D03*
X109666003Y-66688813D03*
X107126003Y-69228813D03*
X109666003Y-69228813D03*
D15*
X132384800Y-87553800D03*
D16*
X132384800Y-85013800D03*
D17*
X122636110Y-75850510D03*
X122636110Y-72750510D03*
D18*
X129209800Y-80238600D03*
X132309800Y-80238600D03*
D19*
X93690600Y-67411600D03*
X96790600Y-67411600D03*
D20*
X72585723Y-86832275D03*
D21*
X72585723Y-84292275D03*
X72585723Y-81752275D03*
X72585723Y-79212275D03*
X72585723Y-76672275D03*
X72585723Y-74132275D03*
X72585723Y-71592275D03*
D19*
X92039600Y-73202800D03*
X95139600Y-73202800D03*
D22*
X125730000Y-71446000D03*
X133680000Y-71446000D03*
X125730000Y-75946000D03*
X133680000Y-75946000D03*
D23*
X74568000Y-95494000D03*
X74568000Y-101244000D03*
D20*
X79298800Y-130987800D03*
D24*
X79298800Y-128447800D03*
X79298800Y-125907800D03*
X79298800Y-123367800D03*
D23*
X74568000Y-111725000D03*
X74568000Y-117475000D03*
D25*
X110388400Y-71196200D03*
X123215400Y-103051600D03*
X123393200Y-122914400D03*
X123291600Y-112729000D03*
X103214403Y-82651600D03*
X113272803Y-82702400D03*
D26*
X100260320Y-67375180D02*
X96827020Y-67375180D01*
X119241980Y-77535180D02*
X121945400Y-80238600D01*
X116424880Y-77535180D02*
X119241980Y-77535180D01*
X121945400Y-80238600D02*
X129209800Y-80238600D01*
X132309800Y-80238600D02*
X132309800Y-84938800D01*
X132309800Y-84938800D02*
X132384800Y-85013800D01*
X132384800Y-80671600D02*
X132767000Y-80289400D01*
X122636110Y-75850510D02*
X125634510Y-75850510D01*
X125634510Y-75850510D02*
X125730000Y-75946000D01*
X116424880Y-74995180D02*
X121780780Y-74995180D01*
X121780780Y-74995180D02*
X122636110Y-75850510D01*
X122636110Y-72750510D02*
X116720210Y-72750510D01*
X116720210Y-72750510D02*
X116424880Y-72455180D01*
X123215400Y-103051600D02*
X123215400Y-92303600D01*
X123215400Y-92303600D02*
X119227600Y-88315800D01*
X119176800Y-82827100D02*
X116424880Y-80075180D01*
X119227600Y-88315800D02*
X119176800Y-88315800D01*
X119176800Y-88315800D02*
X119176800Y-82827100D01*
X92039600Y-73202800D02*
X73515198Y-73202800D01*
X73515198Y-73202800D02*
X72585723Y-74132275D01*
X95139600Y-73202800D02*
X95139600Y-79714000D01*
X95139600Y-79714000D02*
X82753200Y-92100400D01*
X82753200Y-109169200D02*
X80197400Y-111725000D01*
X80197400Y-111725000D02*
X74568000Y-111725000D01*
X82753200Y-92100400D02*
X82753200Y-109169200D01*
X100260320Y-80075180D02*
X84912200Y-95423300D01*
X84912200Y-95423300D02*
X84912200Y-122834400D01*
X84912200Y-122834400D02*
X79298800Y-128447800D01*
X79298800Y-130987800D02*
X77800200Y-130987800D01*
X77800200Y-130987800D02*
X76454000Y-129641600D01*
X76454000Y-129641600D02*
X76454000Y-122250200D01*
X76454000Y-122250200D02*
X77927200Y-120777000D01*
X77927200Y-120777000D02*
X82245200Y-120777000D01*
X82245200Y-120777000D02*
X84023200Y-118999000D01*
X99706020Y-77535180D02*
X100260320Y-77535180D01*
X84023200Y-118999000D02*
X84023200Y-93218000D01*
X84023200Y-93218000D02*
X99706020Y-77535180D01*
X93690600Y-67411600D02*
X96535400Y-64566800D01*
X96535400Y-64566800D02*
X101168200Y-64566800D01*
X101168200Y-64566800D02*
X103276400Y-66675000D01*
X103276400Y-66675000D02*
X103276400Y-68986400D01*
X103276400Y-68986400D02*
X106745180Y-72455180D01*
X106745180Y-72455180D02*
X116424880Y-72455180D01*
X108204000Y-75438000D02*
X108204000Y-85420200D01*
X115620800Y-86944200D02*
X121615200Y-92938600D01*
X108204000Y-85420200D02*
X109728000Y-86944200D01*
X105221180Y-72455180D02*
X108204000Y-75438000D01*
X100260320Y-72455180D02*
X105221180Y-72455180D01*
X109728000Y-86944200D02*
X115620800Y-86944200D01*
X100260320Y-74995180D02*
X104898070Y-79632930D01*
X123393200Y-122914400D02*
X120142000Y-119663200D01*
X120142000Y-119663200D02*
X120142000Y-93929200D01*
X120142000Y-93929200D02*
X114681000Y-88468200D01*
X114681000Y-88468200D02*
X108077000Y-88468200D01*
X104898070Y-85289270D02*
X104898070Y-79632930D01*
X108077000Y-88468200D02*
X104898070Y-85289270D01*
X121615200Y-92938600D02*
X121615200Y-111052600D01*
X121615200Y-111052600D02*
X123291600Y-112729000D01*
X92039600Y-73202800D02*
X92039600Y-71333200D01*
X92039600Y-71333200D02*
X92075000Y-71297800D01*
X116942700Y-72973000D02*
X116424880Y-72455180D01*
X122118290Y-72232690D02*
X122636110Y-72750510D01*
X72585723Y-93511723D02*
X74568000Y-95494000D01*
X72585723Y-86832275D02*
X72585723Y-93511723D01*
X96827020Y-67375180D02*
X96790600Y-67411600D01*
X83017525Y-81752275D02*
X83032600Y-81737200D01*
X72585723Y-81752275D02*
X83017525Y-81752275D01*
X93658000Y-76776000D02*
X93658000Y-69994200D01*
X96277020Y-67375180D02*
X96240600Y-67411600D01*
X96240600Y-67411600D02*
X93658000Y-69994200D01*
X93658000Y-76776000D02*
X88696800Y-81737200D01*
X96790600Y-67411600D02*
X96240600Y-67411600D01*
X100223900Y-67411600D02*
X100260320Y-67375180D01*
X88696800Y-81737200D02*
X83032600Y-81737200D01*
X103177983Y-82615180D02*
X103214403Y-82651600D01*
X100260320Y-82615180D02*
X103177983Y-82615180D01*
X113360023Y-82615180D02*
X113272803Y-82702400D01*
X116424880Y-82615180D02*
X113360023Y-82615180D01*
X92075000Y-69027200D02*
X93690600Y-67411600D01*
X72564223Y-74110775D02*
X72585723Y-74132275D01*
X92075000Y-71297800D02*
X92075000Y-69027200D01*
X79281200Y-123350200D02*
X79298800Y-123367800D01*
X116923060Y-77037000D02*
X116424880Y-77535180D01*
X125603000Y-76073000D02*
X125730000Y-75946000D01*
X122393130Y-76093490D02*
X122636110Y-75850510D01*
X122342330Y-76093490D02*
X122661510Y-75774310D01*
X122469330Y-76093490D02*
X122636110Y-75926710D01*
X122839310Y-75723510D02*
X122636110Y-75926710D01*
X125501400Y-76174600D02*
X125730000Y-75946000D01*
X100260320Y-69915180D02*
X95337220Y-69915180D01*
X100245940Y-69900800D02*
X100260320Y-69915180D01*
X95123000Y-70129400D02*
X95139600Y-70146000D01*
X95337220Y-69915180D02*
X95123000Y-70129400D01*
X95139600Y-70146000D02*
X95139600Y-73202800D01*
X79197200Y-128346200D02*
X79298800Y-128447800D01*
G04 #@! TA.AperFunction,Conductor*
G36*
X135273634Y-68625417D02*
G01*
X135319694Y-68677955D01*
X135331200Y-68730119D01*
X135331200Y-133226313D01*
X135311515Y-133293352D01*
X135258711Y-133339107D01*
X135207514Y-133350313D01*
X65249914Y-133527485D01*
X65182825Y-133507970D01*
X65136936Y-133455282D01*
X65125600Y-133403485D01*
X65125600Y-117475004D01*
X72813093Y-117475004D01*
X72832692Y-117736545D01*
X72832693Y-117736550D01*
X72891058Y-117992270D01*
X72986883Y-118236426D01*
X72986882Y-118236426D01*
X73118027Y-118463573D01*
X73165874Y-118523571D01*
X74042070Y-117647376D01*
X74044884Y-117660915D01*
X74114442Y-117795156D01*
X74217638Y-117905652D01*
X74346819Y-117984209D01*
X74398002Y-117998549D01*
X73518830Y-118877720D01*
X73690546Y-118994793D01*
X73690550Y-118994795D01*
X73926854Y-119108594D01*
X73926858Y-119108595D01*
X74177494Y-119185907D01*
X74177500Y-119185909D01*
X74436848Y-119224999D01*
X74436857Y-119225000D01*
X74699143Y-119225000D01*
X74699151Y-119224999D01*
X74958499Y-119185909D01*
X74958505Y-119185907D01*
X75209143Y-119108595D01*
X75445445Y-118994798D01*
X75445447Y-118994797D01*
X75617168Y-118877720D01*
X74739568Y-118000121D01*
X74856458Y-117949349D01*
X74973739Y-117853934D01*
X75060928Y-117730415D01*
X75091354Y-117644801D01*
X75970125Y-118523572D01*
X76017971Y-118463573D01*
X76149116Y-118236426D01*
X76244941Y-117992270D01*
X76303306Y-117736550D01*
X76303307Y-117736545D01*
X76322907Y-117475004D01*
X76322907Y-117474995D01*
X76303307Y-117213454D01*
X76303306Y-117213449D01*
X76244941Y-116957729D01*
X76149116Y-116713573D01*
X76149117Y-116713573D01*
X76017972Y-116486426D01*
X75970124Y-116426427D01*
X75093929Y-117302622D01*
X75091116Y-117289085D01*
X75021558Y-117154844D01*
X74918362Y-117044348D01*
X74789181Y-116965791D01*
X74737997Y-116951450D01*
X75617168Y-116072278D01*
X75445454Y-115955206D01*
X75445445Y-115955201D01*
X75209142Y-115841404D01*
X75209144Y-115841404D01*
X74958505Y-115764092D01*
X74958499Y-115764090D01*
X74699151Y-115725000D01*
X74436848Y-115725000D01*
X74177500Y-115764090D01*
X74177494Y-115764092D01*
X73926858Y-115841404D01*
X73926854Y-115841405D01*
X73690547Y-115955205D01*
X73690539Y-115955210D01*
X73518830Y-116072277D01*
X74396431Y-116949878D01*
X74279542Y-117000651D01*
X74162261Y-117096066D01*
X74075072Y-117219585D01*
X74044645Y-117305197D01*
X73165875Y-116426427D01*
X73165874Y-116426427D01*
X73118028Y-116486425D01*
X72986883Y-116713573D01*
X72891058Y-116957729D01*
X72832693Y-117213449D01*
X72832692Y-117213454D01*
X72813093Y-117474995D01*
X72813093Y-117475004D01*
X65125600Y-117475004D01*
X65125600Y-101244004D01*
X72813093Y-101244004D01*
X72832692Y-101505545D01*
X72832693Y-101505550D01*
X72891058Y-101761270D01*
X72986883Y-102005426D01*
X72986882Y-102005426D01*
X73118027Y-102232573D01*
X73165874Y-102292571D01*
X74042070Y-101416376D01*
X74044884Y-101429915D01*
X74114442Y-101564156D01*
X74217638Y-101674652D01*
X74346819Y-101753209D01*
X74398002Y-101767549D01*
X73518830Y-102646720D01*
X73690546Y-102763793D01*
X73690550Y-102763795D01*
X73926854Y-102877594D01*
X73926858Y-102877595D01*
X74177494Y-102954907D01*
X74177500Y-102954909D01*
X74436848Y-102993999D01*
X74436857Y-102994000D01*
X74699143Y-102994000D01*
X74699151Y-102993999D01*
X74958499Y-102954909D01*
X74958505Y-102954907D01*
X75209143Y-102877595D01*
X75445445Y-102763798D01*
X75445447Y-102763797D01*
X75617168Y-102646720D01*
X74739568Y-101769121D01*
X74856458Y-101718349D01*
X74973739Y-101622934D01*
X75060928Y-101499415D01*
X75091354Y-101413801D01*
X75970125Y-102292572D01*
X76017971Y-102232573D01*
X76149116Y-102005426D01*
X76244941Y-101761270D01*
X76303306Y-101505550D01*
X76303307Y-101505545D01*
X76322907Y-101244004D01*
X76322907Y-101243995D01*
X76303307Y-100982454D01*
X76303306Y-100982449D01*
X76244941Y-100726729D01*
X76149116Y-100482573D01*
X76149117Y-100482573D01*
X76017972Y-100255426D01*
X75970124Y-100195427D01*
X75093929Y-101071622D01*
X75091116Y-101058085D01*
X75021558Y-100923844D01*
X74918362Y-100813348D01*
X74789181Y-100734791D01*
X74737997Y-100720450D01*
X75617168Y-99841278D01*
X75445454Y-99724206D01*
X75445445Y-99724201D01*
X75209142Y-99610404D01*
X75209144Y-99610404D01*
X74958505Y-99533092D01*
X74958499Y-99533090D01*
X74699151Y-99494000D01*
X74436848Y-99494000D01*
X74177500Y-99533090D01*
X74177494Y-99533092D01*
X73926858Y-99610404D01*
X73926854Y-99610405D01*
X73690547Y-99724205D01*
X73690539Y-99724210D01*
X73518830Y-99841277D01*
X74396431Y-100718878D01*
X74279542Y-100769651D01*
X74162261Y-100865066D01*
X74075072Y-100988585D01*
X74044645Y-101074197D01*
X73165875Y-100195427D01*
X73165874Y-100195427D01*
X73118028Y-100255425D01*
X72986883Y-100482573D01*
X72891058Y-100726729D01*
X72832693Y-100982449D01*
X72832692Y-100982454D01*
X72813093Y-101243995D01*
X72813093Y-101244004D01*
X65125600Y-101244004D01*
X65125600Y-69135084D01*
X65145285Y-69068045D01*
X65198089Y-69022290D01*
X65248880Y-69011086D01*
X91322259Y-68860154D01*
X91389409Y-68879450D01*
X91435469Y-68931988D01*
X91445813Y-69001088D01*
X91445449Y-69003543D01*
X91444840Y-69007387D01*
X91444840Y-69007395D01*
X91448950Y-69050874D01*
X91449500Y-69062543D01*
X91449500Y-71096180D01*
X91439303Y-71145424D01*
X91434161Y-71157305D01*
X91427328Y-71200443D01*
X91424960Y-71211874D01*
X91414101Y-71254171D01*
X91414100Y-71254182D01*
X91414100Y-71274216D01*
X91412573Y-71293615D01*
X91409440Y-71313394D01*
X91409440Y-71313395D01*
X91413550Y-71356874D01*
X91414100Y-71368543D01*
X91414100Y-71772351D01*
X91394415Y-71839390D01*
X91341611Y-71885145D01*
X91329107Y-71890056D01*
X91320267Y-71892985D01*
X91170942Y-71985089D01*
X91046889Y-72109142D01*
X90954787Y-72258463D01*
X90954785Y-72258468D01*
X90930788Y-72330887D01*
X90913793Y-72382176D01*
X90899601Y-72425004D01*
X90899600Y-72425005D01*
X90895423Y-72465902D01*
X90869027Y-72530593D01*
X90811847Y-72570745D01*
X90772065Y-72577300D01*
X73782859Y-72577300D01*
X73715820Y-72557615D01*
X73670065Y-72504811D01*
X73660121Y-72435653D01*
X73681282Y-72382179D01*
X73759758Y-72270105D01*
X73859626Y-72055938D01*
X73920786Y-71827683D01*
X73941382Y-71592275D01*
X73920786Y-71356867D01*
X73859626Y-71128612D01*
X73759758Y-70914446D01*
X73643333Y-70748172D01*
X73624217Y-70720872D01*
X73457125Y-70553781D01*
X73457118Y-70553776D01*
X73263557Y-70418242D01*
X73263553Y-70418240D01*
X73263551Y-70418239D01*
X73049386Y-70318372D01*
X73049382Y-70318371D01*
X73049378Y-70318369D01*
X72821136Y-70257213D01*
X72821126Y-70257211D01*
X72585724Y-70236616D01*
X72585722Y-70236616D01*
X72350319Y-70257211D01*
X72350309Y-70257213D01*
X72122067Y-70318369D01*
X72122058Y-70318373D01*
X71907894Y-70418239D01*
X71907892Y-70418240D01*
X71714320Y-70553780D01*
X71547228Y-70720872D01*
X71411688Y-70914444D01*
X71411687Y-70914446D01*
X71311821Y-71128610D01*
X71311817Y-71128619D01*
X71250661Y-71356861D01*
X71250659Y-71356871D01*
X71230064Y-71592274D01*
X71230064Y-71592275D01*
X71250659Y-71827678D01*
X71250661Y-71827688D01*
X71311817Y-72055930D01*
X71311819Y-72055934D01*
X71311820Y-72055938D01*
X71377930Y-72197710D01*
X71411688Y-72270105D01*
X71411690Y-72270109D01*
X71547224Y-72463670D01*
X71547229Y-72463677D01*
X71714320Y-72630768D01*
X71714326Y-72630773D01*
X71899881Y-72760700D01*
X71943506Y-72815277D01*
X71950700Y-72884775D01*
X71919177Y-72947130D01*
X71899881Y-72963850D01*
X71714320Y-73093780D01*
X71547228Y-73260872D01*
X71411688Y-73454444D01*
X71411687Y-73454446D01*
X71311821Y-73668610D01*
X71311817Y-73668619D01*
X71250661Y-73896861D01*
X71250659Y-73896871D01*
X71230064Y-74132274D01*
X71230064Y-74132275D01*
X71250659Y-74367678D01*
X71250661Y-74367688D01*
X71311817Y-74595930D01*
X71311819Y-74595934D01*
X71311820Y-74595938D01*
X71390979Y-74765695D01*
X71411688Y-74810105D01*
X71411690Y-74810109D01*
X71501559Y-74938454D01*
X71527044Y-74974851D01*
X71547224Y-75003670D01*
X71547229Y-75003677D01*
X71714320Y-75170768D01*
X71714326Y-75170773D01*
X71899881Y-75300700D01*
X71943506Y-75355277D01*
X71950700Y-75424775D01*
X71919177Y-75487130D01*
X71899881Y-75503850D01*
X71714320Y-75633780D01*
X71547228Y-75800872D01*
X71411688Y-75994444D01*
X71411687Y-75994446D01*
X71311821Y-76208610D01*
X71311817Y-76208619D01*
X71250661Y-76436861D01*
X71250659Y-76436871D01*
X71230064Y-76672274D01*
X71230064Y-76672275D01*
X71250659Y-76907678D01*
X71250661Y-76907688D01*
X71311817Y-77135930D01*
X71311819Y-77135934D01*
X71311820Y-77135938D01*
X71372929Y-77266986D01*
X71411688Y-77350105D01*
X71411690Y-77350109D01*
X71547224Y-77543670D01*
X71547229Y-77543677D01*
X71714320Y-77710768D01*
X71714326Y-77710773D01*
X71899881Y-77840700D01*
X71943506Y-77895277D01*
X71950700Y-77964775D01*
X71919177Y-78027130D01*
X71899881Y-78043850D01*
X71714320Y-78173780D01*
X71547228Y-78340872D01*
X71411688Y-78534444D01*
X71411687Y-78534446D01*
X71311821Y-78748610D01*
X71311817Y-78748619D01*
X71250661Y-78976861D01*
X71250659Y-78976871D01*
X71230064Y-79212274D01*
X71230064Y-79212275D01*
X71250659Y-79447678D01*
X71250661Y-79447688D01*
X71311817Y-79675930D01*
X71311819Y-79675934D01*
X71311820Y-79675938D01*
X71366416Y-79793019D01*
X71411688Y-79890105D01*
X71411690Y-79890109D01*
X71547224Y-80083670D01*
X71547229Y-80083677D01*
X71714320Y-80250768D01*
X71714326Y-80250773D01*
X71899881Y-80380700D01*
X71943506Y-80435277D01*
X71950700Y-80504775D01*
X71919177Y-80567130D01*
X71899881Y-80583850D01*
X71714320Y-80713780D01*
X71547228Y-80880872D01*
X71411688Y-81074444D01*
X71411687Y-81074446D01*
X71311821Y-81288610D01*
X71311817Y-81288619D01*
X71250661Y-81516861D01*
X71250659Y-81516871D01*
X71230064Y-81752274D01*
X71230064Y-81752275D01*
X71250659Y-81987678D01*
X71250661Y-81987688D01*
X71311817Y-82215930D01*
X71311819Y-82215934D01*
X71311820Y-82215938D01*
X71402185Y-82409726D01*
X71411688Y-82430105D01*
X71411690Y-82430109D01*
X71502271Y-82559471D01*
X71547228Y-82623676D01*
X71714322Y-82790770D01*
X71900317Y-82921005D01*
X71943941Y-82975582D01*
X71951134Y-83045081D01*
X71919612Y-83107435D01*
X71900316Y-83124155D01*
X71824349Y-83177347D01*
X71824348Y-83177347D01*
X72453189Y-83806188D01*
X72443408Y-83807595D01*
X72312623Y-83867323D01*
X72203962Y-83961477D01*
X72126230Y-84082431D01*
X72102646Y-84162751D01*
X71470795Y-83530900D01*
X71412124Y-83614694D01*
X71312293Y-83828782D01*
X71312289Y-83828791D01*
X71251155Y-84056948D01*
X71251153Y-84056959D01*
X71230566Y-84292273D01*
X71230566Y-84292276D01*
X71251153Y-84527590D01*
X71251155Y-84527601D01*
X71312289Y-84755758D01*
X71312293Y-84755767D01*
X71412123Y-84969854D01*
X71412125Y-84969858D01*
X71470795Y-85053648D01*
X71470796Y-85053648D01*
X72102646Y-84421798D01*
X72126230Y-84502119D01*
X72203962Y-84623073D01*
X72312623Y-84717227D01*
X72443408Y-84776955D01*
X72453189Y-84778361D01*
X71786092Y-85445456D01*
X71724769Y-85478941D01*
X71698420Y-85481775D01*
X71687857Y-85481775D01*
X71687846Y-85481776D01*
X71628239Y-85488183D01*
X71493394Y-85538477D01*
X71493387Y-85538481D01*
X71378178Y-85624727D01*
X71378175Y-85624730D01*
X71291929Y-85739939D01*
X71291925Y-85739946D01*
X71241631Y-85874792D01*
X71235224Y-85934391D01*
X71235224Y-85934398D01*
X71235223Y-85934410D01*
X71235223Y-87730145D01*
X71235224Y-87730151D01*
X71241631Y-87789758D01*
X71291925Y-87924603D01*
X71291929Y-87924610D01*
X71378175Y-88039819D01*
X71378178Y-88039822D01*
X71493387Y-88126068D01*
X71493394Y-88126072D01*
X71538341Y-88142836D01*
X71628240Y-88176366D01*
X71687850Y-88182775D01*
X71836223Y-88182774D01*
X71903262Y-88202458D01*
X71949017Y-88255262D01*
X71960223Y-88306774D01*
X71960223Y-93428978D01*
X71958498Y-93444595D01*
X71958784Y-93444622D01*
X71958049Y-93452388D01*
X71960162Y-93519595D01*
X71960223Y-93523490D01*
X71960223Y-93551080D01*
X71960726Y-93555058D01*
X71961641Y-93566690D01*
X71963013Y-93610347D01*
X71963014Y-93610350D01*
X71968603Y-93629590D01*
X71972547Y-93648634D01*
X71974181Y-93661563D01*
X71975059Y-93668515D01*
X71991137Y-93709126D01*
X71994920Y-93720175D01*
X72007104Y-93762111D01*
X72017303Y-93779357D01*
X72025861Y-93796826D01*
X72033237Y-93815455D01*
X72058904Y-93850783D01*
X72065316Y-93860544D01*
X72087551Y-93898140D01*
X72087556Y-93898147D01*
X72101713Y-93912303D01*
X72114351Y-93927099D01*
X72126128Y-93943309D01*
X72126129Y-93943310D01*
X72159780Y-93971148D01*
X72168421Y-93979011D01*
X72910796Y-94721387D01*
X72944281Y-94782710D01*
X72939297Y-94852402D01*
X72938544Y-94854369D01*
X72890579Y-94976585D01*
X72832197Y-95232374D01*
X72832196Y-95232379D01*
X72812592Y-95493995D01*
X72812592Y-95494004D01*
X72832196Y-95755620D01*
X72832197Y-95755625D01*
X72890576Y-96011402D01*
X72890578Y-96011411D01*
X72890580Y-96011416D01*
X72986432Y-96255643D01*
X73117614Y-96482857D01*
X73249736Y-96648533D01*
X73281198Y-96687985D01*
X73462753Y-96856441D01*
X73473521Y-96866433D01*
X73690296Y-97014228D01*
X73690301Y-97014230D01*
X73690302Y-97014231D01*
X73690303Y-97014232D01*
X73815843Y-97074688D01*
X73926673Y-97128061D01*
X73926674Y-97128061D01*
X73926677Y-97128063D01*
X74177385Y-97205396D01*
X74436818Y-97244500D01*
X74699182Y-97244500D01*
X74958615Y-97205396D01*
X75209323Y-97128063D01*
X75445704Y-97014228D01*
X75662479Y-96866433D01*
X75854805Y-96687981D01*
X76018386Y-96482857D01*
X76149568Y-96255643D01*
X76245420Y-96011416D01*
X76303802Y-95755630D01*
X76303803Y-95755620D01*
X76323408Y-95494004D01*
X76323408Y-95493995D01*
X76303803Y-95232379D01*
X76303802Y-95232374D01*
X76303802Y-95232370D01*
X76245420Y-94976584D01*
X76149568Y-94732357D01*
X76018386Y-94505143D01*
X75854805Y-94300019D01*
X75854804Y-94300018D01*
X75854801Y-94300014D01*
X75662479Y-94121567D01*
X75445704Y-93973772D01*
X75445700Y-93973770D01*
X75445697Y-93973768D01*
X75445696Y-93973767D01*
X75209325Y-93859938D01*
X75209327Y-93859938D01*
X74958623Y-93782606D01*
X74958619Y-93782605D01*
X74958615Y-93782604D01*
X74822669Y-93762113D01*
X74699187Y-93743500D01*
X74699182Y-93743500D01*
X74436818Y-93743500D01*
X74436812Y-93743500D01*
X74275247Y-93767853D01*
X74177385Y-93782604D01*
X74177382Y-93782605D01*
X74177376Y-93782606D01*
X73926676Y-93859936D01*
X73924592Y-93860755D01*
X73923794Y-93860825D01*
X73922244Y-93861304D01*
X73922141Y-93860972D01*
X73854995Y-93866928D01*
X73793110Y-93834495D01*
X73791601Y-93833011D01*
X73525280Y-93566690D01*
X73247542Y-93288951D01*
X73214057Y-93227628D01*
X73211223Y-93201270D01*
X73211223Y-88306774D01*
X73230908Y-88239735D01*
X73283712Y-88193980D01*
X73335223Y-88182774D01*
X73483594Y-88182774D01*
X73483595Y-88182774D01*
X73543206Y-88176366D01*
X73678054Y-88126071D01*
X73793269Y-88039821D01*
X73879519Y-87924606D01*
X73929814Y-87789758D01*
X73936223Y-87730148D01*
X73936222Y-85934403D01*
X73929814Y-85874792D01*
X73921233Y-85851786D01*
X73879520Y-85739946D01*
X73879516Y-85739939D01*
X73793270Y-85624730D01*
X73793267Y-85624727D01*
X73678058Y-85538481D01*
X73678051Y-85538477D01*
X73543205Y-85488183D01*
X73543206Y-85488183D01*
X73483606Y-85481776D01*
X73483604Y-85481775D01*
X73483596Y-85481775D01*
X73483588Y-85481775D01*
X73473033Y-85481775D01*
X73405994Y-85462090D01*
X73385352Y-85445456D01*
X72718256Y-84778361D01*
X72728038Y-84776955D01*
X72858823Y-84717227D01*
X72967484Y-84623073D01*
X73045216Y-84502119D01*
X73068799Y-84421799D01*
X73700648Y-85053648D01*
X73700649Y-85053648D01*
X73759321Y-84969857D01*
X73759323Y-84969853D01*
X73859152Y-84755767D01*
X73859156Y-84755758D01*
X73920290Y-84527601D01*
X73920292Y-84527590D01*
X73940880Y-84292276D01*
X73940880Y-84292273D01*
X73920292Y-84056959D01*
X73920290Y-84056948D01*
X73859156Y-83828791D01*
X73859152Y-83828782D01*
X73759323Y-83614698D01*
X73759322Y-83614696D01*
X73700648Y-83530901D01*
X73700648Y-83530900D01*
X73068799Y-84162750D01*
X73045216Y-84082431D01*
X72967484Y-83961477D01*
X72858823Y-83867323D01*
X72728038Y-83807595D01*
X72718256Y-83806188D01*
X73347096Y-83177348D01*
X73347096Y-83177347D01*
X73271128Y-83124155D01*
X73227503Y-83069579D01*
X73220309Y-83000080D01*
X73251831Y-82937726D01*
X73271122Y-82921009D01*
X73457124Y-82790770D01*
X73624218Y-82623676D01*
X73759375Y-82430652D01*
X73813952Y-82387027D01*
X73860950Y-82377775D01*
X82934782Y-82377775D01*
X82950402Y-82379499D01*
X82950429Y-82379214D01*
X82958185Y-82379946D01*
X82958192Y-82379948D01*
X83025398Y-82377836D01*
X83029293Y-82377775D01*
X83056871Y-82377775D01*
X83056875Y-82377775D01*
X83060849Y-82377272D01*
X83072488Y-82376355D01*
X83116152Y-82374984D01*
X83135394Y-82369392D01*
X83154437Y-82365449D01*
X83168481Y-82363675D01*
X83184009Y-82362700D01*
X88614057Y-82362700D01*
X88629677Y-82364424D01*
X88629704Y-82364139D01*
X88637460Y-82364871D01*
X88637467Y-82364873D01*
X88704673Y-82362761D01*
X88708568Y-82362700D01*
X88736146Y-82362700D01*
X88736150Y-82362700D01*
X88740124Y-82362197D01*
X88751763Y-82361280D01*
X88795427Y-82359909D01*
X88814669Y-82354317D01*
X88833712Y-82350374D01*
X88853592Y-82347864D01*
X88894201Y-82331785D01*
X88905244Y-82328003D01*
X88947190Y-82315818D01*
X88964429Y-82305622D01*
X88981903Y-82297062D01*
X89000527Y-82289688D01*
X89000527Y-82289687D01*
X89000532Y-82289686D01*
X89035883Y-82264000D01*
X89045614Y-82257608D01*
X89083220Y-82235370D01*
X89097389Y-82221199D01*
X89112179Y-82208568D01*
X89128387Y-82196794D01*
X89156238Y-82163126D01*
X89164079Y-82154509D01*
X94041788Y-77276801D01*
X94054042Y-77266986D01*
X94053859Y-77266764D01*
X94059868Y-77261791D01*
X94059877Y-77261786D01*
X94105949Y-77212722D01*
X94108566Y-77210023D01*
X94128120Y-77190471D01*
X94130576Y-77187303D01*
X94138156Y-77178427D01*
X94168062Y-77146582D01*
X94177713Y-77129024D01*
X94188396Y-77112761D01*
X94200673Y-77096936D01*
X94218021Y-77056844D01*
X94223151Y-77046371D01*
X94244197Y-77008092D01*
X94249180Y-76988680D01*
X94255481Y-76970280D01*
X94263437Y-76951896D01*
X94267627Y-76925439D01*
X94297555Y-76862307D01*
X94356866Y-76825375D01*
X94426728Y-76826371D01*
X94484962Y-76864980D01*
X94513077Y-76928943D01*
X94514100Y-76944838D01*
X94514100Y-79403546D01*
X94494415Y-79470585D01*
X94477781Y-79491227D01*
X82369408Y-91599599D01*
X82357151Y-91609420D01*
X82357334Y-91609641D01*
X82351322Y-91614614D01*
X82305298Y-91663623D01*
X82302591Y-91666416D01*
X82283089Y-91685917D01*
X82283075Y-91685934D01*
X82280607Y-91689115D01*
X82273043Y-91697970D01*
X82243137Y-91729818D01*
X82243136Y-91729820D01*
X82233484Y-91747376D01*
X82222810Y-91763626D01*
X82210529Y-91779461D01*
X82210524Y-91779468D01*
X82193175Y-91819558D01*
X82188038Y-91830044D01*
X82167003Y-91868306D01*
X82162022Y-91887707D01*
X82155721Y-91906110D01*
X82147762Y-91924502D01*
X82147761Y-91924505D01*
X82140928Y-91967643D01*
X82138560Y-91979074D01*
X82127701Y-92021371D01*
X82127700Y-92021382D01*
X82127700Y-92041416D01*
X82126173Y-92060815D01*
X82123040Y-92080594D01*
X82123040Y-92080595D01*
X82127150Y-92124074D01*
X82127700Y-92135743D01*
X82127700Y-108858747D01*
X82108015Y-108925786D01*
X82091381Y-108946428D01*
X79974628Y-111063181D01*
X79913305Y-111096666D01*
X79886947Y-111099500D01*
X76287541Y-111099500D01*
X76220502Y-111079815D01*
X76174747Y-111027011D01*
X76172125Y-111020833D01*
X76149568Y-110963357D01*
X76018386Y-110736143D01*
X75854805Y-110531019D01*
X75854804Y-110531018D01*
X75854801Y-110531014D01*
X75662479Y-110352567D01*
X75538194Y-110267831D01*
X75445704Y-110204772D01*
X75445700Y-110204770D01*
X75445697Y-110204768D01*
X75445696Y-110204767D01*
X75209325Y-110090938D01*
X75209327Y-110090938D01*
X74958623Y-110013606D01*
X74958619Y-110013605D01*
X74958615Y-110013604D01*
X74833823Y-109994794D01*
X74699187Y-109974500D01*
X74699182Y-109974500D01*
X74436818Y-109974500D01*
X74436812Y-109974500D01*
X74291331Y-109996429D01*
X74177385Y-110013604D01*
X74177382Y-110013605D01*
X74177376Y-110013606D01*
X73926673Y-110090938D01*
X73690303Y-110204767D01*
X73690302Y-110204768D01*
X73473520Y-110352567D01*
X73281198Y-110531014D01*
X73117614Y-110736143D01*
X72986432Y-110963356D01*
X72890582Y-111207578D01*
X72890576Y-111207597D01*
X72832197Y-111463374D01*
X72832196Y-111463379D01*
X72812592Y-111724995D01*
X72812592Y-111725004D01*
X72832196Y-111986620D01*
X72832197Y-111986625D01*
X72890576Y-112242402D01*
X72890578Y-112242411D01*
X72890580Y-112242416D01*
X72986432Y-112486643D01*
X73117614Y-112713857D01*
X73249736Y-112879533D01*
X73281198Y-112918985D01*
X73462753Y-113087441D01*
X73473521Y-113097433D01*
X73690296Y-113245228D01*
X73690301Y-113245230D01*
X73690302Y-113245231D01*
X73690303Y-113245232D01*
X73815843Y-113305688D01*
X73926673Y-113359061D01*
X73926674Y-113359061D01*
X73926677Y-113359063D01*
X74177385Y-113436396D01*
X74436818Y-113475500D01*
X74699182Y-113475500D01*
X74958615Y-113436396D01*
X75209323Y-113359063D01*
X75445704Y-113245228D01*
X75662479Y-113097433D01*
X75854805Y-112918981D01*
X76018386Y-112713857D01*
X76149568Y-112486643D01*
X76172114Y-112429196D01*
X76214928Y-112373985D01*
X76280798Y-112350683D01*
X76287541Y-112350500D01*
X80114657Y-112350500D01*
X80130277Y-112352224D01*
X80130304Y-112351939D01*
X80138060Y-112352671D01*
X80138067Y-112352673D01*
X80205273Y-112350561D01*
X80209168Y-112350500D01*
X80236746Y-112350500D01*
X80236750Y-112350500D01*
X80240724Y-112349997D01*
X80252363Y-112349080D01*
X80296027Y-112347709D01*
X80315269Y-112342117D01*
X80334312Y-112338174D01*
X80354192Y-112335664D01*
X80394801Y-112319585D01*
X80405844Y-112315803D01*
X80447790Y-112303618D01*
X80465029Y-112293422D01*
X80482503Y-112284862D01*
X80501127Y-112277488D01*
X80501127Y-112277487D01*
X80501132Y-112277486D01*
X80536483Y-112251800D01*
X80546214Y-112245408D01*
X80583820Y-112223170D01*
X80597989Y-112208999D01*
X80612779Y-112196368D01*
X80628987Y-112184594D01*
X80656838Y-112150926D01*
X80664679Y-112142309D01*
X83136988Y-109670001D01*
X83149242Y-109660186D01*
X83149059Y-109659964D01*
X83155068Y-109654991D01*
X83155077Y-109654986D01*
X83183309Y-109624920D01*
X83243547Y-109589527D01*
X83313361Y-109592319D01*
X83370582Y-109632411D01*
X83397045Y-109697076D01*
X83397700Y-109709805D01*
X83397700Y-118688547D01*
X83378015Y-118755586D01*
X83361381Y-118776228D01*
X82022428Y-120115181D01*
X81961105Y-120148666D01*
X81934747Y-120151500D01*
X78009937Y-120151500D01*
X77994320Y-120149776D01*
X77994293Y-120150062D01*
X77986531Y-120149327D01*
X77919344Y-120151439D01*
X77915450Y-120151500D01*
X77887850Y-120151500D01*
X77884162Y-120151965D01*
X77883849Y-120152005D01*
X77872231Y-120152918D01*
X77828572Y-120154290D01*
X77828569Y-120154291D01*
X77809326Y-120159881D01*
X77790283Y-120163825D01*
X77770404Y-120166336D01*
X77770403Y-120166337D01*
X77729793Y-120182415D01*
X77718748Y-120186197D01*
X77676808Y-120198383D01*
X77676804Y-120198385D01*
X77659565Y-120208580D01*
X77642098Y-120217137D01*
X77623469Y-120224512D01*
X77623467Y-120224514D01*
X77588126Y-120250189D01*
X77578368Y-120256599D01*
X77540780Y-120278828D01*
X77526608Y-120293000D01*
X77511823Y-120305628D01*
X77495612Y-120317407D01*
X77467771Y-120351059D01*
X77459911Y-120359696D01*
X76070208Y-121749399D01*
X76057951Y-121759220D01*
X76058134Y-121759441D01*
X76052122Y-121764414D01*
X76006098Y-121813423D01*
X76003391Y-121816216D01*
X75983889Y-121835717D01*
X75983875Y-121835734D01*
X75981407Y-121838915D01*
X75973843Y-121847770D01*
X75943937Y-121879618D01*
X75943936Y-121879620D01*
X75934284Y-121897176D01*
X75923610Y-121913426D01*
X75911329Y-121929261D01*
X75911324Y-121929268D01*
X75893975Y-121969358D01*
X75888838Y-121979844D01*
X75867803Y-122018106D01*
X75862822Y-122037507D01*
X75856521Y-122055910D01*
X75848562Y-122074302D01*
X75848561Y-122074305D01*
X75841728Y-122117443D01*
X75839360Y-122128874D01*
X75828501Y-122171171D01*
X75828500Y-122171182D01*
X75828500Y-122191216D01*
X75826973Y-122210615D01*
X75823840Y-122230394D01*
X75823840Y-122230395D01*
X75827950Y-122273874D01*
X75828500Y-122285543D01*
X75828500Y-129558855D01*
X75826775Y-129574472D01*
X75827061Y-129574499D01*
X75826326Y-129582265D01*
X75828439Y-129649472D01*
X75828500Y-129653367D01*
X75828500Y-129680957D01*
X75829003Y-129684935D01*
X75829918Y-129696567D01*
X75831290Y-129740224D01*
X75831291Y-129740227D01*
X75836880Y-129759467D01*
X75840824Y-129778511D01*
X75841045Y-129780254D01*
X75843336Y-129798392D01*
X75859414Y-129839003D01*
X75863197Y-129850052D01*
X75875382Y-129891990D01*
X75877439Y-129895469D01*
X75885580Y-129909234D01*
X75894138Y-129926703D01*
X75901514Y-129945332D01*
X75927181Y-129980660D01*
X75933593Y-129990421D01*
X75955828Y-130028017D01*
X75955833Y-130028024D01*
X75969990Y-130042180D01*
X75982628Y-130056976D01*
X75992884Y-130071093D01*
X75994406Y-130073187D01*
X76014641Y-130089927D01*
X76028057Y-130101025D01*
X76036698Y-130108888D01*
X77299397Y-131371588D01*
X77309222Y-131383851D01*
X77309443Y-131383669D01*
X77314411Y-131389674D01*
X77363422Y-131435699D01*
X77366221Y-131438412D01*
X77385722Y-131457914D01*
X77385726Y-131457917D01*
X77385729Y-131457920D01*
X77388902Y-131460381D01*
X77397774Y-131467959D01*
X77429618Y-131497862D01*
X77447176Y-131507514D01*
X77463435Y-131518195D01*
X77479264Y-131530473D01*
X77519355Y-131547821D01*
X77529826Y-131552951D01*
X77552380Y-131565350D01*
X77568102Y-131573994D01*
X77568104Y-131573995D01*
X77568108Y-131573997D01*
X77587516Y-131578980D01*
X77605919Y-131585281D01*
X77624301Y-131593236D01*
X77624302Y-131593236D01*
X77624304Y-131593237D01*
X77667450Y-131600070D01*
X77678872Y-131602436D01*
X77721181Y-131613300D01*
X77741216Y-131613300D01*
X77760614Y-131614826D01*
X77780396Y-131617960D01*
X77780398Y-131617959D01*
X77780399Y-131617960D01*
X77812629Y-131614913D01*
X77881224Y-131628200D01*
X77931746Y-131676462D01*
X77948301Y-131738362D01*
X77948301Y-131885676D01*
X77954708Y-131945283D01*
X78005002Y-132080128D01*
X78005006Y-132080135D01*
X78091252Y-132195344D01*
X78091255Y-132195347D01*
X78206464Y-132281593D01*
X78206471Y-132281597D01*
X78341317Y-132331891D01*
X78341316Y-132331891D01*
X78348244Y-132332635D01*
X78400927Y-132338300D01*
X80196672Y-132338299D01*
X80256283Y-132331891D01*
X80391131Y-132281596D01*
X80506346Y-132195346D01*
X80592596Y-132080131D01*
X80642891Y-131945283D01*
X80649300Y-131885673D01*
X80649299Y-130089928D01*
X80642891Y-130030317D01*
X80642034Y-130028020D01*
X80592597Y-129895471D01*
X80592593Y-129895464D01*
X80506347Y-129780255D01*
X80506344Y-129780252D01*
X80391135Y-129694006D01*
X80391128Y-129694002D01*
X80259717Y-129644989D01*
X80203783Y-129603118D01*
X80179366Y-129537653D01*
X80194218Y-129469380D01*
X80215363Y-129441132D01*
X80337295Y-129319201D01*
X80472835Y-129125630D01*
X80572703Y-128911463D01*
X80633863Y-128683208D01*
X80654459Y-128447800D01*
X80633863Y-128212392D01*
X80606943Y-128111925D01*
X80608606Y-128042076D01*
X80639035Y-127992153D01*
X82210387Y-126420801D01*
X128433300Y-126420801D01*
X128433301Y-126420818D01*
X128443800Y-126523596D01*
X128443801Y-126523599D01*
X128464273Y-126585378D01*
X128498986Y-126690134D01*
X128591088Y-126839456D01*
X128715144Y-126963512D01*
X128864466Y-127055614D01*
X129031003Y-127110799D01*
X129133791Y-127121300D01*
X132333808Y-127121299D01*
X132436597Y-127110799D01*
X132603134Y-127055614D01*
X132752456Y-126963512D01*
X132876512Y-126839456D01*
X132968614Y-126690134D01*
X133023799Y-126523597D01*
X133034300Y-126420809D01*
X133034299Y-124820792D01*
X133023799Y-124718003D01*
X132968614Y-124551466D01*
X132876512Y-124402144D01*
X132752456Y-124278088D01*
X132603134Y-124185986D01*
X132436597Y-124130801D01*
X132436595Y-124130800D01*
X132333810Y-124120300D01*
X129133798Y-124120300D01*
X129133781Y-124120301D01*
X129031003Y-124130800D01*
X129031000Y-124130801D01*
X128864468Y-124185985D01*
X128864463Y-124185987D01*
X128715142Y-124278089D01*
X128591089Y-124402142D01*
X128498987Y-124551463D01*
X128498986Y-124551466D01*
X128443801Y-124718003D01*
X128443801Y-124718004D01*
X128443800Y-124718004D01*
X128433300Y-124820783D01*
X128433300Y-126420801D01*
X82210387Y-126420801D01*
X85295988Y-123335201D01*
X85308242Y-123325386D01*
X85308059Y-123325164D01*
X85314068Y-123320191D01*
X85314077Y-123320186D01*
X85360149Y-123271122D01*
X85362766Y-123268423D01*
X85382320Y-123248871D01*
X85384776Y-123245703D01*
X85392356Y-123236827D01*
X85422262Y-123204982D01*
X85431913Y-123187424D01*
X85442596Y-123171161D01*
X85454873Y-123155336D01*
X85472221Y-123115244D01*
X85477351Y-123104771D01*
X85498397Y-123066492D01*
X85503380Y-123047080D01*
X85509681Y-123028680D01*
X85517637Y-123010296D01*
X85524470Y-122967148D01*
X85526833Y-122955738D01*
X85537700Y-122913419D01*
X85537700Y-122893383D01*
X85539227Y-122873982D01*
X85541437Y-122860029D01*
X85542360Y-122854204D01*
X85538250Y-122810724D01*
X85537700Y-122799055D01*
X85537700Y-101500000D01*
X90494563Y-101500000D01*
X90514305Y-102128233D01*
X90514305Y-102128242D01*
X90529839Y-102292571D01*
X90573459Y-102754014D01*
X90573460Y-102754023D01*
X90573461Y-102754029D01*
X90671784Y-103374818D01*
X90671785Y-103374825D01*
X90808903Y-103988258D01*
X90984261Y-104591842D01*
X90987578Y-104601056D01*
X91197180Y-105183247D01*
X91197188Y-105183265D01*
X91440330Y-105745135D01*
X91446810Y-105760108D01*
X91732169Y-106320156D01*
X91732175Y-106320166D01*
X91732176Y-106320168D01*
X91732178Y-106320172D01*
X92052132Y-106861185D01*
X92405429Y-107381045D01*
X92405438Y-107381058D01*
X92790668Y-107877694D01*
X92790678Y-107877706D01*
X93206357Y-108349201D01*
X93650798Y-108793642D01*
X93650806Y-108793649D01*
X93650807Y-108793650D01*
X94039336Y-109136185D01*
X94122293Y-109209321D01*
X94122305Y-109209331D01*
X94618941Y-109594561D01*
X94618947Y-109594565D01*
X94618952Y-109594569D01*
X94769787Y-109697076D01*
X95138814Y-109947867D01*
X95138818Y-109947869D01*
X95138819Y-109947870D01*
X95254352Y-110016196D01*
X95573208Y-110204767D01*
X95679844Y-110267831D01*
X96239892Y-110553190D01*
X96239899Y-110553193D01*
X96239903Y-110553195D01*
X96342789Y-110597718D01*
X96344699Y-110598566D01*
X96344791Y-110598604D01*
X96344804Y-110598611D01*
X96345702Y-110598987D01*
X96346935Y-110599512D01*
X96816753Y-110802820D01*
X96924666Y-110841671D01*
X96929037Y-110843372D01*
X96930230Y-110843827D01*
X96930239Y-110843831D01*
X96940708Y-110847454D01*
X96941803Y-110847840D01*
X97408150Y-111015736D01*
X97522096Y-111048840D01*
X97528030Y-111050729D01*
X97530034Y-111051423D01*
X97530046Y-111051426D01*
X97530048Y-111051427D01*
X97548991Y-111056664D01*
X97550480Y-111057087D01*
X98011741Y-111191096D01*
X98011745Y-111191097D01*
X98011749Y-111191098D01*
X98131451Y-111217854D01*
X98137378Y-111219335D01*
X98141817Y-111220563D01*
X98141824Y-111220564D01*
X98141826Y-111220565D01*
X98168387Y-111226123D01*
X98169995Y-111226470D01*
X98625168Y-111328213D01*
X98750280Y-111348028D01*
X98756137Y-111349105D01*
X98763081Y-111350558D01*
X98796784Y-111355403D01*
X98798119Y-111355605D01*
X99245986Y-111426541D01*
X99376037Y-111438834D01*
X99382004Y-111439546D01*
X99391322Y-111440886D01*
X99391330Y-111440886D01*
X99391339Y-111440888D01*
X99430928Y-111444035D01*
X99432436Y-111444165D01*
X99871753Y-111485694D01*
X100006382Y-111489924D01*
X100012281Y-111490252D01*
X100019970Y-111490863D01*
X100024047Y-111491188D01*
X100024051Y-111491188D01*
X100024061Y-111491189D01*
X100068705Y-111491897D01*
X100070435Y-111491937D01*
X100500000Y-111505437D01*
X100638723Y-111501077D01*
X100644484Y-111501033D01*
X100658053Y-111501248D01*
X100658696Y-111501259D01*
X100658696Y-111501258D01*
X100658700Y-111501259D01*
X100707789Y-111498920D01*
X100709395Y-111498856D01*
X101128247Y-111485694D01*
X101270468Y-111472249D01*
X101276159Y-111471845D01*
X101292699Y-111471058D01*
X101345298Y-111465191D01*
X101347108Y-111465005D01*
X101754014Y-111426541D01*
X101899134Y-111403556D01*
X101904750Y-111402798D01*
X101923507Y-111400707D01*
X101978897Y-111390940D01*
X101980890Y-111390607D01*
X102374832Y-111328213D01*
X102374836Y-111328211D01*
X102374848Y-111328210D01*
X102426172Y-111316737D01*
X102522269Y-111295256D01*
X102527664Y-111294178D01*
X102548582Y-111290490D01*
X102605982Y-111276564D01*
X102608033Y-111276086D01*
X102988251Y-111191098D01*
X103137365Y-111147776D01*
X103142592Y-111146384D01*
X103165409Y-111140849D01*
X103224186Y-111122572D01*
X103226241Y-111121955D01*
X103591850Y-111015736D01*
X103741854Y-110961730D01*
X103746942Y-110960024D01*
X103771503Y-110952388D01*
X103830943Y-110929679D01*
X103832992Y-110928919D01*
X104183247Y-110802820D01*
X104333455Y-110737819D01*
X104338323Y-110735837D01*
X104364424Y-110725866D01*
X104364423Y-110725866D01*
X104364427Y-110725865D01*
X104382531Y-110717596D01*
X104423847Y-110698728D01*
X104425929Y-110697802D01*
X104760108Y-110553190D01*
X104909687Y-110476975D01*
X104914382Y-110474708D01*
X104941785Y-110462194D01*
X105000631Y-110430664D01*
X105002698Y-110429583D01*
X105320156Y-110267831D01*
X105468357Y-110180185D01*
X105472800Y-110177682D01*
X105501259Y-110162435D01*
X105559023Y-110126594D01*
X105561056Y-110125363D01*
X105861181Y-109947870D01*
X106007125Y-109848686D01*
X106011377Y-109845924D01*
X106040596Y-109827795D01*
X106040609Y-109827786D01*
X106040612Y-109827784D01*
X106066960Y-109809021D01*
X106096598Y-109787915D01*
X106098754Y-109786415D01*
X106381048Y-109594569D01*
X106523910Y-109483753D01*
X106527892Y-109480792D01*
X106557622Y-109459623D01*
X106611598Y-109415772D01*
X106613545Y-109414225D01*
X106877706Y-109209322D01*
X107016646Y-109086829D01*
X107020328Y-109083713D01*
X107050257Y-109059399D01*
X107101622Y-109011955D01*
X107103637Y-109010136D01*
X107349193Y-108793650D01*
X107483259Y-108659583D01*
X107486703Y-108656273D01*
X107516516Y-108628737D01*
X107565006Y-108577881D01*
X107566859Y-108575983D01*
X107793650Y-108349193D01*
X107921997Y-108203611D01*
X107925160Y-108200161D01*
X107954521Y-108169369D01*
X107999678Y-108115552D01*
X108001564Y-108113360D01*
X108209322Y-107877706D01*
X108331026Y-107720804D01*
X108333905Y-107717238D01*
X108362511Y-107683147D01*
X108404139Y-107626608D01*
X108405905Y-107624272D01*
X108594569Y-107381048D01*
X108708711Y-107213093D01*
X108711342Y-107209373D01*
X108738840Y-107172027D01*
X108776672Y-107113158D01*
X108778291Y-107110708D01*
X108947870Y-106861181D01*
X109053552Y-106682481D01*
X109055939Y-106678610D01*
X109081995Y-106638068D01*
X109115820Y-106577272D01*
X109117355Y-106574596D01*
X109267831Y-106320156D01*
X109269289Y-106317296D01*
X109316004Y-106225611D01*
X109364205Y-106131010D01*
X109366264Y-106127145D01*
X109390593Y-106083419D01*
X109420283Y-106021043D01*
X109421651Y-106018266D01*
X109553190Y-105760108D01*
X109639366Y-105560965D01*
X109641137Y-105557067D01*
X109663392Y-105510315D01*
X109688835Y-105446759D01*
X109690076Y-105443781D01*
X109802820Y-105183247D01*
X109877938Y-104974596D01*
X109879395Y-104970764D01*
X109899293Y-104921063D01*
X109920418Y-104856740D01*
X109921489Y-104853630D01*
X110015736Y-104591850D01*
X110078937Y-104374308D01*
X110080139Y-104370423D01*
X110097346Y-104318035D01*
X110097345Y-104318035D01*
X110097349Y-104318026D01*
X110105847Y-104285270D01*
X110114112Y-104253414D01*
X110115019Y-104250113D01*
X110191098Y-103988251D01*
X110241567Y-103762461D01*
X110242511Y-103758550D01*
X110256754Y-103703660D01*
X110269215Y-103639005D01*
X110269905Y-103635686D01*
X110328213Y-103374832D01*
X110365156Y-103141578D01*
X110365859Y-103137569D01*
X110376876Y-103080412D01*
X110385081Y-103016114D01*
X110385579Y-103012636D01*
X110426541Y-102754014D01*
X110449242Y-102513858D01*
X110449675Y-102509966D01*
X110457226Y-102450800D01*
X110461260Y-102387319D01*
X110461546Y-102383697D01*
X110485694Y-102128247D01*
X110493430Y-101882077D01*
X110493608Y-101878324D01*
X110497483Y-101817359D01*
X110498153Y-101732799D01*
X110498207Y-101730058D01*
X110505437Y-101500000D01*
X110498207Y-101269944D01*
X110498153Y-101267196D01*
X110497483Y-101182641D01*
X110493608Y-101121681D01*
X110493429Y-101117917D01*
X110485694Y-100871753D01*
X110461546Y-100616303D01*
X110461260Y-100612680D01*
X110457226Y-100549200D01*
X110449672Y-100490013D01*
X110449243Y-100486155D01*
X110426541Y-100245986D01*
X110426538Y-100245970D01*
X110402309Y-100092994D01*
X110385583Y-99987391D01*
X110385079Y-99983867D01*
X110376876Y-99919588D01*
X110365866Y-99862467D01*
X110365154Y-99858404D01*
X110328215Y-99625181D01*
X110328214Y-99625174D01*
X110324913Y-99610405D01*
X110269913Y-99364352D01*
X110269212Y-99360980D01*
X110256754Y-99296340D01*
X110242535Y-99241538D01*
X110241554Y-99237480D01*
X110191098Y-99011749D01*
X110115040Y-98749956D01*
X110114112Y-98746584D01*
X110097346Y-98681965D01*
X110080156Y-98629626D01*
X110078920Y-98625633D01*
X110015736Y-98408150D01*
X109921518Y-98146450D01*
X109920382Y-98143148D01*
X109899296Y-98078947D01*
X109899293Y-98078937D01*
X109879410Y-98029272D01*
X109877903Y-98025305D01*
X109802820Y-97816753D01*
X109690082Y-97556231D01*
X109688803Y-97553160D01*
X109663392Y-97489685D01*
X109641155Y-97442970D01*
X109639348Y-97438991D01*
X109553190Y-97239892D01*
X109421682Y-96981794D01*
X109420255Y-96978896D01*
X109390593Y-96916581D01*
X109366276Y-96872876D01*
X109364177Y-96868934D01*
X109267834Y-96679849D01*
X109267832Y-96679845D01*
X109117413Y-96425500D01*
X109115788Y-96422667D01*
X109082002Y-96361943D01*
X109082001Y-96361941D01*
X109055950Y-96321406D01*
X109053533Y-96317486D01*
X108947867Y-96138814D01*
X108778373Y-95889411D01*
X108776615Y-95886752D01*
X108738843Y-95827978D01*
X108738840Y-95827973D01*
X108711376Y-95790672D01*
X108708679Y-95786860D01*
X108594570Y-95618954D01*
X108594561Y-95618941D01*
X108405965Y-95375805D01*
X108404090Y-95373325D01*
X108362513Y-95316856D01*
X108362511Y-95316853D01*
X108333956Y-95282823D01*
X108330973Y-95279125D01*
X108212258Y-95126079D01*
X108209322Y-95122294D01*
X108001572Y-94886648D01*
X107999608Y-94884364D01*
X107974439Y-94854369D01*
X107954521Y-94830631D01*
X107925221Y-94799902D01*
X107921953Y-94796337D01*
X107793650Y-94650807D01*
X107793635Y-94650791D01*
X107566985Y-94424142D01*
X107564923Y-94422031D01*
X107516511Y-94371258D01*
X107516508Y-94371255D01*
X107486757Y-94343776D01*
X107483234Y-94340391D01*
X107349193Y-94206350D01*
X107113148Y-93998248D01*
X107103676Y-93989897D01*
X107101570Y-93987996D01*
X107050257Y-93940601D01*
X107050247Y-93940593D01*
X107050244Y-93940590D01*
X107033637Y-93927099D01*
X107020369Y-93916319D01*
X107016587Y-93913118D01*
X106877724Y-93790693D01*
X106877694Y-93790668D01*
X106613676Y-93585875D01*
X106611487Y-93584138D01*
X106557631Y-93540383D01*
X106527942Y-93519242D01*
X106523870Y-93516215D01*
X106464001Y-93469776D01*
X106381048Y-93405431D01*
X106209653Y-93288951D01*
X106098787Y-93213606D01*
X106096560Y-93212056D01*
X106040598Y-93172206D01*
X106011413Y-93154098D01*
X106007091Y-93151290D01*
X105861185Y-93052132D01*
X105561155Y-92874695D01*
X105558901Y-92873329D01*
X105501264Y-92837567D01*
X105501257Y-92837563D01*
X105472840Y-92822338D01*
X105468282Y-92819770D01*
X105320172Y-92732178D01*
X105320168Y-92732176D01*
X105320166Y-92732175D01*
X105320156Y-92732169D01*
X105088339Y-92614052D01*
X105002795Y-92570465D01*
X105000529Y-92569280D01*
X104941789Y-92537808D01*
X104914426Y-92525311D01*
X104909647Y-92523003D01*
X104760103Y-92446807D01*
X104426046Y-92302247D01*
X104423783Y-92301241D01*
X104364435Y-92274138D01*
X104364409Y-92274127D01*
X104338376Y-92264182D01*
X104333384Y-92262150D01*
X104302120Y-92248621D01*
X104183247Y-92197180D01*
X104183242Y-92197178D01*
X103833061Y-92071105D01*
X103830811Y-92070270D01*
X103771503Y-92047611D01*
X103771495Y-92047609D01*
X103746974Y-92039983D01*
X103741795Y-92038247D01*
X103664108Y-92010278D01*
X103591850Y-91984264D01*
X103591843Y-91984261D01*
X103591832Y-91984258D01*
X103226299Y-91878061D01*
X103224077Y-91877393D01*
X103165413Y-91859152D01*
X103142635Y-91853625D01*
X103137282Y-91852199D01*
X103008046Y-91814653D01*
X102988251Y-91808902D01*
X102988247Y-91808901D01*
X102608090Y-91723925D01*
X102605907Y-91723416D01*
X102548578Y-91709509D01*
X102527744Y-91705835D01*
X102522229Y-91704733D01*
X102374832Y-91671786D01*
X102374818Y-91671784D01*
X101980925Y-91609397D01*
X101978792Y-91609040D01*
X101923513Y-91599293D01*
X101904745Y-91597200D01*
X101899094Y-91596437D01*
X101754029Y-91573461D01*
X101754023Y-91573460D01*
X101754014Y-91573459D01*
X101610229Y-91559867D01*
X101347218Y-91535004D01*
X101345147Y-91534790D01*
X101292695Y-91528941D01*
X101276184Y-91528154D01*
X101270421Y-91527745D01*
X101149533Y-91516318D01*
X101128247Y-91514306D01*
X101128245Y-91514305D01*
X101128232Y-91514305D01*
X100709638Y-91501150D01*
X100707637Y-91501071D01*
X100658682Y-91498740D01*
X100644530Y-91498965D01*
X100638669Y-91498920D01*
X100500000Y-91494563D01*
X100070533Y-91508058D01*
X100068609Y-91508103D01*
X100024084Y-91508810D01*
X100024063Y-91508810D01*
X100024061Y-91508811D01*
X100024058Y-91508811D01*
X100024041Y-91508812D01*
X100012269Y-91509747D01*
X100006353Y-91510075D01*
X99871766Y-91514305D01*
X99871753Y-91514306D01*
X99432629Y-91555815D01*
X99430790Y-91555975D01*
X99391334Y-91559112D01*
X99391322Y-91559114D01*
X99381995Y-91560454D01*
X99376035Y-91561163D01*
X99246004Y-91573456D01*
X99245966Y-91573461D01*
X98798345Y-91644357D01*
X98796599Y-91644621D01*
X98763099Y-91649438D01*
X98763072Y-91649443D01*
X98756187Y-91650884D01*
X98750195Y-91651984D01*
X98625181Y-91671784D01*
X98625167Y-91671786D01*
X98170026Y-91773521D01*
X98168382Y-91773877D01*
X98141803Y-91779440D01*
X98137401Y-91780657D01*
X98131423Y-91782150D01*
X98011753Y-91808900D01*
X97550504Y-91942905D01*
X97548959Y-91943343D01*
X97530065Y-91948567D01*
X97530049Y-91948572D01*
X97528013Y-91949277D01*
X97522084Y-91951162D01*
X97408147Y-91984264D01*
X96942047Y-92152070D01*
X96940621Y-92152574D01*
X96930238Y-92156169D01*
X96928917Y-92156673D01*
X96924676Y-92158323D01*
X96816765Y-92197175D01*
X96816755Y-92197179D01*
X96346982Y-92400466D01*
X96345731Y-92400999D01*
X96344749Y-92401411D01*
X96342798Y-92402277D01*
X96239912Y-92446800D01*
X96239894Y-92446809D01*
X96239892Y-92446810D01*
X95679844Y-92732169D01*
X95679839Y-92732171D01*
X95679831Y-92732176D01*
X95679827Y-92732178D01*
X95138814Y-93052132D01*
X94618954Y-93405429D01*
X94618941Y-93405438D01*
X94122305Y-93790668D01*
X94122293Y-93790678D01*
X93650798Y-94206357D01*
X93206357Y-94650798D01*
X92790678Y-95122293D01*
X92790668Y-95122305D01*
X92405438Y-95618941D01*
X92405429Y-95618954D01*
X92052132Y-96138814D01*
X91732178Y-96679827D01*
X91732176Y-96679831D01*
X91732171Y-96679839D01*
X91732169Y-96679844D01*
X91730712Y-96682704D01*
X91446808Y-97239895D01*
X91197181Y-97816751D01*
X90984261Y-98408157D01*
X90808903Y-99011741D01*
X90671785Y-99625174D01*
X90671784Y-99625181D01*
X90573461Y-100245970D01*
X90573461Y-100245972D01*
X90573459Y-100245986D01*
X90551095Y-100482573D01*
X90514305Y-100871757D01*
X90514305Y-100871766D01*
X90494563Y-101500000D01*
X85537700Y-101500000D01*
X85537700Y-95733752D01*
X85557385Y-95666713D01*
X85574019Y-95646071D01*
X89725527Y-91494563D01*
X98237277Y-82982812D01*
X98298598Y-82949329D01*
X98368290Y-82954313D01*
X98424223Y-82996185D01*
X98442237Y-83030232D01*
X98507309Y-83219779D01*
X98507311Y-83219785D01*
X98625624Y-83438408D01*
X98625628Y-83438413D01*
X98778303Y-83634570D01*
X98778312Y-83634580D01*
X98961198Y-83802939D01*
X98961197Y-83802939D01*
X99059745Y-83867323D01*
X99169307Y-83938903D01*
X99396955Y-84038759D01*
X99637934Y-84099783D01*
X99823627Y-84115170D01*
X99823631Y-84115170D01*
X100697009Y-84115170D01*
X100697013Y-84115170D01*
X100882706Y-84099783D01*
X101123685Y-84038759D01*
X101351333Y-83938903D01*
X101559441Y-83802940D01*
X101742331Y-83634577D01*
X101895015Y-83438409D01*
X101966854Y-83305661D01*
X102016074Y-83256072D01*
X102075909Y-83240680D01*
X102477862Y-83240680D01*
X102544901Y-83260365D01*
X102570012Y-83281708D01*
X102608526Y-83324483D01*
X102608533Y-83324489D01*
X102761668Y-83435748D01*
X102761673Y-83435751D01*
X102934595Y-83512742D01*
X102934600Y-83512744D01*
X103119757Y-83552100D01*
X103119758Y-83552100D01*
X103309047Y-83552100D01*
X103309049Y-83552100D01*
X103494206Y-83512744D01*
X103667133Y-83435751D01*
X103820274Y-83324488D01*
X103946936Y-83183816D01*
X103973647Y-83137552D01*
X104041183Y-83020575D01*
X104091749Y-82972359D01*
X104160356Y-82959135D01*
X104225221Y-82985103D01*
X104265750Y-83042017D01*
X104272570Y-83082574D01*
X104272570Y-85206525D01*
X104270845Y-85222142D01*
X104271131Y-85222169D01*
X104270396Y-85229935D01*
X104272509Y-85297142D01*
X104272570Y-85301037D01*
X104272570Y-85328627D01*
X104273073Y-85332605D01*
X104273988Y-85344237D01*
X104275360Y-85387894D01*
X104275361Y-85387897D01*
X104280950Y-85407137D01*
X104284894Y-85426181D01*
X104287329Y-85445456D01*
X104287406Y-85446062D01*
X104303484Y-85486673D01*
X104307267Y-85497722D01*
X104319451Y-85539658D01*
X104329650Y-85556904D01*
X104338208Y-85574373D01*
X104345584Y-85593002D01*
X104371251Y-85628330D01*
X104377663Y-85638091D01*
X104399898Y-85675687D01*
X104399903Y-85675694D01*
X104414060Y-85689850D01*
X104426697Y-85704645D01*
X104438476Y-85720857D01*
X104461542Y-85739939D01*
X104472127Y-85748695D01*
X104480768Y-85756558D01*
X107576197Y-88851988D01*
X107586022Y-88864251D01*
X107586243Y-88864069D01*
X107591211Y-88870074D01*
X107591213Y-88870076D01*
X107591214Y-88870077D01*
X107620048Y-88897154D01*
X107640222Y-88916099D01*
X107643021Y-88918812D01*
X107662522Y-88938314D01*
X107662526Y-88938317D01*
X107662529Y-88938320D01*
X107665702Y-88940781D01*
X107674574Y-88948359D01*
X107706418Y-88978262D01*
X107723976Y-88987914D01*
X107740233Y-88998593D01*
X107756064Y-89010873D01*
X107785803Y-89023742D01*
X107796152Y-89028221D01*
X107806641Y-89033360D01*
X107830457Y-89046452D01*
X107844908Y-89054397D01*
X107857523Y-89057635D01*
X107864305Y-89059377D01*
X107882719Y-89065681D01*
X107901104Y-89073638D01*
X107944261Y-89080473D01*
X107955656Y-89082832D01*
X107997981Y-89093700D01*
X108018016Y-89093700D01*
X108037413Y-89095226D01*
X108057196Y-89098360D01*
X108100675Y-89094250D01*
X108112344Y-89093700D01*
X114370548Y-89093700D01*
X114437587Y-89113385D01*
X114458229Y-89130019D01*
X119480181Y-94151971D01*
X119513666Y-94213294D01*
X119516500Y-94239652D01*
X119516500Y-119580455D01*
X119514775Y-119596072D01*
X119515061Y-119596099D01*
X119514326Y-119603865D01*
X119516439Y-119671072D01*
X119516500Y-119674967D01*
X119516500Y-119702557D01*
X119517003Y-119706535D01*
X119517918Y-119718167D01*
X119519290Y-119761824D01*
X119519291Y-119761827D01*
X119524880Y-119781067D01*
X119528824Y-119800111D01*
X119531336Y-119819992D01*
X119547414Y-119860603D01*
X119551197Y-119871652D01*
X119563381Y-119913588D01*
X119573580Y-119930834D01*
X119582138Y-119948303D01*
X119589514Y-119966932D01*
X119615181Y-120002260D01*
X119621593Y-120012021D01*
X119643828Y-120049617D01*
X119643833Y-120049624D01*
X119657990Y-120063780D01*
X119670627Y-120078575D01*
X119682406Y-120094787D01*
X119707058Y-120115181D01*
X119716057Y-120122625D01*
X119724698Y-120130488D01*
X122454238Y-122860029D01*
X122487723Y-122921352D01*
X122489878Y-122934748D01*
X122493286Y-122967171D01*
X122507526Y-123102656D01*
X122507527Y-123102659D01*
X122566018Y-123282677D01*
X122566021Y-123282684D01*
X122660667Y-123446616D01*
X122787329Y-123587288D01*
X122940465Y-123698548D01*
X122940470Y-123698551D01*
X123113392Y-123775542D01*
X123113397Y-123775544D01*
X123298554Y-123814900D01*
X123298555Y-123814900D01*
X123487844Y-123814900D01*
X123487846Y-123814900D01*
X123673003Y-123775544D01*
X123845930Y-123698551D01*
X123999071Y-123587288D01*
X124125733Y-123446616D01*
X124220379Y-123282684D01*
X124278874Y-123102656D01*
X124298660Y-122914400D01*
X124278874Y-122726144D01*
X124220379Y-122546116D01*
X124125733Y-122382184D01*
X123999071Y-122241512D01*
X123999070Y-122241511D01*
X123845934Y-122130251D01*
X123845929Y-122130248D01*
X123673007Y-122053257D01*
X123673002Y-122053255D01*
X123507643Y-122018108D01*
X123487846Y-122013900D01*
X123487845Y-122013900D01*
X123428653Y-122013900D01*
X123361614Y-121994215D01*
X123340972Y-121977581D01*
X121734190Y-120370799D01*
X128454776Y-120370799D01*
X128454778Y-120370800D01*
X130074471Y-120370800D01*
X130033800Y-120535805D01*
X130033800Y-120705795D01*
X130074471Y-120870800D01*
X128454777Y-120870800D01*
X128474716Y-120990292D01*
X128555430Y-121225403D01*
X128555435Y-121225414D01*
X128673742Y-121444028D01*
X128673748Y-121444037D01*
X128826426Y-121640197D01*
X128826435Y-121640207D01*
X129009322Y-121808567D01*
X129009321Y-121808567D01*
X129217432Y-121944532D01*
X129445082Y-122044387D01*
X129686061Y-122105412D01*
X129686069Y-122105414D01*
X129871745Y-122120799D01*
X129871761Y-122120800D01*
X130483800Y-122120800D01*
X130483800Y-121274637D01*
X130565049Y-121305451D01*
X130691460Y-121320800D01*
X130776140Y-121320800D01*
X130902551Y-121305451D01*
X130983800Y-121274637D01*
X130983800Y-122120800D01*
X131595839Y-122120800D01*
X131595854Y-122120799D01*
X131781530Y-122105414D01*
X131781538Y-122105412D01*
X132022517Y-122044387D01*
X132250167Y-121944532D01*
X132458278Y-121808567D01*
X132641164Y-121640207D01*
X132641173Y-121640197D01*
X132793851Y-121444037D01*
X132793857Y-121444028D01*
X132912164Y-121225414D01*
X132912169Y-121225403D01*
X132992883Y-120990292D01*
X133012823Y-120870800D01*
X131393129Y-120870800D01*
X131433800Y-120705795D01*
X131433800Y-120535805D01*
X131393129Y-120370800D01*
X133012822Y-120370800D01*
X133012823Y-120370799D01*
X132992883Y-120251307D01*
X132912169Y-120016196D01*
X132912164Y-120016185D01*
X132793857Y-119797571D01*
X132793851Y-119797562D01*
X132641173Y-119601402D01*
X132641164Y-119601392D01*
X132458277Y-119433032D01*
X132458278Y-119433032D01*
X132250167Y-119297067D01*
X132022517Y-119197212D01*
X131781538Y-119136187D01*
X131781530Y-119136185D01*
X131595854Y-119120800D01*
X130983800Y-119120800D01*
X130983800Y-119966962D01*
X130902551Y-119936149D01*
X130776140Y-119920800D01*
X130691460Y-119920800D01*
X130565049Y-119936149D01*
X130483800Y-119966962D01*
X130483800Y-119120800D01*
X129871745Y-119120800D01*
X129686069Y-119136185D01*
X129686061Y-119136187D01*
X129445082Y-119197212D01*
X129217432Y-119297067D01*
X129009321Y-119433032D01*
X128826435Y-119601392D01*
X128826426Y-119601402D01*
X128673748Y-119797562D01*
X128673742Y-119797571D01*
X128555435Y-120016185D01*
X128555430Y-120016196D01*
X128474716Y-120251307D01*
X128454776Y-120370799D01*
X121734190Y-120370799D01*
X120803819Y-119440428D01*
X120770334Y-119379105D01*
X120767500Y-119352747D01*
X120767500Y-115745134D01*
X128433300Y-115745134D01*
X128474229Y-115990416D01*
X128554969Y-116225602D01*
X128554972Y-116225611D01*
X128673324Y-116444306D01*
X128673326Y-116444309D01*
X128826062Y-116640544D01*
X128905393Y-116713573D01*
X129009017Y-116808966D01*
X129217193Y-116944973D01*
X129444918Y-117044863D01*
X129647114Y-117096066D01*
X129685979Y-117105908D01*
X129685981Y-117105908D01*
X129685986Y-117105909D01*
X129839389Y-117118619D01*
X129871733Y-117121300D01*
X129871737Y-117121300D01*
X131595863Y-117121300D01*
X131595867Y-117121300D01*
X131658477Y-117116111D01*
X131781613Y-117105909D01*
X131781616Y-117105908D01*
X131781621Y-117105908D01*
X132022681Y-117044863D01*
X132250407Y-116944973D01*
X132458585Y-116808964D01*
X132641538Y-116640544D01*
X132794274Y-116444309D01*
X132912628Y-116225610D01*
X132993371Y-115990414D01*
X133034300Y-115745135D01*
X133034300Y-115496465D01*
X132993371Y-115251186D01*
X132912628Y-115015990D01*
X132794274Y-114797291D01*
X132641538Y-114601056D01*
X132458585Y-114432636D01*
X132458582Y-114432633D01*
X132250406Y-114296626D01*
X132022681Y-114196736D01*
X131781624Y-114135692D01*
X131781613Y-114135690D01*
X131595877Y-114120300D01*
X131595867Y-114120300D01*
X129871733Y-114120300D01*
X129871722Y-114120300D01*
X129685986Y-114135690D01*
X129685975Y-114135692D01*
X129444918Y-114196736D01*
X129217193Y-114296626D01*
X129009017Y-114432633D01*
X128826061Y-114601057D01*
X128673324Y-114797293D01*
X128554972Y-115015988D01*
X128554969Y-115015997D01*
X128474229Y-115251183D01*
X128433300Y-115496465D01*
X128433300Y-115745134D01*
X120767500Y-115745134D01*
X120767500Y-111260737D01*
X120787185Y-111193698D01*
X120839989Y-111147943D01*
X120909147Y-111137999D01*
X120972703Y-111167024D01*
X121006792Y-111215090D01*
X121018702Y-111245171D01*
X121020615Y-111250004D01*
X121024397Y-111261052D01*
X121034337Y-111295266D01*
X121036582Y-111302990D01*
X121038037Y-111305451D01*
X121046780Y-111320234D01*
X121055336Y-111337700D01*
X121060428Y-111350558D01*
X121062714Y-111356332D01*
X121088381Y-111391660D01*
X121094793Y-111401421D01*
X121117028Y-111439017D01*
X121117033Y-111439024D01*
X121131190Y-111453180D01*
X121143827Y-111467975D01*
X121155606Y-111484187D01*
X121176229Y-111501248D01*
X121189257Y-111512025D01*
X121197898Y-111519888D01*
X122352638Y-112674628D01*
X122386123Y-112735951D01*
X122388278Y-112749347D01*
X122395739Y-112820338D01*
X122405926Y-112917256D01*
X122406488Y-112918985D01*
X122464418Y-113097277D01*
X122464421Y-113097284D01*
X122559067Y-113261216D01*
X122647169Y-113359063D01*
X122685729Y-113401888D01*
X122838865Y-113513148D01*
X122838870Y-113513151D01*
X123011792Y-113590142D01*
X123011797Y-113590144D01*
X123196954Y-113629500D01*
X123196955Y-113629500D01*
X123386244Y-113629500D01*
X123386246Y-113629500D01*
X123571403Y-113590144D01*
X123744330Y-113513151D01*
X123897471Y-113401888D01*
X124024133Y-113261216D01*
X124118779Y-113097284D01*
X124177274Y-112917256D01*
X124197060Y-112729000D01*
X124177274Y-112540744D01*
X124118779Y-112360716D01*
X124024133Y-112196784D01*
X123897471Y-112056112D01*
X123881333Y-112044387D01*
X123744334Y-111944851D01*
X123744329Y-111944848D01*
X123571407Y-111867857D01*
X123571402Y-111867855D01*
X123425601Y-111836865D01*
X123386246Y-111828500D01*
X123386245Y-111828500D01*
X123327052Y-111828500D01*
X123260013Y-111808815D01*
X123239371Y-111792181D01*
X122277019Y-110829828D01*
X122243534Y-110768505D01*
X122240700Y-110742147D01*
X122240700Y-110370799D01*
X128454776Y-110370799D01*
X128454778Y-110370800D01*
X130074471Y-110370800D01*
X130033800Y-110535805D01*
X130033800Y-110705795D01*
X130074471Y-110870800D01*
X128454777Y-110870800D01*
X128474716Y-110990292D01*
X128555430Y-111225403D01*
X128555435Y-111225414D01*
X128673742Y-111444028D01*
X128673748Y-111444037D01*
X128826426Y-111640197D01*
X128826435Y-111640207D01*
X129009322Y-111808567D01*
X129009321Y-111808567D01*
X129217432Y-111944532D01*
X129445082Y-112044387D01*
X129686061Y-112105412D01*
X129686069Y-112105414D01*
X129871745Y-112120799D01*
X129871761Y-112120800D01*
X130483800Y-112120800D01*
X130483800Y-111274637D01*
X130565049Y-111305451D01*
X130691460Y-111320800D01*
X130776140Y-111320800D01*
X130902551Y-111305451D01*
X130983800Y-111274637D01*
X130983800Y-112120800D01*
X131595839Y-112120800D01*
X131595854Y-112120799D01*
X131781530Y-112105414D01*
X131781538Y-112105412D01*
X132022517Y-112044387D01*
X132250167Y-111944532D01*
X132458278Y-111808567D01*
X132641164Y-111640207D01*
X132641173Y-111640197D01*
X132793851Y-111444037D01*
X132793857Y-111444028D01*
X132912164Y-111225414D01*
X132912169Y-111225403D01*
X132992883Y-110990292D01*
X133012823Y-110870800D01*
X131393129Y-110870800D01*
X131433800Y-110705795D01*
X131433800Y-110535805D01*
X131393129Y-110370800D01*
X133012822Y-110370800D01*
X133012823Y-110370799D01*
X132992883Y-110251307D01*
X132912169Y-110016196D01*
X132912164Y-110016185D01*
X132793857Y-109797571D01*
X132793851Y-109797562D01*
X132641173Y-109601402D01*
X132641164Y-109601392D01*
X132458277Y-109433032D01*
X132458278Y-109433032D01*
X132250167Y-109297067D01*
X132022517Y-109197212D01*
X131781538Y-109136187D01*
X131781530Y-109136185D01*
X131595854Y-109120800D01*
X130983800Y-109120800D01*
X130983800Y-109966962D01*
X130902551Y-109936149D01*
X130776140Y-109920800D01*
X130691460Y-109920800D01*
X130565049Y-109936149D01*
X130483800Y-109966962D01*
X130483800Y-109120800D01*
X129871745Y-109120800D01*
X129686069Y-109136185D01*
X129686061Y-109136187D01*
X129445082Y-109197212D01*
X129217432Y-109297067D01*
X129009321Y-109433032D01*
X128826435Y-109601392D01*
X128826426Y-109601402D01*
X128673748Y-109797562D01*
X128673742Y-109797571D01*
X128555435Y-110016185D01*
X128555430Y-110016196D01*
X128474716Y-110251307D01*
X128454776Y-110370799D01*
X122240700Y-110370799D01*
X122240700Y-105745134D01*
X128433300Y-105745134D01*
X128474229Y-105990416D01*
X128554969Y-106225602D01*
X128554972Y-106225611D01*
X128606144Y-106320168D01*
X128673326Y-106444309D01*
X128826062Y-106640544D01*
X128985544Y-106787357D01*
X129009017Y-106808966D01*
X129217193Y-106944973D01*
X129444918Y-107044863D01*
X129685975Y-107105907D01*
X129685979Y-107105908D01*
X129685981Y-107105908D01*
X129685986Y-107105909D01*
X129839389Y-107118619D01*
X129871733Y-107121300D01*
X129871737Y-107121300D01*
X131595863Y-107121300D01*
X131595867Y-107121300D01*
X131658477Y-107116111D01*
X131781613Y-107105909D01*
X131781616Y-107105908D01*
X131781621Y-107105908D01*
X132022681Y-107044863D01*
X132250407Y-106944973D01*
X132458585Y-106808964D01*
X132641538Y-106640544D01*
X132794274Y-106444309D01*
X132912628Y-106225610D01*
X132993371Y-105990414D01*
X133034300Y-105745135D01*
X133034300Y-105496465D01*
X132993371Y-105251186D01*
X132912628Y-105015990D01*
X132794274Y-104797291D01*
X132641538Y-104601056D01*
X132458585Y-104432636D01*
X132458582Y-104432633D01*
X132250406Y-104296626D01*
X132022681Y-104196736D01*
X131781624Y-104135692D01*
X131781613Y-104135690D01*
X131595877Y-104120300D01*
X131595867Y-104120300D01*
X129871733Y-104120300D01*
X129871722Y-104120300D01*
X129685986Y-104135690D01*
X129685975Y-104135692D01*
X129444918Y-104196736D01*
X129217193Y-104296626D01*
X129009017Y-104432633D01*
X128826061Y-104601057D01*
X128673324Y-104797293D01*
X128554972Y-105015988D01*
X128554969Y-105015997D01*
X128474229Y-105251183D01*
X128433300Y-105496465D01*
X128433300Y-105745134D01*
X122240700Y-105745134D01*
X122240700Y-103627144D01*
X122260385Y-103560105D01*
X122313189Y-103514350D01*
X122382347Y-103504406D01*
X122445903Y-103533431D01*
X122472088Y-103565146D01*
X122482866Y-103583814D01*
X122482865Y-103583814D01*
X122609529Y-103724488D01*
X122762665Y-103835748D01*
X122762670Y-103835751D01*
X122935592Y-103912742D01*
X122935597Y-103912744D01*
X123120754Y-103952100D01*
X123120755Y-103952100D01*
X123310044Y-103952100D01*
X123310046Y-103952100D01*
X123495203Y-103912744D01*
X123668130Y-103835751D01*
X123821271Y-103724488D01*
X123947933Y-103583816D01*
X124042579Y-103419884D01*
X124101074Y-103239856D01*
X124120860Y-103051600D01*
X124101074Y-102863344D01*
X124042579Y-102683316D01*
X123947933Y-102519384D01*
X123945437Y-102516612D01*
X123872750Y-102435884D01*
X123842520Y-102372892D01*
X123840900Y-102352912D01*
X123840900Y-100370799D01*
X128454776Y-100370799D01*
X128454778Y-100370800D01*
X130074471Y-100370800D01*
X130033800Y-100535805D01*
X130033800Y-100705795D01*
X130074471Y-100870800D01*
X128454777Y-100870800D01*
X128474716Y-100990292D01*
X128555430Y-101225403D01*
X128555435Y-101225414D01*
X128673742Y-101444028D01*
X128673748Y-101444037D01*
X128826426Y-101640197D01*
X128826435Y-101640207D01*
X129009322Y-101808567D01*
X129009321Y-101808567D01*
X129217432Y-101944532D01*
X129445082Y-102044387D01*
X129686061Y-102105412D01*
X129686069Y-102105414D01*
X129871745Y-102120799D01*
X129871761Y-102120800D01*
X130483800Y-102120800D01*
X130483800Y-101274637D01*
X130565049Y-101305451D01*
X130691460Y-101320800D01*
X130776140Y-101320800D01*
X130902551Y-101305451D01*
X130983800Y-101274637D01*
X130983800Y-102120800D01*
X131595839Y-102120800D01*
X131595854Y-102120799D01*
X131781530Y-102105414D01*
X131781538Y-102105412D01*
X132022517Y-102044387D01*
X132250167Y-101944532D01*
X132458278Y-101808567D01*
X132641164Y-101640207D01*
X132641173Y-101640197D01*
X132793851Y-101444037D01*
X132793857Y-101444028D01*
X132912164Y-101225414D01*
X132912169Y-101225403D01*
X132992883Y-100990292D01*
X133012823Y-100870800D01*
X131393129Y-100870800D01*
X131433800Y-100705795D01*
X131433800Y-100535805D01*
X131393129Y-100370800D01*
X133012822Y-100370800D01*
X133012823Y-100370799D01*
X132992883Y-100251307D01*
X132912169Y-100016196D01*
X132912164Y-100016185D01*
X132793857Y-99797571D01*
X132793851Y-99797562D01*
X132641173Y-99601402D01*
X132641164Y-99601392D01*
X132458277Y-99433032D01*
X132458278Y-99433032D01*
X132250167Y-99297067D01*
X132022517Y-99197212D01*
X131781538Y-99136187D01*
X131781530Y-99136185D01*
X131595854Y-99120800D01*
X130983800Y-99120800D01*
X130983800Y-99966962D01*
X130902551Y-99936149D01*
X130776140Y-99920800D01*
X130691460Y-99920800D01*
X130565049Y-99936149D01*
X130483800Y-99966962D01*
X130483800Y-99120800D01*
X129871745Y-99120800D01*
X129686069Y-99136185D01*
X129686061Y-99136187D01*
X129445082Y-99197212D01*
X129217432Y-99297067D01*
X129009321Y-99433032D01*
X128826435Y-99601392D01*
X128826426Y-99601402D01*
X128673748Y-99797562D01*
X128673742Y-99797571D01*
X128555435Y-100016185D01*
X128555430Y-100016196D01*
X128474716Y-100251307D01*
X128454776Y-100370799D01*
X123840900Y-100370799D01*
X123840900Y-92386342D01*
X123842624Y-92370722D01*
X123842339Y-92370696D01*
X123843071Y-92362940D01*
X123843073Y-92362933D01*
X123840961Y-92295726D01*
X123840900Y-92291831D01*
X123840900Y-92264254D01*
X123840900Y-92264250D01*
X123840396Y-92260265D01*
X123839480Y-92248621D01*
X123838109Y-92204973D01*
X123832522Y-92185744D01*
X123828574Y-92166684D01*
X123826792Y-92152574D01*
X123826064Y-92146808D01*
X123826063Y-92146806D01*
X123826063Y-92146804D01*
X123809988Y-92106204D01*
X123806204Y-92095152D01*
X123794018Y-92053209D01*
X123794016Y-92053206D01*
X123783823Y-92035971D01*
X123775261Y-92018494D01*
X123767887Y-91999869D01*
X123742216Y-91964537D01*
X123735805Y-91954777D01*
X123713570Y-91917180D01*
X123713568Y-91917178D01*
X123713565Y-91917174D01*
X123699406Y-91903015D01*
X123686768Y-91888219D01*
X123679388Y-91878061D01*
X123674994Y-91872013D01*
X123670515Y-91868308D01*
X123641340Y-91844172D01*
X123632699Y-91836309D01*
X119838619Y-88042228D01*
X119805134Y-87980905D01*
X119802300Y-87954547D01*
X119802300Y-85013806D01*
X130979500Y-85013806D01*
X130998664Y-85245097D01*
X130998666Y-85245108D01*
X131055642Y-85470100D01*
X131148875Y-85682648D01*
X131275818Y-85876950D01*
X131370967Y-85980310D01*
X131401889Y-86042964D01*
X131394028Y-86112390D01*
X131349881Y-86166546D01*
X131323071Y-86180474D01*
X131242711Y-86210446D01*
X131242706Y-86210449D01*
X131127612Y-86296609D01*
X131127609Y-86296612D01*
X131041449Y-86411706D01*
X131041445Y-86411713D01*
X130991203Y-86546420D01*
X130991201Y-86546427D01*
X130984800Y-86605955D01*
X130984800Y-87303800D01*
X132009522Y-87303800D01*
X131961175Y-87387540D01*
X131930990Y-87519792D01*
X131941127Y-87655065D01*
X131990687Y-87781341D01*
X132008597Y-87803800D01*
X130984800Y-87803800D01*
X130984800Y-88501644D01*
X130991201Y-88561172D01*
X130991203Y-88561179D01*
X131041445Y-88695886D01*
X131041449Y-88695893D01*
X131127609Y-88810987D01*
X131127612Y-88810990D01*
X131242706Y-88897150D01*
X131242713Y-88897154D01*
X131377420Y-88947396D01*
X131377427Y-88947398D01*
X131436955Y-88953799D01*
X131436972Y-88953800D01*
X132134800Y-88953800D01*
X132134800Y-87927989D01*
X132187347Y-87963816D01*
X132316973Y-88003800D01*
X132418524Y-88003800D01*
X132518938Y-87988665D01*
X132634800Y-87932868D01*
X132634800Y-88953800D01*
X133332628Y-88953800D01*
X133332644Y-88953799D01*
X133392172Y-88947398D01*
X133392179Y-88947396D01*
X133526886Y-88897154D01*
X133526893Y-88897150D01*
X133641987Y-88810990D01*
X133641990Y-88810987D01*
X133728150Y-88695893D01*
X133728154Y-88695886D01*
X133778396Y-88561179D01*
X133778398Y-88561172D01*
X133784799Y-88501644D01*
X133784800Y-88501627D01*
X133784800Y-87803800D01*
X132760078Y-87803800D01*
X132808425Y-87720060D01*
X132838610Y-87587808D01*
X132828473Y-87452535D01*
X132778913Y-87326259D01*
X132761003Y-87303800D01*
X133784800Y-87303800D01*
X133784800Y-86605972D01*
X133784799Y-86605955D01*
X133778398Y-86546427D01*
X133778396Y-86546420D01*
X133728154Y-86411713D01*
X133728150Y-86411706D01*
X133641990Y-86296612D01*
X133641987Y-86296609D01*
X133526893Y-86210449D01*
X133526886Y-86210445D01*
X133446529Y-86180474D01*
X133390595Y-86138603D01*
X133366178Y-86073138D01*
X133381030Y-86004865D01*
X133398626Y-85980316D01*
X133493779Y-85876953D01*
X133620724Y-85682649D01*
X133713957Y-85470100D01*
X133770934Y-85245105D01*
X133772191Y-85229935D01*
X133790100Y-85013806D01*
X133790100Y-85013793D01*
X133770935Y-84782502D01*
X133770933Y-84782491D01*
X133713957Y-84557499D01*
X133620724Y-84344951D01*
X133493783Y-84150652D01*
X133493780Y-84150649D01*
X133493779Y-84150647D01*
X133336584Y-83979887D01*
X133336579Y-83979883D01*
X133336577Y-83979881D01*
X133153434Y-83837335D01*
X133153423Y-83837328D01*
X133000283Y-83754453D01*
X132950692Y-83705233D01*
X132935300Y-83645398D01*
X132935300Y-81669048D01*
X132954985Y-81602009D01*
X133007789Y-81556254D01*
X133020288Y-81551344D01*
X133029134Y-81548414D01*
X133178456Y-81456312D01*
X133302512Y-81332256D01*
X133394614Y-81182934D01*
X133449799Y-81016397D01*
X133460300Y-80913609D01*
X133460299Y-79563592D01*
X133451365Y-79476138D01*
X133449799Y-79460803D01*
X133449798Y-79460800D01*
X133423864Y-79382536D01*
X133394614Y-79294266D01*
X133302512Y-79144944D01*
X133178456Y-79020888D01*
X133029134Y-78928786D01*
X132862597Y-78873601D01*
X132862595Y-78873600D01*
X132759810Y-78863100D01*
X131859798Y-78863100D01*
X131859780Y-78863101D01*
X131757003Y-78873600D01*
X131757000Y-78873601D01*
X131590468Y-78928785D01*
X131590463Y-78928787D01*
X131441142Y-79020889D01*
X131317089Y-79144942D01*
X131224987Y-79294263D01*
X131224985Y-79294268D01*
X131204232Y-79356897D01*
X131169801Y-79460803D01*
X131169801Y-79460804D01*
X131169800Y-79460804D01*
X131159300Y-79563583D01*
X131159300Y-80913601D01*
X131159301Y-80913618D01*
X131169800Y-81016396D01*
X131169801Y-81016399D01*
X131224985Y-81182931D01*
X131224986Y-81182934D01*
X131317088Y-81332256D01*
X131441144Y-81456312D01*
X131590466Y-81548414D01*
X131599298Y-81551340D01*
X131656744Y-81591108D01*
X131683571Y-81655622D01*
X131684300Y-81669048D01*
X131684300Y-83726573D01*
X131664615Y-83793612D01*
X131619327Y-83835623D01*
X131616177Y-83837327D01*
X131616165Y-83837335D01*
X131433022Y-83979881D01*
X131433019Y-83979884D01*
X131275816Y-84150652D01*
X131148875Y-84344951D01*
X131055642Y-84557499D01*
X130998666Y-84782491D01*
X130998664Y-84782502D01*
X130979500Y-85013793D01*
X130979500Y-85013806D01*
X119802300Y-85013806D01*
X119802300Y-82909842D01*
X119804024Y-82894222D01*
X119803739Y-82894195D01*
X119804473Y-82886433D01*
X119802361Y-82819212D01*
X119802300Y-82815318D01*
X119802300Y-82787756D01*
X119802300Y-82787750D01*
X119801796Y-82783768D01*
X119800881Y-82772129D01*
X119799510Y-82728473D01*
X119793919Y-82709230D01*
X119789973Y-82690178D01*
X119787464Y-82670308D01*
X119771379Y-82629683D01*
X119767606Y-82618662D01*
X119755418Y-82576710D01*
X119755417Y-82576709D01*
X119755417Y-82576707D01*
X119755416Y-82576706D01*
X119745223Y-82559471D01*
X119736661Y-82541994D01*
X119729287Y-82523369D01*
X119703616Y-82488037D01*
X119697205Y-82478277D01*
X119674970Y-82440680D01*
X119674968Y-82440678D01*
X119674965Y-82440674D01*
X119660806Y-82426515D01*
X119648168Y-82411719D01*
X119646720Y-82409726D01*
X119636394Y-82395513D01*
X119617036Y-82379499D01*
X119602740Y-82367672D01*
X119594099Y-82359809D01*
X118150633Y-80916342D01*
X118117148Y-80855019D01*
X118122132Y-80785327D01*
X118129260Y-80769643D01*
X118158959Y-80714763D01*
X118177889Y-80679784D01*
X118258604Y-80444668D01*
X118299520Y-80199473D01*
X118299520Y-79950887D01*
X118258604Y-79705692D01*
X118253994Y-79692264D01*
X118177890Y-79470579D01*
X118177888Y-79470574D01*
X118059575Y-79251951D01*
X118059571Y-79251946D01*
X118038944Y-79225445D01*
X117976288Y-79144944D01*
X117906896Y-79055789D01*
X117906893Y-79055785D01*
X117906891Y-79055783D01*
X117733765Y-78896408D01*
X117697775Y-78836522D01*
X117699876Y-78766684D01*
X117733764Y-78713951D01*
X117906891Y-78554577D01*
X118059575Y-78358409D01*
X118131414Y-78225661D01*
X118180634Y-78176072D01*
X118240469Y-78160680D01*
X118931528Y-78160680D01*
X118998567Y-78180365D01*
X119019208Y-78196998D01*
X120246691Y-79424482D01*
X121444597Y-80622388D01*
X121454422Y-80634651D01*
X121454643Y-80634469D01*
X121459611Y-80640474D01*
X121508622Y-80686499D01*
X121511421Y-80689212D01*
X121530922Y-80708714D01*
X121530926Y-80708717D01*
X121530929Y-80708720D01*
X121534102Y-80711181D01*
X121542974Y-80718759D01*
X121574818Y-80748662D01*
X121592376Y-80758314D01*
X121608635Y-80768995D01*
X121624464Y-80781273D01*
X121664555Y-80798621D01*
X121675026Y-80803751D01*
X121697580Y-80816150D01*
X121713302Y-80824794D01*
X121713304Y-80824795D01*
X121713308Y-80824797D01*
X121732716Y-80829780D01*
X121751119Y-80836081D01*
X121769501Y-80844036D01*
X121769502Y-80844036D01*
X121769504Y-80844037D01*
X121812650Y-80850870D01*
X121824072Y-80853236D01*
X121866381Y-80864100D01*
X121886416Y-80864100D01*
X121905814Y-80865626D01*
X121925594Y-80868759D01*
X121925595Y-80868760D01*
X121925595Y-80868759D01*
X121925596Y-80868760D01*
X121969075Y-80864650D01*
X121980744Y-80864100D01*
X127942265Y-80864100D01*
X128009304Y-80883785D01*
X128055059Y-80936589D01*
X128065623Y-80975498D01*
X128069801Y-81016397D01*
X128069801Y-81016399D01*
X128124985Y-81182931D01*
X128124986Y-81182934D01*
X128217088Y-81332256D01*
X128341144Y-81456312D01*
X128490466Y-81548414D01*
X128657003Y-81603599D01*
X128759791Y-81614100D01*
X129659808Y-81614099D01*
X129659816Y-81614098D01*
X129659819Y-81614098D01*
X129716102Y-81608348D01*
X129762597Y-81603599D01*
X129929134Y-81548414D01*
X130078456Y-81456312D01*
X130202512Y-81332256D01*
X130294614Y-81182934D01*
X130349799Y-81016397D01*
X130360300Y-80913609D01*
X130360299Y-79563592D01*
X130351365Y-79476138D01*
X130349799Y-79460803D01*
X130349798Y-79460800D01*
X130323864Y-79382536D01*
X130294614Y-79294266D01*
X130202512Y-79144944D01*
X130078456Y-79020888D01*
X129929134Y-78928786D01*
X129762597Y-78873601D01*
X129762595Y-78873600D01*
X129659810Y-78863100D01*
X128759798Y-78863100D01*
X128759780Y-78863101D01*
X128657003Y-78873600D01*
X128657000Y-78873601D01*
X128490468Y-78928785D01*
X128490463Y-78928787D01*
X128341142Y-79020889D01*
X128217089Y-79144942D01*
X128124987Y-79294263D01*
X128124985Y-79294268D01*
X128104232Y-79356897D01*
X128078175Y-79435534D01*
X128069801Y-79460804D01*
X128069800Y-79460805D01*
X128065623Y-79501702D01*
X128039227Y-79566393D01*
X127982047Y-79606545D01*
X127942265Y-79613100D01*
X122255853Y-79613100D01*
X122188814Y-79593415D01*
X122168172Y-79576781D01*
X119742783Y-77151392D01*
X119732960Y-77139130D01*
X119732739Y-77139314D01*
X119727766Y-77133302D01*
X119678756Y-77087279D01*
X119675957Y-77084566D01*
X119656457Y-77065065D01*
X119656451Y-77065060D01*
X119653266Y-77062589D01*
X119644414Y-77055028D01*
X119612562Y-77025118D01*
X119612560Y-77025116D01*
X119612557Y-77025115D01*
X119595009Y-77015468D01*
X119578743Y-77004784D01*
X119573876Y-77001009D01*
X119562916Y-76992507D01*
X119562915Y-76992506D01*
X119562912Y-76992504D01*
X119522829Y-76975158D01*
X119512343Y-76970021D01*
X119474074Y-76948983D01*
X119474072Y-76948982D01*
X119454673Y-76944002D01*
X119436261Y-76937698D01*
X119417878Y-76929742D01*
X119417872Y-76929740D01*
X119374740Y-76922909D01*
X119363302Y-76920541D01*
X119321000Y-76909680D01*
X119320999Y-76909680D01*
X119300964Y-76909680D01*
X119281566Y-76908153D01*
X119274142Y-76906977D01*
X119261785Y-76905020D01*
X119261784Y-76905020D01*
X119218305Y-76909130D01*
X119206636Y-76909680D01*
X118240469Y-76909680D01*
X118173430Y-76889995D01*
X118131414Y-76844698D01*
X118130615Y-76843222D01*
X118059575Y-76711951D01*
X117948970Y-76569846D01*
X117906896Y-76515789D01*
X117906893Y-76515785D01*
X117906891Y-76515783D01*
X117733765Y-76356408D01*
X117697775Y-76296522D01*
X117699876Y-76226684D01*
X117733764Y-76173951D01*
X117906891Y-76014577D01*
X118059575Y-75818409D01*
X118131414Y-75685661D01*
X118180634Y-75636072D01*
X118240469Y-75620680D01*
X121136610Y-75620680D01*
X121203649Y-75640365D01*
X121249404Y-75693169D01*
X121260610Y-75744680D01*
X121260610Y-76300511D01*
X121260611Y-76300529D01*
X121271110Y-76403306D01*
X121271111Y-76403309D01*
X121308384Y-76515789D01*
X121326296Y-76569844D01*
X121418398Y-76719166D01*
X121542454Y-76843222D01*
X121691776Y-76935324D01*
X121858313Y-76990509D01*
X121961101Y-77001010D01*
X123311118Y-77001009D01*
X123413907Y-76990509D01*
X123580444Y-76935324D01*
X123729766Y-76843222D01*
X123853822Y-76719166D01*
X123945924Y-76569844D01*
X123948854Y-76561003D01*
X123988628Y-76503559D01*
X124053145Y-76476738D01*
X124066559Y-76476010D01*
X124330501Y-76476010D01*
X124397540Y-76495695D01*
X124443295Y-76548499D01*
X124454501Y-76600010D01*
X124454501Y-76643876D01*
X124460908Y-76703483D01*
X124511202Y-76838328D01*
X124511206Y-76838335D01*
X124597452Y-76953544D01*
X124597455Y-76953547D01*
X124712664Y-77039793D01*
X124712671Y-77039797D01*
X124847517Y-77090091D01*
X124847516Y-77090091D01*
X124854444Y-77090835D01*
X124907127Y-77096500D01*
X126552872Y-77096499D01*
X126612483Y-77090091D01*
X126747331Y-77039796D01*
X126862546Y-76953546D01*
X126948796Y-76838331D01*
X126999091Y-76703483D01*
X127005500Y-76643873D01*
X127005500Y-76643870D01*
X132404500Y-76643870D01*
X132404501Y-76643876D01*
X132410908Y-76703483D01*
X132461202Y-76838328D01*
X132461206Y-76838335D01*
X132547452Y-76953544D01*
X132547455Y-76953547D01*
X132662664Y-77039793D01*
X132662671Y-77039797D01*
X132797517Y-77090091D01*
X132797516Y-77090091D01*
X132804444Y-77090835D01*
X132857127Y-77096500D01*
X134502872Y-77096499D01*
X134562483Y-77090091D01*
X134697331Y-77039796D01*
X134812546Y-76953546D01*
X134898796Y-76838331D01*
X134949091Y-76703483D01*
X134955500Y-76643873D01*
X134955499Y-75248128D01*
X134949091Y-75188517D01*
X134942322Y-75170369D01*
X134898797Y-75053671D01*
X134898793Y-75053664D01*
X134812547Y-74938455D01*
X134812544Y-74938452D01*
X134697335Y-74852206D01*
X134697328Y-74852202D01*
X134562482Y-74801908D01*
X134562483Y-74801908D01*
X134502883Y-74795501D01*
X134502881Y-74795500D01*
X134502873Y-74795500D01*
X134502864Y-74795500D01*
X132857129Y-74795500D01*
X132857123Y-74795501D01*
X132797516Y-74801908D01*
X132662671Y-74852202D01*
X132662664Y-74852206D01*
X132547455Y-74938452D01*
X132547452Y-74938455D01*
X132461206Y-75053664D01*
X132461202Y-75053671D01*
X132410908Y-75188517D01*
X132407019Y-75224694D01*
X132404501Y-75248123D01*
X132404500Y-75248135D01*
X132404500Y-76643870D01*
X127005500Y-76643870D01*
X127005499Y-75248128D01*
X126999091Y-75188517D01*
X126992322Y-75170369D01*
X126948797Y-75053671D01*
X126948793Y-75053664D01*
X126862547Y-74938455D01*
X126862544Y-74938452D01*
X126747335Y-74852206D01*
X126747328Y-74852202D01*
X126612482Y-74801908D01*
X126612483Y-74801908D01*
X126552883Y-74795501D01*
X126552881Y-74795500D01*
X126552873Y-74795500D01*
X126552864Y-74795500D01*
X124907129Y-74795500D01*
X124907123Y-74795501D01*
X124847516Y-74801908D01*
X124712671Y-74852202D01*
X124712664Y-74852206D01*
X124597455Y-74938452D01*
X124597452Y-74938455D01*
X124511206Y-75053664D01*
X124511201Y-75053673D01*
X124477385Y-75144342D01*
X124435514Y-75200276D01*
X124370050Y-75224694D01*
X124361203Y-75225010D01*
X124066559Y-75225010D01*
X123999520Y-75205325D01*
X123953765Y-75152521D01*
X123948854Y-75140017D01*
X123945924Y-75131177D01*
X123945924Y-75131176D01*
X123853822Y-74981854D01*
X123729766Y-74857798D01*
X123580444Y-74765696D01*
X123413907Y-74710511D01*
X123413905Y-74710510D01*
X123311126Y-74700010D01*
X123311119Y-74700010D01*
X122421563Y-74700010D01*
X122354524Y-74680325D01*
X122333882Y-74663691D01*
X122281583Y-74611392D01*
X122271760Y-74599130D01*
X122271539Y-74599314D01*
X122266566Y-74593302D01*
X122217556Y-74547279D01*
X122214757Y-74544566D01*
X122195257Y-74525065D01*
X122195251Y-74525060D01*
X122192066Y-74522589D01*
X122183214Y-74515028D01*
X122151362Y-74485118D01*
X122151360Y-74485116D01*
X122151357Y-74485115D01*
X122133809Y-74475468D01*
X122117543Y-74464784D01*
X122115235Y-74462994D01*
X122101716Y-74452507D01*
X122101715Y-74452506D01*
X122101712Y-74452504D01*
X122061629Y-74435158D01*
X122051143Y-74430021D01*
X122012874Y-74408983D01*
X122012872Y-74408982D01*
X121993473Y-74404002D01*
X121975061Y-74397698D01*
X121956678Y-74389742D01*
X121956672Y-74389740D01*
X121913540Y-74382909D01*
X121902102Y-74380541D01*
X121859800Y-74369680D01*
X121859799Y-74369680D01*
X121839764Y-74369680D01*
X121820366Y-74368153D01*
X121812942Y-74366977D01*
X121800585Y-74365020D01*
X121800584Y-74365020D01*
X121757105Y-74369130D01*
X121745436Y-74369680D01*
X118240469Y-74369680D01*
X118173430Y-74349995D01*
X118131414Y-74304698D01*
X118126954Y-74296457D01*
X118059575Y-74171951D01*
X118021837Y-74123465D01*
X117906896Y-73975789D01*
X117906893Y-73975785D01*
X117906891Y-73975783D01*
X117733765Y-73816408D01*
X117697775Y-73756522D01*
X117699876Y-73686684D01*
X117733764Y-73633951D01*
X117906891Y-73474577D01*
X117946376Y-73423847D01*
X118003086Y-73383034D01*
X118044229Y-73376010D01*
X121205661Y-73376010D01*
X121272700Y-73395695D01*
X121318455Y-73448499D01*
X121323366Y-73461003D01*
X121326296Y-73469844D01*
X121418398Y-73619166D01*
X121542454Y-73743222D01*
X121691776Y-73835324D01*
X121858313Y-73890509D01*
X121961101Y-73901010D01*
X123311118Y-73901009D01*
X123413907Y-73890509D01*
X123580444Y-73835324D01*
X123729766Y-73743222D01*
X123853822Y-73619166D01*
X123945924Y-73469844D01*
X124001109Y-73303307D01*
X124011610Y-73200519D01*
X124011609Y-72300502D01*
X124001109Y-72197713D01*
X123945924Y-72031176D01*
X123853822Y-71881854D01*
X123729766Y-71757798D01*
X123629575Y-71696000D01*
X124455000Y-71696000D01*
X124455000Y-72143844D01*
X124461401Y-72203372D01*
X124461403Y-72203379D01*
X124511645Y-72338086D01*
X124511649Y-72338093D01*
X124597809Y-72453187D01*
X124597812Y-72453190D01*
X124712906Y-72539350D01*
X124712913Y-72539354D01*
X124847620Y-72589596D01*
X124847627Y-72589598D01*
X124907155Y-72595999D01*
X124907172Y-72596000D01*
X125480000Y-72596000D01*
X125480000Y-71696000D01*
X125980000Y-71696000D01*
X125980000Y-72596000D01*
X126552828Y-72596000D01*
X126552844Y-72595999D01*
X126612372Y-72589598D01*
X126612379Y-72589596D01*
X126747086Y-72539354D01*
X126747093Y-72539350D01*
X126862187Y-72453190D01*
X126862190Y-72453187D01*
X126948350Y-72338093D01*
X126948354Y-72338086D01*
X126998596Y-72203379D01*
X126998598Y-72203372D01*
X127004999Y-72143844D01*
X127005000Y-72143827D01*
X127005000Y-71696000D01*
X132405000Y-71696000D01*
X132405000Y-72143844D01*
X132411401Y-72203372D01*
X132411403Y-72203379D01*
X132461645Y-72338086D01*
X132461649Y-72338093D01*
X132547809Y-72453187D01*
X132547812Y-72453190D01*
X132662906Y-72539350D01*
X132662913Y-72539354D01*
X132797620Y-72589596D01*
X132797627Y-72589598D01*
X132857155Y-72595999D01*
X132857172Y-72596000D01*
X133430000Y-72596000D01*
X133430000Y-71696000D01*
X133930000Y-71696000D01*
X133930000Y-72596000D01*
X134502828Y-72596000D01*
X134502844Y-72595999D01*
X134562372Y-72589598D01*
X134562379Y-72589596D01*
X134697086Y-72539354D01*
X134697093Y-72539350D01*
X134812187Y-72453190D01*
X134812190Y-72453187D01*
X134898350Y-72338093D01*
X134898354Y-72338086D01*
X134948596Y-72203379D01*
X134948598Y-72203372D01*
X134954999Y-72143844D01*
X134955000Y-72143827D01*
X134955000Y-71696000D01*
X133930000Y-71696000D01*
X133430000Y-71696000D01*
X132405000Y-71696000D01*
X127005000Y-71696000D01*
X125980000Y-71696000D01*
X125480000Y-71696000D01*
X124455000Y-71696000D01*
X123629575Y-71696000D01*
X123580446Y-71665697D01*
X123580441Y-71665695D01*
X123578972Y-71665208D01*
X123413907Y-71610511D01*
X123413905Y-71610510D01*
X123311120Y-71600010D01*
X121961108Y-71600010D01*
X121961091Y-71600011D01*
X121858313Y-71610510D01*
X121858310Y-71610511D01*
X121691778Y-71665695D01*
X121691773Y-71665697D01*
X121542452Y-71757799D01*
X121418399Y-71881852D01*
X121326295Y-72031177D01*
X121323366Y-72040017D01*
X121283592Y-72097461D01*
X121219075Y-72124282D01*
X121205661Y-72125010D01*
X118360637Y-72125010D01*
X118293598Y-72105325D01*
X118247843Y-72052521D01*
X118243356Y-72041273D01*
X118188626Y-71881852D01*
X118177889Y-71850576D01*
X118171835Y-71839390D01*
X118059575Y-71631951D01*
X118059571Y-71631946D01*
X118042887Y-71610511D01*
X117906891Y-71435783D01*
X117906887Y-71435779D01*
X117733396Y-71276068D01*
X117697405Y-71216181D01*
X117698012Y-71196000D01*
X124455000Y-71196000D01*
X125480000Y-71196000D01*
X125480000Y-70296000D01*
X125980000Y-70296000D01*
X125980000Y-71196000D01*
X127005000Y-71196000D01*
X132405000Y-71196000D01*
X133430000Y-71196000D01*
X133430000Y-70296000D01*
X133930000Y-70296000D01*
X133930000Y-71196000D01*
X134955000Y-71196000D01*
X134955000Y-70748172D01*
X134954999Y-70748155D01*
X134948598Y-70688627D01*
X134948596Y-70688620D01*
X134898354Y-70553913D01*
X134898350Y-70553906D01*
X134812190Y-70438812D01*
X134812187Y-70438809D01*
X134697093Y-70352649D01*
X134697086Y-70352645D01*
X134562379Y-70302403D01*
X134562372Y-70302401D01*
X134502844Y-70296000D01*
X133930000Y-70296000D01*
X133430000Y-70296000D01*
X132857155Y-70296000D01*
X132797627Y-70302401D01*
X132797620Y-70302403D01*
X132662913Y-70352645D01*
X132662906Y-70352649D01*
X132547812Y-70438809D01*
X132547809Y-70438812D01*
X132461649Y-70553906D01*
X132461645Y-70553913D01*
X132411403Y-70688620D01*
X132411401Y-70688627D01*
X132405000Y-70748155D01*
X132405000Y-71196000D01*
X127005000Y-71196000D01*
X127005000Y-70748172D01*
X127004999Y-70748155D01*
X126998598Y-70688627D01*
X126998596Y-70688620D01*
X126948354Y-70553913D01*
X126948350Y-70553906D01*
X126862190Y-70438812D01*
X126862187Y-70438809D01*
X126747093Y-70352649D01*
X126747086Y-70352645D01*
X126612379Y-70302403D01*
X126612372Y-70302401D01*
X126552844Y-70296000D01*
X125980000Y-70296000D01*
X125480000Y-70296000D01*
X124907155Y-70296000D01*
X124847627Y-70302401D01*
X124847620Y-70302403D01*
X124712913Y-70352645D01*
X124712906Y-70352649D01*
X124597812Y-70438809D01*
X124597809Y-70438812D01*
X124511649Y-70553906D01*
X124511645Y-70553913D01*
X124461403Y-70688620D01*
X124461401Y-70688627D01*
X124455000Y-70748155D01*
X124455000Y-71196000D01*
X117698012Y-71196000D01*
X117699506Y-71146343D01*
X117733396Y-71093609D01*
X117906524Y-70934233D01*
X117906527Y-70934230D01*
X118059149Y-70738142D01*
X118059153Y-70738136D01*
X118177428Y-70519584D01*
X118177431Y-70519575D01*
X118258117Y-70284547D01*
X118278036Y-70165180D01*
X114571724Y-70165180D01*
X114591642Y-70284547D01*
X114672328Y-70519575D01*
X114672331Y-70519584D01*
X114790606Y-70738136D01*
X114790610Y-70738142D01*
X114943232Y-70934230D01*
X114943235Y-70934233D01*
X115116363Y-71093609D01*
X115152353Y-71153496D01*
X115150253Y-71223334D01*
X115116364Y-71276068D01*
X114973102Y-71407951D01*
X114942874Y-71435779D01*
X114942867Y-71435785D01*
X114942863Y-71435789D01*
X114790188Y-71631946D01*
X114790184Y-71631951D01*
X114755523Y-71696000D01*
X114726834Y-71749014D01*
X114718346Y-71764698D01*
X114669126Y-71814288D01*
X114609291Y-71829680D01*
X107055632Y-71829680D01*
X106988593Y-71809995D01*
X106967951Y-71793361D01*
X104171539Y-68996948D01*
X104138054Y-68935625D01*
X104143038Y-68865933D01*
X104184910Y-68810000D01*
X104250374Y-68785583D01*
X104258459Y-68785270D01*
X105975564Y-68775330D01*
X106042715Y-68794626D01*
X106088774Y-68847165D01*
X106099118Y-68916264D01*
X106095547Y-68933261D01*
X106067740Y-69030992D01*
X106049410Y-69228812D01*
X106049410Y-69228813D01*
X106067740Y-69426635D01*
X106067741Y-69426638D01*
X106122107Y-69617718D01*
X106122110Y-69617724D01*
X106210665Y-69795566D01*
X106330392Y-69954111D01*
X106424031Y-70039473D01*
X106477211Y-70087953D01*
X106646124Y-70192540D01*
X106831379Y-70264308D01*
X107026668Y-70300813D01*
X107026671Y-70300813D01*
X107225335Y-70300813D01*
X107225338Y-70300813D01*
X107420627Y-70264308D01*
X107605882Y-70192540D01*
X107774795Y-70087953D01*
X107921615Y-69954109D01*
X108041341Y-69795566D01*
X108129896Y-69617723D01*
X108129896Y-69617720D01*
X108129898Y-69617718D01*
X108184264Y-69426638D01*
X108184265Y-69426635D01*
X108185067Y-69417986D01*
X108202596Y-69228813D01*
X108184265Y-69030990D01*
X108156459Y-68933261D01*
X108152678Y-68919973D01*
X108153264Y-68850106D01*
X108191531Y-68791647D01*
X108255328Y-68763157D01*
X108271212Y-68762041D01*
X108519756Y-68760603D01*
X108586904Y-68779898D01*
X108632964Y-68832436D01*
X108643308Y-68901536D01*
X108639737Y-68918533D01*
X108607740Y-69030992D01*
X108589410Y-69228812D01*
X108589410Y-69228813D01*
X108607740Y-69426635D01*
X108607741Y-69426638D01*
X108662107Y-69617718D01*
X108662110Y-69617724D01*
X108750665Y-69795566D01*
X108870392Y-69954111D01*
X108964031Y-70039473D01*
X109017211Y-70087953D01*
X109186124Y-70192540D01*
X109371379Y-70264308D01*
X109566668Y-70300813D01*
X109566671Y-70300813D01*
X109765335Y-70300813D01*
X109765338Y-70300813D01*
X109960627Y-70264308D01*
X110145882Y-70192540D01*
X110314795Y-70087953D01*
X110461615Y-69954109D01*
X110581341Y-69795566D01*
X110669896Y-69617723D01*
X110669896Y-69617720D01*
X110669898Y-69617718D01*
X110724264Y-69426638D01*
X110724265Y-69426635D01*
X110725067Y-69417986D01*
X110742596Y-69228813D01*
X110724265Y-69030990D01*
X110711972Y-68987783D01*
X110688502Y-68905294D01*
X110689089Y-68835427D01*
X110727356Y-68776968D01*
X110791153Y-68748478D01*
X110807039Y-68747362D01*
X114822755Y-68724116D01*
X114889905Y-68743412D01*
X114935965Y-68795950D01*
X114946309Y-68865050D01*
X114921325Y-68924276D01*
X114790606Y-69092224D01*
X114672331Y-69310775D01*
X114672328Y-69310784D01*
X114591642Y-69545812D01*
X114571724Y-69665180D01*
X118278036Y-69665180D01*
X118258117Y-69545812D01*
X118177431Y-69310784D01*
X118177428Y-69310775D01*
X118059153Y-69092223D01*
X117914069Y-68905820D01*
X117888426Y-68840826D01*
X117901992Y-68772286D01*
X117950461Y-68721961D01*
X118011200Y-68705659D01*
X122479447Y-68679794D01*
X122507749Y-68682900D01*
X122527918Y-68687503D01*
X122536850Y-68689897D01*
X122632867Y-68719514D01*
X122632872Y-68719514D01*
X122632873Y-68719515D01*
X122645472Y-68721414D01*
X122732230Y-68734490D01*
X122741310Y-68736209D01*
X122762292Y-68740998D01*
X122783763Y-68742607D01*
X122792929Y-68743640D01*
X122892300Y-68758618D01*
X122892306Y-68758618D01*
X122992771Y-68758618D01*
X123002039Y-68758965D01*
X123023480Y-68760572D01*
X123023482Y-68760572D01*
X123023484Y-68760572D01*
X123044925Y-68758965D01*
X123054193Y-68758618D01*
X123154658Y-68758618D01*
X123154664Y-68758618D01*
X123254037Y-68743639D01*
X123263197Y-68742607D01*
X123284672Y-68740998D01*
X123305672Y-68736204D01*
X123314717Y-68734493D01*
X123414097Y-68719514D01*
X123510126Y-68689892D01*
X123519047Y-68687503D01*
X123540027Y-68682715D01*
X123541952Y-68681959D01*
X123543342Y-68681692D01*
X123544458Y-68681348D01*
X123544495Y-68681470D01*
X123586542Y-68673386D01*
X135206485Y-68606121D01*
X135273634Y-68625417D01*
G37*
G04 #@! TD.AperFunction*
G04 #@! TA.AperFunction,Conductor*
G36*
X84206034Y-119803269D02*
G01*
X84261967Y-119845141D01*
X84286384Y-119910605D01*
X84286700Y-119919451D01*
X84286700Y-122523946D01*
X84267015Y-122590985D01*
X84250381Y-122611627D01*
X80740527Y-126121481D01*
X80679204Y-126154966D01*
X80652846Y-126157800D01*
X79732486Y-126157800D01*
X79758293Y-126117644D01*
X79798800Y-125979689D01*
X79798800Y-125835911D01*
X79758293Y-125697956D01*
X79732486Y-125657800D01*
X80629436Y-125657800D01*
X80629435Y-125657799D01*
X80572232Y-125444313D01*
X80572229Y-125444307D01*
X80472400Y-125230222D01*
X80472399Y-125230220D01*
X80336913Y-125036726D01*
X80336908Y-125036720D01*
X80169878Y-124869690D01*
X79984205Y-124739679D01*
X79940580Y-124685102D01*
X79933388Y-124615604D01*
X79964910Y-124553249D01*
X79984206Y-124536530D01*
X80170201Y-124406295D01*
X80337295Y-124239201D01*
X80472835Y-124045630D01*
X80572703Y-123831463D01*
X80633863Y-123603208D01*
X80654459Y-123367800D01*
X80633863Y-123132392D01*
X80572703Y-122904137D01*
X80472835Y-122689971D01*
X80417979Y-122611627D01*
X80337294Y-122496397D01*
X80170202Y-122329306D01*
X80170195Y-122329301D01*
X79976634Y-122193767D01*
X79976630Y-122193765D01*
X79971164Y-122191216D01*
X79762463Y-122093897D01*
X79762459Y-122093896D01*
X79762455Y-122093894D01*
X79534213Y-122032738D01*
X79534203Y-122032736D01*
X79298801Y-122012141D01*
X79298799Y-122012141D01*
X79063396Y-122032736D01*
X79063386Y-122032738D01*
X78835144Y-122093894D01*
X78835135Y-122093898D01*
X78620971Y-122193764D01*
X78620969Y-122193765D01*
X78427397Y-122329305D01*
X78260305Y-122496397D01*
X78124765Y-122689969D01*
X78124764Y-122689971D01*
X78024898Y-122904135D01*
X78024894Y-122904144D01*
X77963738Y-123132386D01*
X77963736Y-123132396D01*
X77943141Y-123367799D01*
X77943141Y-123367800D01*
X77963736Y-123603203D01*
X77963738Y-123603213D01*
X78024894Y-123831455D01*
X78024896Y-123831459D01*
X78024897Y-123831463D01*
X78124765Y-124045630D01*
X78124767Y-124045634D01*
X78260301Y-124239195D01*
X78260306Y-124239202D01*
X78427397Y-124406293D01*
X78427403Y-124406298D01*
X78613394Y-124536530D01*
X78657019Y-124591107D01*
X78664213Y-124660605D01*
X78632690Y-124722960D01*
X78613395Y-124739680D01*
X78427722Y-124869690D01*
X78427720Y-124869691D01*
X78260691Y-125036720D01*
X78260686Y-125036726D01*
X78125200Y-125230220D01*
X78125199Y-125230222D01*
X78025370Y-125444307D01*
X78025367Y-125444313D01*
X77968164Y-125657799D01*
X77968164Y-125657800D01*
X78865114Y-125657800D01*
X78839307Y-125697956D01*
X78798800Y-125835911D01*
X78798800Y-125979689D01*
X78839307Y-126117644D01*
X78865114Y-126157800D01*
X77968164Y-126157800D01*
X78025367Y-126371286D01*
X78025370Y-126371292D01*
X78125199Y-126585378D01*
X78260694Y-126778882D01*
X78427717Y-126945905D01*
X78613395Y-127075919D01*
X78657019Y-127130496D01*
X78664212Y-127199995D01*
X78632690Y-127262349D01*
X78613395Y-127279069D01*
X78427394Y-127409308D01*
X78260305Y-127576397D01*
X78124765Y-127769969D01*
X78124764Y-127769971D01*
X78024898Y-127984135D01*
X78024894Y-127984144D01*
X77963738Y-128212386D01*
X77963736Y-128212396D01*
X77943141Y-128447799D01*
X77943141Y-128447800D01*
X77963736Y-128683203D01*
X77963738Y-128683213D01*
X78024894Y-128911455D01*
X78024896Y-128911459D01*
X78024897Y-128911463D01*
X78124765Y-129125630D01*
X78124767Y-129125634D01*
X78233081Y-129280321D01*
X78260301Y-129319196D01*
X78260306Y-129319202D01*
X78382230Y-129441126D01*
X78415715Y-129502449D01*
X78410731Y-129572141D01*
X78368859Y-129628074D01*
X78337883Y-129644989D01*
X78206469Y-129694003D01*
X78206464Y-129694006D01*
X78091255Y-129780252D01*
X78091252Y-129780255D01*
X78005006Y-129895464D01*
X78005003Y-129895470D01*
X77960361Y-130015160D01*
X77918489Y-130071093D01*
X77853025Y-130095510D01*
X77784752Y-130080658D01*
X77756498Y-130059507D01*
X77115819Y-129418828D01*
X77082334Y-129357505D01*
X77079500Y-129331147D01*
X77079500Y-122560652D01*
X77099185Y-122493613D01*
X77115819Y-122472971D01*
X78149972Y-121438819D01*
X78211295Y-121405334D01*
X78237653Y-121402500D01*
X82162457Y-121402500D01*
X82178077Y-121404224D01*
X82178104Y-121403939D01*
X82185860Y-121404671D01*
X82185867Y-121404673D01*
X82253073Y-121402561D01*
X82256968Y-121402500D01*
X82284546Y-121402500D01*
X82284550Y-121402500D01*
X82288524Y-121401997D01*
X82300163Y-121401080D01*
X82343827Y-121399709D01*
X82363069Y-121394117D01*
X82382112Y-121390174D01*
X82401992Y-121387664D01*
X82442601Y-121371585D01*
X82453644Y-121367803D01*
X82495590Y-121355618D01*
X82512829Y-121345422D01*
X82530303Y-121336862D01*
X82548927Y-121329488D01*
X82548927Y-121329487D01*
X82548932Y-121329486D01*
X82584283Y-121303800D01*
X82594014Y-121297408D01*
X82631620Y-121275170D01*
X82645789Y-121260999D01*
X82660579Y-121248368D01*
X82676787Y-121236594D01*
X82704638Y-121202926D01*
X82712479Y-121194309D01*
X84075020Y-119831768D01*
X84136342Y-119798285D01*
X84206034Y-119803269D01*
G37*
G04 #@! TD.AperFunction*
M02*
