G04 #@! TF.GenerationSoftware,KiCad,Pcbnew,7.0.10*
G04 #@! TF.CreationDate,2024-02-05T15:41:23+01:00*
G04 #@! TF.ProjectId,KNX_EnvironmentSensor,4b4e585f-456e-4766-9972-6f6e6d656e74,rev?*
G04 #@! TF.SameCoordinates,Original*
G04 #@! TF.FileFunction,Legend,Top*
G04 #@! TF.FilePolarity,Positive*
%FSLAX46Y46*%
G04 Gerber Fmt 4.6, Leading zero omitted, Abs format (unit mm)*
G04 Created by KiCad (PCBNEW 7.0.10) date 2024-02-05 15:41:23*
%MOMM*%
%LPD*%
G01*
G04 APERTURE LIST*
G04 Aperture macros list*
%AMRoundRect*
0 Rectangle with rounded corners*
0 $1 Rounding radius*
0 $2 $3 $4 $5 $6 $7 $8 $9 X,Y pos of 4 corners*
0 Add a 4 corners polygon primitive as box body*
4,1,4,$2,$3,$4,$5,$6,$7,$8,$9,$2,$3,0*
0 Add four circle primitives for the rounded corners*
1,1,$1+$1,$2,$3*
1,1,$1+$1,$4,$5*
1,1,$1+$1,$6,$7*
1,1,$1+$1,$8,$9*
0 Add four rect primitives between the rounded corners*
20,1,$1+$1,$2,$3,$4,$5,0*
20,1,$1+$1,$4,$5,$6,$7,0*
20,1,$1+$1,$6,$7,$8,$9,0*
20,1,$1+$1,$8,$9,$2,$3,0*%
G04 Aperture macros list end*
%ADD10C,0.150000*%
%ADD11C,0.200000*%
%ADD12C,0.125000*%
%ADD13C,0.120000*%
%ADD14C,0.127000*%
%ADD15C,0.066040*%
%ADD16C,0.254000*%
%ADD17RoundRect,0.250000X1.550000X-0.750000X1.550000X0.750000X-1.550000X0.750000X-1.550000X-0.750000X0*%
%ADD18O,3.600000X2.000000*%
%ADD19O,2.748280X1.998980*%
%ADD20O,1.016000X2.032000*%
%ADD21C,1.143000*%
%ADD22R,1.800000X1.800000*%
%ADD23C,1.800000*%
%ADD24RoundRect,0.250000X-0.625000X0.400000X-0.625000X-0.400000X0.625000X-0.400000X0.625000X0.400000X0*%
%ADD25RoundRect,0.250000X0.400000X0.625000X-0.400000X0.625000X-0.400000X-0.625000X0.400000X-0.625000X0*%
%ADD26RoundRect,0.250000X-0.400000X-0.625000X0.400000X-0.625000X0.400000X0.625000X-0.400000X0.625000X0*%
%ADD27R,1.700000X1.700000*%
%ADD28C,1.700000*%
%ADD29R,1.550000X1.300000*%
%ADD30C,2.500000*%
%ADD31O,1.700000X1.700000*%
G04 APERTURE END LIST*
D10*
X81000000Y-122021600D02*
X81000000Y-122021600D01*
X81600000Y-122021600D02*
X81600000Y-122021600D01*
X82200000Y-122021600D02*
X82200000Y-122021600D01*
X82800000Y-122021600D02*
X82800000Y-122021600D01*
X83400000Y-122021600D02*
X83400000Y-122021600D01*
X84000000Y-122021600D02*
X84000000Y-122021600D01*
X84600000Y-122021600D02*
X84600000Y-122021600D01*
X85200000Y-122021600D02*
X85200000Y-122021600D01*
X85800000Y-122021600D02*
X85800000Y-122021600D01*
X86400000Y-122021600D02*
X86400000Y-122021600D01*
X87000000Y-122021600D02*
X87000000Y-122021600D01*
X87600000Y-122021600D02*
X87600000Y-122021600D01*
X88200000Y-122021600D02*
X88200000Y-122021600D01*
X88800000Y-122021600D02*
X88800000Y-122021600D01*
X89400000Y-122021600D02*
X89400000Y-122021600D01*
X90000000Y-122021600D02*
X90000000Y-122021600D01*
X90600000Y-122021600D02*
X90600000Y-122021600D01*
X91200000Y-122021600D02*
X91200000Y-122021600D01*
X91800000Y-122021600D02*
X91800000Y-122021600D01*
X92400000Y-122021600D02*
X92400000Y-122021600D01*
X93000000Y-122021600D02*
X93000000Y-122021600D01*
X81000000Y-132334000D02*
X81000000Y-132334000D01*
X81600000Y-132334000D02*
X81600000Y-132334000D01*
X82200000Y-132334000D02*
X82200000Y-132334000D01*
X82800000Y-132334000D02*
X82800000Y-132334000D01*
X83400000Y-132334000D02*
X83400000Y-132334000D01*
X84000000Y-132334000D02*
X84000000Y-132334000D01*
X84600000Y-132334000D02*
X84600000Y-132334000D01*
X85200000Y-132334000D02*
X85200000Y-132334000D01*
X85800000Y-132334000D02*
X85800000Y-132334000D01*
X86400000Y-132334000D02*
X86400000Y-132334000D01*
X87000000Y-132334000D02*
X87000000Y-132334000D01*
X87600000Y-132334000D02*
X87600000Y-132334000D01*
X88200000Y-132334000D02*
X88200000Y-132334000D01*
X88800000Y-132334000D02*
X88800000Y-132334000D01*
X89400000Y-132334000D02*
X89400000Y-132334000D01*
X90000000Y-132334000D02*
X90000000Y-132334000D01*
X90600000Y-132334000D02*
X90600000Y-132334000D01*
X91200000Y-132334000D02*
X91200000Y-132334000D01*
X91800000Y-132334000D02*
X91800000Y-132334000D01*
X92400000Y-132334000D02*
X92400000Y-132334000D01*
X93000000Y-132334000D02*
X93000000Y-132334000D01*
X92971000Y-122021600D02*
X92971000Y-122021600D01*
X92972478Y-122621598D02*
X92972478Y-122621598D01*
X92973956Y-123221596D02*
X92973956Y-123221596D01*
X92975433Y-123821595D02*
X92975433Y-123821595D01*
X92976911Y-124421593D02*
X92976911Y-124421593D01*
X92978389Y-125021591D02*
X92978389Y-125021591D01*
X92979867Y-125621589D02*
X92979867Y-125621589D01*
X92981345Y-126221587D02*
X92981345Y-126221587D01*
X92982823Y-126821585D02*
X92982823Y-126821585D01*
X92984300Y-127421584D02*
X92984300Y-127421584D01*
X92985778Y-128021582D02*
X92985778Y-128021582D01*
X92987256Y-128621580D02*
X92987256Y-128621580D01*
X92988734Y-129221578D02*
X92988734Y-129221578D01*
X92990212Y-129821576D02*
X92990212Y-129821576D01*
X92991690Y-130421575D02*
X92991690Y-130421575D01*
X92993167Y-131021573D02*
X92993167Y-131021573D01*
X92994645Y-131621571D02*
X92994645Y-131621571D01*
X92996123Y-132221569D02*
X92996123Y-132221569D01*
D11*
X125493225Y-138385295D02*
X125493225Y-138956723D01*
X125493225Y-138956723D02*
X125455130Y-139071009D01*
X125455130Y-139071009D02*
X125378939Y-139147200D01*
X125378939Y-139147200D02*
X125264654Y-139185295D01*
X125264654Y-139185295D02*
X125188463Y-139185295D01*
X126255130Y-139185295D02*
X125874178Y-139185295D01*
X125874178Y-139185295D02*
X125874178Y-138385295D01*
X126978940Y-139109104D02*
X126940844Y-139147200D01*
X126940844Y-139147200D02*
X126826559Y-139185295D01*
X126826559Y-139185295D02*
X126750368Y-139185295D01*
X126750368Y-139185295D02*
X126636082Y-139147200D01*
X126636082Y-139147200D02*
X126559892Y-139071009D01*
X126559892Y-139071009D02*
X126521797Y-138994819D01*
X126521797Y-138994819D02*
X126483701Y-138842438D01*
X126483701Y-138842438D02*
X126483701Y-138728152D01*
X126483701Y-138728152D02*
X126521797Y-138575771D01*
X126521797Y-138575771D02*
X126559892Y-138499580D01*
X126559892Y-138499580D02*
X126636082Y-138423390D01*
X126636082Y-138423390D02*
X126750368Y-138385295D01*
X126750368Y-138385295D02*
X126826559Y-138385295D01*
X126826559Y-138385295D02*
X126940844Y-138423390D01*
X126940844Y-138423390D02*
X126978940Y-138461485D01*
X127550368Y-138385295D02*
X127550368Y-138956723D01*
X127550368Y-138956723D02*
X127512273Y-139071009D01*
X127512273Y-139071009D02*
X127436082Y-139147200D01*
X127436082Y-139147200D02*
X127321797Y-139185295D01*
X127321797Y-139185295D02*
X127245606Y-139185295D01*
X128312273Y-139185295D02*
X127931321Y-139185295D01*
X127931321Y-139185295D02*
X127931321Y-138385295D01*
X129036083Y-139109104D02*
X128997987Y-139147200D01*
X128997987Y-139147200D02*
X128883702Y-139185295D01*
X128883702Y-139185295D02*
X128807511Y-139185295D01*
X128807511Y-139185295D02*
X128693225Y-139147200D01*
X128693225Y-139147200D02*
X128617035Y-139071009D01*
X128617035Y-139071009D02*
X128578940Y-138994819D01*
X128578940Y-138994819D02*
X128540844Y-138842438D01*
X128540844Y-138842438D02*
X128540844Y-138728152D01*
X128540844Y-138728152D02*
X128578940Y-138575771D01*
X128578940Y-138575771D02*
X128617035Y-138499580D01*
X128617035Y-138499580D02*
X128693225Y-138423390D01*
X128693225Y-138423390D02*
X128807511Y-138385295D01*
X128807511Y-138385295D02*
X128883702Y-138385295D01*
X128883702Y-138385295D02*
X128997987Y-138423390D01*
X128997987Y-138423390D02*
X129036083Y-138461485D01*
X129607511Y-138385295D02*
X129607511Y-138956723D01*
X129607511Y-138956723D02*
X129569416Y-139071009D01*
X129569416Y-139071009D02*
X129493225Y-139147200D01*
X129493225Y-139147200D02*
X129378940Y-139185295D01*
X129378940Y-139185295D02*
X129302749Y-139185295D01*
X130369416Y-139185295D02*
X129988464Y-139185295D01*
X129988464Y-139185295D02*
X129988464Y-138385295D01*
X131093226Y-139109104D02*
X131055130Y-139147200D01*
X131055130Y-139147200D02*
X130940845Y-139185295D01*
X130940845Y-139185295D02*
X130864654Y-139185295D01*
X130864654Y-139185295D02*
X130750368Y-139147200D01*
X130750368Y-139147200D02*
X130674178Y-139071009D01*
X130674178Y-139071009D02*
X130636083Y-138994819D01*
X130636083Y-138994819D02*
X130597987Y-138842438D01*
X130597987Y-138842438D02*
X130597987Y-138728152D01*
X130597987Y-138728152D02*
X130636083Y-138575771D01*
X130636083Y-138575771D02*
X130674178Y-138499580D01*
X130674178Y-138499580D02*
X130750368Y-138423390D01*
X130750368Y-138423390D02*
X130864654Y-138385295D01*
X130864654Y-138385295D02*
X130940845Y-138385295D01*
X130940845Y-138385295D02*
X131055130Y-138423390D01*
X131055130Y-138423390D02*
X131093226Y-138461485D01*
X131664654Y-138385295D02*
X131664654Y-138956723D01*
X131664654Y-138956723D02*
X131626559Y-139071009D01*
X131626559Y-139071009D02*
X131550368Y-139147200D01*
X131550368Y-139147200D02*
X131436083Y-139185295D01*
X131436083Y-139185295D02*
X131359892Y-139185295D01*
X132426559Y-139185295D02*
X132045607Y-139185295D01*
X132045607Y-139185295D02*
X132045607Y-138385295D01*
X133150369Y-139109104D02*
X133112273Y-139147200D01*
X133112273Y-139147200D02*
X132997988Y-139185295D01*
X132997988Y-139185295D02*
X132921797Y-139185295D01*
X132921797Y-139185295D02*
X132807511Y-139147200D01*
X132807511Y-139147200D02*
X132731321Y-139071009D01*
X132731321Y-139071009D02*
X132693226Y-138994819D01*
X132693226Y-138994819D02*
X132655130Y-138842438D01*
X132655130Y-138842438D02*
X132655130Y-138728152D01*
X132655130Y-138728152D02*
X132693226Y-138575771D01*
X132693226Y-138575771D02*
X132731321Y-138499580D01*
X132731321Y-138499580D02*
X132807511Y-138423390D01*
X132807511Y-138423390D02*
X132921797Y-138385295D01*
X132921797Y-138385295D02*
X132997988Y-138385295D01*
X132997988Y-138385295D02*
X133112273Y-138423390D01*
X133112273Y-138423390D02*
X133150369Y-138461485D01*
D12*
X108425912Y-138846347D02*
X108692578Y-138846347D01*
X108806864Y-139265395D02*
X108425912Y-139265395D01*
X108425912Y-139265395D02*
X108425912Y-138465395D01*
X108425912Y-138465395D02*
X108806864Y-138465395D01*
X109149722Y-138732061D02*
X109149722Y-139265395D01*
X109149722Y-138808252D02*
X109187817Y-138770157D01*
X109187817Y-138770157D02*
X109264007Y-138732061D01*
X109264007Y-138732061D02*
X109378293Y-138732061D01*
X109378293Y-138732061D02*
X109454484Y-138770157D01*
X109454484Y-138770157D02*
X109492579Y-138846347D01*
X109492579Y-138846347D02*
X109492579Y-139265395D01*
X109797341Y-138732061D02*
X109987817Y-139265395D01*
X109987817Y-139265395D02*
X110178294Y-138732061D01*
X110483056Y-139265395D02*
X110483056Y-138732061D01*
X110483056Y-138465395D02*
X110444960Y-138503490D01*
X110444960Y-138503490D02*
X110483056Y-138541585D01*
X110483056Y-138541585D02*
X110521151Y-138503490D01*
X110521151Y-138503490D02*
X110483056Y-138465395D01*
X110483056Y-138465395D02*
X110483056Y-138541585D01*
X110864008Y-139265395D02*
X110864008Y-138732061D01*
X110864008Y-138884442D02*
X110902103Y-138808252D01*
X110902103Y-138808252D02*
X110940198Y-138770157D01*
X110940198Y-138770157D02*
X111016389Y-138732061D01*
X111016389Y-138732061D02*
X111092579Y-138732061D01*
X111473531Y-139265395D02*
X111397341Y-139227300D01*
X111397341Y-139227300D02*
X111359246Y-139189204D01*
X111359246Y-139189204D02*
X111321150Y-139113014D01*
X111321150Y-139113014D02*
X111321150Y-138884442D01*
X111321150Y-138884442D02*
X111359246Y-138808252D01*
X111359246Y-138808252D02*
X111397341Y-138770157D01*
X111397341Y-138770157D02*
X111473531Y-138732061D01*
X111473531Y-138732061D02*
X111587817Y-138732061D01*
X111587817Y-138732061D02*
X111664008Y-138770157D01*
X111664008Y-138770157D02*
X111702103Y-138808252D01*
X111702103Y-138808252D02*
X111740198Y-138884442D01*
X111740198Y-138884442D02*
X111740198Y-139113014D01*
X111740198Y-139113014D02*
X111702103Y-139189204D01*
X111702103Y-139189204D02*
X111664008Y-139227300D01*
X111664008Y-139227300D02*
X111587817Y-139265395D01*
X111587817Y-139265395D02*
X111473531Y-139265395D01*
X112083056Y-138732061D02*
X112083056Y-139265395D01*
X112083056Y-138808252D02*
X112121151Y-138770157D01*
X112121151Y-138770157D02*
X112197341Y-138732061D01*
X112197341Y-138732061D02*
X112311627Y-138732061D01*
X112311627Y-138732061D02*
X112387818Y-138770157D01*
X112387818Y-138770157D02*
X112425913Y-138846347D01*
X112425913Y-138846347D02*
X112425913Y-139265395D01*
X112806866Y-139265395D02*
X112806866Y-138732061D01*
X112806866Y-138808252D02*
X112844961Y-138770157D01*
X112844961Y-138770157D02*
X112921151Y-138732061D01*
X112921151Y-138732061D02*
X113035437Y-138732061D01*
X113035437Y-138732061D02*
X113111628Y-138770157D01*
X113111628Y-138770157D02*
X113149723Y-138846347D01*
X113149723Y-138846347D02*
X113149723Y-139265395D01*
X113149723Y-138846347D02*
X113187818Y-138770157D01*
X113187818Y-138770157D02*
X113264009Y-138732061D01*
X113264009Y-138732061D02*
X113378294Y-138732061D01*
X113378294Y-138732061D02*
X113454485Y-138770157D01*
X113454485Y-138770157D02*
X113492580Y-138846347D01*
X113492580Y-138846347D02*
X113492580Y-139265395D01*
X114178295Y-139227300D02*
X114102104Y-139265395D01*
X114102104Y-139265395D02*
X113949723Y-139265395D01*
X113949723Y-139265395D02*
X113873533Y-139227300D01*
X113873533Y-139227300D02*
X113835437Y-139151109D01*
X113835437Y-139151109D02*
X113835437Y-138846347D01*
X113835437Y-138846347D02*
X113873533Y-138770157D01*
X113873533Y-138770157D02*
X113949723Y-138732061D01*
X113949723Y-138732061D02*
X114102104Y-138732061D01*
X114102104Y-138732061D02*
X114178295Y-138770157D01*
X114178295Y-138770157D02*
X114216390Y-138846347D01*
X114216390Y-138846347D02*
X114216390Y-138922538D01*
X114216390Y-138922538D02*
X113835437Y-138998728D01*
X114559247Y-138732061D02*
X114559247Y-139265395D01*
X114559247Y-138808252D02*
X114597342Y-138770157D01*
X114597342Y-138770157D02*
X114673532Y-138732061D01*
X114673532Y-138732061D02*
X114787818Y-138732061D01*
X114787818Y-138732061D02*
X114864009Y-138770157D01*
X114864009Y-138770157D02*
X114902104Y-138846347D01*
X114902104Y-138846347D02*
X114902104Y-139265395D01*
X115168771Y-138732061D02*
X115473533Y-138732061D01*
X115283057Y-138465395D02*
X115283057Y-139151109D01*
X115283057Y-139151109D02*
X115321152Y-139227300D01*
X115321152Y-139227300D02*
X115397342Y-139265395D01*
X115397342Y-139265395D02*
X115473533Y-139265395D01*
X116311628Y-139227300D02*
X116425914Y-139265395D01*
X116425914Y-139265395D02*
X116616390Y-139265395D01*
X116616390Y-139265395D02*
X116692581Y-139227300D01*
X116692581Y-139227300D02*
X116730676Y-139189204D01*
X116730676Y-139189204D02*
X116768771Y-139113014D01*
X116768771Y-139113014D02*
X116768771Y-139036823D01*
X116768771Y-139036823D02*
X116730676Y-138960633D01*
X116730676Y-138960633D02*
X116692581Y-138922538D01*
X116692581Y-138922538D02*
X116616390Y-138884442D01*
X116616390Y-138884442D02*
X116464009Y-138846347D01*
X116464009Y-138846347D02*
X116387819Y-138808252D01*
X116387819Y-138808252D02*
X116349724Y-138770157D01*
X116349724Y-138770157D02*
X116311628Y-138693966D01*
X116311628Y-138693966D02*
X116311628Y-138617776D01*
X116311628Y-138617776D02*
X116349724Y-138541585D01*
X116349724Y-138541585D02*
X116387819Y-138503490D01*
X116387819Y-138503490D02*
X116464009Y-138465395D01*
X116464009Y-138465395D02*
X116654486Y-138465395D01*
X116654486Y-138465395D02*
X116768771Y-138503490D01*
X117416391Y-139227300D02*
X117340200Y-139265395D01*
X117340200Y-139265395D02*
X117187819Y-139265395D01*
X117187819Y-139265395D02*
X117111629Y-139227300D01*
X117111629Y-139227300D02*
X117073533Y-139151109D01*
X117073533Y-139151109D02*
X117073533Y-138846347D01*
X117073533Y-138846347D02*
X117111629Y-138770157D01*
X117111629Y-138770157D02*
X117187819Y-138732061D01*
X117187819Y-138732061D02*
X117340200Y-138732061D01*
X117340200Y-138732061D02*
X117416391Y-138770157D01*
X117416391Y-138770157D02*
X117454486Y-138846347D01*
X117454486Y-138846347D02*
X117454486Y-138922538D01*
X117454486Y-138922538D02*
X117073533Y-138998728D01*
X117797343Y-138732061D02*
X117797343Y-139265395D01*
X117797343Y-138808252D02*
X117835438Y-138770157D01*
X117835438Y-138770157D02*
X117911628Y-138732061D01*
X117911628Y-138732061D02*
X118025914Y-138732061D01*
X118025914Y-138732061D02*
X118102105Y-138770157D01*
X118102105Y-138770157D02*
X118140200Y-138846347D01*
X118140200Y-138846347D02*
X118140200Y-139265395D01*
X118483057Y-139227300D02*
X118559248Y-139265395D01*
X118559248Y-139265395D02*
X118711629Y-139265395D01*
X118711629Y-139265395D02*
X118787819Y-139227300D01*
X118787819Y-139227300D02*
X118825915Y-139151109D01*
X118825915Y-139151109D02*
X118825915Y-139113014D01*
X118825915Y-139113014D02*
X118787819Y-139036823D01*
X118787819Y-139036823D02*
X118711629Y-138998728D01*
X118711629Y-138998728D02*
X118597343Y-138998728D01*
X118597343Y-138998728D02*
X118521153Y-138960633D01*
X118521153Y-138960633D02*
X118483057Y-138884442D01*
X118483057Y-138884442D02*
X118483057Y-138846347D01*
X118483057Y-138846347D02*
X118521153Y-138770157D01*
X118521153Y-138770157D02*
X118597343Y-138732061D01*
X118597343Y-138732061D02*
X118711629Y-138732061D01*
X118711629Y-138732061D02*
X118787819Y-138770157D01*
X119283057Y-139265395D02*
X119206867Y-139227300D01*
X119206867Y-139227300D02*
X119168772Y-139189204D01*
X119168772Y-139189204D02*
X119130676Y-139113014D01*
X119130676Y-139113014D02*
X119130676Y-138884442D01*
X119130676Y-138884442D02*
X119168772Y-138808252D01*
X119168772Y-138808252D02*
X119206867Y-138770157D01*
X119206867Y-138770157D02*
X119283057Y-138732061D01*
X119283057Y-138732061D02*
X119397343Y-138732061D01*
X119397343Y-138732061D02*
X119473534Y-138770157D01*
X119473534Y-138770157D02*
X119511629Y-138808252D01*
X119511629Y-138808252D02*
X119549724Y-138884442D01*
X119549724Y-138884442D02*
X119549724Y-139113014D01*
X119549724Y-139113014D02*
X119511629Y-139189204D01*
X119511629Y-139189204D02*
X119473534Y-139227300D01*
X119473534Y-139227300D02*
X119397343Y-139265395D01*
X119397343Y-139265395D02*
X119283057Y-139265395D01*
X119892582Y-139265395D02*
X119892582Y-138732061D01*
X119892582Y-138884442D02*
X119930677Y-138808252D01*
X119930677Y-138808252D02*
X119968772Y-138770157D01*
X119968772Y-138770157D02*
X120044963Y-138732061D01*
X120044963Y-138732061D02*
X120121153Y-138732061D01*
X120921153Y-138732061D02*
X121111629Y-139265395D01*
X121111629Y-139265395D02*
X121302106Y-138732061D01*
X121568772Y-138541585D02*
X121606868Y-138503490D01*
X121606868Y-138503490D02*
X121683058Y-138465395D01*
X121683058Y-138465395D02*
X121873534Y-138465395D01*
X121873534Y-138465395D02*
X121949725Y-138503490D01*
X121949725Y-138503490D02*
X121987820Y-138541585D01*
X121987820Y-138541585D02*
X122025915Y-138617776D01*
X122025915Y-138617776D02*
X122025915Y-138693966D01*
X122025915Y-138693966D02*
X121987820Y-138808252D01*
X121987820Y-138808252D02*
X121530677Y-139265395D01*
X121530677Y-139265395D02*
X122025915Y-139265395D01*
X122368773Y-139189204D02*
X122406868Y-139227300D01*
X122406868Y-139227300D02*
X122368773Y-139265395D01*
X122368773Y-139265395D02*
X122330677Y-139227300D01*
X122330677Y-139227300D02*
X122368773Y-139189204D01*
X122368773Y-139189204D02*
X122368773Y-139265395D01*
X122902106Y-138465395D02*
X122978296Y-138465395D01*
X122978296Y-138465395D02*
X123054487Y-138503490D01*
X123054487Y-138503490D02*
X123092582Y-138541585D01*
X123092582Y-138541585D02*
X123130677Y-138617776D01*
X123130677Y-138617776D02*
X123168772Y-138770157D01*
X123168772Y-138770157D02*
X123168772Y-138960633D01*
X123168772Y-138960633D02*
X123130677Y-139113014D01*
X123130677Y-139113014D02*
X123092582Y-139189204D01*
X123092582Y-139189204D02*
X123054487Y-139227300D01*
X123054487Y-139227300D02*
X122978296Y-139265395D01*
X122978296Y-139265395D02*
X122902106Y-139265395D01*
X122902106Y-139265395D02*
X122825915Y-139227300D01*
X122825915Y-139227300D02*
X122787820Y-139189204D01*
X122787820Y-139189204D02*
X122749725Y-139113014D01*
X122749725Y-139113014D02*
X122711629Y-138960633D01*
X122711629Y-138960633D02*
X122711629Y-138770157D01*
X122711629Y-138770157D02*
X122749725Y-138617776D01*
X122749725Y-138617776D02*
X122787820Y-138541585D01*
X122787820Y-138541585D02*
X122825915Y-138503490D01*
X122825915Y-138503490D02*
X122902106Y-138465395D01*
X122243867Y-71610595D02*
X121977200Y-71229642D01*
X121786724Y-71610595D02*
X121786724Y-70810595D01*
X121786724Y-70810595D02*
X122091486Y-70810595D01*
X122091486Y-70810595D02*
X122167676Y-70848690D01*
X122167676Y-70848690D02*
X122205771Y-70886785D01*
X122205771Y-70886785D02*
X122243867Y-70962976D01*
X122243867Y-70962976D02*
X122243867Y-71077261D01*
X122243867Y-71077261D02*
X122205771Y-71153452D01*
X122205771Y-71153452D02*
X122167676Y-71191547D01*
X122167676Y-71191547D02*
X122091486Y-71229642D01*
X122091486Y-71229642D02*
X121786724Y-71229642D01*
X122929581Y-71077261D02*
X122929581Y-71610595D01*
X122739105Y-70772500D02*
X122548628Y-71343928D01*
X122548628Y-71343928D02*
X123043867Y-71343928D01*
X130575067Y-78798795D02*
X130308400Y-78417842D01*
X130117924Y-78798795D02*
X130117924Y-77998795D01*
X130117924Y-77998795D02*
X130422686Y-77998795D01*
X130422686Y-77998795D02*
X130498876Y-78036890D01*
X130498876Y-78036890D02*
X130536971Y-78074985D01*
X130536971Y-78074985D02*
X130575067Y-78151176D01*
X130575067Y-78151176D02*
X130575067Y-78265461D01*
X130575067Y-78265461D02*
X130536971Y-78341652D01*
X130536971Y-78341652D02*
X130498876Y-78379747D01*
X130498876Y-78379747D02*
X130422686Y-78417842D01*
X130422686Y-78417842D02*
X130117924Y-78417842D01*
X130841733Y-77998795D02*
X131336971Y-77998795D01*
X131336971Y-77998795D02*
X131070305Y-78303557D01*
X131070305Y-78303557D02*
X131184590Y-78303557D01*
X131184590Y-78303557D02*
X131260781Y-78341652D01*
X131260781Y-78341652D02*
X131298876Y-78379747D01*
X131298876Y-78379747D02*
X131336971Y-78455938D01*
X131336971Y-78455938D02*
X131336971Y-78646414D01*
X131336971Y-78646414D02*
X131298876Y-78722604D01*
X131298876Y-78722604D02*
X131260781Y-78760700D01*
X131260781Y-78760700D02*
X131184590Y-78798795D01*
X131184590Y-78798795D02*
X130956019Y-78798795D01*
X130956019Y-78798795D02*
X130879828Y-78760700D01*
X130879828Y-78760700D02*
X130841733Y-78722604D01*
X91814667Y-67749795D02*
X91548000Y-67368842D01*
X91357524Y-67749795D02*
X91357524Y-66949795D01*
X91357524Y-66949795D02*
X91662286Y-66949795D01*
X91662286Y-66949795D02*
X91738476Y-66987890D01*
X91738476Y-66987890D02*
X91776571Y-67025985D01*
X91776571Y-67025985D02*
X91814667Y-67102176D01*
X91814667Y-67102176D02*
X91814667Y-67216461D01*
X91814667Y-67216461D02*
X91776571Y-67292652D01*
X91776571Y-67292652D02*
X91738476Y-67330747D01*
X91738476Y-67330747D02*
X91662286Y-67368842D01*
X91662286Y-67368842D02*
X91357524Y-67368842D01*
X92576571Y-67749795D02*
X92119428Y-67749795D01*
X92348000Y-67749795D02*
X92348000Y-66949795D01*
X92348000Y-66949795D02*
X92271809Y-67064080D01*
X92271809Y-67064080D02*
X92195619Y-67140271D01*
X92195619Y-67140271D02*
X92119428Y-67178366D01*
D10*
X74097264Y-73587094D02*
X74716311Y-73587094D01*
X74716311Y-73587094D02*
X74382978Y-73968046D01*
X74382978Y-73968046D02*
X74525835Y-73968046D01*
X74525835Y-73968046D02*
X74621073Y-74015665D01*
X74621073Y-74015665D02*
X74668692Y-74063284D01*
X74668692Y-74063284D02*
X74716311Y-74158522D01*
X74716311Y-74158522D02*
X74716311Y-74396617D01*
X74716311Y-74396617D02*
X74668692Y-74491855D01*
X74668692Y-74491855D02*
X74621073Y-74539475D01*
X74621073Y-74539475D02*
X74525835Y-74587094D01*
X74525835Y-74587094D02*
X74240121Y-74587094D01*
X74240121Y-74587094D02*
X74144883Y-74539475D01*
X74144883Y-74539475D02*
X74097264Y-74491855D01*
X75002026Y-73587094D02*
X75335359Y-74587094D01*
X75335359Y-74587094D02*
X75668692Y-73587094D01*
X75906788Y-73587094D02*
X76525835Y-73587094D01*
X76525835Y-73587094D02*
X76192502Y-73968046D01*
X76192502Y-73968046D02*
X76335359Y-73968046D01*
X76335359Y-73968046D02*
X76430597Y-74015665D01*
X76430597Y-74015665D02*
X76478216Y-74063284D01*
X76478216Y-74063284D02*
X76525835Y-74158522D01*
X76525835Y-74158522D02*
X76525835Y-74396617D01*
X76525835Y-74396617D02*
X76478216Y-74491855D01*
X76478216Y-74491855D02*
X76430597Y-74539475D01*
X76430597Y-74539475D02*
X76335359Y-74587094D01*
X76335359Y-74587094D02*
X76049645Y-74587094D01*
X76049645Y-74587094D02*
X75954407Y-74539475D01*
X75954407Y-74539475D02*
X75906788Y-74491855D01*
X74192502Y-87287094D02*
X74192502Y-86287094D01*
X74763930Y-87287094D02*
X74335359Y-86715665D01*
X74763930Y-86287094D02*
X74192502Y-86858522D01*
X75192502Y-87287094D02*
X75192502Y-86287094D01*
X75192502Y-86287094D02*
X75763930Y-87287094D01*
X75763930Y-87287094D02*
X75763930Y-86287094D01*
X76144883Y-86287094D02*
X76811549Y-87287094D01*
X76811549Y-86287094D02*
X76144883Y-87287094D01*
X74763930Y-79667094D02*
X74430597Y-79190903D01*
X74192502Y-79667094D02*
X74192502Y-78667094D01*
X74192502Y-78667094D02*
X74573454Y-78667094D01*
X74573454Y-78667094D02*
X74668692Y-78714713D01*
X74668692Y-78714713D02*
X74716311Y-78762332D01*
X74716311Y-78762332D02*
X74763930Y-78857570D01*
X74763930Y-78857570D02*
X74763930Y-79000427D01*
X74763930Y-79000427D02*
X74716311Y-79095665D01*
X74716311Y-79095665D02*
X74668692Y-79143284D01*
X74668692Y-79143284D02*
X74573454Y-79190903D01*
X74573454Y-79190903D02*
X74192502Y-79190903D01*
X75097264Y-79667094D02*
X75621073Y-79000427D01*
X75097264Y-79000427D02*
X75621073Y-79667094D01*
X74144883Y-82159475D02*
X74287740Y-82207094D01*
X74287740Y-82207094D02*
X74525835Y-82207094D01*
X74525835Y-82207094D02*
X74621073Y-82159475D01*
X74621073Y-82159475D02*
X74668692Y-82111855D01*
X74668692Y-82111855D02*
X74716311Y-82016617D01*
X74716311Y-82016617D02*
X74716311Y-81921379D01*
X74716311Y-81921379D02*
X74668692Y-81826141D01*
X74668692Y-81826141D02*
X74621073Y-81778522D01*
X74621073Y-81778522D02*
X74525835Y-81730903D01*
X74525835Y-81730903D02*
X74335359Y-81683284D01*
X74335359Y-81683284D02*
X74240121Y-81635665D01*
X74240121Y-81635665D02*
X74192502Y-81588046D01*
X74192502Y-81588046D02*
X74144883Y-81492808D01*
X74144883Y-81492808D02*
X74144883Y-81397570D01*
X74144883Y-81397570D02*
X74192502Y-81302332D01*
X74192502Y-81302332D02*
X74240121Y-81254713D01*
X74240121Y-81254713D02*
X74335359Y-81207094D01*
X74335359Y-81207094D02*
X74573454Y-81207094D01*
X74573454Y-81207094D02*
X74716311Y-81254713D01*
X75573454Y-82207094D02*
X75573454Y-81683284D01*
X75573454Y-81683284D02*
X75525835Y-81588046D01*
X75525835Y-81588046D02*
X75430597Y-81540427D01*
X75430597Y-81540427D02*
X75240121Y-81540427D01*
X75240121Y-81540427D02*
X75144883Y-81588046D01*
X75573454Y-82159475D02*
X75478216Y-82207094D01*
X75478216Y-82207094D02*
X75240121Y-82207094D01*
X75240121Y-82207094D02*
X75144883Y-82159475D01*
X75144883Y-82159475D02*
X75097264Y-82064236D01*
X75097264Y-82064236D02*
X75097264Y-81968998D01*
X75097264Y-81968998D02*
X75144883Y-81873760D01*
X75144883Y-81873760D02*
X75240121Y-81826141D01*
X75240121Y-81826141D02*
X75478216Y-81826141D01*
X75478216Y-81826141D02*
X75573454Y-81778522D01*
X75954407Y-81540427D02*
X76192502Y-82207094D01*
X76192502Y-82207094D02*
X76430597Y-81540427D01*
X77192502Y-82159475D02*
X77097264Y-82207094D01*
X77097264Y-82207094D02*
X76906788Y-82207094D01*
X76906788Y-82207094D02*
X76811550Y-82159475D01*
X76811550Y-82159475D02*
X76763931Y-82064236D01*
X76763931Y-82064236D02*
X76763931Y-81683284D01*
X76763931Y-81683284D02*
X76811550Y-81588046D01*
X76811550Y-81588046D02*
X76906788Y-81540427D01*
X76906788Y-81540427D02*
X77097264Y-81540427D01*
X77097264Y-81540427D02*
X77192502Y-81588046D01*
X77192502Y-81588046D02*
X77240121Y-81683284D01*
X77240121Y-81683284D02*
X77240121Y-81778522D01*
X77240121Y-81778522D02*
X76763931Y-81873760D01*
X74049645Y-71047094D02*
X74382978Y-72047094D01*
X74382978Y-72047094D02*
X74716311Y-71047094D01*
X75478216Y-71999475D02*
X75382978Y-72047094D01*
X75382978Y-72047094D02*
X75192502Y-72047094D01*
X75192502Y-72047094D02*
X75097264Y-71999475D01*
X75097264Y-71999475D02*
X75049645Y-71951855D01*
X75049645Y-71951855D02*
X75002026Y-71856617D01*
X75002026Y-71856617D02*
X75002026Y-71570903D01*
X75002026Y-71570903D02*
X75049645Y-71475665D01*
X75049645Y-71475665D02*
X75097264Y-71428046D01*
X75097264Y-71428046D02*
X75192502Y-71380427D01*
X75192502Y-71380427D02*
X75382978Y-71380427D01*
X75382978Y-71380427D02*
X75478216Y-71428046D01*
X76335359Y-71999475D02*
X76240121Y-72047094D01*
X76240121Y-72047094D02*
X76049645Y-72047094D01*
X76049645Y-72047094D02*
X75954407Y-71999475D01*
X75954407Y-71999475D02*
X75906788Y-71951855D01*
X75906788Y-71951855D02*
X75859169Y-71856617D01*
X75859169Y-71856617D02*
X75859169Y-71570903D01*
X75859169Y-71570903D02*
X75906788Y-71475665D01*
X75906788Y-71475665D02*
X75954407Y-71428046D01*
X75954407Y-71428046D02*
X76049645Y-71380427D01*
X76049645Y-71380427D02*
X76240121Y-71380427D01*
X76240121Y-71380427D02*
X76335359Y-71428046D01*
X76716312Y-71142332D02*
X76763931Y-71094713D01*
X76763931Y-71094713D02*
X76859169Y-71047094D01*
X76859169Y-71047094D02*
X77097264Y-71047094D01*
X77097264Y-71047094D02*
X77192502Y-71094713D01*
X77192502Y-71094713D02*
X77240121Y-71142332D01*
X77240121Y-71142332D02*
X77287740Y-71237570D01*
X77287740Y-71237570D02*
X77287740Y-71332808D01*
X77287740Y-71332808D02*
X77240121Y-71475665D01*
X77240121Y-71475665D02*
X76668693Y-72047094D01*
X76668693Y-72047094D02*
X77287740Y-72047094D01*
D11*
X78206399Y-79931528D02*
X78206399Y-78431528D01*
X78206399Y-78431528D02*
X79063542Y-79931528D01*
X79063542Y-79931528D02*
X79063542Y-78431528D01*
X80420686Y-79931528D02*
X80420686Y-79145814D01*
X80420686Y-79145814D02*
X80349257Y-79002957D01*
X80349257Y-79002957D02*
X80206400Y-78931528D01*
X80206400Y-78931528D02*
X79920686Y-78931528D01*
X79920686Y-78931528D02*
X79777828Y-79002957D01*
X80420686Y-79860100D02*
X80277828Y-79931528D01*
X80277828Y-79931528D02*
X79920686Y-79931528D01*
X79920686Y-79931528D02*
X79777828Y-79860100D01*
X79777828Y-79860100D02*
X79706400Y-79717242D01*
X79706400Y-79717242D02*
X79706400Y-79574385D01*
X79706400Y-79574385D02*
X79777828Y-79431528D01*
X79777828Y-79431528D02*
X79920686Y-79360100D01*
X79920686Y-79360100D02*
X80277828Y-79360100D01*
X80277828Y-79360100D02*
X80420686Y-79288671D01*
X81134971Y-78931528D02*
X81134971Y-79931528D01*
X81134971Y-79074385D02*
X81206400Y-79002957D01*
X81206400Y-79002957D02*
X81349257Y-78931528D01*
X81349257Y-78931528D02*
X81563543Y-78931528D01*
X81563543Y-78931528D02*
X81706400Y-79002957D01*
X81706400Y-79002957D02*
X81777829Y-79145814D01*
X81777829Y-79145814D02*
X81777829Y-79931528D01*
X82706400Y-79931528D02*
X82563543Y-79860100D01*
X82563543Y-79860100D02*
X82492114Y-79788671D01*
X82492114Y-79788671D02*
X82420686Y-79645814D01*
X82420686Y-79645814D02*
X82420686Y-79217242D01*
X82420686Y-79217242D02*
X82492114Y-79074385D01*
X82492114Y-79074385D02*
X82563543Y-79002957D01*
X82563543Y-79002957D02*
X82706400Y-78931528D01*
X82706400Y-78931528D02*
X82920686Y-78931528D01*
X82920686Y-78931528D02*
X83063543Y-79002957D01*
X83063543Y-79002957D02*
X83134972Y-79074385D01*
X83134972Y-79074385D02*
X83206400Y-79217242D01*
X83206400Y-79217242D02*
X83206400Y-79645814D01*
X83206400Y-79645814D02*
X83134972Y-79788671D01*
X83134972Y-79788671D02*
X83063543Y-79860100D01*
X83063543Y-79860100D02*
X82920686Y-79931528D01*
X82920686Y-79931528D02*
X82706400Y-79931528D01*
X84349257Y-79145814D02*
X84563543Y-79217242D01*
X84563543Y-79217242D02*
X84634972Y-79288671D01*
X84634972Y-79288671D02*
X84706400Y-79431528D01*
X84706400Y-79431528D02*
X84706400Y-79645814D01*
X84706400Y-79645814D02*
X84634972Y-79788671D01*
X84634972Y-79788671D02*
X84563543Y-79860100D01*
X84563543Y-79860100D02*
X84420686Y-79931528D01*
X84420686Y-79931528D02*
X83849257Y-79931528D01*
X83849257Y-79931528D02*
X83849257Y-78431528D01*
X83849257Y-78431528D02*
X84349257Y-78431528D01*
X84349257Y-78431528D02*
X84492115Y-78502957D01*
X84492115Y-78502957D02*
X84563543Y-78574385D01*
X84563543Y-78574385D02*
X84634972Y-78717242D01*
X84634972Y-78717242D02*
X84634972Y-78860100D01*
X84634972Y-78860100D02*
X84563543Y-79002957D01*
X84563543Y-79002957D02*
X84492115Y-79074385D01*
X84492115Y-79074385D02*
X84349257Y-79145814D01*
X84349257Y-79145814D02*
X83849257Y-79145814D01*
X86206400Y-79788671D02*
X86134972Y-79860100D01*
X86134972Y-79860100D02*
X85920686Y-79931528D01*
X85920686Y-79931528D02*
X85777829Y-79931528D01*
X85777829Y-79931528D02*
X85563543Y-79860100D01*
X85563543Y-79860100D02*
X85420686Y-79717242D01*
X85420686Y-79717242D02*
X85349257Y-79574385D01*
X85349257Y-79574385D02*
X85277829Y-79288671D01*
X85277829Y-79288671D02*
X85277829Y-79074385D01*
X85277829Y-79074385D02*
X85349257Y-78788671D01*
X85349257Y-78788671D02*
X85420686Y-78645814D01*
X85420686Y-78645814D02*
X85563543Y-78502957D01*
X85563543Y-78502957D02*
X85777829Y-78431528D01*
X85777829Y-78431528D02*
X85920686Y-78431528D01*
X85920686Y-78431528D02*
X86134972Y-78502957D01*
X86134972Y-78502957D02*
X86206400Y-78574385D01*
X86849257Y-78431528D02*
X86849257Y-79645814D01*
X86849257Y-79645814D02*
X86920686Y-79788671D01*
X86920686Y-79788671D02*
X86992115Y-79860100D01*
X86992115Y-79860100D02*
X87134972Y-79931528D01*
X87134972Y-79931528D02*
X87420686Y-79931528D01*
X87420686Y-79931528D02*
X87563543Y-79860100D01*
X87563543Y-79860100D02*
X87634972Y-79788671D01*
X87634972Y-79788671D02*
X87706400Y-79645814D01*
X87706400Y-79645814D02*
X87706400Y-78431528D01*
D10*
X74716311Y-83834713D02*
X74621073Y-83787094D01*
X74621073Y-83787094D02*
X74478216Y-83787094D01*
X74478216Y-83787094D02*
X74335359Y-83834713D01*
X74335359Y-83834713D02*
X74240121Y-83929951D01*
X74240121Y-83929951D02*
X74192502Y-84025189D01*
X74192502Y-84025189D02*
X74144883Y-84215665D01*
X74144883Y-84215665D02*
X74144883Y-84358522D01*
X74144883Y-84358522D02*
X74192502Y-84548998D01*
X74192502Y-84548998D02*
X74240121Y-84644236D01*
X74240121Y-84644236D02*
X74335359Y-84739475D01*
X74335359Y-84739475D02*
X74478216Y-84787094D01*
X74478216Y-84787094D02*
X74573454Y-84787094D01*
X74573454Y-84787094D02*
X74716311Y-84739475D01*
X74716311Y-84739475D02*
X74763930Y-84691855D01*
X74763930Y-84691855D02*
X74763930Y-84358522D01*
X74763930Y-84358522D02*
X74573454Y-84358522D01*
X75192502Y-84787094D02*
X75192502Y-83787094D01*
X75192502Y-83787094D02*
X75763930Y-84787094D01*
X75763930Y-84787094D02*
X75763930Y-83787094D01*
X76240121Y-84787094D02*
X76240121Y-83787094D01*
X76240121Y-83787094D02*
X76478216Y-83787094D01*
X76478216Y-83787094D02*
X76621073Y-83834713D01*
X76621073Y-83834713D02*
X76716311Y-83929951D01*
X76716311Y-83929951D02*
X76763930Y-84025189D01*
X76763930Y-84025189D02*
X76811549Y-84215665D01*
X76811549Y-84215665D02*
X76811549Y-84358522D01*
X76811549Y-84358522D02*
X76763930Y-84548998D01*
X76763930Y-84548998D02*
X76716311Y-84644236D01*
X76716311Y-84644236D02*
X76621073Y-84739475D01*
X76621073Y-84739475D02*
X76478216Y-84787094D01*
X76478216Y-84787094D02*
X76240121Y-84787094D01*
X74049645Y-76127094D02*
X74621073Y-76127094D01*
X74335359Y-77127094D02*
X74335359Y-76127094D01*
X74859169Y-77127094D02*
X75382978Y-76460427D01*
X74859169Y-76460427D02*
X75382978Y-77127094D01*
D12*
X90443067Y-73693395D02*
X90176400Y-73312442D01*
X89985924Y-73693395D02*
X89985924Y-72893395D01*
X89985924Y-72893395D02*
X90290686Y-72893395D01*
X90290686Y-72893395D02*
X90366876Y-72931490D01*
X90366876Y-72931490D02*
X90404971Y-72969585D01*
X90404971Y-72969585D02*
X90443067Y-73045776D01*
X90443067Y-73045776D02*
X90443067Y-73160061D01*
X90443067Y-73160061D02*
X90404971Y-73236252D01*
X90404971Y-73236252D02*
X90366876Y-73274347D01*
X90366876Y-73274347D02*
X90290686Y-73312442D01*
X90290686Y-73312442D02*
X89985924Y-73312442D01*
X91166876Y-72893395D02*
X90785924Y-72893395D01*
X90785924Y-72893395D02*
X90747828Y-73274347D01*
X90747828Y-73274347D02*
X90785924Y-73236252D01*
X90785924Y-73236252D02*
X90862114Y-73198157D01*
X90862114Y-73198157D02*
X91052590Y-73198157D01*
X91052590Y-73198157D02*
X91128781Y-73236252D01*
X91128781Y-73236252D02*
X91166876Y-73274347D01*
X91166876Y-73274347D02*
X91204971Y-73350538D01*
X91204971Y-73350538D02*
X91204971Y-73541014D01*
X91204971Y-73541014D02*
X91166876Y-73617204D01*
X91166876Y-73617204D02*
X91128781Y-73655300D01*
X91128781Y-73655300D02*
X91052590Y-73693395D01*
X91052590Y-73693395D02*
X90862114Y-73693395D01*
X90862114Y-73693395D02*
X90785924Y-73655300D01*
X90785924Y-73655300D02*
X90747828Y-73617204D01*
D10*
X76387048Y-95998819D02*
X76387048Y-94998819D01*
X76958476Y-95998819D02*
X76529905Y-95427390D01*
X76958476Y-94998819D02*
X76387048Y-95570247D01*
X77387048Y-95998819D02*
X77387048Y-94998819D01*
X77387048Y-94998819D02*
X77958476Y-95998819D01*
X77958476Y-95998819D02*
X77958476Y-94998819D01*
X78339429Y-94998819D02*
X79006095Y-95998819D01*
X79006095Y-94998819D02*
X78339429Y-95998819D01*
X79387048Y-95617866D02*
X80148953Y-95617866D01*
X79768000Y-95998819D02*
X79768000Y-95236914D01*
X78006095Y-101046438D02*
X77910857Y-100998819D01*
X77910857Y-100998819D02*
X77768000Y-100998819D01*
X77768000Y-100998819D02*
X77625143Y-101046438D01*
X77625143Y-101046438D02*
X77529905Y-101141676D01*
X77529905Y-101141676D02*
X77482286Y-101236914D01*
X77482286Y-101236914D02*
X77434667Y-101427390D01*
X77434667Y-101427390D02*
X77434667Y-101570247D01*
X77434667Y-101570247D02*
X77482286Y-101760723D01*
X77482286Y-101760723D02*
X77529905Y-101855961D01*
X77529905Y-101855961D02*
X77625143Y-101951200D01*
X77625143Y-101951200D02*
X77768000Y-101998819D01*
X77768000Y-101998819D02*
X77863238Y-101998819D01*
X77863238Y-101998819D02*
X78006095Y-101951200D01*
X78006095Y-101951200D02*
X78053714Y-101903580D01*
X78053714Y-101903580D02*
X78053714Y-101570247D01*
X78053714Y-101570247D02*
X77863238Y-101570247D01*
X78482286Y-101998819D02*
X78482286Y-100998819D01*
X78482286Y-100998819D02*
X79053714Y-101998819D01*
X79053714Y-101998819D02*
X79053714Y-100998819D01*
X79529905Y-101998819D02*
X79529905Y-100998819D01*
X79529905Y-100998819D02*
X79768000Y-100998819D01*
X79768000Y-100998819D02*
X79910857Y-101046438D01*
X79910857Y-101046438D02*
X80006095Y-101141676D01*
X80006095Y-101141676D02*
X80053714Y-101236914D01*
X80053714Y-101236914D02*
X80101333Y-101427390D01*
X80101333Y-101427390D02*
X80101333Y-101570247D01*
X80101333Y-101570247D02*
X80053714Y-101760723D01*
X80053714Y-101760723D02*
X80006095Y-101855961D01*
X80006095Y-101855961D02*
X79910857Y-101951200D01*
X79910857Y-101951200D02*
X79768000Y-101998819D01*
X79768000Y-101998819D02*
X79529905Y-101998819D01*
X73734666Y-114679819D02*
X73734666Y-115394104D01*
X73734666Y-115394104D02*
X73687047Y-115536961D01*
X73687047Y-115536961D02*
X73591809Y-115632200D01*
X73591809Y-115632200D02*
X73448952Y-115679819D01*
X73448952Y-115679819D02*
X73353714Y-115679819D01*
X74734666Y-115679819D02*
X74163238Y-115679819D01*
X74448952Y-115679819D02*
X74448952Y-114679819D01*
X74448952Y-114679819D02*
X74353714Y-114822676D01*
X74353714Y-114822676D02*
X74258476Y-114917914D01*
X74258476Y-114917914D02*
X74163238Y-114965533D01*
X78387048Y-117848866D02*
X79148953Y-117848866D01*
X78237048Y-111848866D02*
X78998953Y-111848866D01*
X78618000Y-112229819D02*
X78618000Y-111467914D01*
D13*
X127633800Y-124620800D02*
X127633800Y-126620800D01*
X132933800Y-118620800D02*
X132933800Y-117620800D01*
X132933800Y-123620800D02*
X132933800Y-122620800D01*
X126633800Y-104620800D02*
X126633800Y-101620800D01*
X127633800Y-101620800D02*
X125823800Y-101620800D01*
X125823800Y-109620800D02*
X127633800Y-109620800D01*
X126633800Y-119620800D02*
X126633800Y-116620800D01*
X126633800Y-114620800D02*
X126633800Y-111620800D01*
X125823800Y-126620800D02*
X125823800Y-124620800D01*
X125823800Y-104620800D02*
X127633800Y-104620800D01*
X125823800Y-121620800D02*
X125823800Y-119620800D01*
X132933800Y-127620800D02*
X132933800Y-128320800D01*
X125823800Y-101620800D02*
X125823800Y-99620800D01*
X125023800Y-125920800D02*
X125023800Y-125320800D01*
X132933800Y-103620800D02*
X132933800Y-102620800D01*
X125823800Y-106620800D02*
X125823800Y-104620800D01*
X127633800Y-97920800D02*
X132933800Y-97920800D01*
X125023800Y-125320800D02*
X125623800Y-125620800D01*
X134643800Y-129230800D02*
X134643800Y-97010800D01*
X132933800Y-108620800D02*
X132933800Y-107620800D01*
X127633800Y-126620800D02*
X125823800Y-126620800D01*
X125823800Y-111620800D02*
X125823800Y-109620800D01*
X125823800Y-99620800D02*
X127633800Y-99620800D01*
X127633800Y-111620800D02*
X125823800Y-111620800D01*
X127633800Y-119620800D02*
X127633800Y-121620800D01*
X126633800Y-129230800D02*
X126633800Y-126730800D01*
X134643800Y-97010800D02*
X125823800Y-97010800D01*
X126633800Y-124620800D02*
X126633800Y-121620800D01*
X125623800Y-125620800D02*
X125023800Y-125920800D01*
X125823800Y-129230800D02*
X134643800Y-129230800D01*
X127633800Y-106620800D02*
X125823800Y-106620800D01*
X125823800Y-119620800D02*
X127633800Y-119620800D01*
X125823800Y-116620800D02*
X125823800Y-114620800D01*
X132933800Y-128320800D02*
X127633800Y-128320800D01*
X127633800Y-104620800D02*
X127633800Y-106620800D01*
X125823800Y-97010800D02*
X125823800Y-129230800D01*
X132933800Y-113620800D02*
X132933800Y-112620800D01*
X125823800Y-124620800D02*
X127633800Y-124620800D01*
X127633800Y-109620800D02*
X127633800Y-111620800D01*
X126633800Y-97010800D02*
X126633800Y-99510800D01*
X127633800Y-99620800D02*
X127633800Y-101620800D01*
X127633800Y-116620800D02*
X125823800Y-116620800D01*
X132933800Y-97920800D02*
X132933800Y-98620800D01*
X127633800Y-114620800D02*
X127633800Y-116620800D01*
X125823800Y-114620800D02*
X127633800Y-114620800D01*
X127633800Y-121620800D02*
X125823800Y-121620800D01*
X126633800Y-109620800D02*
X126633800Y-106620800D01*
X127633800Y-128320800D02*
X127633800Y-97920800D01*
X132933800Y-122620800D02*
G75*
G03*
X132949621Y-118633958I-1650000J2000000D01*
G01*
X132933800Y-107620800D02*
G75*
G03*
X132949621Y-103633958I-1650000J2000000D01*
G01*
X132933800Y-117620800D02*
G75*
G03*
X132949621Y-113633958I-1650000J2000000D01*
G01*
X132933800Y-127620800D02*
G75*
G03*
X132949621Y-123633958I-1650000J2000000D01*
G01*
X132933800Y-112620800D02*
G75*
G03*
X132949621Y-108633958I-1650000J2000000D01*
G01*
X132933800Y-102620800D02*
G75*
G03*
X132949621Y-98633958I-1650000J2000000D01*
G01*
D14*
X99427200Y-65165380D02*
X99427200Y-85493000D01*
X99427200Y-85493000D02*
X117224980Y-85493000D01*
X100097760Y-64494820D02*
X99427200Y-65165380D01*
D15*
X103110200Y-64411000D02*
X104888200Y-64411000D01*
X103110200Y-67078000D02*
X103110200Y-64411000D01*
X103110200Y-67078000D02*
X104888200Y-67078000D01*
X103110200Y-68475000D02*
X104888200Y-68475000D01*
X103110200Y-71144540D02*
X103110200Y-68475000D01*
X103110200Y-71144540D02*
X104888200Y-71144540D01*
D14*
X103821400Y-70423180D02*
X103821400Y-63069880D01*
X103826480Y-63069880D02*
X112820620Y-63069880D01*
D15*
X104888200Y-67078000D02*
X104888200Y-64411000D01*
X104888200Y-71144540D02*
X104888200Y-68475000D01*
X105777200Y-65173000D02*
X110857200Y-65173000D01*
X105777200Y-67713000D02*
X105777200Y-65173000D01*
X105777200Y-67713000D02*
X110857200Y-67713000D01*
X105777200Y-82318000D02*
X111492200Y-82318000D01*
X105777200Y-84858000D02*
X105777200Y-82318000D01*
X105777200Y-84858000D02*
X111492200Y-84858000D01*
X110857200Y-67713000D02*
X110857200Y-65173000D01*
X111492200Y-84858000D02*
X111492200Y-82318000D01*
X111746200Y-64411000D02*
X113524200Y-64411000D01*
X111746200Y-67078000D02*
X111746200Y-64411000D01*
X111746200Y-67078000D02*
X113524200Y-67078000D01*
X111746200Y-68475000D02*
X113524200Y-68475000D01*
X111746200Y-71144540D02*
X111746200Y-68475000D01*
X111746200Y-71144540D02*
X113524200Y-71144540D01*
D14*
X112820620Y-63069880D02*
X112820620Y-70423180D01*
X112820620Y-70423180D02*
X103821400Y-70423180D01*
D15*
X113524200Y-67078000D02*
X113524200Y-64411000D01*
X113524200Y-71144540D02*
X113524200Y-68475000D01*
D14*
X117224980Y-64494820D02*
X100097760Y-64494820D01*
X117224980Y-85493000D02*
X117224980Y-64494820D01*
D16*
X98665200Y-67332000D02*
G75*
G03*
X98411200Y-67332000I-127000J0D01*
G01*
X98411200Y-67332000D02*
G75*
G03*
X98665200Y-67332000I127000J0D01*
G01*
D13*
X131148800Y-87843800D02*
X131304800Y-87843800D01*
X133464800Y-87843800D02*
X133620800Y-87843800D01*
X131306192Y-84611466D02*
G75*
G03*
X131149285Y-87843799I1078608J-1672334D01*
G01*
X131304964Y-85242671D02*
G75*
G03*
X131304801Y-87324760I1079836J-1041129D01*
G01*
X133464799Y-87324760D02*
G75*
G03*
X133464636Y-85242671I-1079999J1040960D01*
G01*
X133620315Y-87843799D02*
G75*
G03*
X133463408Y-84611466I-1235515J1559999D01*
G01*
X121726110Y-73573446D02*
X121726110Y-75027574D01*
X123546110Y-73573446D02*
X123546110Y-75027574D01*
X131486864Y-79328600D02*
X130032736Y-79328600D01*
X131486864Y-81148600D02*
X130032736Y-81148600D01*
X94513536Y-66501600D02*
X95967664Y-66501600D01*
X94513536Y-68321600D02*
X95967664Y-68321600D01*
X89315723Y-70162275D02*
X89315723Y-88162275D01*
X73855723Y-88162275D02*
X73855723Y-70162275D01*
X71315723Y-88162275D02*
X89315723Y-88162275D01*
X71315723Y-88162275D02*
X71315723Y-70162275D01*
X71315723Y-70162275D02*
X89315723Y-70162275D01*
X92862536Y-72292800D02*
X94316664Y-72292800D01*
X92862536Y-74112800D02*
X94316664Y-74112800D01*
X126475000Y-70466000D02*
X132935000Y-70466000D01*
X126475000Y-70496000D02*
X126475000Y-70466000D01*
X126475000Y-72396000D02*
X126475000Y-74996000D01*
X126475000Y-76926000D02*
X126475000Y-76896000D01*
X126475000Y-76926000D02*
X132935000Y-76926000D01*
X132935000Y-70466000D02*
X132935000Y-70496000D01*
X132935000Y-72396000D02*
X132935000Y-74996000D01*
X132935000Y-76926000D02*
X132935000Y-76896000D01*
X81168000Y-103794000D02*
X81168000Y-92294000D01*
X75393000Y-103794000D02*
X81168000Y-103794000D01*
X75393000Y-103794000D02*
X75993000Y-102794000D01*
X75393000Y-98044000D02*
X81168000Y-98044000D01*
X75393000Y-98044000D02*
X75993000Y-97044000D01*
X75393000Y-92294000D02*
X81168000Y-92294000D01*
X75393000Y-92294000D02*
X75993000Y-91294000D01*
X72943000Y-98044000D02*
X72343000Y-97044000D01*
X72943000Y-98044000D02*
X71168000Y-98044000D01*
X72943000Y-92294000D02*
X72343000Y-91294000D01*
X72943000Y-92294000D02*
X71168000Y-92294000D01*
X72343000Y-102794000D02*
X75993000Y-102794000D01*
X72343000Y-102794000D02*
X72943000Y-103794000D01*
X72343000Y-97044000D02*
X75993000Y-97044000D01*
X72343000Y-91294000D02*
X75993000Y-91294000D01*
X71168000Y-103794000D02*
X72943000Y-103794000D01*
X71168000Y-103794000D02*
X71168000Y-92294000D01*
X80628800Y-129717800D02*
X80628800Y-122037800D01*
X80628800Y-129717800D02*
X77968800Y-129717800D01*
X80628800Y-122037800D02*
X77968800Y-122037800D01*
X79298800Y-132317800D02*
X77968800Y-132317800D01*
X77968800Y-132317800D02*
X77968800Y-130987800D01*
X77968800Y-129717800D02*
X77968800Y-122037800D01*
X81168000Y-120025000D02*
X81168000Y-108525000D01*
X75393000Y-120025000D02*
X81168000Y-120025000D01*
X75393000Y-120025000D02*
X75993000Y-119025000D01*
X75393000Y-114275000D02*
X81168000Y-114275000D01*
X75393000Y-114275000D02*
X75993000Y-113275000D01*
X75393000Y-108525000D02*
X81168000Y-108525000D01*
X75393000Y-108525000D02*
X75993000Y-107525000D01*
X72943000Y-114275000D02*
X72343000Y-113275000D01*
X72943000Y-114275000D02*
X71168000Y-114275000D01*
X72943000Y-108525000D02*
X72343000Y-107525000D01*
X72943000Y-108525000D02*
X71168000Y-108525000D01*
X72343000Y-119025000D02*
X75993000Y-119025000D01*
X72343000Y-119025000D02*
X72943000Y-120025000D01*
X72343000Y-113275000D02*
X75993000Y-113275000D01*
X72343000Y-107525000D02*
X75993000Y-107525000D01*
X71168000Y-120025000D02*
X72943000Y-120025000D01*
X71168000Y-120025000D02*
X71168000Y-108525000D01*
%LPC*%
D17*
X130733800Y-125620800D03*
D18*
X130733800Y-120620800D03*
X130733800Y-115620800D03*
X130733800Y-110620800D03*
X130733800Y-105620800D03*
X130733800Y-100620800D03*
D19*
X100260320Y-67375180D03*
X100260320Y-69915180D03*
X100260320Y-72455180D03*
X100260320Y-74995180D03*
X100260320Y-77535180D03*
X100260320Y-80075180D03*
X100260320Y-82615180D03*
X116424880Y-82615180D03*
X116424880Y-80075180D03*
X116424880Y-77535180D03*
X116424880Y-74995180D03*
X116424880Y-72455180D03*
X116424880Y-69915180D03*
X116424880Y-67375180D03*
D20*
X107127200Y-83693000D03*
X109677200Y-83693000D03*
D21*
X107126003Y-66688813D03*
X109666003Y-66688813D03*
X107126003Y-69228813D03*
X109666003Y-69228813D03*
D22*
X132384800Y-87553800D03*
D23*
X132384800Y-85013800D03*
D24*
X122636110Y-75850510D03*
X122636110Y-72750510D03*
D25*
X129209800Y-80238600D03*
X132309800Y-80238600D03*
D26*
X93690600Y-67411600D03*
X96790600Y-67411600D03*
D27*
X72585723Y-86832275D03*
D28*
X72585723Y-84292275D03*
X72585723Y-81752275D03*
X72585723Y-79212275D03*
X72585723Y-76672275D03*
X72585723Y-74132275D03*
X72585723Y-71592275D03*
D26*
X92039600Y-73202800D03*
X95139600Y-73202800D03*
D29*
X125730000Y-71446000D03*
X133680000Y-71446000D03*
X125730000Y-75946000D03*
X133680000Y-75946000D03*
D30*
X74568000Y-95494000D03*
X74568000Y-101244000D03*
D27*
X79298800Y-130987800D03*
D31*
X79298800Y-128447800D03*
X79298800Y-125907800D03*
X79298800Y-123367800D03*
D30*
X74568000Y-111725000D03*
X74568000Y-117475000D03*
%LPD*%
M02*
