G04 #@! TF.GenerationSoftware,KiCad,Pcbnew,7.0.10*
G04 #@! TF.CreationDate,2024-02-05T15:41:23+01:00*
G04 #@! TF.ProjectId,KNX_EnvironmentSensor,4b4e585f-456e-4766-9972-6f6e6d656e74,rev?*
G04 #@! TF.SameCoordinates,Original*
G04 #@! TF.FileFunction,Legend,Bot*
G04 #@! TF.FilePolarity,Positive*
%FSLAX46Y46*%
G04 Gerber Fmt 4.6, Leading zero omitted, Abs format (unit mm)*
G04 Created by KiCad (PCBNEW 7.0.10) date 2024-02-05 15:41:23*
%MOMM*%
%LPD*%
G01*
G04 APERTURE LIST*
G04 Aperture macros list*
%AMRoundRect*
0 Rectangle with rounded corners*
0 $1 Rounding radius*
0 $2 $3 $4 $5 $6 $7 $8 $9 X,Y pos of 4 corners*
0 Add a 4 corners polygon primitive as box body*
4,1,4,$2,$3,$4,$5,$6,$7,$8,$9,$2,$3,0*
0 Add four circle primitives for the rounded corners*
1,1,$1+$1,$2,$3*
1,1,$1+$1,$4,$5*
1,1,$1+$1,$6,$7*
1,1,$1+$1,$8,$9*
0 Add four rect primitives between the rounded corners*
20,1,$1+$1,$2,$3,$4,$5,0*
20,1,$1+$1,$4,$5,$6,$7,0*
20,1,$1+$1,$6,$7,$8,$9,0*
20,1,$1+$1,$8,$9,$2,$3,0*%
G04 Aperture macros list end*
%ADD10C,0.150000*%
%ADD11C,0.125000*%
%ADD12C,0.120000*%
%ADD13RoundRect,0.250000X1.550000X-0.750000X1.550000X0.750000X-1.550000X0.750000X-1.550000X-0.750000X0*%
%ADD14O,3.600000X2.000000*%
%ADD15RoundRect,0.250000X-0.400000X-0.625000X0.400000X-0.625000X0.400000X0.625000X-0.400000X0.625000X0*%
%ADD16R,1.800000X1.800000*%
%ADD17C,1.800000*%
%ADD18R,1.700000X1.700000*%
%ADD19C,1.700000*%
%ADD20C,2.500000*%
%ADD21O,1.700000X1.700000*%
%ADD22RoundRect,0.250000X-0.650000X0.412500X-0.650000X-0.412500X0.650000X-0.412500X0.650000X0.412500X0*%
G04 APERTURE END LIST*
D10*
X52309439Y-97373486D02*
X52309336Y-97183009D01*
X52309336Y-97183009D02*
X52261665Y-97087797D01*
X52261665Y-97087797D02*
X52214021Y-97040204D01*
X52214021Y-97040204D02*
X52071112Y-96945043D01*
X52071112Y-96945043D02*
X51880610Y-96897526D01*
X51880610Y-96897526D02*
X51499658Y-96897732D01*
X51499658Y-96897732D02*
X51404446Y-96945402D01*
X51404446Y-96945402D02*
X51356852Y-96993047D01*
X51356852Y-96993047D02*
X51309285Y-97088311D01*
X51309285Y-97088311D02*
X51309387Y-97278787D01*
X51309387Y-97278787D02*
X51357058Y-97374000D01*
X51357058Y-97374000D02*
X51404703Y-97421593D01*
X51404703Y-97421593D02*
X51499966Y-97469161D01*
X51499966Y-97469161D02*
X51738062Y-97469032D01*
X51738062Y-97469032D02*
X51833274Y-97421362D01*
X51833274Y-97421362D02*
X51880867Y-97373717D01*
X51880867Y-97373717D02*
X51928435Y-97278453D01*
X51928435Y-97278453D02*
X51928332Y-97087977D01*
X51928332Y-97087977D02*
X51880662Y-96992765D01*
X51880662Y-96992765D02*
X51833017Y-96945171D01*
X51833017Y-96945171D02*
X51737753Y-96897604D01*
X52309978Y-98373485D02*
X52309721Y-97897295D01*
X52309721Y-97897295D02*
X51833505Y-97849933D01*
X51833505Y-97849933D02*
X51881150Y-97897526D01*
X51881150Y-97897526D02*
X51928820Y-97992739D01*
X51928820Y-97992739D02*
X51928949Y-98230834D01*
X51928949Y-98230834D02*
X51881381Y-98326098D01*
X51881381Y-98326098D02*
X51833788Y-98373742D01*
X51833788Y-98373742D02*
X51738575Y-98421413D01*
X51738575Y-98421413D02*
X51500480Y-98421541D01*
X51500480Y-98421541D02*
X51405217Y-98373974D01*
X51405217Y-98373974D02*
X51357572Y-98326380D01*
X51357572Y-98326380D02*
X51309901Y-98231168D01*
X51309901Y-98231168D02*
X51309773Y-97993073D01*
X51309773Y-97993073D02*
X51357340Y-97897809D01*
X51357340Y-97897809D02*
X51404934Y-97850164D01*
X51405473Y-98850164D02*
X51357880Y-98897809D01*
X51357880Y-98897809D02*
X51310235Y-98850216D01*
X51310235Y-98850216D02*
X51357829Y-98802571D01*
X51357829Y-98802571D02*
X51405473Y-98850164D01*
X51405473Y-98850164D02*
X51310235Y-98850216D01*
X52310441Y-99230628D02*
X52310775Y-99849675D01*
X52310775Y-99849675D02*
X51929643Y-99516548D01*
X51929643Y-99516548D02*
X51929720Y-99659405D01*
X51929720Y-99659405D02*
X51882152Y-99754668D01*
X51882152Y-99754668D02*
X51834559Y-99802313D01*
X51834559Y-99802313D02*
X51739346Y-99849984D01*
X51739346Y-99849984D02*
X51501251Y-99850112D01*
X51501251Y-99850112D02*
X51405987Y-99802545D01*
X51405987Y-99802545D02*
X51358343Y-99754951D01*
X51358343Y-99754951D02*
X51310672Y-99659739D01*
X51310672Y-99659739D02*
X51310518Y-99374025D01*
X51310518Y-99374025D02*
X51358086Y-99278761D01*
X51358086Y-99278761D02*
X51405679Y-99231116D01*
X52215742Y-100230679D02*
X52263387Y-100278272D01*
X52263387Y-100278272D02*
X52311058Y-100373485D01*
X52311058Y-100373485D02*
X52311186Y-100611580D01*
X52311186Y-100611580D02*
X52263618Y-100706844D01*
X52263618Y-100706844D02*
X52216025Y-100754489D01*
X52216025Y-100754489D02*
X52120813Y-100802159D01*
X52120813Y-100802159D02*
X52025575Y-100802210D01*
X52025575Y-100802210D02*
X51882692Y-100754668D01*
X51882692Y-100754668D02*
X51310955Y-100183548D01*
X51310955Y-100183548D02*
X51311289Y-100802596D01*
X52216256Y-101183060D02*
X52263901Y-101230653D01*
X52263901Y-101230653D02*
X52311572Y-101325866D01*
X52311572Y-101325866D02*
X52311700Y-101563961D01*
X52311700Y-101563961D02*
X52264132Y-101659225D01*
X52264132Y-101659225D02*
X52216539Y-101706869D01*
X52216539Y-101706869D02*
X52121327Y-101754540D01*
X52121327Y-101754540D02*
X52026089Y-101754591D01*
X52026089Y-101754591D02*
X51883206Y-101707049D01*
X51883206Y-101707049D02*
X51311469Y-101135929D01*
X51311469Y-101135929D02*
X51311803Y-101754977D01*
X52312137Y-102373485D02*
X52312188Y-102468723D01*
X52312188Y-102468723D02*
X52264621Y-102563986D01*
X52264621Y-102563986D02*
X52217027Y-102611631D01*
X52217027Y-102611631D02*
X52121815Y-102659302D01*
X52121815Y-102659302D02*
X51931365Y-102707023D01*
X51931365Y-102707023D02*
X51693269Y-102707152D01*
X51693269Y-102707152D02*
X51502767Y-102659636D01*
X51502767Y-102659636D02*
X51407504Y-102612068D01*
X51407504Y-102612068D02*
X51359859Y-102564475D01*
X51359859Y-102564475D02*
X51312188Y-102469262D01*
X51312188Y-102469262D02*
X51312137Y-102374024D01*
X51312137Y-102374024D02*
X51359705Y-102278760D01*
X51359705Y-102278760D02*
X51407298Y-102231116D01*
X51407298Y-102231116D02*
X51502510Y-102183445D01*
X51502510Y-102183445D02*
X51692961Y-102135723D01*
X51692961Y-102135723D02*
X51931056Y-102135595D01*
X51931056Y-102135595D02*
X52121558Y-102183111D01*
X52121558Y-102183111D02*
X52216822Y-102230679D01*
X52216822Y-102230679D02*
X52264467Y-102278272D01*
X52264467Y-102278272D02*
X52312137Y-102373485D01*
X51312959Y-103897834D02*
X51979626Y-103897474D01*
X51884388Y-103897525D02*
X51932033Y-103945119D01*
X51932033Y-103945119D02*
X51979703Y-104040331D01*
X51979703Y-104040331D02*
X51979780Y-104183188D01*
X51979780Y-104183188D02*
X51932213Y-104278452D01*
X51932213Y-104278452D02*
X51837000Y-104326123D01*
X51837000Y-104326123D02*
X51313191Y-104326405D01*
X51837000Y-104326123D02*
X51932264Y-104373690D01*
X51932264Y-104373690D02*
X51979934Y-104468903D01*
X51979934Y-104468903D02*
X51980011Y-104611760D01*
X51980011Y-104611760D02*
X51932444Y-104707023D01*
X51932444Y-104707023D02*
X51837231Y-104754694D01*
X51837231Y-104754694D02*
X51313422Y-104754977D01*
X51313679Y-105231167D02*
X51980346Y-105230807D01*
X51885107Y-105230858D02*
X51932752Y-105278452D01*
X51932752Y-105278452D02*
X51980423Y-105373664D01*
X51980423Y-105373664D02*
X51980500Y-105516521D01*
X51980500Y-105516521D02*
X51932932Y-105611785D01*
X51932932Y-105611785D02*
X51837720Y-105659455D01*
X51837720Y-105659455D02*
X51313910Y-105659738D01*
X51837720Y-105659455D02*
X51932984Y-105707023D01*
X51932984Y-105707023D02*
X51980654Y-105802235D01*
X51980654Y-105802235D02*
X51980731Y-105945092D01*
X51980731Y-105945092D02*
X51933163Y-106040356D01*
X51933163Y-106040356D02*
X51837951Y-106088027D01*
X51837951Y-106088027D02*
X51314142Y-106088309D01*
X61507667Y-68850388D02*
X50012448Y-68856591D01*
X61542918Y-134172352D02*
X50047699Y-134178555D01*
X50598868Y-68856275D02*
X50634119Y-134178239D01*
X50598868Y-68856275D02*
X50634119Y-134178239D01*
X50598868Y-68856275D02*
X51185897Y-69982462D01*
X50598868Y-68856275D02*
X50013055Y-69983095D01*
X50634119Y-134178239D02*
X50047090Y-133052052D01*
X50634119Y-134178239D02*
X51219932Y-133051419D01*
X96368467Y-52061019D02*
X96177990Y-52061093D01*
X96177990Y-52061093D02*
X96082771Y-52108749D01*
X96082771Y-52108749D02*
X96035170Y-52156387D01*
X96035170Y-52156387D02*
X95939988Y-52299281D01*
X95939988Y-52299281D02*
X95892443Y-52489776D01*
X95892443Y-52489776D02*
X95892591Y-52870728D01*
X95892591Y-52870728D02*
X95940247Y-52965948D01*
X95940247Y-52965948D02*
X95987884Y-53013548D01*
X95987884Y-53013548D02*
X96083141Y-53061130D01*
X96083141Y-53061130D02*
X96273617Y-53061056D01*
X96273617Y-53061056D02*
X96368837Y-53013400D01*
X96368837Y-53013400D02*
X96416437Y-52965763D01*
X96416437Y-52965763D02*
X96464019Y-52870506D01*
X96464019Y-52870506D02*
X96463927Y-52632411D01*
X96463927Y-52632411D02*
X96416271Y-52537191D01*
X96416271Y-52537191D02*
X96368633Y-52489591D01*
X96368633Y-52489591D02*
X96273377Y-52442009D01*
X96273377Y-52442009D02*
X96082900Y-52442083D01*
X96082900Y-52442083D02*
X95987681Y-52489739D01*
X95987681Y-52489739D02*
X95940080Y-52537376D01*
X95940080Y-52537376D02*
X95892498Y-52632633D01*
X97368466Y-52060630D02*
X96892276Y-52060816D01*
X96892276Y-52060816D02*
X96844842Y-52537025D01*
X96844842Y-52537025D02*
X96892443Y-52489387D01*
X96892443Y-52489387D02*
X96987662Y-52441731D01*
X96987662Y-52441731D02*
X97225757Y-52441638D01*
X97225757Y-52441638D02*
X97321014Y-52489220D01*
X97321014Y-52489220D02*
X97368652Y-52536821D01*
X97368652Y-52536821D02*
X97416308Y-52632040D01*
X97416308Y-52632040D02*
X97416400Y-52870136D01*
X97416400Y-52870136D02*
X97368818Y-52965392D01*
X97368818Y-52965392D02*
X97321218Y-53013030D01*
X97321218Y-53013030D02*
X97225998Y-53060686D01*
X97225998Y-53060686D02*
X96987903Y-53060779D01*
X96987903Y-53060779D02*
X96892646Y-53013196D01*
X96892646Y-53013196D02*
X96845009Y-52965596D01*
X97845009Y-52965207D02*
X97892646Y-53012808D01*
X97892646Y-53012808D02*
X97845046Y-53060445D01*
X97845046Y-53060445D02*
X97797408Y-53012845D01*
X97797408Y-53012845D02*
X97845009Y-52965207D01*
X97845009Y-52965207D02*
X97845046Y-53060445D01*
X98225609Y-52060297D02*
X98844656Y-52060057D01*
X98844656Y-52060057D02*
X98511471Y-52441139D01*
X98511471Y-52441139D02*
X98654328Y-52441083D01*
X98654328Y-52441083D02*
X98749585Y-52488665D01*
X98749585Y-52488665D02*
X98797223Y-52536266D01*
X98797223Y-52536266D02*
X98844879Y-52631485D01*
X98844879Y-52631485D02*
X98844971Y-52869580D01*
X98844971Y-52869580D02*
X98797389Y-52964837D01*
X98797389Y-52964837D02*
X98749789Y-53012474D01*
X98749789Y-53012474D02*
X98654569Y-53060131D01*
X98654569Y-53060131D02*
X98368855Y-53060242D01*
X98368855Y-53060242D02*
X98273598Y-53012660D01*
X98273598Y-53012660D02*
X98225961Y-52965059D01*
X99177990Y-52059927D02*
X99797037Y-52059686D01*
X99797037Y-52059686D02*
X99463852Y-52440768D01*
X99463852Y-52440768D02*
X99606709Y-52440713D01*
X99606709Y-52440713D02*
X99701966Y-52488295D01*
X99701966Y-52488295D02*
X99749603Y-52535895D01*
X99749603Y-52535895D02*
X99797260Y-52631115D01*
X99797260Y-52631115D02*
X99797352Y-52869210D01*
X99797352Y-52869210D02*
X99749770Y-52964467D01*
X99749770Y-52964467D02*
X99702170Y-53012104D01*
X99702170Y-53012104D02*
X99606950Y-53059760D01*
X99606950Y-53059760D02*
X99321236Y-53059871D01*
X99321236Y-53059871D02*
X99225979Y-53012289D01*
X99225979Y-53012289D02*
X99178342Y-52964689D01*
X100749807Y-53059316D02*
X100178379Y-53059538D01*
X100464093Y-53059427D02*
X100463704Y-52059427D01*
X100463704Y-52059427D02*
X100368521Y-52202321D01*
X100368521Y-52202321D02*
X100273320Y-52297596D01*
X100273320Y-52297596D02*
X100178101Y-52345252D01*
X101321013Y-52487665D02*
X101225757Y-52440083D01*
X101225757Y-52440083D02*
X101178119Y-52392483D01*
X101178119Y-52392483D02*
X101130463Y-52297263D01*
X101130463Y-52297263D02*
X101130445Y-52249644D01*
X101130445Y-52249644D02*
X101178027Y-52154387D01*
X101178027Y-52154387D02*
X101225627Y-52106750D01*
X101225627Y-52106750D02*
X101320847Y-52059094D01*
X101320847Y-52059094D02*
X101511323Y-52059020D01*
X101511323Y-52059020D02*
X101606580Y-52106602D01*
X101606580Y-52106602D02*
X101654217Y-52154202D01*
X101654217Y-52154202D02*
X101701873Y-52249422D01*
X101701873Y-52249422D02*
X101701892Y-52297041D01*
X101701892Y-52297041D02*
X101654310Y-52392298D01*
X101654310Y-52392298D02*
X101606709Y-52439935D01*
X101606709Y-52439935D02*
X101511490Y-52487591D01*
X101511490Y-52487591D02*
X101321013Y-52487665D01*
X101321013Y-52487665D02*
X101225794Y-52535321D01*
X101225794Y-52535321D02*
X101178193Y-52582959D01*
X101178193Y-52582959D02*
X101130611Y-52678215D01*
X101130611Y-52678215D02*
X101130685Y-52868692D01*
X101130685Y-52868692D02*
X101178341Y-52963911D01*
X101178341Y-52963911D02*
X101225979Y-53011512D01*
X101225979Y-53011512D02*
X101321236Y-53059094D01*
X101321236Y-53059094D02*
X101511712Y-53059020D01*
X101511712Y-53059020D02*
X101606931Y-53011364D01*
X101606931Y-53011364D02*
X101654532Y-52963726D01*
X101654532Y-52963726D02*
X101702114Y-52868469D01*
X101702114Y-52868469D02*
X101702040Y-52677993D01*
X101702040Y-52677993D02*
X101654384Y-52582774D01*
X101654384Y-52582774D02*
X101606746Y-52535173D01*
X101606746Y-52535173D02*
X101511490Y-52487591D01*
X102892664Y-53058483D02*
X102892405Y-52391816D01*
X102892442Y-52487054D02*
X102940043Y-52439417D01*
X102940043Y-52439417D02*
X103035262Y-52391761D01*
X103035262Y-52391761D02*
X103178119Y-52391705D01*
X103178119Y-52391705D02*
X103273376Y-52439287D01*
X103273376Y-52439287D02*
X103321032Y-52534507D01*
X103321032Y-52534507D02*
X103321236Y-53058316D01*
X103321032Y-52534507D02*
X103368614Y-52439250D01*
X103368614Y-52439250D02*
X103463834Y-52391594D01*
X103463834Y-52391594D02*
X103606691Y-52391539D01*
X103606691Y-52391539D02*
X103701947Y-52439121D01*
X103701947Y-52439121D02*
X103749604Y-52534340D01*
X103749604Y-52534340D02*
X103749807Y-53058150D01*
X104225997Y-53057964D02*
X104225738Y-52391298D01*
X104225775Y-52486536D02*
X104273376Y-52438898D01*
X104273376Y-52438898D02*
X104368595Y-52391242D01*
X104368595Y-52391242D02*
X104511452Y-52391187D01*
X104511452Y-52391187D02*
X104606709Y-52438769D01*
X104606709Y-52438769D02*
X104654365Y-52533988D01*
X104654365Y-52533988D02*
X104654569Y-53057798D01*
X104654365Y-52533988D02*
X104701947Y-52438732D01*
X104701947Y-52438732D02*
X104797167Y-52391076D01*
X104797167Y-52391076D02*
X104940024Y-52391020D01*
X104940024Y-52391020D02*
X105035280Y-52438602D01*
X105035280Y-52438602D02*
X105082936Y-52533822D01*
X105082936Y-52533822D02*
X105083140Y-53057631D01*
X67849473Y-62508118D02*
X67845847Y-53180870D01*
X133181288Y-62482718D02*
X133177662Y-53155470D01*
X67846074Y-53767290D02*
X133177889Y-53741890D01*
X67846074Y-53767290D02*
X133177889Y-53741890D01*
X67846074Y-53767290D02*
X68972350Y-53180431D01*
X67846074Y-53767290D02*
X68972806Y-54353273D01*
X133177889Y-53741890D02*
X132051613Y-54328749D01*
X133177889Y-53741890D02*
X132051157Y-53155907D01*
D11*
X121874932Y-127815795D02*
X122141599Y-127434842D01*
X122332075Y-127815795D02*
X122332075Y-127015795D01*
X122332075Y-127015795D02*
X122027313Y-127015795D01*
X122027313Y-127015795D02*
X121951123Y-127053890D01*
X121951123Y-127053890D02*
X121913028Y-127091985D01*
X121913028Y-127091985D02*
X121874932Y-127168176D01*
X121874932Y-127168176D02*
X121874932Y-127282461D01*
X121874932Y-127282461D02*
X121913028Y-127358652D01*
X121913028Y-127358652D02*
X121951123Y-127396747D01*
X121951123Y-127396747D02*
X122027313Y-127434842D01*
X122027313Y-127434842D02*
X122332075Y-127434842D01*
X121608266Y-127015795D02*
X121074932Y-127015795D01*
X121074932Y-127015795D02*
X121417790Y-127815795D01*
X121874932Y-107800595D02*
X122141599Y-107419642D01*
X122332075Y-107800595D02*
X122332075Y-107000595D01*
X122332075Y-107000595D02*
X122027313Y-107000595D01*
X122027313Y-107000595D02*
X121951123Y-107038690D01*
X121951123Y-107038690D02*
X121913028Y-107076785D01*
X121913028Y-107076785D02*
X121874932Y-107152976D01*
X121874932Y-107152976D02*
X121874932Y-107267261D01*
X121874932Y-107267261D02*
X121913028Y-107343452D01*
X121913028Y-107343452D02*
X121951123Y-107381547D01*
X121951123Y-107381547D02*
X122027313Y-107419642D01*
X122027313Y-107419642D02*
X122332075Y-107419642D01*
X121570171Y-107076785D02*
X121532075Y-107038690D01*
X121532075Y-107038690D02*
X121455885Y-107000595D01*
X121455885Y-107000595D02*
X121265409Y-107000595D01*
X121265409Y-107000595D02*
X121189218Y-107038690D01*
X121189218Y-107038690D02*
X121151123Y-107076785D01*
X121151123Y-107076785D02*
X121113028Y-107152976D01*
X121113028Y-107152976D02*
X121113028Y-107229166D01*
X121113028Y-107229166D02*
X121151123Y-107343452D01*
X121151123Y-107343452D02*
X121608266Y-107800595D01*
X121608266Y-107800595D02*
X121113028Y-107800595D01*
D10*
X73972980Y-124762833D02*
X74020600Y-124715214D01*
X74020600Y-124715214D02*
X74068219Y-124572357D01*
X74068219Y-124572357D02*
X74068219Y-124477119D01*
X74068219Y-124477119D02*
X74020600Y-124334262D01*
X74020600Y-124334262D02*
X73925361Y-124239024D01*
X73925361Y-124239024D02*
X73830123Y-124191405D01*
X73830123Y-124191405D02*
X73639647Y-124143786D01*
X73639647Y-124143786D02*
X73496790Y-124143786D01*
X73496790Y-124143786D02*
X73306314Y-124191405D01*
X73306314Y-124191405D02*
X73211076Y-124239024D01*
X73211076Y-124239024D02*
X73115838Y-124334262D01*
X73115838Y-124334262D02*
X73068219Y-124477119D01*
X73068219Y-124477119D02*
X73068219Y-124572357D01*
X73068219Y-124572357D02*
X73115838Y-124715214D01*
X73115838Y-124715214D02*
X73163457Y-124762833D01*
X74068219Y-125715214D02*
X74068219Y-125143786D01*
X74068219Y-125429500D02*
X73068219Y-125429500D01*
X73068219Y-125429500D02*
X73211076Y-125334262D01*
X73211076Y-125334262D02*
X73306314Y-125239024D01*
X73306314Y-125239024D02*
X73353933Y-125143786D01*
D12*
X121014536Y-124722200D02*
X122468664Y-124722200D01*
X121014536Y-126542200D02*
X122468664Y-126542200D01*
X120938936Y-114689200D02*
X122393064Y-114689200D01*
X120938936Y-116509200D02*
X122393064Y-116509200D01*
X121014536Y-104707000D02*
X122468664Y-104707000D01*
X121014536Y-106527000D02*
X122468664Y-106527000D01*
X76373400Y-124218248D02*
X76373400Y-125640752D01*
X74553400Y-124218248D02*
X74553400Y-125640752D01*
%LPC*%
D13*
X130733800Y-125620800D03*
D14*
X130733800Y-120620800D03*
X130733800Y-115620800D03*
X130733800Y-110620800D03*
X130733800Y-105620800D03*
X130733800Y-100620800D03*
D15*
X123291600Y-125632200D03*
X120191600Y-125632200D03*
X123216000Y-115599200D03*
X120116000Y-115599200D03*
X123291600Y-105617000D03*
X120191600Y-105617000D03*
D16*
X132384800Y-87553800D03*
D17*
X132384800Y-85013800D03*
D18*
X72585723Y-86832275D03*
D19*
X72585723Y-84292275D03*
X72585723Y-81752275D03*
X72585723Y-79212275D03*
X72585723Y-76672275D03*
X72585723Y-74132275D03*
X72585723Y-71592275D03*
D20*
X74568000Y-95494000D03*
X74568000Y-101244000D03*
D18*
X79298800Y-130987800D03*
D21*
X79298800Y-128447800D03*
X79298800Y-125907800D03*
X79298800Y-123367800D03*
D20*
X74568000Y-111725000D03*
X74568000Y-117475000D03*
D22*
X75463400Y-123367000D03*
X75463400Y-126492000D03*
%LPD*%
M02*
