%TF.GenerationSoftware,KiCad,Pcbnew,7.0.10*%
%TF.CreationDate,2024-02-05T15:41:40+01:00*%
%TF.ProjectId,KNX_EnvironmentSensor,4b4e585f-456e-4766-9972-6f6e6d656e74,rev?*%
%TF.SameCoordinates,Original*%
%TF.FileFunction,Drillmap*%
%TF.FilePolarity,Positive*%
%FSLAX45Y45*%
G04 Gerber Fmt 4.5, Leading zero omitted, Abs format (unit mm)*
G04 Created by KiCad (PCBNEW 7.0.10) date 2024-02-05 15:41:40*
%MOMM*%
%LPD*%
G01*
G04 APERTURE LIST*
%ADD10C,0.100000*%
%ADD11C,0.200000*%
%ADD12C,0.110000*%
%ADD13C,0.140000*%
G04 APERTURE END LIST*
D10*
X12477348Y-13601408D02*
G75*
G03*
X12127348Y-13601408I-175000J0D01*
G01*
X12127348Y-13601408D02*
G75*
G03*
X12477348Y-13601408I175000J0D01*
G01*
X7975767Y-13601408D02*
G75*
G03*
X7625767Y-13601408I-175000J0D01*
G01*
X7625767Y-13601408D02*
G75*
G03*
X7975767Y-13601408I175000J0D01*
G01*
X13902348Y-6882472D02*
X13902348Y-13417208D01*
X12477348Y-6700812D02*
G75*
G03*
X12127348Y-6700812I-175000J0D01*
G01*
X12127348Y-6700812D02*
G75*
G03*
X12477348Y-6700812I175000J0D01*
G01*
X6204292Y-13417208D02*
X6200767Y-6885012D01*
X6204292Y-13417208D02*
G75*
G03*
X6788492Y-14001408I584198J-2D01*
G01*
X13902348Y-6882472D02*
G75*
G03*
X13318148Y-6298272I-584198J2D01*
G01*
X6784967Y-6300812D02*
G75*
G03*
X6200767Y-6885012I0J-584200D01*
G01*
X13318148Y-14001408D02*
X6788492Y-14001408D01*
X7975767Y-6700812D02*
G75*
G03*
X7625767Y-6700812I-175000J0D01*
G01*
X7625767Y-6700812D02*
G75*
G03*
X7975767Y-6700812I175000J0D01*
G01*
D11*
X11050000Y-10150000D02*
G75*
G03*
X9050000Y-10150000I-1000000J0D01*
G01*
X9050000Y-10150000D02*
G75*
G03*
X11050000Y-10150000I1000000J0D01*
G01*
D10*
X13318148Y-14001408D02*
G75*
G03*
X13902348Y-13417208I2J584198D01*
G01*
X6784967Y-6300812D02*
X13318148Y-6298272D01*
X6431280Y-6306820D02*
G75*
G03*
X6431280Y-6306820I0J0D01*
G01*
X6431280Y-6306820D02*
G75*
G03*
X6431280Y-6306820I0J0D01*
G01*
D11*
D10*
X10301440Y-8245160D02*
X10341440Y-8285160D01*
X10341440Y-8245160D02*
X10301440Y-8285160D01*
X11018840Y-7099620D02*
X11058840Y-7139620D01*
X11058840Y-7099620D02*
X11018840Y-7139620D01*
X11307280Y-8250240D02*
X11347280Y-8290240D01*
X11347280Y-8250240D02*
X11307280Y-8290240D01*
X12301540Y-10285160D02*
X12341540Y-10325160D01*
X12341540Y-10285160D02*
X12301540Y-10325160D01*
X12309160Y-11252900D02*
X12349160Y-11292900D01*
X12349160Y-11252900D02*
X12309160Y-11292900D01*
X12319320Y-12271440D02*
X12359320Y-12311440D01*
X12359320Y-12271440D02*
X12319320Y-12311440D01*
X13283480Y-8501380D02*
G75*
G03*
X13193480Y-8501380I-45000J0D01*
G01*
X13193480Y-8501380D02*
G75*
G03*
X13283480Y-8501380I45000J0D01*
G01*
X13283480Y-8755380D02*
G75*
G03*
X13193480Y-8755380I-45000J0D01*
G01*
X13193480Y-8755380D02*
G75*
G03*
X13283480Y-8755380I45000J0D01*
G01*
X7258572Y-7109227D02*
X7258572Y-7209227D01*
X7208572Y-7159227D02*
X7308572Y-7159227D01*
X7258572Y-7363227D02*
X7258572Y-7463227D01*
X7208572Y-7413227D02*
X7308572Y-7413227D01*
X7258572Y-7617227D02*
X7258572Y-7717227D01*
X7208572Y-7667227D02*
X7308572Y-7667227D01*
X7258572Y-7871227D02*
X7258572Y-7971227D01*
X7208572Y-7921227D02*
X7308572Y-7921227D01*
X7258572Y-8125227D02*
X7258572Y-8225227D01*
X7208572Y-8175227D02*
X7308572Y-8175227D01*
X7258572Y-8379227D02*
X7258572Y-8479228D01*
X7208572Y-8429228D02*
X7308572Y-8429228D01*
X7258572Y-8633228D02*
X7258572Y-8733228D01*
X7208572Y-8683228D02*
X7308572Y-8683228D01*
X7929880Y-12286780D02*
X7929880Y-12386780D01*
X7879880Y-12336780D02*
X7979880Y-12336780D01*
X7929880Y-12540780D02*
X7929880Y-12640780D01*
X7879880Y-12590780D02*
X7979880Y-12590780D01*
X7929880Y-12794780D02*
X7929880Y-12894780D01*
X7879880Y-12844780D02*
X7979880Y-12844780D01*
X7929880Y-13048780D02*
X7929880Y-13148780D01*
X7879880Y-13098780D02*
X7979880Y-13098780D01*
D12*
X7495691Y-9588291D02*
X7495691Y-9510509D01*
X7417909Y-9510509D01*
X7417909Y-9588291D01*
X7495691Y-9588291D01*
X7495691Y-10163291D02*
X7495691Y-10085509D01*
X7417909Y-10085509D01*
X7417909Y-10163291D01*
X7495691Y-10163291D01*
X7495691Y-11211391D02*
X7495691Y-11133609D01*
X7417909Y-11133609D01*
X7417909Y-11211391D01*
X7495691Y-11211391D01*
X7495691Y-11786391D02*
X7495691Y-11708609D01*
X7417909Y-11708609D01*
X7417909Y-11786391D01*
X7495691Y-11786391D01*
D13*
X13073380Y-10132080D02*
X13143380Y-10062080D01*
X13073380Y-9992080D01*
X13003380Y-10062080D01*
X13073380Y-10132080D01*
X13073380Y-10632080D02*
X13143380Y-10562080D01*
X13073380Y-10492080D01*
X13003380Y-10562080D01*
X13073380Y-10632080D01*
X13073380Y-11132080D02*
X13143380Y-11062080D01*
X13073380Y-10992080D01*
X13003380Y-11062080D01*
X13073380Y-11132080D01*
X13073380Y-11632080D02*
X13143380Y-11562080D01*
X13073380Y-11492080D01*
X13003380Y-11562080D01*
X13073380Y-11632080D01*
X13073380Y-12132080D02*
X13143380Y-12062080D01*
X13073380Y-11992080D01*
X13003380Y-12062080D01*
X13073380Y-12132080D01*
X13073380Y-12632080D02*
X13143380Y-12562080D01*
X13073380Y-12492080D01*
X13003380Y-12562080D01*
X13073380Y-12632080D01*
D11*
X6456543Y-14317892D02*
X6456543Y-14117892D01*
X6456543Y-14117892D02*
X6504162Y-14117892D01*
X6504162Y-14117892D02*
X6532734Y-14127416D01*
X6532734Y-14127416D02*
X6551782Y-14146463D01*
X6551782Y-14146463D02*
X6561305Y-14165511D01*
X6561305Y-14165511D02*
X6570829Y-14203606D01*
X6570829Y-14203606D02*
X6570829Y-14232178D01*
X6570829Y-14232178D02*
X6561305Y-14270273D01*
X6561305Y-14270273D02*
X6551782Y-14289320D01*
X6551782Y-14289320D02*
X6532734Y-14308368D01*
X6532734Y-14308368D02*
X6504162Y-14317892D01*
X6504162Y-14317892D02*
X6456543Y-14317892D01*
X6656543Y-14317892D02*
X6656543Y-14184559D01*
X6656543Y-14222654D02*
X6666067Y-14203606D01*
X6666067Y-14203606D02*
X6675591Y-14194082D01*
X6675591Y-14194082D02*
X6694639Y-14184559D01*
X6694639Y-14184559D02*
X6713686Y-14184559D01*
X6780353Y-14317892D02*
X6780353Y-14184559D01*
X6780353Y-14117892D02*
X6770829Y-14127416D01*
X6770829Y-14127416D02*
X6780353Y-14136940D01*
X6780353Y-14136940D02*
X6789877Y-14127416D01*
X6789877Y-14127416D02*
X6780353Y-14117892D01*
X6780353Y-14117892D02*
X6780353Y-14136940D01*
X6904162Y-14317892D02*
X6885115Y-14308368D01*
X6885115Y-14308368D02*
X6875591Y-14289320D01*
X6875591Y-14289320D02*
X6875591Y-14117892D01*
X7008924Y-14317892D02*
X6989877Y-14308368D01*
X6989877Y-14308368D02*
X6980353Y-14289320D01*
X6980353Y-14289320D02*
X6980353Y-14117892D01*
X7237496Y-14317892D02*
X7237496Y-14117892D01*
X7237496Y-14117892D02*
X7304163Y-14260749D01*
X7304163Y-14260749D02*
X7370829Y-14117892D01*
X7370829Y-14117892D02*
X7370829Y-14317892D01*
X7551782Y-14317892D02*
X7551782Y-14213130D01*
X7551782Y-14213130D02*
X7542258Y-14194082D01*
X7542258Y-14194082D02*
X7523210Y-14184559D01*
X7523210Y-14184559D02*
X7485115Y-14184559D01*
X7485115Y-14184559D02*
X7466067Y-14194082D01*
X7551782Y-14308368D02*
X7532734Y-14317892D01*
X7532734Y-14317892D02*
X7485115Y-14317892D01*
X7485115Y-14317892D02*
X7466067Y-14308368D01*
X7466067Y-14308368D02*
X7456543Y-14289320D01*
X7456543Y-14289320D02*
X7456543Y-14270273D01*
X7456543Y-14270273D02*
X7466067Y-14251225D01*
X7466067Y-14251225D02*
X7485115Y-14241701D01*
X7485115Y-14241701D02*
X7532734Y-14241701D01*
X7532734Y-14241701D02*
X7551782Y-14232178D01*
X7647020Y-14184559D02*
X7647020Y-14384559D01*
X7647020Y-14194082D02*
X7666067Y-14184559D01*
X7666067Y-14184559D02*
X7704163Y-14184559D01*
X7704163Y-14184559D02*
X7723210Y-14194082D01*
X7723210Y-14194082D02*
X7732734Y-14203606D01*
X7732734Y-14203606D02*
X7742258Y-14222654D01*
X7742258Y-14222654D02*
X7742258Y-14279797D01*
X7742258Y-14279797D02*
X7732734Y-14298844D01*
X7732734Y-14298844D02*
X7723210Y-14308368D01*
X7723210Y-14308368D02*
X7704163Y-14317892D01*
X7704163Y-14317892D02*
X7666067Y-14317892D01*
X7666067Y-14317892D02*
X7647020Y-14308368D01*
X7827972Y-14298844D02*
X7837496Y-14308368D01*
X7837496Y-14308368D02*
X7827972Y-14317892D01*
X7827972Y-14317892D02*
X7818448Y-14308368D01*
X7818448Y-14308368D02*
X7827972Y-14298844D01*
X7827972Y-14298844D02*
X7827972Y-14317892D01*
X7827972Y-14194082D02*
X7837496Y-14203606D01*
X7837496Y-14203606D02*
X7827972Y-14213130D01*
X7827972Y-14213130D02*
X7818448Y-14203606D01*
X7818448Y-14203606D02*
X7827972Y-14194082D01*
X7827972Y-14194082D02*
X7827972Y-14213130D01*
D10*
X6155767Y-14626408D02*
X6195767Y-14666408D01*
X6195767Y-14626408D02*
X6155767Y-14666408D01*
D11*
X6494639Y-14537892D02*
X6513686Y-14537892D01*
X6513686Y-14537892D02*
X6532734Y-14547416D01*
X6532734Y-14547416D02*
X6542258Y-14556940D01*
X6542258Y-14556940D02*
X6551782Y-14575987D01*
X6551782Y-14575987D02*
X6561305Y-14614082D01*
X6561305Y-14614082D02*
X6561305Y-14661701D01*
X6561305Y-14661701D02*
X6551782Y-14699797D01*
X6551782Y-14699797D02*
X6542258Y-14718844D01*
X6542258Y-14718844D02*
X6532734Y-14728368D01*
X6532734Y-14728368D02*
X6513686Y-14737892D01*
X6513686Y-14737892D02*
X6494639Y-14737892D01*
X6494639Y-14737892D02*
X6475591Y-14728368D01*
X6475591Y-14728368D02*
X6466067Y-14718844D01*
X6466067Y-14718844D02*
X6456543Y-14699797D01*
X6456543Y-14699797D02*
X6447020Y-14661701D01*
X6447020Y-14661701D02*
X6447020Y-14614082D01*
X6447020Y-14614082D02*
X6456543Y-14575987D01*
X6456543Y-14575987D02*
X6466067Y-14556940D01*
X6466067Y-14556940D02*
X6475591Y-14547416D01*
X6475591Y-14547416D02*
X6494639Y-14537892D01*
X6647020Y-14718844D02*
X6656543Y-14728368D01*
X6656543Y-14728368D02*
X6647020Y-14737892D01*
X6647020Y-14737892D02*
X6637496Y-14728368D01*
X6637496Y-14728368D02*
X6647020Y-14718844D01*
X6647020Y-14718844D02*
X6647020Y-14737892D01*
X6827972Y-14604559D02*
X6827972Y-14737892D01*
X6780353Y-14528368D02*
X6732734Y-14671225D01*
X6732734Y-14671225D02*
X6856543Y-14671225D01*
X6970829Y-14537892D02*
X6989877Y-14537892D01*
X6989877Y-14537892D02*
X7008924Y-14547416D01*
X7008924Y-14547416D02*
X7018448Y-14556940D01*
X7018448Y-14556940D02*
X7027972Y-14575987D01*
X7027972Y-14575987D02*
X7037496Y-14614082D01*
X7037496Y-14614082D02*
X7037496Y-14661701D01*
X7037496Y-14661701D02*
X7027972Y-14699797D01*
X7027972Y-14699797D02*
X7018448Y-14718844D01*
X7018448Y-14718844D02*
X7008924Y-14728368D01*
X7008924Y-14728368D02*
X6989877Y-14737892D01*
X6989877Y-14737892D02*
X6970829Y-14737892D01*
X6970829Y-14737892D02*
X6951782Y-14728368D01*
X6951782Y-14728368D02*
X6942258Y-14718844D01*
X6942258Y-14718844D02*
X6932734Y-14699797D01*
X6932734Y-14699797D02*
X6923210Y-14661701D01*
X6923210Y-14661701D02*
X6923210Y-14614082D01*
X6923210Y-14614082D02*
X6932734Y-14575987D01*
X6932734Y-14575987D02*
X6942258Y-14556940D01*
X6942258Y-14556940D02*
X6951782Y-14547416D01*
X6951782Y-14547416D02*
X6970829Y-14537892D01*
X7161305Y-14537892D02*
X7180353Y-14537892D01*
X7180353Y-14537892D02*
X7199401Y-14547416D01*
X7199401Y-14547416D02*
X7208924Y-14556940D01*
X7208924Y-14556940D02*
X7218448Y-14575987D01*
X7218448Y-14575987D02*
X7227972Y-14614082D01*
X7227972Y-14614082D02*
X7227972Y-14661701D01*
X7227972Y-14661701D02*
X7218448Y-14699797D01*
X7218448Y-14699797D02*
X7208924Y-14718844D01*
X7208924Y-14718844D02*
X7199401Y-14728368D01*
X7199401Y-14728368D02*
X7180353Y-14737892D01*
X7180353Y-14737892D02*
X7161305Y-14737892D01*
X7161305Y-14737892D02*
X7142258Y-14728368D01*
X7142258Y-14728368D02*
X7132734Y-14718844D01*
X7132734Y-14718844D02*
X7123210Y-14699797D01*
X7123210Y-14699797D02*
X7113686Y-14661701D01*
X7113686Y-14661701D02*
X7113686Y-14614082D01*
X7113686Y-14614082D02*
X7123210Y-14575987D01*
X7123210Y-14575987D02*
X7132734Y-14556940D01*
X7132734Y-14556940D02*
X7142258Y-14547416D01*
X7142258Y-14547416D02*
X7161305Y-14537892D01*
X7313686Y-14737892D02*
X7313686Y-14604559D01*
X7313686Y-14623606D02*
X7323210Y-14614082D01*
X7323210Y-14614082D02*
X7342258Y-14604559D01*
X7342258Y-14604559D02*
X7370829Y-14604559D01*
X7370829Y-14604559D02*
X7389877Y-14614082D01*
X7389877Y-14614082D02*
X7399401Y-14633130D01*
X7399401Y-14633130D02*
X7399401Y-14737892D01*
X7399401Y-14633130D02*
X7408924Y-14614082D01*
X7408924Y-14614082D02*
X7427972Y-14604559D01*
X7427972Y-14604559D02*
X7456543Y-14604559D01*
X7456543Y-14604559D02*
X7475591Y-14614082D01*
X7475591Y-14614082D02*
X7485115Y-14633130D01*
X7485115Y-14633130D02*
X7485115Y-14737892D01*
X7580353Y-14737892D02*
X7580353Y-14604559D01*
X7580353Y-14623606D02*
X7589877Y-14614082D01*
X7589877Y-14614082D02*
X7608924Y-14604559D01*
X7608924Y-14604559D02*
X7637496Y-14604559D01*
X7637496Y-14604559D02*
X7656544Y-14614082D01*
X7656544Y-14614082D02*
X7666067Y-14633130D01*
X7666067Y-14633130D02*
X7666067Y-14737892D01*
X7666067Y-14633130D02*
X7675591Y-14614082D01*
X7675591Y-14614082D02*
X7694639Y-14604559D01*
X7694639Y-14604559D02*
X7723210Y-14604559D01*
X7723210Y-14604559D02*
X7742258Y-14614082D01*
X7742258Y-14614082D02*
X7751782Y-14633130D01*
X7751782Y-14633130D02*
X7751782Y-14737892D01*
X8142258Y-14528368D02*
X7970829Y-14785511D01*
X8399401Y-14537892D02*
X8418449Y-14537892D01*
X8418449Y-14537892D02*
X8437496Y-14547416D01*
X8437496Y-14547416D02*
X8447020Y-14556940D01*
X8447020Y-14556940D02*
X8456544Y-14575987D01*
X8456544Y-14575987D02*
X8466068Y-14614082D01*
X8466068Y-14614082D02*
X8466068Y-14661701D01*
X8466068Y-14661701D02*
X8456544Y-14699797D01*
X8456544Y-14699797D02*
X8447020Y-14718844D01*
X8447020Y-14718844D02*
X8437496Y-14728368D01*
X8437496Y-14728368D02*
X8418449Y-14737892D01*
X8418449Y-14737892D02*
X8399401Y-14737892D01*
X8399401Y-14737892D02*
X8380353Y-14728368D01*
X8380353Y-14728368D02*
X8370829Y-14718844D01*
X8370829Y-14718844D02*
X8361306Y-14699797D01*
X8361306Y-14699797D02*
X8351782Y-14661701D01*
X8351782Y-14661701D02*
X8351782Y-14614082D01*
X8351782Y-14614082D02*
X8361306Y-14575987D01*
X8361306Y-14575987D02*
X8370829Y-14556940D01*
X8370829Y-14556940D02*
X8380353Y-14547416D01*
X8380353Y-14547416D02*
X8399401Y-14537892D01*
X8551782Y-14718844D02*
X8561306Y-14728368D01*
X8561306Y-14728368D02*
X8551782Y-14737892D01*
X8551782Y-14737892D02*
X8542258Y-14728368D01*
X8542258Y-14728368D02*
X8551782Y-14718844D01*
X8551782Y-14718844D02*
X8551782Y-14737892D01*
X8685115Y-14537892D02*
X8704163Y-14537892D01*
X8704163Y-14537892D02*
X8723210Y-14547416D01*
X8723210Y-14547416D02*
X8732734Y-14556940D01*
X8732734Y-14556940D02*
X8742258Y-14575987D01*
X8742258Y-14575987D02*
X8751782Y-14614082D01*
X8751782Y-14614082D02*
X8751782Y-14661701D01*
X8751782Y-14661701D02*
X8742258Y-14699797D01*
X8742258Y-14699797D02*
X8732734Y-14718844D01*
X8732734Y-14718844D02*
X8723210Y-14728368D01*
X8723210Y-14728368D02*
X8704163Y-14737892D01*
X8704163Y-14737892D02*
X8685115Y-14737892D01*
X8685115Y-14737892D02*
X8666068Y-14728368D01*
X8666068Y-14728368D02*
X8656544Y-14718844D01*
X8656544Y-14718844D02*
X8647020Y-14699797D01*
X8647020Y-14699797D02*
X8637496Y-14661701D01*
X8637496Y-14661701D02*
X8637496Y-14614082D01*
X8637496Y-14614082D02*
X8647020Y-14575987D01*
X8647020Y-14575987D02*
X8656544Y-14556940D01*
X8656544Y-14556940D02*
X8666068Y-14547416D01*
X8666068Y-14547416D02*
X8685115Y-14537892D01*
X8942258Y-14737892D02*
X8827972Y-14737892D01*
X8885115Y-14737892D02*
X8885115Y-14537892D01*
X8885115Y-14537892D02*
X8866068Y-14566463D01*
X8866068Y-14566463D02*
X8847020Y-14585511D01*
X8847020Y-14585511D02*
X8827972Y-14595035D01*
X9123210Y-14537892D02*
X9027972Y-14537892D01*
X9027972Y-14537892D02*
X9018449Y-14633130D01*
X9018449Y-14633130D02*
X9027972Y-14623606D01*
X9027972Y-14623606D02*
X9047020Y-14614082D01*
X9047020Y-14614082D02*
X9094639Y-14614082D01*
X9094639Y-14614082D02*
X9113687Y-14623606D01*
X9113687Y-14623606D02*
X9123210Y-14633130D01*
X9123210Y-14633130D02*
X9132734Y-14652178D01*
X9132734Y-14652178D02*
X9132734Y-14699797D01*
X9132734Y-14699797D02*
X9123210Y-14718844D01*
X9123210Y-14718844D02*
X9113687Y-14728368D01*
X9113687Y-14728368D02*
X9094639Y-14737892D01*
X9094639Y-14737892D02*
X9047020Y-14737892D01*
X9047020Y-14737892D02*
X9027972Y-14728368D01*
X9027972Y-14728368D02*
X9018449Y-14718844D01*
X9199401Y-14537892D02*
X9332734Y-14537892D01*
X9332734Y-14537892D02*
X9247020Y-14737892D01*
X9399401Y-14537892D02*
X9399401Y-14575987D01*
X9475591Y-14537892D02*
X9475591Y-14575987D01*
X9770830Y-14814082D02*
X9761306Y-14804559D01*
X9761306Y-14804559D02*
X9742258Y-14775987D01*
X9742258Y-14775987D02*
X9732734Y-14756940D01*
X9732734Y-14756940D02*
X9723211Y-14728368D01*
X9723211Y-14728368D02*
X9713687Y-14680749D01*
X9713687Y-14680749D02*
X9713687Y-14642654D01*
X9713687Y-14642654D02*
X9723211Y-14595035D01*
X9723211Y-14595035D02*
X9732734Y-14566463D01*
X9732734Y-14566463D02*
X9742258Y-14547416D01*
X9742258Y-14547416D02*
X9761306Y-14518844D01*
X9761306Y-14518844D02*
X9770830Y-14509320D01*
X9932734Y-14537892D02*
X9894639Y-14537892D01*
X9894639Y-14537892D02*
X9875591Y-14547416D01*
X9875591Y-14547416D02*
X9866068Y-14556940D01*
X9866068Y-14556940D02*
X9847020Y-14585511D01*
X9847020Y-14585511D02*
X9837496Y-14623606D01*
X9837496Y-14623606D02*
X9837496Y-14699797D01*
X9837496Y-14699797D02*
X9847020Y-14718844D01*
X9847020Y-14718844D02*
X9856544Y-14728368D01*
X9856544Y-14728368D02*
X9875591Y-14737892D01*
X9875591Y-14737892D02*
X9913687Y-14737892D01*
X9913687Y-14737892D02*
X9932734Y-14728368D01*
X9932734Y-14728368D02*
X9942258Y-14718844D01*
X9942258Y-14718844D02*
X9951782Y-14699797D01*
X9951782Y-14699797D02*
X9951782Y-14652178D01*
X9951782Y-14652178D02*
X9942258Y-14633130D01*
X9942258Y-14633130D02*
X9932734Y-14623606D01*
X9932734Y-14623606D02*
X9913687Y-14614082D01*
X9913687Y-14614082D02*
X9875591Y-14614082D01*
X9875591Y-14614082D02*
X9856544Y-14623606D01*
X9856544Y-14623606D02*
X9847020Y-14633130D01*
X9847020Y-14633130D02*
X9837496Y-14652178D01*
X10189877Y-14737892D02*
X10189877Y-14537892D01*
X10275592Y-14737892D02*
X10275592Y-14633130D01*
X10275592Y-14633130D02*
X10266068Y-14614082D01*
X10266068Y-14614082D02*
X10247020Y-14604559D01*
X10247020Y-14604559D02*
X10218449Y-14604559D01*
X10218449Y-14604559D02*
X10199401Y-14614082D01*
X10199401Y-14614082D02*
X10189877Y-14623606D01*
X10399401Y-14737892D02*
X10380353Y-14728368D01*
X10380353Y-14728368D02*
X10370830Y-14718844D01*
X10370830Y-14718844D02*
X10361306Y-14699797D01*
X10361306Y-14699797D02*
X10361306Y-14642654D01*
X10361306Y-14642654D02*
X10370830Y-14623606D01*
X10370830Y-14623606D02*
X10380353Y-14614082D01*
X10380353Y-14614082D02*
X10399401Y-14604559D01*
X10399401Y-14604559D02*
X10427973Y-14604559D01*
X10427973Y-14604559D02*
X10447020Y-14614082D01*
X10447020Y-14614082D02*
X10456544Y-14623606D01*
X10456544Y-14623606D02*
X10466068Y-14642654D01*
X10466068Y-14642654D02*
X10466068Y-14699797D01*
X10466068Y-14699797D02*
X10456544Y-14718844D01*
X10456544Y-14718844D02*
X10447020Y-14728368D01*
X10447020Y-14728368D02*
X10427973Y-14737892D01*
X10427973Y-14737892D02*
X10399401Y-14737892D01*
X10580353Y-14737892D02*
X10561306Y-14728368D01*
X10561306Y-14728368D02*
X10551782Y-14709320D01*
X10551782Y-14709320D02*
X10551782Y-14537892D01*
X10732734Y-14728368D02*
X10713687Y-14737892D01*
X10713687Y-14737892D02*
X10675592Y-14737892D01*
X10675592Y-14737892D02*
X10656544Y-14728368D01*
X10656544Y-14728368D02*
X10647020Y-14709320D01*
X10647020Y-14709320D02*
X10647020Y-14633130D01*
X10647020Y-14633130D02*
X10656544Y-14614082D01*
X10656544Y-14614082D02*
X10675592Y-14604559D01*
X10675592Y-14604559D02*
X10713687Y-14604559D01*
X10713687Y-14604559D02*
X10732734Y-14614082D01*
X10732734Y-14614082D02*
X10742258Y-14633130D01*
X10742258Y-14633130D02*
X10742258Y-14652178D01*
X10742258Y-14652178D02*
X10647020Y-14671225D01*
X10818449Y-14728368D02*
X10837496Y-14737892D01*
X10837496Y-14737892D02*
X10875592Y-14737892D01*
X10875592Y-14737892D02*
X10894639Y-14728368D01*
X10894639Y-14728368D02*
X10904163Y-14709320D01*
X10904163Y-14709320D02*
X10904163Y-14699797D01*
X10904163Y-14699797D02*
X10894639Y-14680749D01*
X10894639Y-14680749D02*
X10875592Y-14671225D01*
X10875592Y-14671225D02*
X10847020Y-14671225D01*
X10847020Y-14671225D02*
X10827973Y-14661701D01*
X10827973Y-14661701D02*
X10818449Y-14642654D01*
X10818449Y-14642654D02*
X10818449Y-14633130D01*
X10818449Y-14633130D02*
X10827973Y-14614082D01*
X10827973Y-14614082D02*
X10847020Y-14604559D01*
X10847020Y-14604559D02*
X10875592Y-14604559D01*
X10875592Y-14604559D02*
X10894639Y-14614082D01*
X10970830Y-14814082D02*
X10980354Y-14804559D01*
X10980354Y-14804559D02*
X10999401Y-14775987D01*
X10999401Y-14775987D02*
X11008925Y-14756940D01*
X11008925Y-14756940D02*
X11018449Y-14728368D01*
X11018449Y-14728368D02*
X11027973Y-14680749D01*
X11027973Y-14680749D02*
X11027973Y-14642654D01*
X11027973Y-14642654D02*
X11018449Y-14595035D01*
X11018449Y-14595035D02*
X11008925Y-14566463D01*
X11008925Y-14566463D02*
X10999401Y-14547416D01*
X10999401Y-14547416D02*
X10980354Y-14518844D01*
X10980354Y-14518844D02*
X10970830Y-14509320D01*
D10*
X6195767Y-14910408D02*
G75*
G03*
X6105767Y-14910408I-45000J0D01*
G01*
X6105767Y-14910408D02*
G75*
G03*
X6195767Y-14910408I45000J0D01*
G01*
D11*
X6494639Y-14801892D02*
X6513686Y-14801892D01*
X6513686Y-14801892D02*
X6532734Y-14811416D01*
X6532734Y-14811416D02*
X6542258Y-14820940D01*
X6542258Y-14820940D02*
X6551782Y-14839987D01*
X6551782Y-14839987D02*
X6561305Y-14878082D01*
X6561305Y-14878082D02*
X6561305Y-14925701D01*
X6561305Y-14925701D02*
X6551782Y-14963797D01*
X6551782Y-14963797D02*
X6542258Y-14982844D01*
X6542258Y-14982844D02*
X6532734Y-14992368D01*
X6532734Y-14992368D02*
X6513686Y-15001892D01*
X6513686Y-15001892D02*
X6494639Y-15001892D01*
X6494639Y-15001892D02*
X6475591Y-14992368D01*
X6475591Y-14992368D02*
X6466067Y-14982844D01*
X6466067Y-14982844D02*
X6456543Y-14963797D01*
X6456543Y-14963797D02*
X6447020Y-14925701D01*
X6447020Y-14925701D02*
X6447020Y-14878082D01*
X6447020Y-14878082D02*
X6456543Y-14839987D01*
X6456543Y-14839987D02*
X6466067Y-14820940D01*
X6466067Y-14820940D02*
X6475591Y-14811416D01*
X6475591Y-14811416D02*
X6494639Y-14801892D01*
X6647020Y-14982844D02*
X6656543Y-14992368D01*
X6656543Y-14992368D02*
X6647020Y-15001892D01*
X6647020Y-15001892D02*
X6637496Y-14992368D01*
X6637496Y-14992368D02*
X6647020Y-14982844D01*
X6647020Y-14982844D02*
X6647020Y-15001892D01*
X6751782Y-15001892D02*
X6789877Y-15001892D01*
X6789877Y-15001892D02*
X6808924Y-14992368D01*
X6808924Y-14992368D02*
X6818448Y-14982844D01*
X6818448Y-14982844D02*
X6837496Y-14954273D01*
X6837496Y-14954273D02*
X6847020Y-14916178D01*
X6847020Y-14916178D02*
X6847020Y-14839987D01*
X6847020Y-14839987D02*
X6837496Y-14820940D01*
X6837496Y-14820940D02*
X6827972Y-14811416D01*
X6827972Y-14811416D02*
X6808924Y-14801892D01*
X6808924Y-14801892D02*
X6770829Y-14801892D01*
X6770829Y-14801892D02*
X6751782Y-14811416D01*
X6751782Y-14811416D02*
X6742258Y-14820940D01*
X6742258Y-14820940D02*
X6732734Y-14839987D01*
X6732734Y-14839987D02*
X6732734Y-14887606D01*
X6732734Y-14887606D02*
X6742258Y-14906654D01*
X6742258Y-14906654D02*
X6751782Y-14916178D01*
X6751782Y-14916178D02*
X6770829Y-14925701D01*
X6770829Y-14925701D02*
X6808924Y-14925701D01*
X6808924Y-14925701D02*
X6827972Y-14916178D01*
X6827972Y-14916178D02*
X6837496Y-14906654D01*
X6837496Y-14906654D02*
X6847020Y-14887606D01*
X6970829Y-14801892D02*
X6989877Y-14801892D01*
X6989877Y-14801892D02*
X7008924Y-14811416D01*
X7008924Y-14811416D02*
X7018448Y-14820940D01*
X7018448Y-14820940D02*
X7027972Y-14839987D01*
X7027972Y-14839987D02*
X7037496Y-14878082D01*
X7037496Y-14878082D02*
X7037496Y-14925701D01*
X7037496Y-14925701D02*
X7027972Y-14963797D01*
X7027972Y-14963797D02*
X7018448Y-14982844D01*
X7018448Y-14982844D02*
X7008924Y-14992368D01*
X7008924Y-14992368D02*
X6989877Y-15001892D01*
X6989877Y-15001892D02*
X6970829Y-15001892D01*
X6970829Y-15001892D02*
X6951782Y-14992368D01*
X6951782Y-14992368D02*
X6942258Y-14982844D01*
X6942258Y-14982844D02*
X6932734Y-14963797D01*
X6932734Y-14963797D02*
X6923210Y-14925701D01*
X6923210Y-14925701D02*
X6923210Y-14878082D01*
X6923210Y-14878082D02*
X6932734Y-14839987D01*
X6932734Y-14839987D02*
X6942258Y-14820940D01*
X6942258Y-14820940D02*
X6951782Y-14811416D01*
X6951782Y-14811416D02*
X6970829Y-14801892D01*
X7161305Y-14801892D02*
X7180353Y-14801892D01*
X7180353Y-14801892D02*
X7199401Y-14811416D01*
X7199401Y-14811416D02*
X7208924Y-14820940D01*
X7208924Y-14820940D02*
X7218448Y-14839987D01*
X7218448Y-14839987D02*
X7227972Y-14878082D01*
X7227972Y-14878082D02*
X7227972Y-14925701D01*
X7227972Y-14925701D02*
X7218448Y-14963797D01*
X7218448Y-14963797D02*
X7208924Y-14982844D01*
X7208924Y-14982844D02*
X7199401Y-14992368D01*
X7199401Y-14992368D02*
X7180353Y-15001892D01*
X7180353Y-15001892D02*
X7161305Y-15001892D01*
X7161305Y-15001892D02*
X7142258Y-14992368D01*
X7142258Y-14992368D02*
X7132734Y-14982844D01*
X7132734Y-14982844D02*
X7123210Y-14963797D01*
X7123210Y-14963797D02*
X7113686Y-14925701D01*
X7113686Y-14925701D02*
X7113686Y-14878082D01*
X7113686Y-14878082D02*
X7123210Y-14839987D01*
X7123210Y-14839987D02*
X7132734Y-14820940D01*
X7132734Y-14820940D02*
X7142258Y-14811416D01*
X7142258Y-14811416D02*
X7161305Y-14801892D01*
X7313686Y-15001892D02*
X7313686Y-14868559D01*
X7313686Y-14887606D02*
X7323210Y-14878082D01*
X7323210Y-14878082D02*
X7342258Y-14868559D01*
X7342258Y-14868559D02*
X7370829Y-14868559D01*
X7370829Y-14868559D02*
X7389877Y-14878082D01*
X7389877Y-14878082D02*
X7399401Y-14897130D01*
X7399401Y-14897130D02*
X7399401Y-15001892D01*
X7399401Y-14897130D02*
X7408924Y-14878082D01*
X7408924Y-14878082D02*
X7427972Y-14868559D01*
X7427972Y-14868559D02*
X7456543Y-14868559D01*
X7456543Y-14868559D02*
X7475591Y-14878082D01*
X7475591Y-14878082D02*
X7485115Y-14897130D01*
X7485115Y-14897130D02*
X7485115Y-15001892D01*
X7580353Y-15001892D02*
X7580353Y-14868559D01*
X7580353Y-14887606D02*
X7589877Y-14878082D01*
X7589877Y-14878082D02*
X7608924Y-14868559D01*
X7608924Y-14868559D02*
X7637496Y-14868559D01*
X7637496Y-14868559D02*
X7656544Y-14878082D01*
X7656544Y-14878082D02*
X7666067Y-14897130D01*
X7666067Y-14897130D02*
X7666067Y-15001892D01*
X7666067Y-14897130D02*
X7675591Y-14878082D01*
X7675591Y-14878082D02*
X7694639Y-14868559D01*
X7694639Y-14868559D02*
X7723210Y-14868559D01*
X7723210Y-14868559D02*
X7742258Y-14878082D01*
X7742258Y-14878082D02*
X7751782Y-14897130D01*
X7751782Y-14897130D02*
X7751782Y-15001892D01*
X8142258Y-14792368D02*
X7970829Y-15049511D01*
X8399401Y-14801892D02*
X8418449Y-14801892D01*
X8418449Y-14801892D02*
X8437496Y-14811416D01*
X8437496Y-14811416D02*
X8447020Y-14820940D01*
X8447020Y-14820940D02*
X8456544Y-14839987D01*
X8456544Y-14839987D02*
X8466068Y-14878082D01*
X8466068Y-14878082D02*
X8466068Y-14925701D01*
X8466068Y-14925701D02*
X8456544Y-14963797D01*
X8456544Y-14963797D02*
X8447020Y-14982844D01*
X8447020Y-14982844D02*
X8437496Y-14992368D01*
X8437496Y-14992368D02*
X8418449Y-15001892D01*
X8418449Y-15001892D02*
X8399401Y-15001892D01*
X8399401Y-15001892D02*
X8380353Y-14992368D01*
X8380353Y-14992368D02*
X8370829Y-14982844D01*
X8370829Y-14982844D02*
X8361306Y-14963797D01*
X8361306Y-14963797D02*
X8351782Y-14925701D01*
X8351782Y-14925701D02*
X8351782Y-14878082D01*
X8351782Y-14878082D02*
X8361306Y-14839987D01*
X8361306Y-14839987D02*
X8370829Y-14820940D01*
X8370829Y-14820940D02*
X8380353Y-14811416D01*
X8380353Y-14811416D02*
X8399401Y-14801892D01*
X8551782Y-14982844D02*
X8561306Y-14992368D01*
X8561306Y-14992368D02*
X8551782Y-15001892D01*
X8551782Y-15001892D02*
X8542258Y-14992368D01*
X8542258Y-14992368D02*
X8551782Y-14982844D01*
X8551782Y-14982844D02*
X8551782Y-15001892D01*
X8685115Y-14801892D02*
X8704163Y-14801892D01*
X8704163Y-14801892D02*
X8723210Y-14811416D01*
X8723210Y-14811416D02*
X8732734Y-14820940D01*
X8732734Y-14820940D02*
X8742258Y-14839987D01*
X8742258Y-14839987D02*
X8751782Y-14878082D01*
X8751782Y-14878082D02*
X8751782Y-14925701D01*
X8751782Y-14925701D02*
X8742258Y-14963797D01*
X8742258Y-14963797D02*
X8732734Y-14982844D01*
X8732734Y-14982844D02*
X8723210Y-14992368D01*
X8723210Y-14992368D02*
X8704163Y-15001892D01*
X8704163Y-15001892D02*
X8685115Y-15001892D01*
X8685115Y-15001892D02*
X8666068Y-14992368D01*
X8666068Y-14992368D02*
X8656544Y-14982844D01*
X8656544Y-14982844D02*
X8647020Y-14963797D01*
X8647020Y-14963797D02*
X8637496Y-14925701D01*
X8637496Y-14925701D02*
X8637496Y-14878082D01*
X8637496Y-14878082D02*
X8647020Y-14839987D01*
X8647020Y-14839987D02*
X8656544Y-14820940D01*
X8656544Y-14820940D02*
X8666068Y-14811416D01*
X8666068Y-14811416D02*
X8685115Y-14801892D01*
X8818449Y-14801892D02*
X8942258Y-14801892D01*
X8942258Y-14801892D02*
X8875591Y-14878082D01*
X8875591Y-14878082D02*
X8904163Y-14878082D01*
X8904163Y-14878082D02*
X8923210Y-14887606D01*
X8923210Y-14887606D02*
X8932734Y-14897130D01*
X8932734Y-14897130D02*
X8942258Y-14916178D01*
X8942258Y-14916178D02*
X8942258Y-14963797D01*
X8942258Y-14963797D02*
X8932734Y-14982844D01*
X8932734Y-14982844D02*
X8923210Y-14992368D01*
X8923210Y-14992368D02*
X8904163Y-15001892D01*
X8904163Y-15001892D02*
X8847020Y-15001892D01*
X8847020Y-15001892D02*
X8827972Y-14992368D01*
X8827972Y-14992368D02*
X8818449Y-14982844D01*
X9123210Y-14801892D02*
X9027972Y-14801892D01*
X9027972Y-14801892D02*
X9018449Y-14897130D01*
X9018449Y-14897130D02*
X9027972Y-14887606D01*
X9027972Y-14887606D02*
X9047020Y-14878082D01*
X9047020Y-14878082D02*
X9094639Y-14878082D01*
X9094639Y-14878082D02*
X9113687Y-14887606D01*
X9113687Y-14887606D02*
X9123210Y-14897130D01*
X9123210Y-14897130D02*
X9132734Y-14916178D01*
X9132734Y-14916178D02*
X9132734Y-14963797D01*
X9132734Y-14963797D02*
X9123210Y-14982844D01*
X9123210Y-14982844D02*
X9113687Y-14992368D01*
X9113687Y-14992368D02*
X9094639Y-15001892D01*
X9094639Y-15001892D02*
X9047020Y-15001892D01*
X9047020Y-15001892D02*
X9027972Y-14992368D01*
X9027972Y-14992368D02*
X9018449Y-14982844D01*
X9304163Y-14868559D02*
X9304163Y-15001892D01*
X9256544Y-14792368D02*
X9208925Y-14935225D01*
X9208925Y-14935225D02*
X9332734Y-14935225D01*
X9399401Y-14801892D02*
X9399401Y-14839987D01*
X9475591Y-14801892D02*
X9475591Y-14839987D01*
X9770830Y-15078082D02*
X9761306Y-15068559D01*
X9761306Y-15068559D02*
X9742258Y-15039987D01*
X9742258Y-15039987D02*
X9732734Y-15020940D01*
X9732734Y-15020940D02*
X9723211Y-14992368D01*
X9723211Y-14992368D02*
X9713687Y-14944749D01*
X9713687Y-14944749D02*
X9713687Y-14906654D01*
X9713687Y-14906654D02*
X9723211Y-14859035D01*
X9723211Y-14859035D02*
X9732734Y-14830463D01*
X9732734Y-14830463D02*
X9742258Y-14811416D01*
X9742258Y-14811416D02*
X9761306Y-14782844D01*
X9761306Y-14782844D02*
X9770830Y-14773320D01*
X9837496Y-14820940D02*
X9847020Y-14811416D01*
X9847020Y-14811416D02*
X9866068Y-14801892D01*
X9866068Y-14801892D02*
X9913687Y-14801892D01*
X9913687Y-14801892D02*
X9932734Y-14811416D01*
X9932734Y-14811416D02*
X9942258Y-14820940D01*
X9942258Y-14820940D02*
X9951782Y-14839987D01*
X9951782Y-14839987D02*
X9951782Y-14859035D01*
X9951782Y-14859035D02*
X9942258Y-14887606D01*
X9942258Y-14887606D02*
X9827972Y-15001892D01*
X9827972Y-15001892D02*
X9951782Y-15001892D01*
X10189877Y-15001892D02*
X10189877Y-14801892D01*
X10275592Y-15001892D02*
X10275592Y-14897130D01*
X10275592Y-14897130D02*
X10266068Y-14878082D01*
X10266068Y-14878082D02*
X10247020Y-14868559D01*
X10247020Y-14868559D02*
X10218449Y-14868559D01*
X10218449Y-14868559D02*
X10199401Y-14878082D01*
X10199401Y-14878082D02*
X10189877Y-14887606D01*
X10399401Y-15001892D02*
X10380353Y-14992368D01*
X10380353Y-14992368D02*
X10370830Y-14982844D01*
X10370830Y-14982844D02*
X10361306Y-14963797D01*
X10361306Y-14963797D02*
X10361306Y-14906654D01*
X10361306Y-14906654D02*
X10370830Y-14887606D01*
X10370830Y-14887606D02*
X10380353Y-14878082D01*
X10380353Y-14878082D02*
X10399401Y-14868559D01*
X10399401Y-14868559D02*
X10427973Y-14868559D01*
X10427973Y-14868559D02*
X10447020Y-14878082D01*
X10447020Y-14878082D02*
X10456544Y-14887606D01*
X10456544Y-14887606D02*
X10466068Y-14906654D01*
X10466068Y-14906654D02*
X10466068Y-14963797D01*
X10466068Y-14963797D02*
X10456544Y-14982844D01*
X10456544Y-14982844D02*
X10447020Y-14992368D01*
X10447020Y-14992368D02*
X10427973Y-15001892D01*
X10427973Y-15001892D02*
X10399401Y-15001892D01*
X10580353Y-15001892D02*
X10561306Y-14992368D01*
X10561306Y-14992368D02*
X10551782Y-14973320D01*
X10551782Y-14973320D02*
X10551782Y-14801892D01*
X10732734Y-14992368D02*
X10713687Y-15001892D01*
X10713687Y-15001892D02*
X10675592Y-15001892D01*
X10675592Y-15001892D02*
X10656544Y-14992368D01*
X10656544Y-14992368D02*
X10647020Y-14973320D01*
X10647020Y-14973320D02*
X10647020Y-14897130D01*
X10647020Y-14897130D02*
X10656544Y-14878082D01*
X10656544Y-14878082D02*
X10675592Y-14868559D01*
X10675592Y-14868559D02*
X10713687Y-14868559D01*
X10713687Y-14868559D02*
X10732734Y-14878082D01*
X10732734Y-14878082D02*
X10742258Y-14897130D01*
X10742258Y-14897130D02*
X10742258Y-14916178D01*
X10742258Y-14916178D02*
X10647020Y-14935225D01*
X10818449Y-14992368D02*
X10837496Y-15001892D01*
X10837496Y-15001892D02*
X10875592Y-15001892D01*
X10875592Y-15001892D02*
X10894639Y-14992368D01*
X10894639Y-14992368D02*
X10904163Y-14973320D01*
X10904163Y-14973320D02*
X10904163Y-14963797D01*
X10904163Y-14963797D02*
X10894639Y-14944749D01*
X10894639Y-14944749D02*
X10875592Y-14935225D01*
X10875592Y-14935225D02*
X10847020Y-14935225D01*
X10847020Y-14935225D02*
X10827973Y-14925701D01*
X10827973Y-14925701D02*
X10818449Y-14906654D01*
X10818449Y-14906654D02*
X10818449Y-14897130D01*
X10818449Y-14897130D02*
X10827973Y-14878082D01*
X10827973Y-14878082D02*
X10847020Y-14868559D01*
X10847020Y-14868559D02*
X10875592Y-14868559D01*
X10875592Y-14868559D02*
X10894639Y-14878082D01*
X10970830Y-15078082D02*
X10980354Y-15068559D01*
X10980354Y-15068559D02*
X10999401Y-15039987D01*
X10999401Y-15039987D02*
X11008925Y-15020940D01*
X11008925Y-15020940D02*
X11018449Y-14992368D01*
X11018449Y-14992368D02*
X11027973Y-14944749D01*
X11027973Y-14944749D02*
X11027973Y-14906654D01*
X11027973Y-14906654D02*
X11018449Y-14859035D01*
X11018449Y-14859035D02*
X11008925Y-14830463D01*
X11008925Y-14830463D02*
X10999401Y-14811416D01*
X10999401Y-14811416D02*
X10980354Y-14782844D01*
X10980354Y-14782844D02*
X10970830Y-14773320D01*
D10*
X6145767Y-15124408D02*
X6145767Y-15224408D01*
X6095767Y-15174408D02*
X6195767Y-15174408D01*
D11*
X6561305Y-15265892D02*
X6447020Y-15265892D01*
X6504162Y-15265892D02*
X6504162Y-15065892D01*
X6504162Y-15065892D02*
X6485115Y-15094463D01*
X6485115Y-15094463D02*
X6466067Y-15113511D01*
X6466067Y-15113511D02*
X6447020Y-15123035D01*
X6647020Y-15246844D02*
X6656543Y-15256368D01*
X6656543Y-15256368D02*
X6647020Y-15265892D01*
X6647020Y-15265892D02*
X6637496Y-15256368D01*
X6637496Y-15256368D02*
X6647020Y-15246844D01*
X6647020Y-15246844D02*
X6647020Y-15265892D01*
X6780353Y-15065892D02*
X6799401Y-15065892D01*
X6799401Y-15065892D02*
X6818448Y-15075416D01*
X6818448Y-15075416D02*
X6827972Y-15084940D01*
X6827972Y-15084940D02*
X6837496Y-15103987D01*
X6837496Y-15103987D02*
X6847020Y-15142082D01*
X6847020Y-15142082D02*
X6847020Y-15189701D01*
X6847020Y-15189701D02*
X6837496Y-15227797D01*
X6837496Y-15227797D02*
X6827972Y-15246844D01*
X6827972Y-15246844D02*
X6818448Y-15256368D01*
X6818448Y-15256368D02*
X6799401Y-15265892D01*
X6799401Y-15265892D02*
X6780353Y-15265892D01*
X6780353Y-15265892D02*
X6761305Y-15256368D01*
X6761305Y-15256368D02*
X6751782Y-15246844D01*
X6751782Y-15246844D02*
X6742258Y-15227797D01*
X6742258Y-15227797D02*
X6732734Y-15189701D01*
X6732734Y-15189701D02*
X6732734Y-15142082D01*
X6732734Y-15142082D02*
X6742258Y-15103987D01*
X6742258Y-15103987D02*
X6751782Y-15084940D01*
X6751782Y-15084940D02*
X6761305Y-15075416D01*
X6761305Y-15075416D02*
X6780353Y-15065892D01*
X6970829Y-15065892D02*
X6989877Y-15065892D01*
X6989877Y-15065892D02*
X7008924Y-15075416D01*
X7008924Y-15075416D02*
X7018448Y-15084940D01*
X7018448Y-15084940D02*
X7027972Y-15103987D01*
X7027972Y-15103987D02*
X7037496Y-15142082D01*
X7037496Y-15142082D02*
X7037496Y-15189701D01*
X7037496Y-15189701D02*
X7027972Y-15227797D01*
X7027972Y-15227797D02*
X7018448Y-15246844D01*
X7018448Y-15246844D02*
X7008924Y-15256368D01*
X7008924Y-15256368D02*
X6989877Y-15265892D01*
X6989877Y-15265892D02*
X6970829Y-15265892D01*
X6970829Y-15265892D02*
X6951782Y-15256368D01*
X6951782Y-15256368D02*
X6942258Y-15246844D01*
X6942258Y-15246844D02*
X6932734Y-15227797D01*
X6932734Y-15227797D02*
X6923210Y-15189701D01*
X6923210Y-15189701D02*
X6923210Y-15142082D01*
X6923210Y-15142082D02*
X6932734Y-15103987D01*
X6932734Y-15103987D02*
X6942258Y-15084940D01*
X6942258Y-15084940D02*
X6951782Y-15075416D01*
X6951782Y-15075416D02*
X6970829Y-15065892D01*
X7161305Y-15065892D02*
X7180353Y-15065892D01*
X7180353Y-15065892D02*
X7199401Y-15075416D01*
X7199401Y-15075416D02*
X7208924Y-15084940D01*
X7208924Y-15084940D02*
X7218448Y-15103987D01*
X7218448Y-15103987D02*
X7227972Y-15142082D01*
X7227972Y-15142082D02*
X7227972Y-15189701D01*
X7227972Y-15189701D02*
X7218448Y-15227797D01*
X7218448Y-15227797D02*
X7208924Y-15246844D01*
X7208924Y-15246844D02*
X7199401Y-15256368D01*
X7199401Y-15256368D02*
X7180353Y-15265892D01*
X7180353Y-15265892D02*
X7161305Y-15265892D01*
X7161305Y-15265892D02*
X7142258Y-15256368D01*
X7142258Y-15256368D02*
X7132734Y-15246844D01*
X7132734Y-15246844D02*
X7123210Y-15227797D01*
X7123210Y-15227797D02*
X7113686Y-15189701D01*
X7113686Y-15189701D02*
X7113686Y-15142082D01*
X7113686Y-15142082D02*
X7123210Y-15103987D01*
X7123210Y-15103987D02*
X7132734Y-15084940D01*
X7132734Y-15084940D02*
X7142258Y-15075416D01*
X7142258Y-15075416D02*
X7161305Y-15065892D01*
X7313686Y-15265892D02*
X7313686Y-15132559D01*
X7313686Y-15151606D02*
X7323210Y-15142082D01*
X7323210Y-15142082D02*
X7342258Y-15132559D01*
X7342258Y-15132559D02*
X7370829Y-15132559D01*
X7370829Y-15132559D02*
X7389877Y-15142082D01*
X7389877Y-15142082D02*
X7399401Y-15161130D01*
X7399401Y-15161130D02*
X7399401Y-15265892D01*
X7399401Y-15161130D02*
X7408924Y-15142082D01*
X7408924Y-15142082D02*
X7427972Y-15132559D01*
X7427972Y-15132559D02*
X7456543Y-15132559D01*
X7456543Y-15132559D02*
X7475591Y-15142082D01*
X7475591Y-15142082D02*
X7485115Y-15161130D01*
X7485115Y-15161130D02*
X7485115Y-15265892D01*
X7580353Y-15265892D02*
X7580353Y-15132559D01*
X7580353Y-15151606D02*
X7589877Y-15142082D01*
X7589877Y-15142082D02*
X7608924Y-15132559D01*
X7608924Y-15132559D02*
X7637496Y-15132559D01*
X7637496Y-15132559D02*
X7656544Y-15142082D01*
X7656544Y-15142082D02*
X7666067Y-15161130D01*
X7666067Y-15161130D02*
X7666067Y-15265892D01*
X7666067Y-15161130D02*
X7675591Y-15142082D01*
X7675591Y-15142082D02*
X7694639Y-15132559D01*
X7694639Y-15132559D02*
X7723210Y-15132559D01*
X7723210Y-15132559D02*
X7742258Y-15142082D01*
X7742258Y-15142082D02*
X7751782Y-15161130D01*
X7751782Y-15161130D02*
X7751782Y-15265892D01*
X8142258Y-15056368D02*
X7970829Y-15313511D01*
X8399401Y-15065892D02*
X8418449Y-15065892D01*
X8418449Y-15065892D02*
X8437496Y-15075416D01*
X8437496Y-15075416D02*
X8447020Y-15084940D01*
X8447020Y-15084940D02*
X8456544Y-15103987D01*
X8456544Y-15103987D02*
X8466068Y-15142082D01*
X8466068Y-15142082D02*
X8466068Y-15189701D01*
X8466068Y-15189701D02*
X8456544Y-15227797D01*
X8456544Y-15227797D02*
X8447020Y-15246844D01*
X8447020Y-15246844D02*
X8437496Y-15256368D01*
X8437496Y-15256368D02*
X8418449Y-15265892D01*
X8418449Y-15265892D02*
X8399401Y-15265892D01*
X8399401Y-15265892D02*
X8380353Y-15256368D01*
X8380353Y-15256368D02*
X8370829Y-15246844D01*
X8370829Y-15246844D02*
X8361306Y-15227797D01*
X8361306Y-15227797D02*
X8351782Y-15189701D01*
X8351782Y-15189701D02*
X8351782Y-15142082D01*
X8351782Y-15142082D02*
X8361306Y-15103987D01*
X8361306Y-15103987D02*
X8370829Y-15084940D01*
X8370829Y-15084940D02*
X8380353Y-15075416D01*
X8380353Y-15075416D02*
X8399401Y-15065892D01*
X8551782Y-15246844D02*
X8561306Y-15256368D01*
X8561306Y-15256368D02*
X8551782Y-15265892D01*
X8551782Y-15265892D02*
X8542258Y-15256368D01*
X8542258Y-15256368D02*
X8551782Y-15246844D01*
X8551782Y-15246844D02*
X8551782Y-15265892D01*
X8685115Y-15065892D02*
X8704163Y-15065892D01*
X8704163Y-15065892D02*
X8723210Y-15075416D01*
X8723210Y-15075416D02*
X8732734Y-15084940D01*
X8732734Y-15084940D02*
X8742258Y-15103987D01*
X8742258Y-15103987D02*
X8751782Y-15142082D01*
X8751782Y-15142082D02*
X8751782Y-15189701D01*
X8751782Y-15189701D02*
X8742258Y-15227797D01*
X8742258Y-15227797D02*
X8732734Y-15246844D01*
X8732734Y-15246844D02*
X8723210Y-15256368D01*
X8723210Y-15256368D02*
X8704163Y-15265892D01*
X8704163Y-15265892D02*
X8685115Y-15265892D01*
X8685115Y-15265892D02*
X8666068Y-15256368D01*
X8666068Y-15256368D02*
X8656544Y-15246844D01*
X8656544Y-15246844D02*
X8647020Y-15227797D01*
X8647020Y-15227797D02*
X8637496Y-15189701D01*
X8637496Y-15189701D02*
X8637496Y-15142082D01*
X8637496Y-15142082D02*
X8647020Y-15103987D01*
X8647020Y-15103987D02*
X8656544Y-15084940D01*
X8656544Y-15084940D02*
X8666068Y-15075416D01*
X8666068Y-15075416D02*
X8685115Y-15065892D01*
X8818449Y-15065892D02*
X8942258Y-15065892D01*
X8942258Y-15065892D02*
X8875591Y-15142082D01*
X8875591Y-15142082D02*
X8904163Y-15142082D01*
X8904163Y-15142082D02*
X8923210Y-15151606D01*
X8923210Y-15151606D02*
X8932734Y-15161130D01*
X8932734Y-15161130D02*
X8942258Y-15180178D01*
X8942258Y-15180178D02*
X8942258Y-15227797D01*
X8942258Y-15227797D02*
X8932734Y-15246844D01*
X8932734Y-15246844D02*
X8923210Y-15256368D01*
X8923210Y-15256368D02*
X8904163Y-15265892D01*
X8904163Y-15265892D02*
X8847020Y-15265892D01*
X8847020Y-15265892D02*
X8827972Y-15256368D01*
X8827972Y-15256368D02*
X8818449Y-15246844D01*
X9037496Y-15265892D02*
X9075591Y-15265892D01*
X9075591Y-15265892D02*
X9094639Y-15256368D01*
X9094639Y-15256368D02*
X9104163Y-15246844D01*
X9104163Y-15246844D02*
X9123210Y-15218273D01*
X9123210Y-15218273D02*
X9132734Y-15180178D01*
X9132734Y-15180178D02*
X9132734Y-15103987D01*
X9132734Y-15103987D02*
X9123210Y-15084940D01*
X9123210Y-15084940D02*
X9113687Y-15075416D01*
X9113687Y-15075416D02*
X9094639Y-15065892D01*
X9094639Y-15065892D02*
X9056544Y-15065892D01*
X9056544Y-15065892D02*
X9037496Y-15075416D01*
X9037496Y-15075416D02*
X9027972Y-15084940D01*
X9027972Y-15084940D02*
X9018449Y-15103987D01*
X9018449Y-15103987D02*
X9018449Y-15151606D01*
X9018449Y-15151606D02*
X9027972Y-15170654D01*
X9027972Y-15170654D02*
X9037496Y-15180178D01*
X9037496Y-15180178D02*
X9056544Y-15189701D01*
X9056544Y-15189701D02*
X9094639Y-15189701D01*
X9094639Y-15189701D02*
X9113687Y-15180178D01*
X9113687Y-15180178D02*
X9123210Y-15170654D01*
X9123210Y-15170654D02*
X9132734Y-15151606D01*
X9304163Y-15132559D02*
X9304163Y-15265892D01*
X9256544Y-15056368D02*
X9208925Y-15199225D01*
X9208925Y-15199225D02*
X9332734Y-15199225D01*
X9399401Y-15065892D02*
X9399401Y-15103987D01*
X9475591Y-15065892D02*
X9475591Y-15103987D01*
X9770830Y-15342082D02*
X9761306Y-15332559D01*
X9761306Y-15332559D02*
X9742258Y-15303987D01*
X9742258Y-15303987D02*
X9732734Y-15284940D01*
X9732734Y-15284940D02*
X9723211Y-15256368D01*
X9723211Y-15256368D02*
X9713687Y-15208749D01*
X9713687Y-15208749D02*
X9713687Y-15170654D01*
X9713687Y-15170654D02*
X9723211Y-15123035D01*
X9723211Y-15123035D02*
X9732734Y-15094463D01*
X9732734Y-15094463D02*
X9742258Y-15075416D01*
X9742258Y-15075416D02*
X9761306Y-15046844D01*
X9761306Y-15046844D02*
X9770830Y-15037320D01*
X9951782Y-15265892D02*
X9837496Y-15265892D01*
X9894639Y-15265892D02*
X9894639Y-15065892D01*
X9894639Y-15065892D02*
X9875591Y-15094463D01*
X9875591Y-15094463D02*
X9856544Y-15113511D01*
X9856544Y-15113511D02*
X9837496Y-15123035D01*
X10142258Y-15265892D02*
X10027972Y-15265892D01*
X10085115Y-15265892D02*
X10085115Y-15065892D01*
X10085115Y-15065892D02*
X10066068Y-15094463D01*
X10066068Y-15094463D02*
X10047020Y-15113511D01*
X10047020Y-15113511D02*
X10027972Y-15123035D01*
X10380353Y-15265892D02*
X10380353Y-15065892D01*
X10466068Y-15265892D02*
X10466068Y-15161130D01*
X10466068Y-15161130D02*
X10456544Y-15142082D01*
X10456544Y-15142082D02*
X10437496Y-15132559D01*
X10437496Y-15132559D02*
X10408925Y-15132559D01*
X10408925Y-15132559D02*
X10389877Y-15142082D01*
X10389877Y-15142082D02*
X10380353Y-15151606D01*
X10589877Y-15265892D02*
X10570830Y-15256368D01*
X10570830Y-15256368D02*
X10561306Y-15246844D01*
X10561306Y-15246844D02*
X10551782Y-15227797D01*
X10551782Y-15227797D02*
X10551782Y-15170654D01*
X10551782Y-15170654D02*
X10561306Y-15151606D01*
X10561306Y-15151606D02*
X10570830Y-15142082D01*
X10570830Y-15142082D02*
X10589877Y-15132559D01*
X10589877Y-15132559D02*
X10618449Y-15132559D01*
X10618449Y-15132559D02*
X10637496Y-15142082D01*
X10637496Y-15142082D02*
X10647020Y-15151606D01*
X10647020Y-15151606D02*
X10656544Y-15170654D01*
X10656544Y-15170654D02*
X10656544Y-15227797D01*
X10656544Y-15227797D02*
X10647020Y-15246844D01*
X10647020Y-15246844D02*
X10637496Y-15256368D01*
X10637496Y-15256368D02*
X10618449Y-15265892D01*
X10618449Y-15265892D02*
X10589877Y-15265892D01*
X10770830Y-15265892D02*
X10751782Y-15256368D01*
X10751782Y-15256368D02*
X10742258Y-15237320D01*
X10742258Y-15237320D02*
X10742258Y-15065892D01*
X10923211Y-15256368D02*
X10904163Y-15265892D01*
X10904163Y-15265892D02*
X10866068Y-15265892D01*
X10866068Y-15265892D02*
X10847020Y-15256368D01*
X10847020Y-15256368D02*
X10837496Y-15237320D01*
X10837496Y-15237320D02*
X10837496Y-15161130D01*
X10837496Y-15161130D02*
X10847020Y-15142082D01*
X10847020Y-15142082D02*
X10866068Y-15132559D01*
X10866068Y-15132559D02*
X10904163Y-15132559D01*
X10904163Y-15132559D02*
X10923211Y-15142082D01*
X10923211Y-15142082D02*
X10932734Y-15161130D01*
X10932734Y-15161130D02*
X10932734Y-15180178D01*
X10932734Y-15180178D02*
X10837496Y-15199225D01*
X11008925Y-15256368D02*
X11027973Y-15265892D01*
X11027973Y-15265892D02*
X11066068Y-15265892D01*
X11066068Y-15265892D02*
X11085115Y-15256368D01*
X11085115Y-15256368D02*
X11094639Y-15237320D01*
X11094639Y-15237320D02*
X11094639Y-15227797D01*
X11094639Y-15227797D02*
X11085115Y-15208749D01*
X11085115Y-15208749D02*
X11066068Y-15199225D01*
X11066068Y-15199225D02*
X11037496Y-15199225D01*
X11037496Y-15199225D02*
X11018449Y-15189701D01*
X11018449Y-15189701D02*
X11008925Y-15170654D01*
X11008925Y-15170654D02*
X11008925Y-15161130D01*
X11008925Y-15161130D02*
X11018449Y-15142082D01*
X11018449Y-15142082D02*
X11037496Y-15132559D01*
X11037496Y-15132559D02*
X11066068Y-15132559D01*
X11066068Y-15132559D02*
X11085115Y-15142082D01*
X11161306Y-15342082D02*
X11170830Y-15332559D01*
X11170830Y-15332559D02*
X11189877Y-15303987D01*
X11189877Y-15303987D02*
X11199401Y-15284940D01*
X11199401Y-15284940D02*
X11208925Y-15256368D01*
X11208925Y-15256368D02*
X11218449Y-15208749D01*
X11218449Y-15208749D02*
X11218449Y-15170654D01*
X11218449Y-15170654D02*
X11208925Y-15123035D01*
X11208925Y-15123035D02*
X11199401Y-15094463D01*
X11199401Y-15094463D02*
X11189877Y-15075416D01*
X11189877Y-15075416D02*
X11170830Y-15046844D01*
X11170830Y-15046844D02*
X11161306Y-15037320D01*
D12*
X6179658Y-15477299D02*
X6179658Y-15399517D01*
X6101875Y-15399517D01*
X6101875Y-15477299D01*
X6179658Y-15477299D01*
D11*
X6561305Y-15529892D02*
X6447020Y-15529892D01*
X6504162Y-15529892D02*
X6504162Y-15329892D01*
X6504162Y-15329892D02*
X6485115Y-15358463D01*
X6485115Y-15358463D02*
X6466067Y-15377511D01*
X6466067Y-15377511D02*
X6447020Y-15387035D01*
X6647020Y-15510844D02*
X6656543Y-15520368D01*
X6656543Y-15520368D02*
X6647020Y-15529892D01*
X6647020Y-15529892D02*
X6637496Y-15520368D01*
X6637496Y-15520368D02*
X6647020Y-15510844D01*
X6647020Y-15510844D02*
X6647020Y-15529892D01*
X6847020Y-15529892D02*
X6732734Y-15529892D01*
X6789877Y-15529892D02*
X6789877Y-15329892D01*
X6789877Y-15329892D02*
X6770829Y-15358463D01*
X6770829Y-15358463D02*
X6751782Y-15377511D01*
X6751782Y-15377511D02*
X6732734Y-15387035D01*
X6970829Y-15329892D02*
X6989877Y-15329892D01*
X6989877Y-15329892D02*
X7008924Y-15339416D01*
X7008924Y-15339416D02*
X7018448Y-15348940D01*
X7018448Y-15348940D02*
X7027972Y-15367987D01*
X7027972Y-15367987D02*
X7037496Y-15406082D01*
X7037496Y-15406082D02*
X7037496Y-15453701D01*
X7037496Y-15453701D02*
X7027972Y-15491797D01*
X7027972Y-15491797D02*
X7018448Y-15510844D01*
X7018448Y-15510844D02*
X7008924Y-15520368D01*
X7008924Y-15520368D02*
X6989877Y-15529892D01*
X6989877Y-15529892D02*
X6970829Y-15529892D01*
X6970829Y-15529892D02*
X6951782Y-15520368D01*
X6951782Y-15520368D02*
X6942258Y-15510844D01*
X6942258Y-15510844D02*
X6932734Y-15491797D01*
X6932734Y-15491797D02*
X6923210Y-15453701D01*
X6923210Y-15453701D02*
X6923210Y-15406082D01*
X6923210Y-15406082D02*
X6932734Y-15367987D01*
X6932734Y-15367987D02*
X6942258Y-15348940D01*
X6942258Y-15348940D02*
X6951782Y-15339416D01*
X6951782Y-15339416D02*
X6970829Y-15329892D01*
X7161305Y-15329892D02*
X7180353Y-15329892D01*
X7180353Y-15329892D02*
X7199401Y-15339416D01*
X7199401Y-15339416D02*
X7208924Y-15348940D01*
X7208924Y-15348940D02*
X7218448Y-15367987D01*
X7218448Y-15367987D02*
X7227972Y-15406082D01*
X7227972Y-15406082D02*
X7227972Y-15453701D01*
X7227972Y-15453701D02*
X7218448Y-15491797D01*
X7218448Y-15491797D02*
X7208924Y-15510844D01*
X7208924Y-15510844D02*
X7199401Y-15520368D01*
X7199401Y-15520368D02*
X7180353Y-15529892D01*
X7180353Y-15529892D02*
X7161305Y-15529892D01*
X7161305Y-15529892D02*
X7142258Y-15520368D01*
X7142258Y-15520368D02*
X7132734Y-15510844D01*
X7132734Y-15510844D02*
X7123210Y-15491797D01*
X7123210Y-15491797D02*
X7113686Y-15453701D01*
X7113686Y-15453701D02*
X7113686Y-15406082D01*
X7113686Y-15406082D02*
X7123210Y-15367987D01*
X7123210Y-15367987D02*
X7132734Y-15348940D01*
X7132734Y-15348940D02*
X7142258Y-15339416D01*
X7142258Y-15339416D02*
X7161305Y-15329892D01*
X7313686Y-15529892D02*
X7313686Y-15396559D01*
X7313686Y-15415606D02*
X7323210Y-15406082D01*
X7323210Y-15406082D02*
X7342258Y-15396559D01*
X7342258Y-15396559D02*
X7370829Y-15396559D01*
X7370829Y-15396559D02*
X7389877Y-15406082D01*
X7389877Y-15406082D02*
X7399401Y-15425130D01*
X7399401Y-15425130D02*
X7399401Y-15529892D01*
X7399401Y-15425130D02*
X7408924Y-15406082D01*
X7408924Y-15406082D02*
X7427972Y-15396559D01*
X7427972Y-15396559D02*
X7456543Y-15396559D01*
X7456543Y-15396559D02*
X7475591Y-15406082D01*
X7475591Y-15406082D02*
X7485115Y-15425130D01*
X7485115Y-15425130D02*
X7485115Y-15529892D01*
X7580353Y-15529892D02*
X7580353Y-15396559D01*
X7580353Y-15415606D02*
X7589877Y-15406082D01*
X7589877Y-15406082D02*
X7608924Y-15396559D01*
X7608924Y-15396559D02*
X7637496Y-15396559D01*
X7637496Y-15396559D02*
X7656544Y-15406082D01*
X7656544Y-15406082D02*
X7666067Y-15425130D01*
X7666067Y-15425130D02*
X7666067Y-15529892D01*
X7666067Y-15425130D02*
X7675591Y-15406082D01*
X7675591Y-15406082D02*
X7694639Y-15396559D01*
X7694639Y-15396559D02*
X7723210Y-15396559D01*
X7723210Y-15396559D02*
X7742258Y-15406082D01*
X7742258Y-15406082D02*
X7751782Y-15425130D01*
X7751782Y-15425130D02*
X7751782Y-15529892D01*
X8142258Y-15320368D02*
X7970829Y-15577511D01*
X8399401Y-15329892D02*
X8418449Y-15329892D01*
X8418449Y-15329892D02*
X8437496Y-15339416D01*
X8437496Y-15339416D02*
X8447020Y-15348940D01*
X8447020Y-15348940D02*
X8456544Y-15367987D01*
X8456544Y-15367987D02*
X8466068Y-15406082D01*
X8466068Y-15406082D02*
X8466068Y-15453701D01*
X8466068Y-15453701D02*
X8456544Y-15491797D01*
X8456544Y-15491797D02*
X8447020Y-15510844D01*
X8447020Y-15510844D02*
X8437496Y-15520368D01*
X8437496Y-15520368D02*
X8418449Y-15529892D01*
X8418449Y-15529892D02*
X8399401Y-15529892D01*
X8399401Y-15529892D02*
X8380353Y-15520368D01*
X8380353Y-15520368D02*
X8370829Y-15510844D01*
X8370829Y-15510844D02*
X8361306Y-15491797D01*
X8361306Y-15491797D02*
X8351782Y-15453701D01*
X8351782Y-15453701D02*
X8351782Y-15406082D01*
X8351782Y-15406082D02*
X8361306Y-15367987D01*
X8361306Y-15367987D02*
X8370829Y-15348940D01*
X8370829Y-15348940D02*
X8380353Y-15339416D01*
X8380353Y-15339416D02*
X8399401Y-15329892D01*
X8551782Y-15510844D02*
X8561306Y-15520368D01*
X8561306Y-15520368D02*
X8551782Y-15529892D01*
X8551782Y-15529892D02*
X8542258Y-15520368D01*
X8542258Y-15520368D02*
X8551782Y-15510844D01*
X8551782Y-15510844D02*
X8551782Y-15529892D01*
X8685115Y-15329892D02*
X8704163Y-15329892D01*
X8704163Y-15329892D02*
X8723210Y-15339416D01*
X8723210Y-15339416D02*
X8732734Y-15348940D01*
X8732734Y-15348940D02*
X8742258Y-15367987D01*
X8742258Y-15367987D02*
X8751782Y-15406082D01*
X8751782Y-15406082D02*
X8751782Y-15453701D01*
X8751782Y-15453701D02*
X8742258Y-15491797D01*
X8742258Y-15491797D02*
X8732734Y-15510844D01*
X8732734Y-15510844D02*
X8723210Y-15520368D01*
X8723210Y-15520368D02*
X8704163Y-15529892D01*
X8704163Y-15529892D02*
X8685115Y-15529892D01*
X8685115Y-15529892D02*
X8666068Y-15520368D01*
X8666068Y-15520368D02*
X8656544Y-15510844D01*
X8656544Y-15510844D02*
X8647020Y-15491797D01*
X8647020Y-15491797D02*
X8637496Y-15453701D01*
X8637496Y-15453701D02*
X8637496Y-15406082D01*
X8637496Y-15406082D02*
X8647020Y-15367987D01*
X8647020Y-15367987D02*
X8656544Y-15348940D01*
X8656544Y-15348940D02*
X8666068Y-15339416D01*
X8666068Y-15339416D02*
X8685115Y-15329892D01*
X8923210Y-15396559D02*
X8923210Y-15529892D01*
X8875591Y-15320368D02*
X8827972Y-15463225D01*
X8827972Y-15463225D02*
X8951782Y-15463225D01*
X9008925Y-15329892D02*
X9132734Y-15329892D01*
X9132734Y-15329892D02*
X9066068Y-15406082D01*
X9066068Y-15406082D02*
X9094639Y-15406082D01*
X9094639Y-15406082D02*
X9113687Y-15415606D01*
X9113687Y-15415606D02*
X9123210Y-15425130D01*
X9123210Y-15425130D02*
X9132734Y-15444178D01*
X9132734Y-15444178D02*
X9132734Y-15491797D01*
X9132734Y-15491797D02*
X9123210Y-15510844D01*
X9123210Y-15510844D02*
X9113687Y-15520368D01*
X9113687Y-15520368D02*
X9094639Y-15529892D01*
X9094639Y-15529892D02*
X9037496Y-15529892D01*
X9037496Y-15529892D02*
X9018449Y-15520368D01*
X9018449Y-15520368D02*
X9008925Y-15510844D01*
X9199401Y-15329892D02*
X9323210Y-15329892D01*
X9323210Y-15329892D02*
X9256544Y-15406082D01*
X9256544Y-15406082D02*
X9285115Y-15406082D01*
X9285115Y-15406082D02*
X9304163Y-15415606D01*
X9304163Y-15415606D02*
X9313687Y-15425130D01*
X9313687Y-15425130D02*
X9323210Y-15444178D01*
X9323210Y-15444178D02*
X9323210Y-15491797D01*
X9323210Y-15491797D02*
X9313687Y-15510844D01*
X9313687Y-15510844D02*
X9304163Y-15520368D01*
X9304163Y-15520368D02*
X9285115Y-15529892D01*
X9285115Y-15529892D02*
X9227972Y-15529892D01*
X9227972Y-15529892D02*
X9208925Y-15520368D01*
X9208925Y-15520368D02*
X9199401Y-15510844D01*
X9399401Y-15329892D02*
X9399401Y-15367987D01*
X9475591Y-15329892D02*
X9475591Y-15367987D01*
X9770830Y-15606082D02*
X9761306Y-15596559D01*
X9761306Y-15596559D02*
X9742258Y-15567987D01*
X9742258Y-15567987D02*
X9732734Y-15548940D01*
X9732734Y-15548940D02*
X9723211Y-15520368D01*
X9723211Y-15520368D02*
X9713687Y-15472749D01*
X9713687Y-15472749D02*
X9713687Y-15434654D01*
X9713687Y-15434654D02*
X9723211Y-15387035D01*
X9723211Y-15387035D02*
X9732734Y-15358463D01*
X9732734Y-15358463D02*
X9742258Y-15339416D01*
X9742258Y-15339416D02*
X9761306Y-15310844D01*
X9761306Y-15310844D02*
X9770830Y-15301320D01*
X9932734Y-15396559D02*
X9932734Y-15529892D01*
X9885115Y-15320368D02*
X9837496Y-15463225D01*
X9837496Y-15463225D02*
X9961306Y-15463225D01*
X10189877Y-15529892D02*
X10189877Y-15329892D01*
X10275592Y-15529892D02*
X10275592Y-15425130D01*
X10275592Y-15425130D02*
X10266068Y-15406082D01*
X10266068Y-15406082D02*
X10247020Y-15396559D01*
X10247020Y-15396559D02*
X10218449Y-15396559D01*
X10218449Y-15396559D02*
X10199401Y-15406082D01*
X10199401Y-15406082D02*
X10189877Y-15415606D01*
X10399401Y-15529892D02*
X10380353Y-15520368D01*
X10380353Y-15520368D02*
X10370830Y-15510844D01*
X10370830Y-15510844D02*
X10361306Y-15491797D01*
X10361306Y-15491797D02*
X10361306Y-15434654D01*
X10361306Y-15434654D02*
X10370830Y-15415606D01*
X10370830Y-15415606D02*
X10380353Y-15406082D01*
X10380353Y-15406082D02*
X10399401Y-15396559D01*
X10399401Y-15396559D02*
X10427973Y-15396559D01*
X10427973Y-15396559D02*
X10447020Y-15406082D01*
X10447020Y-15406082D02*
X10456544Y-15415606D01*
X10456544Y-15415606D02*
X10466068Y-15434654D01*
X10466068Y-15434654D02*
X10466068Y-15491797D01*
X10466068Y-15491797D02*
X10456544Y-15510844D01*
X10456544Y-15510844D02*
X10447020Y-15520368D01*
X10447020Y-15520368D02*
X10427973Y-15529892D01*
X10427973Y-15529892D02*
X10399401Y-15529892D01*
X10580353Y-15529892D02*
X10561306Y-15520368D01*
X10561306Y-15520368D02*
X10551782Y-15501320D01*
X10551782Y-15501320D02*
X10551782Y-15329892D01*
X10732734Y-15520368D02*
X10713687Y-15529892D01*
X10713687Y-15529892D02*
X10675592Y-15529892D01*
X10675592Y-15529892D02*
X10656544Y-15520368D01*
X10656544Y-15520368D02*
X10647020Y-15501320D01*
X10647020Y-15501320D02*
X10647020Y-15425130D01*
X10647020Y-15425130D02*
X10656544Y-15406082D01*
X10656544Y-15406082D02*
X10675592Y-15396559D01*
X10675592Y-15396559D02*
X10713687Y-15396559D01*
X10713687Y-15396559D02*
X10732734Y-15406082D01*
X10732734Y-15406082D02*
X10742258Y-15425130D01*
X10742258Y-15425130D02*
X10742258Y-15444178D01*
X10742258Y-15444178D02*
X10647020Y-15463225D01*
X10818449Y-15520368D02*
X10837496Y-15529892D01*
X10837496Y-15529892D02*
X10875592Y-15529892D01*
X10875592Y-15529892D02*
X10894639Y-15520368D01*
X10894639Y-15520368D02*
X10904163Y-15501320D01*
X10904163Y-15501320D02*
X10904163Y-15491797D01*
X10904163Y-15491797D02*
X10894639Y-15472749D01*
X10894639Y-15472749D02*
X10875592Y-15463225D01*
X10875592Y-15463225D02*
X10847020Y-15463225D01*
X10847020Y-15463225D02*
X10827973Y-15453701D01*
X10827973Y-15453701D02*
X10818449Y-15434654D01*
X10818449Y-15434654D02*
X10818449Y-15425130D01*
X10818449Y-15425130D02*
X10827973Y-15406082D01*
X10827973Y-15406082D02*
X10847020Y-15396559D01*
X10847020Y-15396559D02*
X10875592Y-15396559D01*
X10875592Y-15396559D02*
X10894639Y-15406082D01*
X10970830Y-15606082D02*
X10980354Y-15596559D01*
X10980354Y-15596559D02*
X10999401Y-15567987D01*
X10999401Y-15567987D02*
X11008925Y-15548940D01*
X11008925Y-15548940D02*
X11018449Y-15520368D01*
X11018449Y-15520368D02*
X11027973Y-15472749D01*
X11027973Y-15472749D02*
X11027973Y-15434654D01*
X11027973Y-15434654D02*
X11018449Y-15387035D01*
X11018449Y-15387035D02*
X11008925Y-15358463D01*
X11008925Y-15358463D02*
X10999401Y-15339416D01*
X10999401Y-15339416D02*
X10980354Y-15310844D01*
X10980354Y-15310844D02*
X10970830Y-15301320D01*
D13*
X6125767Y-15772408D02*
X6195767Y-15702408D01*
X6125767Y-15632408D01*
X6055767Y-15702408D01*
X6125767Y-15772408D01*
D11*
X6561305Y-15793892D02*
X6447020Y-15793892D01*
X6504162Y-15793892D02*
X6504162Y-15593892D01*
X6504162Y-15593892D02*
X6485115Y-15622463D01*
X6485115Y-15622463D02*
X6466067Y-15641511D01*
X6466067Y-15641511D02*
X6447020Y-15651035D01*
X6647020Y-15774844D02*
X6656543Y-15784368D01*
X6656543Y-15784368D02*
X6647020Y-15793892D01*
X6647020Y-15793892D02*
X6637496Y-15784368D01*
X6637496Y-15784368D02*
X6647020Y-15774844D01*
X6647020Y-15774844D02*
X6647020Y-15793892D01*
X6827972Y-15660559D02*
X6827972Y-15793892D01*
X6780353Y-15584368D02*
X6732734Y-15727225D01*
X6732734Y-15727225D02*
X6856543Y-15727225D01*
X6970829Y-15593892D02*
X6989877Y-15593892D01*
X6989877Y-15593892D02*
X7008924Y-15603416D01*
X7008924Y-15603416D02*
X7018448Y-15612940D01*
X7018448Y-15612940D02*
X7027972Y-15631987D01*
X7027972Y-15631987D02*
X7037496Y-15670082D01*
X7037496Y-15670082D02*
X7037496Y-15717701D01*
X7037496Y-15717701D02*
X7027972Y-15755797D01*
X7027972Y-15755797D02*
X7018448Y-15774844D01*
X7018448Y-15774844D02*
X7008924Y-15784368D01*
X7008924Y-15784368D02*
X6989877Y-15793892D01*
X6989877Y-15793892D02*
X6970829Y-15793892D01*
X6970829Y-15793892D02*
X6951782Y-15784368D01*
X6951782Y-15784368D02*
X6942258Y-15774844D01*
X6942258Y-15774844D02*
X6932734Y-15755797D01*
X6932734Y-15755797D02*
X6923210Y-15717701D01*
X6923210Y-15717701D02*
X6923210Y-15670082D01*
X6923210Y-15670082D02*
X6932734Y-15631987D01*
X6932734Y-15631987D02*
X6942258Y-15612940D01*
X6942258Y-15612940D02*
X6951782Y-15603416D01*
X6951782Y-15603416D02*
X6970829Y-15593892D01*
X7161305Y-15593892D02*
X7180353Y-15593892D01*
X7180353Y-15593892D02*
X7199401Y-15603416D01*
X7199401Y-15603416D02*
X7208924Y-15612940D01*
X7208924Y-15612940D02*
X7218448Y-15631987D01*
X7218448Y-15631987D02*
X7227972Y-15670082D01*
X7227972Y-15670082D02*
X7227972Y-15717701D01*
X7227972Y-15717701D02*
X7218448Y-15755797D01*
X7218448Y-15755797D02*
X7208924Y-15774844D01*
X7208924Y-15774844D02*
X7199401Y-15784368D01*
X7199401Y-15784368D02*
X7180353Y-15793892D01*
X7180353Y-15793892D02*
X7161305Y-15793892D01*
X7161305Y-15793892D02*
X7142258Y-15784368D01*
X7142258Y-15784368D02*
X7132734Y-15774844D01*
X7132734Y-15774844D02*
X7123210Y-15755797D01*
X7123210Y-15755797D02*
X7113686Y-15717701D01*
X7113686Y-15717701D02*
X7113686Y-15670082D01*
X7113686Y-15670082D02*
X7123210Y-15631987D01*
X7123210Y-15631987D02*
X7132734Y-15612940D01*
X7132734Y-15612940D02*
X7142258Y-15603416D01*
X7142258Y-15603416D02*
X7161305Y-15593892D01*
X7313686Y-15793892D02*
X7313686Y-15660559D01*
X7313686Y-15679606D02*
X7323210Y-15670082D01*
X7323210Y-15670082D02*
X7342258Y-15660559D01*
X7342258Y-15660559D02*
X7370829Y-15660559D01*
X7370829Y-15660559D02*
X7389877Y-15670082D01*
X7389877Y-15670082D02*
X7399401Y-15689130D01*
X7399401Y-15689130D02*
X7399401Y-15793892D01*
X7399401Y-15689130D02*
X7408924Y-15670082D01*
X7408924Y-15670082D02*
X7427972Y-15660559D01*
X7427972Y-15660559D02*
X7456543Y-15660559D01*
X7456543Y-15660559D02*
X7475591Y-15670082D01*
X7475591Y-15670082D02*
X7485115Y-15689130D01*
X7485115Y-15689130D02*
X7485115Y-15793892D01*
X7580353Y-15793892D02*
X7580353Y-15660559D01*
X7580353Y-15679606D02*
X7589877Y-15670082D01*
X7589877Y-15670082D02*
X7608924Y-15660559D01*
X7608924Y-15660559D02*
X7637496Y-15660559D01*
X7637496Y-15660559D02*
X7656544Y-15670082D01*
X7656544Y-15670082D02*
X7666067Y-15689130D01*
X7666067Y-15689130D02*
X7666067Y-15793892D01*
X7666067Y-15689130D02*
X7675591Y-15670082D01*
X7675591Y-15670082D02*
X7694639Y-15660559D01*
X7694639Y-15660559D02*
X7723210Y-15660559D01*
X7723210Y-15660559D02*
X7742258Y-15670082D01*
X7742258Y-15670082D02*
X7751782Y-15689130D01*
X7751782Y-15689130D02*
X7751782Y-15793892D01*
X8142258Y-15584368D02*
X7970829Y-15841511D01*
X8399401Y-15593892D02*
X8418449Y-15593892D01*
X8418449Y-15593892D02*
X8437496Y-15603416D01*
X8437496Y-15603416D02*
X8447020Y-15612940D01*
X8447020Y-15612940D02*
X8456544Y-15631987D01*
X8456544Y-15631987D02*
X8466068Y-15670082D01*
X8466068Y-15670082D02*
X8466068Y-15717701D01*
X8466068Y-15717701D02*
X8456544Y-15755797D01*
X8456544Y-15755797D02*
X8447020Y-15774844D01*
X8447020Y-15774844D02*
X8437496Y-15784368D01*
X8437496Y-15784368D02*
X8418449Y-15793892D01*
X8418449Y-15793892D02*
X8399401Y-15793892D01*
X8399401Y-15793892D02*
X8380353Y-15784368D01*
X8380353Y-15784368D02*
X8370829Y-15774844D01*
X8370829Y-15774844D02*
X8361306Y-15755797D01*
X8361306Y-15755797D02*
X8351782Y-15717701D01*
X8351782Y-15717701D02*
X8351782Y-15670082D01*
X8351782Y-15670082D02*
X8361306Y-15631987D01*
X8361306Y-15631987D02*
X8370829Y-15612940D01*
X8370829Y-15612940D02*
X8380353Y-15603416D01*
X8380353Y-15603416D02*
X8399401Y-15593892D01*
X8551782Y-15774844D02*
X8561306Y-15784368D01*
X8561306Y-15784368D02*
X8551782Y-15793892D01*
X8551782Y-15793892D02*
X8542258Y-15784368D01*
X8542258Y-15784368D02*
X8551782Y-15774844D01*
X8551782Y-15774844D02*
X8551782Y-15793892D01*
X8685115Y-15593892D02*
X8704163Y-15593892D01*
X8704163Y-15593892D02*
X8723210Y-15603416D01*
X8723210Y-15603416D02*
X8732734Y-15612940D01*
X8732734Y-15612940D02*
X8742258Y-15631987D01*
X8742258Y-15631987D02*
X8751782Y-15670082D01*
X8751782Y-15670082D02*
X8751782Y-15717701D01*
X8751782Y-15717701D02*
X8742258Y-15755797D01*
X8742258Y-15755797D02*
X8732734Y-15774844D01*
X8732734Y-15774844D02*
X8723210Y-15784368D01*
X8723210Y-15784368D02*
X8704163Y-15793892D01*
X8704163Y-15793892D02*
X8685115Y-15793892D01*
X8685115Y-15793892D02*
X8666068Y-15784368D01*
X8666068Y-15784368D02*
X8656544Y-15774844D01*
X8656544Y-15774844D02*
X8647020Y-15755797D01*
X8647020Y-15755797D02*
X8637496Y-15717701D01*
X8637496Y-15717701D02*
X8637496Y-15670082D01*
X8637496Y-15670082D02*
X8647020Y-15631987D01*
X8647020Y-15631987D02*
X8656544Y-15612940D01*
X8656544Y-15612940D02*
X8666068Y-15603416D01*
X8666068Y-15603416D02*
X8685115Y-15593892D01*
X8932734Y-15593892D02*
X8837496Y-15593892D01*
X8837496Y-15593892D02*
X8827972Y-15689130D01*
X8827972Y-15689130D02*
X8837496Y-15679606D01*
X8837496Y-15679606D02*
X8856544Y-15670082D01*
X8856544Y-15670082D02*
X8904163Y-15670082D01*
X8904163Y-15670082D02*
X8923210Y-15679606D01*
X8923210Y-15679606D02*
X8932734Y-15689130D01*
X8932734Y-15689130D02*
X8942258Y-15708178D01*
X8942258Y-15708178D02*
X8942258Y-15755797D01*
X8942258Y-15755797D02*
X8932734Y-15774844D01*
X8932734Y-15774844D02*
X8923210Y-15784368D01*
X8923210Y-15784368D02*
X8904163Y-15793892D01*
X8904163Y-15793892D02*
X8856544Y-15793892D01*
X8856544Y-15793892D02*
X8837496Y-15784368D01*
X8837496Y-15784368D02*
X8827972Y-15774844D01*
X9123210Y-15593892D02*
X9027972Y-15593892D01*
X9027972Y-15593892D02*
X9018449Y-15689130D01*
X9018449Y-15689130D02*
X9027972Y-15679606D01*
X9027972Y-15679606D02*
X9047020Y-15670082D01*
X9047020Y-15670082D02*
X9094639Y-15670082D01*
X9094639Y-15670082D02*
X9113687Y-15679606D01*
X9113687Y-15679606D02*
X9123210Y-15689130D01*
X9123210Y-15689130D02*
X9132734Y-15708178D01*
X9132734Y-15708178D02*
X9132734Y-15755797D01*
X9132734Y-15755797D02*
X9123210Y-15774844D01*
X9123210Y-15774844D02*
X9113687Y-15784368D01*
X9113687Y-15784368D02*
X9094639Y-15793892D01*
X9094639Y-15793892D02*
X9047020Y-15793892D01*
X9047020Y-15793892D02*
X9027972Y-15784368D01*
X9027972Y-15784368D02*
X9018449Y-15774844D01*
X9323210Y-15793892D02*
X9208925Y-15793892D01*
X9266068Y-15793892D02*
X9266068Y-15593892D01*
X9266068Y-15593892D02*
X9247020Y-15622463D01*
X9247020Y-15622463D02*
X9227972Y-15641511D01*
X9227972Y-15641511D02*
X9208925Y-15651035D01*
X9399401Y-15593892D02*
X9399401Y-15631987D01*
X9475591Y-15593892D02*
X9475591Y-15631987D01*
X9770830Y-15870082D02*
X9761306Y-15860559D01*
X9761306Y-15860559D02*
X9742258Y-15831987D01*
X9742258Y-15831987D02*
X9732734Y-15812940D01*
X9732734Y-15812940D02*
X9723211Y-15784368D01*
X9723211Y-15784368D02*
X9713687Y-15736749D01*
X9713687Y-15736749D02*
X9713687Y-15698654D01*
X9713687Y-15698654D02*
X9723211Y-15651035D01*
X9723211Y-15651035D02*
X9732734Y-15622463D01*
X9732734Y-15622463D02*
X9742258Y-15603416D01*
X9742258Y-15603416D02*
X9761306Y-15574844D01*
X9761306Y-15574844D02*
X9770830Y-15565320D01*
X9932734Y-15593892D02*
X9894639Y-15593892D01*
X9894639Y-15593892D02*
X9875591Y-15603416D01*
X9875591Y-15603416D02*
X9866068Y-15612940D01*
X9866068Y-15612940D02*
X9847020Y-15641511D01*
X9847020Y-15641511D02*
X9837496Y-15679606D01*
X9837496Y-15679606D02*
X9837496Y-15755797D01*
X9837496Y-15755797D02*
X9847020Y-15774844D01*
X9847020Y-15774844D02*
X9856544Y-15784368D01*
X9856544Y-15784368D02*
X9875591Y-15793892D01*
X9875591Y-15793892D02*
X9913687Y-15793892D01*
X9913687Y-15793892D02*
X9932734Y-15784368D01*
X9932734Y-15784368D02*
X9942258Y-15774844D01*
X9942258Y-15774844D02*
X9951782Y-15755797D01*
X9951782Y-15755797D02*
X9951782Y-15708178D01*
X9951782Y-15708178D02*
X9942258Y-15689130D01*
X9942258Y-15689130D02*
X9932734Y-15679606D01*
X9932734Y-15679606D02*
X9913687Y-15670082D01*
X9913687Y-15670082D02*
X9875591Y-15670082D01*
X9875591Y-15670082D02*
X9856544Y-15679606D01*
X9856544Y-15679606D02*
X9847020Y-15689130D01*
X9847020Y-15689130D02*
X9837496Y-15708178D01*
X10189877Y-15793892D02*
X10189877Y-15593892D01*
X10275592Y-15793892D02*
X10275592Y-15689130D01*
X10275592Y-15689130D02*
X10266068Y-15670082D01*
X10266068Y-15670082D02*
X10247020Y-15660559D01*
X10247020Y-15660559D02*
X10218449Y-15660559D01*
X10218449Y-15660559D02*
X10199401Y-15670082D01*
X10199401Y-15670082D02*
X10189877Y-15679606D01*
X10399401Y-15793892D02*
X10380353Y-15784368D01*
X10380353Y-15784368D02*
X10370830Y-15774844D01*
X10370830Y-15774844D02*
X10361306Y-15755797D01*
X10361306Y-15755797D02*
X10361306Y-15698654D01*
X10361306Y-15698654D02*
X10370830Y-15679606D01*
X10370830Y-15679606D02*
X10380353Y-15670082D01*
X10380353Y-15670082D02*
X10399401Y-15660559D01*
X10399401Y-15660559D02*
X10427973Y-15660559D01*
X10427973Y-15660559D02*
X10447020Y-15670082D01*
X10447020Y-15670082D02*
X10456544Y-15679606D01*
X10456544Y-15679606D02*
X10466068Y-15698654D01*
X10466068Y-15698654D02*
X10466068Y-15755797D01*
X10466068Y-15755797D02*
X10456544Y-15774844D01*
X10456544Y-15774844D02*
X10447020Y-15784368D01*
X10447020Y-15784368D02*
X10427973Y-15793892D01*
X10427973Y-15793892D02*
X10399401Y-15793892D01*
X10580353Y-15793892D02*
X10561306Y-15784368D01*
X10561306Y-15784368D02*
X10551782Y-15765320D01*
X10551782Y-15765320D02*
X10551782Y-15593892D01*
X10732734Y-15784368D02*
X10713687Y-15793892D01*
X10713687Y-15793892D02*
X10675592Y-15793892D01*
X10675592Y-15793892D02*
X10656544Y-15784368D01*
X10656544Y-15784368D02*
X10647020Y-15765320D01*
X10647020Y-15765320D02*
X10647020Y-15689130D01*
X10647020Y-15689130D02*
X10656544Y-15670082D01*
X10656544Y-15670082D02*
X10675592Y-15660559D01*
X10675592Y-15660559D02*
X10713687Y-15660559D01*
X10713687Y-15660559D02*
X10732734Y-15670082D01*
X10732734Y-15670082D02*
X10742258Y-15689130D01*
X10742258Y-15689130D02*
X10742258Y-15708178D01*
X10742258Y-15708178D02*
X10647020Y-15727225D01*
X10818449Y-15784368D02*
X10837496Y-15793892D01*
X10837496Y-15793892D02*
X10875592Y-15793892D01*
X10875592Y-15793892D02*
X10894639Y-15784368D01*
X10894639Y-15784368D02*
X10904163Y-15765320D01*
X10904163Y-15765320D02*
X10904163Y-15755797D01*
X10904163Y-15755797D02*
X10894639Y-15736749D01*
X10894639Y-15736749D02*
X10875592Y-15727225D01*
X10875592Y-15727225D02*
X10847020Y-15727225D01*
X10847020Y-15727225D02*
X10827973Y-15717701D01*
X10827973Y-15717701D02*
X10818449Y-15698654D01*
X10818449Y-15698654D02*
X10818449Y-15689130D01*
X10818449Y-15689130D02*
X10827973Y-15670082D01*
X10827973Y-15670082D02*
X10847020Y-15660559D01*
X10847020Y-15660559D02*
X10875592Y-15660559D01*
X10875592Y-15660559D02*
X10894639Y-15670082D01*
X10970830Y-15870082D02*
X10980354Y-15860559D01*
X10980354Y-15860559D02*
X10999401Y-15831987D01*
X10999401Y-15831987D02*
X11008925Y-15812940D01*
X11008925Y-15812940D02*
X11018449Y-15784368D01*
X11018449Y-15784368D02*
X11027973Y-15736749D01*
X11027973Y-15736749D02*
X11027973Y-15698654D01*
X11027973Y-15698654D02*
X11018449Y-15651035D01*
X11018449Y-15651035D02*
X11008925Y-15622463D01*
X11008925Y-15622463D02*
X10999401Y-15603416D01*
X10999401Y-15603416D02*
X10980354Y-15574844D01*
X10980354Y-15574844D02*
X10970830Y-15565320D01*
M02*
